<svg width="565" height="355" viewBox="0 0 565 355" fill="none" xmlns="http://www.w3.org/2000/svg">
<path d="M543.699 167.103H500.43L481.145 179.233V133.93C481.145 127.493 486.337 122.294 492.765 122.294H543.699C550.127 122.294 555.319 127.493 555.319 133.93V155.467C555.319 161.904 550.127 167.103 543.699 167.103Z" fill="white"/>
<path d="M148.843 138.386C148.843 138.386 145.135 132.197 137.47 132.197C129.805 132.197 130.053 134.177 124.86 134.177C119.668 134.177 109.778 132.444 105.575 141.851C101.372 151.259 107.058 156.705 114.229 155.962L113.24 157.448C113.24 157.448 110.52 162.151 110.767 162.151C111.014 162.151 109.284 173.044 116.454 177.005L117.196 178.738L114.229 182.699L113.24 186.412L113.981 189.63L116.454 192.106L118.432 192.849L122.141 193.344L126.591 192.849C126.591 192.849 130.547 191.363 130.794 192.601C131.042 193.839 134.009 200.771 130.794 202.256C127.827 203.741 127.333 219.09 128.816 219.585C130.053 220.08 135.739 221.813 138.706 222.308C141.673 223.051 142.662 223.298 144.887 219.585C147.113 216.119 149.832 212.901 150.821 211.168C151.81 209.683 154.53 199.533 154.53 199.533L152.305 189.878L157.003 189.383L166.645 186.66L170.107 183.441L170.848 180.471L169.859 174.282L168.129 171.311L165.656 168.34L164.173 166.112L163.431 163.637L163.926 159.923L164.173 153.982L163.184 149.031L160.711 145.07L157.744 142.099L154.283 140.861L151.81 141.109L150.08 140.861L148.843 138.386Z" fill="white"/>
<path d="M455.431 145.07V126.255L438.865 119.076L431.695 102.242L439.36 85.1604L426.256 71.5446L409.443 78.9714L392.63 72.5348L385.46 55.2057H366.422L359.499 72.5348L342.686 79.2189L325.378 71.7922L312.274 84.9128L319.692 101.994L312.274 118.581L293.483 126.255V145.07L311.038 152.001L319.444 169.083L312.027 186.66L320.186 194.582L327.851 191.611L330.818 197.8L342.439 192.354L359.746 200.028L366.916 217.605H385.707L392.383 200.028L409.443 192.354L427.245 200.275L440.349 186.165L433.179 168.588L439.854 152.001L455.431 145.07ZM375.817 166.112C359.004 166.112 345.405 152.496 345.405 135.662C345.405 118.828 359.004 105.213 375.817 105.213C392.63 105.213 406.229 118.828 406.229 135.662C406.229 152.496 392.63 166.112 375.817 166.112Z" fill="#1A1A1A"/>
<path d="M491.282 354.257C491.282 354.257 486.831 337.423 486.09 320.094C485.348 302.765 485.348 293.358 485.348 293.358C485.348 293.358 503.891 292.863 508.589 287.911C513.287 282.713 517.737 278.504 517.49 269.097C517.243 259.69 506.858 241.865 502.408 234.686C498.205 227.507 487.573 209.683 479.414 202.503C471.502 195.324 462.107 187.65 453.947 188.393C445.788 189.135 417.107 188.888 417.107 188.888C417.107 188.888 401.284 190.373 390.405 201.266C379.526 212.158 378.784 219.09 378.784 219.09V326.531C378.784 326.531 378.784 351.782 378.784 354.01H491.282V354.257Z" fill="#0CD494"/>
<path d="M96.1795 169.083C96.1795 195.819 74.6689 217.357 47.9661 217.357C21.2633 217.357 0 195.572 0 169.083C0 142.347 21.5106 120.809 48.2134 120.809C74.9162 120.809 96.1795 142.347 96.1795 169.083Z" fill="white"/>
<path d="M284.582 183.194C284.582 183.194 267.77 184.184 254.418 188.393C241.067 192.601 232.908 201.266 232.908 201.266L229.693 192.106C229.693 192.106 225.49 201.018 208.925 202.256C192.359 203.494 188.897 201.266 188.897 201.266C188.897 201.266 193.348 229.735 194.337 235.924C195.326 242.113 198.787 263.155 200.765 268.849C202.743 274.543 210.161 297.319 231.177 293.358C231.177 293.358 246.259 290.882 249.226 275.781L251.204 264.393C251.204 264.393 251.698 281.97 250.215 293.11C248.731 304.498 243.045 342.622 239.336 353.02L238.842 354.257L354.059 354.01C354.059 354.01 346.642 319.351 344.911 310.439C343.18 301.527 341.944 279.99 341.45 275.038C340.955 270.087 342.686 261.423 342.933 258.452C343.18 255.234 343.922 245.331 343.18 239.39C343.18 239.39 349.361 245.331 354.554 251.52C359.746 257.957 365.185 265.384 366.422 270.83C367.658 276.276 366.669 282.465 356.779 289.892C356.779 289.892 362.96 290.139 366.916 301.527C370.872 312.915 372.603 316.381 372.356 321.579C372.108 326.778 371.119 328.759 371.119 328.759C371.119 328.759 381.998 323.808 387.19 320.837C392.383 318.114 401.531 308.706 404.498 303.013C407.465 297.319 410.184 287.416 407.217 273.801C404.251 260.185 399.553 249.045 395.102 241.865C390.652 234.439 381.256 220.575 374.581 215.129C367.905 209.683 362.466 203.246 360.24 201.018C357.768 198.79 348.125 191.116 340.708 188.64C333.29 186.165 325.131 184.184 320.433 183.689C315.983 183.194 308.318 182.946 308.318 182.946H284.582V183.194Z" fill="#0CD494"/>
<path d="M278.401 145.317C278.401 145.317 270.984 143.089 269.006 151.259C269.006 151.259 269.006 156.705 272.962 157.695C276.918 158.686 279.39 157.448 279.39 157.448C279.39 157.448 280.874 167.598 286.066 170.321C286.066 170.321 285.819 179.976 284.582 182.946C283.346 185.917 281.616 193.839 295.214 195.572C295.214 195.572 303.868 195.572 306.093 192.849C308.318 190.126 309.307 188.145 308.813 186.907C308.318 185.422 306.835 178.49 306.588 176.015C306.34 173.539 306.34 170.321 306.34 170.321C306.34 170.321 310.049 168.34 311.038 164.874C312.027 161.409 313.016 157.695 313.016 157.695C313.016 157.695 317.961 159.923 320.433 157.448C323.153 154.972 323.648 152.001 323.153 150.268C322.659 148.288 319.197 145.317 316.972 145.317C314.747 145.07 313.263 145.812 313.263 145.812L313.016 143.832C313.016 143.832 303.373 143.089 297.192 138.881C291.011 134.672 283.841 128.731 283.841 128.731C283.841 128.731 280.379 139.128 278.401 141.109V145.317Z" fill="white"/>
<path d="M426.503 162.399L425.267 180.718L445.294 202.256L451.228 180.966L450.733 177.5C450.733 177.5 458.645 177.748 459.881 168.835C461.118 159.923 459.881 138.633 459.881 138.633L437.382 129.969L421.311 147.545C421.311 147.545 416.86 149.031 415.377 154.477C414.14 159.923 421.063 166.112 426.503 162.399Z" fill="white"/>
<path d="M430.459 152.497L429.222 163.637C429.222 163.637 428.481 173.044 432.437 175.024C436.64 177.005 444.057 177.995 447.519 177.5C450.98 177.252 455.431 177.748 457.656 173.787C459.634 170.073 459.881 165.122 459.881 164.132C459.881 163.142 459.634 161.161 459.634 161.161C459.634 161.161 456.914 160.418 454.689 160.666C452.464 160.914 449.497 160.418 448.755 160.666C448.013 160.666 446.53 160.171 445.046 159.181C443.563 158.19 440.101 157.943 438.618 157.695C437.134 157.448 435.156 157.695 434.415 155.467C433.673 152.992 432.437 146.803 432.437 146.803C432.437 146.803 436.145 143.089 437.134 139.871C438.123 136.653 438.865 132.444 438.865 132.444C438.865 132.444 443.068 137.148 449.497 138.633C455.925 140.366 459.881 138.633 459.881 138.633L460.376 147.05C460.376 147.05 465.321 143.337 465.568 140.614C465.815 137.891 465.815 133.682 462.601 132.939C462.601 132.939 466.062 127.493 463.343 121.799C460.623 116.105 455.431 112.639 451.969 112.639C448.508 112.392 444.057 113.135 440.843 115.363C437.382 117.591 433.673 122.789 433.426 124.027C433.426 124.027 426.008 124.027 423.041 124.77C420.074 125.513 416.86 126.998 415.129 130.959C413.399 134.92 414.635 142.594 415.624 145.317C416.613 148.04 417.107 149.278 417.107 149.278C417.107 149.278 420.322 146.555 424.278 147.793C428.233 148.783 430.459 152.497 430.459 152.497Z" fill="#0CD494"/>
<path d="M433.179 222.061L417.355 188.888L425.267 180.966L445.047 202.256L450.98 181.213L455.678 188.393L455.925 217.357L454.936 216.119L456.42 230.973L457.162 243.103L455.925 242.113L451.969 244.341H444.552L435.404 218.347L433.179 222.061Z" fill="white"/>
<path d="M194.337 194.334L198.788 203.246C198.788 203.246 189.145 202.999 188.403 200.275C187.909 197.305 194.337 194.334 194.337 194.334Z" fill="#1A1A1A"/>
<path d="M224.996 189.63L221.534 198.543C221.534 198.543 228.21 196.314 228.952 192.849C228.952 192.849 229.693 190.373 224.996 189.63Z" fill="#1A1A1A"/>
<path d="M437.876 161.161C437.876 161.161 441.338 162.894 441.338 165.37C441.585 167.598 440.596 169.331 440.596 169.331C440.596 169.331 444.058 170.816 446.777 169.578C449.497 168.34 449.25 165.865 447.766 165.122C446.283 164.627 443.316 165.865 442.574 164.379C441.832 162.894 442.327 160.171 440.349 159.923C438.865 159.676 437.876 161.161 437.876 161.161Z" fill="#1A1A1A"/>
<path d="M361.477 293.358L356.532 291.13C356.532 291.13 356.779 289.892 358.015 290.139C358.757 290.387 361.477 293.358 361.477 293.358Z" fill="#3A3A3A"/>
<path d="M363.207 323.313C363.207 323.313 369.883 322.322 372.108 320.837C372.108 320.837 373.344 329.749 370.13 329.254C366.916 329.006 363.455 324.055 363.207 323.313Z" fill="#1A1A1A"/>
<path d="M418.344 249.045C418.344 249.045 422.052 249.54 422.794 250.777C422.794 250.777 425.019 248.797 428.481 249.045C431.695 249.045 434.415 251.273 434.662 253.006L437.629 251.52C437.629 251.52 433.426 245.084 428.728 245.331C423.783 245.331 422.547 245.331 418.344 249.045Z" fill="#1A1A1A"/>
<path d="M437.876 214.634L443.563 222.061L442.574 237.904L444.305 244.093H451.722L455.184 242.36C456.173 242.608 456.173 231.22 456.173 231.22L450.981 221.318L451.97 211.911L444.552 202.256L437.876 214.634Z" fill="#1A1A1A"/>
<path d="M437.629 161.161C437.629 161.161 437.135 167.845 440.596 168.835C441.091 168.835 441.832 166.112 441.091 164.379C440.596 162.894 437.629 161.161 437.629 161.161Z" fill="white"/>
<path d="M275.434 158.438C275.434 158.438 276.671 161.904 274.198 161.904C271.726 161.904 264.803 162.399 262.083 166.607C259.363 170.816 258.374 173.044 258.622 177.748C258.869 182.204 263.567 185.67 263.567 185.67C263.567 185.67 273.209 183.194 284.335 183.194C284.335 183.194 285.077 182.204 285.324 178.738C285.572 175.024 285.819 170.321 285.819 170.321C285.819 170.321 281.863 167.35 280.627 162.894C279.39 158.438 279.39 157.695 279.39 157.695C279.39 157.695 277.66 158.933 275.434 158.438Z" fill="#1A1A1A"/>
<path d="M316.725 158.438C316.725 158.438 315.983 161.904 318.455 161.904C320.928 161.904 327.851 162.894 330.571 167.103C333.29 171.311 333.785 172.796 333.538 177.5C333.29 181.956 328.84 185.67 328.84 185.67C328.84 185.67 319.692 183.194 308.566 183.194C308.566 183.194 307.824 182.204 307.577 178.738C307.329 175.024 307.082 170.321 307.082 170.321C307.082 170.321 311.038 167.35 312.274 162.894C313.51 158.438 313.51 157.695 313.51 157.695C313.51 157.695 314.747 158.933 316.725 158.438Z" fill="#1A1A1A"/>
<path d="M275.187 145.07L278.896 145.565V140.861C278.896 140.861 283.099 133.187 284.335 128.483C284.335 128.483 293.483 137.148 299.417 139.623C305.351 142.099 311.533 144.08 313.758 143.584L314.005 144.822L316.725 144.575C316.725 144.575 317.714 135.91 317.961 131.454C318.208 127.245 315.983 119.819 310.049 117.838C304.115 115.61 298.428 114.372 291.258 115.115C284.088 115.858 280.627 121.799 280.627 121.799C280.627 121.799 275.434 122.542 274.198 128.978C272.962 135.415 275.187 145.07 275.187 145.07Z" fill="#1A1A1A"/>
<path d="M434.662 253.006C434.662 253.006 432.684 249.045 428.728 249.045C424.772 249.045 423.041 250.035 423.041 250.035C423.041 250.035 418.096 248.55 415.129 249.787C412.162 250.778 410.679 251.273 410.679 251.273C410.679 251.273 403.756 250.282 400.789 253.501C400.789 253.501 403.756 260.432 405.239 265.879C406.723 271.325 407.959 276.524 407.959 276.524C407.959 276.524 410.926 276.029 412.41 274.296C413.893 272.563 415.129 269.097 415.129 269.097C415.129 269.097 416.118 275.286 421.558 274.296C425.514 273.553 426.256 269.345 426.256 268.107C426.256 266.621 426.75 259.195 429.223 256.719C431.448 253.996 434.662 253.006 434.662 253.006Z" fill="white"/>
<path d="M470.266 254.738C470.266 254.738 476.941 248.797 482.628 247.559C488.562 246.321 494.249 246.817 494.249 246.817C494.249 246.817 495.238 243.351 492.024 240.875C488.809 238.152 484.359 237.162 484.359 237.162C484.359 237.162 481.639 232.953 474.469 232.953C467.299 232.953 455.925 242.608 455.925 242.608C455.925 242.608 465.321 248.549 470.266 254.738Z" fill="white"/>
<path d="M221.534 198.79C221.534 198.79 225.243 189.63 226.974 184.927C228.704 180.223 230.93 174.529 228.457 171.311C226.232 168.093 220.792 164.627 216.095 163.142C211.644 161.656 209.172 161.904 208.925 165.617C208.43 169.578 212.881 174.034 218.814 177.5L191.617 188.393C191.617 188.393 197.551 201.761 199.282 203.246C199.282 203.246 216.589 202.256 221.534 198.79Z" fill="white"/>
<path d="M182.964 191.611L234.886 172.054L210.161 106.203L158.486 125.513L182.964 191.611Z" fill="white"/>
<path d="M362.96 294.348C362.96 294.348 356.532 289.644 347.631 287.664C338.73 285.683 330.076 288.407 328.346 289.892C326.615 291.377 323.648 293.853 326.615 297.319C326.615 297.319 321.175 301.527 324.39 306.231C324.39 306.231 321.917 308.954 323.153 310.687C324.39 312.667 327.357 314.153 331.312 314.153C335.516 314.153 343.922 312.42 347.878 313.658C347.878 313.658 348.62 320.342 357.026 322.57C365.433 324.798 371.861 320.589 371.861 320.589C371.861 320.589 369.636 308.459 367.411 303.508C365.68 298.804 362.96 294.348 362.96 294.348Z" fill="white"/>
<path d="M308.813 219.833C308.813 221.318 307.577 222.556 306.093 222.556C304.61 222.556 303.373 221.318 303.373 219.833C303.373 218.347 304.61 217.109 306.093 217.109C307.577 217.109 308.813 218.347 308.813 219.833Z" fill="white"/>
<path d="M306.093 255.234C307.595 255.234 308.813 254.014 308.813 252.511C308.813 251.007 307.595 249.787 306.093 249.787C304.591 249.787 303.373 251.007 303.373 252.511C303.373 254.014 304.591 255.234 306.093 255.234Z" fill="white"/>
<path d="M308.813 285.188C308.813 286.674 307.577 287.911 306.093 287.911C304.61 287.911 303.373 286.674 303.373 285.188C303.373 283.703 304.61 282.465 306.093 282.465C307.577 282.713 308.813 283.703 308.813 285.188Z" fill="white"/>
<path d="M308.813 317.866C308.813 319.351 307.577 320.589 306.093 320.589C304.61 320.589 303.373 319.351 303.373 317.866C303.373 316.381 304.61 315.143 306.093 315.143C307.577 315.391 308.813 316.628 308.813 317.866Z" fill="white"/>
<path d="M324.142 312.42C324.142 312.42 326.615 317.619 336.257 317.123C346.147 316.628 346.147 316.628 346.147 316.628L345.9 313.41C345.9 313.41 343.675 313.162 337.493 313.658C331.56 314.153 325.131 313.905 324.142 312.42Z" fill="#1A1A1A"/>
<path d="M208.925 164.627C208.925 164.627 206.205 173.787 215.353 179.233L219.309 177.748C219.309 177.995 209.419 172.301 208.925 164.627Z" fill="#B5B5B5"/>
<path d="M131.536 198.79C131.536 198.79 103.597 202.256 94.2015 217.357C94.2015 217.357 89.0093 224.041 88.0203 230.23L149.091 235.924L152.799 238.895L182.222 300.537L181.48 305.736L174.063 312.915L172.085 313.41L153.541 311.677L92.2235 306.478C92.2235 306.478 87.5258 305.983 85.5478 304.25C83.5698 302.517 74.6689 281.475 74.6689 281.475C74.6689 281.475 70.2184 282.713 67.2515 282.465C64.2845 282.218 58.1033 281.722 58.1033 281.722C58.1033 281.722 61.3175 292.12 64.2845 297.566C67.2514 303.013 74.9161 315.886 82.3336 319.104C89.751 322.322 94.696 321.827 94.696 321.827C94.696 321.827 93.9542 331.729 93.2125 336.681C92.4708 341.632 90.4928 352.029 89.2565 354.01L201.507 354.257V328.016C201.507 328.016 209.666 321.827 212.139 313.658C214.611 305.488 214.611 294.843 214.611 293.358C214.611 291.872 214.364 290.139 214.364 290.139C214.364 290.139 203.98 281.97 201.013 269.84C198.046 257.709 195.326 243.103 194.584 239.39C194.09 235.676 190.381 214.386 190.381 214.386C190.381 214.386 185.189 204.236 173.074 200.275C160.958 196.314 154.53 198.79 154.53 198.79C154.53 198.79 152.305 203.494 147.607 207.455C142.662 211.416 137.717 218.842 134.503 217.357C131.536 216.119 132.03 207.702 132.03 206.464C132.278 205.227 132.278 201.761 132.278 201.761L131.536 198.79Z" fill="#1A1A1A"/>
<path d="M310.791 66.0983V52.235L298.676 47.0363L293.484 34.6583L299.17 22.0328L289.528 12.1304L276.918 17.3291L264.556 12.6255L259.116 0H245.023L239.831 12.8731L227.468 17.8243L214.611 12.378L205.216 21.7852L210.655 34.1632L205.216 46.5411L191.37 52.235V66.0983L204.227 71.0495L210.408 83.4275L204.969 96.5481L210.903 102.49L216.589 100.509L218.815 104.965L227.468 101.004L240.078 106.698L245.27 119.819H259.116L264.061 106.946L276.671 101.252L289.775 107.193L299.418 96.7957L294.225 83.9226L299.17 71.7922L310.791 66.0983ZM252.193 81.447C239.831 81.447 229.941 71.5446 229.941 59.1667C229.941 46.7887 239.831 36.8863 252.193 36.8863C264.556 36.8863 274.445 46.7887 274.445 59.1667C274.445 71.5446 264.556 81.447 252.193 81.447Z" fill="#0CD494"/>
<path d="M75.6579 182.451C74.669 189.383 68.9823 194.829 60.8231 196.315C59.8341 196.562 59.0923 196.81 57.8561 196.81C57.8561 199.285 57.8561 201.761 57.8561 204.484C55.3836 204.484 53.4056 204.484 50.9331 204.484C50.9331 202.008 50.9331 199.533 50.9331 196.81C40.796 195.572 35.1093 190.373 32.884 181.213C36.5928 180.223 40.0542 179.48 44.0102 178.49C44.2574 179.233 44.5047 179.976 44.7519 180.718C46.7299 186.165 52.9111 188.888 58.5978 186.66C61.3176 185.669 62.5538 183.689 62.801 181.213C63.0483 178.985 61.8121 177.005 59.5868 176.015C56.6198 174.777 53.4056 173.787 50.4386 172.549C48.7079 172.054 47.2244 171.311 45.4937 170.816C37.5817 167.35 34.1203 161.656 35.1093 153.982C36.0983 146.308 40.796 141.604 49.4497 140.119C49.6969 140.119 50.1914 139.871 50.6859 139.871C50.6859 137.891 50.6859 135.91 50.6859 133.93C53.1584 133.93 57.6088 133.93 57.6088 133.93L57.8561 139.871C57.8561 139.871 59.3396 140.119 63.2955 141.356C68.9823 143.337 72.1965 147.298 73.9272 152.744C70.713 153.982 67.4988 155.22 64.2845 156.457C63.0483 154.725 62.0593 152.744 60.8231 151.259C58.5978 148.783 55.6309 148.288 52.6639 149.031C50.1914 149.526 48.7079 151.259 48.2134 153.734C47.7189 156.21 48.7079 158.19 51.1804 159.428C53.6529 160.666 56.3726 161.409 59.0923 162.646C61.3176 163.389 63.5428 164.379 65.768 165.122C73.68 168.34 76.8942 174.034 75.6579 182.451Z" fill="#0CD494"/>
<path d="M321.175 162.151C321.175 162.151 329.335 167.845 327.109 176.015C325.131 183.441 321.175 183.937 321.175 183.937L329.087 185.174C330.324 184.184 333.29 181.213 333.538 177.5C333.785 173.044 333.29 171.311 330.571 167.103C328.593 163.884 324.142 162.646 321.175 162.151Z" fill="#FEFEFE"/>
<path d="M462.107 133.187C462.107 133.187 465.568 127.741 462.848 122.047C460.87 117.591 456.915 114.62 453.948 113.382C453.948 113.382 463.837 126.998 457.162 132.444C453.7 135.415 446.53 139.128 438.618 132.692C438.618 132.692 442.821 137.395 449.25 138.881C455.678 140.614 459.634 138.881 459.634 138.881L460.129 147.298C460.129 147.298 465.074 143.584 465.321 140.861C465.321 137.891 465.321 133.682 462.107 133.187Z" fill="white"/>
<path d="M459.634 161.656C459.634 161.656 458.398 161.409 456.914 161.161C456.914 162.894 458.398 180.471 441.585 177.5C444.057 177.995 446.283 177.748 447.766 177.748C451.228 177.5 455.678 177.995 457.903 174.034C459.881 170.321 460.129 165.37 460.129 164.379C460.129 163.389 459.634 161.656 459.634 161.656Z" fill="white"/>
<path d="M441.338 177.5C440.843 177.5 440.349 177.5 440.102 177.252C440.349 177.252 440.843 177.5 441.338 177.5Z" fill="white"/>
<path d="M313.758 143.584L314.005 144.822L316.725 144.575C316.725 144.575 317.714 135.91 317.961 131.454C318.208 127.246 315.983 119.819 310.049 117.838C308.566 117.343 306.835 116.848 305.351 116.353C309.06 120.809 314.252 128.978 309.555 133.682C302.632 140.614 285.077 128.483 285.077 128.483C287.055 130.711 294.72 137.395 299.665 139.623C305.351 142.099 311.533 144.08 313.758 143.584Z" fill="#FEFEFE"/>
<path d="M442.327 206.464L447.272 214.139L447.766 222.061L456.173 241.37L456.42 231.715L451.228 221.318L452.464 212.158L444.552 202.256L442.327 206.464Z" fill="white"/>
<path d="M116.454 177.005C116.454 177.005 118.679 176.51 120.41 174.529L118.926 172.796C118.432 174.282 117.69 175.767 116.454 177.005Z" fill="#CCCCCC"/>
<path d="M118.679 171.311V172.549C118.926 172.301 118.926 171.806 118.926 171.311H118.679Z" fill="#CCCCCC"/>
<path d="M157.744 261.67L176.041 300.537C176.041 300.537 179.255 306.973 176.535 309.944C173.815 312.915 170.354 312.915 170.354 312.915L88.2675 305.983C88.2675 305.983 85.795 305.488 83.0753 300.537C80.1083 295.586 74.1743 281.227 74.1743 281.227L55.1362 241.865C55.1362 241.865 53.9 234.439 59.834 232.211L143.404 239.39C143.404 239.39 146.618 239.39 149.09 243.846C151.81 248.054 157.744 261.67 157.744 261.67Z" fill="#0CD494"/>
<path d="M55.1364 242.113L59.8341 250.778C59.8341 250.778 61.0703 252.015 66.757 252.015C72.4437 252.015 74.669 251.52 76.1525 253.006C77.6359 254.491 80.1084 257.214 77.3887 262.165C77.3887 262.165 80.1084 263.651 79.8612 266.621C79.6139 269.592 78.1304 270.83 78.1304 270.83C78.1304 270.83 80.8502 272.81 80.3557 275.534C79.6139 278.504 76.1525 280.485 73.68 281.227C71.2075 282.218 59.8341 282.218 57.8561 281.227C55.8781 280.237 52.4166 279.494 50.1914 273.553C47.9662 267.612 47.4717 260.185 47.4717 257.709C47.4717 254.986 48.4607 251.025 49.4497 248.55C50.4387 246.074 55.1364 242.113 55.1364 242.113Z" fill="white"/>
<path d="M112.745 271.325C114.723 274.791 114.476 278.752 112.251 280.237C110.025 281.475 106.317 279.742 104.339 276.276C102.361 272.81 102.608 268.849 104.833 267.364C107.058 266.126 110.767 267.859 112.745 271.325Z" fill="white"/>
<path d="M59.834 231.468L63.7899 228.497L136.481 234.439L149.338 235.676C149.338 235.676 152.552 236.914 154.53 241.37L182.469 300.289C182.469 300.289 183.211 304.25 181.48 305.736L178.019 308.954C178.019 308.954 179.502 308.211 178.019 304.25L148.843 242.361C148.843 242.361 146.865 240.132 144.64 239.39L59.834 231.468Z" fill="white"/>
<path d="M187.661 295.338C183.211 289.397 173.815 279.99 169.859 276.029C174.804 278.999 184.2 288.407 188.156 294.1C187.908 295.338 187.908 295.338 187.661 295.338Z" fill="#1A1A1A"/>
<path d="M190.134 330.739C179.255 330.739 166.151 324.303 152.305 312.42C169.365 325.788 184.694 331.729 196.315 328.511C213.622 323.807 214.611 302.517 213.869 290.139C216.095 302.765 214.858 325.045 196.809 329.996C194.584 330.492 192.359 330.739 190.134 330.739Z" fill="#1A1A1A"/>
<path d="M92.7179 322.075C90.9872 322.075 89.0092 321.827 87.2785 321.579C73.4326 318.609 62.0592 299.052 56.8669 281.227C63.0481 298.556 74.1743 317.371 87.5257 320.342C89.7509 320.837 91.9762 321.084 93.9542 320.837C93.7069 322.075 93.2124 322.075 92.7179 322.075Z" fill="#1A1A1A"/>
<path d="M190.628 215.872C181.974 198.295 162.442 198.543 154.283 199.533C162.442 197.305 182.716 197.057 191.123 215.129C190.875 215.624 190.875 215.872 190.628 215.872Z" fill="#1A1A1A"/>
<path d="M87.773 229.983C87.2785 229.735 87.0312 229.487 87.0312 229.24C93.4597 208.94 108.789 202.999 121.646 200.028C121.893 200.028 128.569 198.542 132.03 198.295C128.816 199.78 122.14 201.266 122.14 201.266C109.778 203.989 94.6959 209.683 88.5147 229.487C88.5147 229.735 88.2675 229.983 87.773 229.983Z" fill="#1A1A1A"/>
<path d="M127.333 191.116C126.838 191.116 126.344 191.116 125.849 191.116C122.882 190.621 120.904 189.135 119.174 185.917C117.937 183.441 116.948 180.471 116.207 176.757C118.185 179.976 119.174 182.699 120.41 185.174C121.893 187.897 123.624 189.383 126.096 189.63C127.58 189.878 129.311 189.63 131.289 189.135C133.267 188.64 136.481 187.65 138.459 186.907C136.728 188.888 133.761 189.878 131.536 190.373C130.547 190.868 129.063 191.116 127.333 191.116Z" fill="#1A1A1A"/>
<path d="M146.865 174.529C146.124 174.529 145.382 174.529 144.64 174.282C146.124 173.291 147.113 173.291 148.349 173.044C149.832 172.549 151.316 171.806 152.057 170.321C152.799 168.835 153.294 167.35 152.799 165.617C152.305 164.132 151.563 162.646 150.079 161.904C148.596 161.161 147.113 160.666 145.382 161.161C144.146 161.409 143.157 162.151 142.415 162.894C142.415 160.914 143.651 160.171 145.135 159.923C147.113 159.428 149.09 159.676 150.821 160.914C152.552 161.904 153.788 163.637 154.035 165.617C154.53 167.598 154.283 169.578 153.046 171.311C152.057 173.044 150.327 174.282 148.349 174.777C147.854 174.529 147.36 174.529 146.865 174.529Z" fill="#1A1A1A"/>
<path d="M148.843 171.064C148.596 171.064 143.404 168.34 143.404 168.34C143.157 167.35 147.607 162.646 147.607 162.646C148.596 163.637 144.887 167.598 144.887 167.598L149.338 169.826C149.338 170.816 149.091 171.064 148.843 171.064Z" fill="#1A1A1A"/>
<path d="M201.507 354.753C201.26 345.098 200.765 328.016 200.765 327.769C202.002 328.016 202.496 345.098 202.002 354.257C202.249 354.505 202.002 354.753 201.507 354.753Z" fill="#1A1A1A"/>
<path d="M169.859 275.038C164.42 257.462 164.915 232.211 164.915 231.963C166.151 232.211 165.904 257.462 170.601 274.296C170.107 275.038 169.859 275.038 169.859 275.038Z" fill="#1A1A1A"/>
<path d="M122.141 176.757C120.657 176.262 118.432 174.282 117.937 172.796C117.69 172.054 117.937 171.559 118.185 171.311C118.926 170.073 120.657 170.568 121.893 170.816C122.388 169.578 122.141 165.865 122.141 163.637C123.377 164.875 123.624 171.064 123.624 171.559C122.882 172.301 122.388 172.301 121.646 172.054C120.904 171.806 119.668 171.559 119.421 172.054C119.668 173.787 121.646 175.272 122.635 175.767C122.635 176.51 122.388 176.757 122.141 176.757Z" fill="#1A1A1A"/>
<path d="M126.838 181.213C127.58 179.976 128.816 179.728 129.558 178.985C130.794 177.748 130.794 175.52 130.794 175.52C132.03 175.52 132.278 178.243 130.547 179.976C129.558 180.718 128.322 181.213 126.838 181.213Z" fill="#1A1A1A"/>
<path d="M51.6747 205.227H44.7518C44.01 204.484 44.01 197.305 44.01 197.305C34.1201 196.067 28.1862 190.868 25.9609 181.461C26.4554 180.718 37.5816 177.995 37.5816 177.995C38.8178 179.48 39.0651 179.976 39.0651 180.471C39.8068 182.946 41.5376 184.679 44.01 185.917C46.4825 187.155 49.4495 187.155 52.1692 186.165C54.3945 185.422 55.6307 183.689 55.878 181.213C56.1252 178.985 55.1362 177.5 53.1582 176.757C50.933 175.767 48.7078 175.024 46.7298 174.282C45.7408 174.034 44.999 173.539 44.01 173.291C43.5155 173.044 42.7738 172.796 42.2793 172.796C41.2903 172.301 40.0541 172.054 39.0651 171.559C30.9059 168.093 27.1972 162.151 28.1862 153.982C29.1752 146.06 34.1201 141.109 43.0211 139.376C43.7628 139.128 43.7628 133.682 43.7628 133.682C44.5045 132.939 51.4275 132.939 51.4275 132.939C52.1692 133.682 52.1692 138.881 52.1692 138.881C52.911 139.128 54.6417 139.376 57.3614 140.366C62.8009 142.347 66.5096 146.06 68.4876 152.249C67.9931 152.992 58.3504 156.705 58.3504 156.705C57.1142 155.962 56.8669 155.22 56.3724 154.725C55.6307 153.487 54.889 152.249 53.9 151.259C51.6747 148.536 48.4605 148.783 46.2353 149.278C44.01 149.773 42.5266 151.259 42.2793 153.487C41.7848 155.962 42.7738 157.448 44.7518 158.438C46.4825 159.181 48.4605 159.923 50.4385 160.666C51.1802 160.914 51.922 161.161 52.6637 161.409C53.4055 161.656 54.1472 161.904 54.889 162.151C56.3724 162.646 57.8559 163.142 59.3394 163.884C67.7459 167.598 71.2073 173.539 69.9711 182.204C68.9821 189.383 63.0481 195.077 54.6417 196.562C54.1472 196.562 53.4055 196.81 52.911 197.057C52.4165 197.057 52.4165 204.236 52.4165 204.236C52.4165 204.979 52.1692 205.227 51.6747 205.227ZM45.2463 203.741H50.933V196.562C53.1582 195.572 53.6527 195.324 54.3945 195.324C62.3064 193.839 67.7459 188.888 68.7348 182.204C69.9711 174.034 66.7569 168.588 58.8449 165.122C57.3614 164.379 55.878 163.884 54.6417 163.389C53.9 163.142 53.1582 162.894 52.4165 162.646C51.6747 162.399 50.933 162.151 50.1912 161.904C48.2133 161.161 46.4825 160.418 44.5045 159.676C41.7848 158.438 40.5486 156.21 41.0431 153.239C41.5376 150.516 43.2683 148.783 45.988 148.04C49.4495 147.05 52.6637 148.04 54.889 150.516C55.878 151.506 56.6197 152.744 57.3614 153.982C57.6087 154.477 57.8559 154.725 58.1032 155.22L66.7569 152.001C64.7789 146.555 61.5647 143.337 56.6197 141.604C52.6637 140.366 51.1802 140.119 51.1802 140.119C50.6857 139.376 50.4385 134.177 50.4385 134.177H44.7518V139.376C34.8619 141.851 30.1642 146.555 29.1752 153.734C28.1862 161.161 31.6476 166.607 39.3123 170.073C40.3013 170.568 41.2903 170.816 42.5266 171.311C43.0211 171.559 43.7628 171.806 44.2573 171.806C45.2463 172.054 45.988 172.549 46.977 172.796C49.2023 173.539 51.4275 174.529 53.4055 175.272C55.878 176.262 57.1142 178.49 57.1142 180.966C56.8669 183.937 55.3835 185.917 52.6637 187.155C49.6967 188.393 46.2353 188.145 43.5156 186.907C40.7958 185.669 38.8178 183.441 38.0761 180.718C37.8288 180.223 37.8288 179.728 37.5816 179.233C37.5816 178.985 27.6917 181.461 27.6917 181.461C29.9169 190.126 35.6036 194.829 44.999 195.819C45.2463 196.81 45.2463 203.741 45.2463 203.741Z" fill="#1A1A1A"/>
<path d="M48.2134 212.406C26.95 212.406 8.65368 196.562 5.43945 175.52C9.88992 195.819 27.6918 211.168 48.2134 211.168C71.4547 211.168 90.2455 192.354 90.2455 169.083C90.2455 145.812 71.4547 126.998 48.2134 126.998C35.1092 126.998 22.9941 132.939 14.8349 143.337C22.0051 131.702 34.6147 125.513 48.2134 125.513C72.1964 125.513 91.4818 145.07 91.4818 168.835C91.4818 193.096 71.9492 212.406 48.2134 212.406Z" fill="#1A1A1A"/>
<path d="M221.287 199.533C220.792 199.285 220.545 199.038 220.545 198.79C220.545 198.295 223.512 189.135 226.726 183.441C229.941 177.748 229.199 172.796 226.974 170.816C224.007 168.34 214.364 161.409 210.902 162.894C210.161 163.142 209.666 163.884 209.666 164.875C208.924 172.054 221.534 178.243 221.534 178.49C220.298 179.481 207.441 172.796 208.183 164.875C208.43 162.894 209.419 162.151 210.161 161.656C215.353 159.676 227.468 169.826 227.715 169.826C230.93 172.549 230.682 178.49 227.715 183.937C224.748 189.383 221.781 198.79 221.781 199.038C221.781 199.285 221.534 199.533 221.287 199.533Z" fill="#1A1A1A"/>
<path d="M199.035 203.741C195.326 198.295 191.123 188.888 190.875 188.393C192.112 187.897 196.315 197.552 199.529 202.751C199.282 203.741 199.282 203.741 199.035 203.741Z" fill="#1A1A1A"/>
<path d="M209.914 191.859C208.183 187.155 204.969 183.689 204.969 183.689C205.958 182.946 209.172 186.412 210.408 191.116C210.161 191.859 209.914 191.859 209.914 191.859Z" fill="#1A1A1A"/>
<path d="M370.378 329.749C415.129 311.677 411.421 283.455 402.025 258.204C391.888 231.468 377.301 217.852 366.669 208.197C364.938 206.464 363.207 204.979 361.477 203.494C348.62 191.116 328.84 183.689 308.071 183.689C329.087 182.451 349.361 189.878 362.466 202.503C363.949 203.989 365.68 205.474 367.411 207.207C378.29 217.109 392.877 230.725 403.262 257.709C412.657 283.703 416.366 312.42 370.378 329.749Z" fill="#1A1A1A"/>
<path d="M232.908 202.008C249.968 185.669 270.737 182.699 285.077 182.699C270.984 183.937 250.71 187.155 233.402 202.008C233.155 201.761 232.908 202.008 232.908 202.008Z" fill="#1A1A1A"/>
<path d="M378.784 219.833C378.289 219.585 378.042 219.337 378.042 219.09C384.471 198.79 405.24 188.64 417.602 188.393C405.981 190.125 385.707 199.78 379.278 219.585C379.526 219.585 379.031 219.833 378.784 219.833Z" fill="#1A1A1A"/>
<path d="M564.715 355H0C0 353.762 564.715 353.762 564.715 353.762C565.209 354.752 564.962 355 564.715 355Z" fill="#1A1A1A"/>
<path d="M408.207 250.53C407.712 250.53 407.465 250.282 407.465 249.787C408.701 239.637 406.476 227.012 406.476 226.764C407.712 226.764 409.937 239.637 408.701 249.787C408.701 250.282 408.454 250.53 408.207 250.53Z" fill="#1A1A1A"/>
<path d="M500.43 100.509C499.688 97.5383 499.441 95.0627 499.194 92.5871C500.924 95.0627 500.924 97.5383 501.172 100.014C500.43 100.509 500.43 100.509 500.43 100.509ZM498.452 85.6555C497.216 82.6848 496.474 80.4567 495.732 77.9811C497.71 79.9616 498.452 82.4372 499.194 84.9128C498.699 85.6555 498.699 85.6555 498.452 85.6555ZM493.507 71.5446C491.776 68.8214 490.787 66.5934 489.551 64.6129C492.024 66.0983 493.013 68.3263 494.249 70.5544C493.754 71.5446 493.754 71.5446 493.507 71.5446ZM486.09 58.6715C484.112 56.4435 482.628 54.463 480.897 52.4825C483.617 53.4728 485.101 55.4532 486.584 57.4337C486.337 58.6715 486.09 58.6715 486.09 58.6715ZM476.2 47.2838C473.974 45.3033 472.244 43.818 470.266 42.085C472.985 42.5802 474.963 44.3131 476.694 46.046C476.694 47.2838 476.447 47.2838 476.2 47.2838ZM464.826 37.8765C462.354 36.3912 460.376 34.9058 458.151 33.668C461.118 33.9156 463.096 35.4009 465.074 36.6387C465.074 37.629 465.074 37.8765 464.826 37.8765ZM317.466 36.6387C317.219 35.4009 319.197 33.668 323.4 31.1924C320.186 34.6583 317.961 36.3912 317.961 36.3912C317.714 36.6387 317.466 36.6387 317.466 36.6387ZM451.969 29.9546C449.497 28.7168 447.272 27.7266 445.046 26.4888C448.013 26.4888 450.239 27.479 452.217 28.7168C452.464 29.7071 452.217 29.9546 451.969 29.9546ZM330.076 28.7168C332.054 26.2413 334.279 25.251 336.505 24.0132C334.774 26.2412 332.549 27.479 330.323 28.4693C330.323 28.7168 330.323 28.7168 330.076 28.7168ZM438.618 23.5181C436.393 22.7754 434.662 22.0327 432.684 21.2901C432.19 21.0425 431.942 21.0425 431.448 20.7949C432.19 19.8047 432.684 19.8047 433.179 20.0523C435.156 20.7949 437.134 21.5376 438.865 22.2803C439.112 23.2705 438.865 23.5181 438.618 23.5181ZM343.675 22.5279C345.653 20.2998 348.125 19.5571 350.598 18.8145C348.62 20.7949 346.147 21.5376 343.675 22.5279C343.922 22.5279 343.922 22.5279 343.675 22.5279ZM424.525 18.5669C422.052 17.8242 419.58 17.3291 417.107 16.5864C419.827 15.8438 422.3 16.5864 424.772 17.3291C425.019 18.3194 424.772 18.5669 424.525 18.5669ZM358.015 17.8242C360.24 15.8438 362.713 15.3486 365.185 14.8535C362.96 16.5864 360.488 17.0816 358.015 17.8242ZM409.937 15.1011C407.465 14.606 404.992 14.3584 402.52 14.1108C405.239 13.1206 407.712 13.3682 410.184 13.8633C410.432 15.1011 410.184 15.1011 409.937 15.1011ZM372.603 14.8535C375.075 13.1206 377.548 12.873 380.02 12.6255C377.548 14.1108 375.075 14.3584 372.603 14.8535ZM395.102 13.6157C392.63 13.6157 390.157 13.3682 387.685 13.6157C390.157 12.3779 392.63 12.3779 395.102 12.3779C395.597 13.3682 395.35 13.6157 395.102 13.6157Z" fill="#1A1A1A"/>
<path d="M54.3946 119.076C53.6529 116.353 53.9001 113.877 54.1474 110.907C55.1364 114.372 54.8891 116.6 54.8891 117.838C54.3946 119.076 54.3946 119.076 54.3946 119.076ZM56.1254 104.223C55.6309 104.223 55.3836 103.727 55.3836 103.48C55.8781 101.004 56.6199 98.5286 57.3616 96.053C57.8561 98.7762 57.1144 101.252 56.6199 103.727C56.6199 103.975 56.3726 104.223 56.1254 104.223ZM60.5758 89.8641C60.8231 86.6458 62.0593 84.4178 63.0483 82.1897C63.0483 84.9129 62.0593 87.3885 61.0703 89.6165C61.0703 89.8641 60.8231 89.8641 60.5758 89.8641ZM67.2515 76.4959C67.9933 73.2776 69.4768 71.2971 70.9603 69.3166C70.4658 72.0398 69.2295 74.2678 67.746 76.2483C67.746 76.4959 67.4988 76.4959 67.2515 76.4959ZM76.1525 64.613C77.3887 61.6423 79.1195 59.9094 80.8502 58.1765C80.1084 60.8996 78.3777 62.6325 76.647 64.613C76.647 64.613 76.3997 64.613 76.1525 64.613ZM87.0314 54.2155C88.5149 51.4924 90.4929 50.007 92.4709 48.5217C91.2346 50.9973 89.2566 52.4826 87.5259 54.2155C87.2786 53.968 87.0314 54.2155 87.0314 54.2155ZM98.8993 45.3034C100.63 42.8278 102.855 41.59 105.081 40.3522C103.597 42.8278 101.372 44.0656 99.3938 45.3034C99.1466 45.3034 99.1465 45.3034 98.8993 45.3034ZM190.628 38.8669C190.134 38.6193 187.909 37.1339 183.953 34.9059C188.65 35.8961 190.876 37.6291 191.123 37.6291C191.123 38.8669 190.876 38.8669 190.628 38.8669ZM112.003 37.8766C113.981 35.6486 116.207 34.4108 118.679 33.6681C116.948 35.8961 114.723 36.8864 112.498 37.8766C112.251 37.8766 112.003 37.8766 112.003 37.8766ZM125.849 32.1828C128.075 30.2023 130.547 29.4596 133.02 28.9645C130.794 30.945 128.569 31.4401 125.849 32.1828ZM177.277 32.1828C174.804 31.4401 172.332 30.6974 169.859 29.9547C172.579 29.212 175.052 29.9547 177.277 30.945C177.771 31.9352 177.524 32.1828 177.277 32.1828ZM140.437 28.9645C142.909 27.2316 145.382 26.984 147.854 26.984C148.349 26.984 148.596 27.2316 148.596 27.4791C145.382 28.2218 142.909 28.4694 140.437 28.9645ZM162.689 28.7169C160.217 28.4694 157.744 28.2218 155.272 27.9742C157.744 26.7365 160.464 26.984 162.937 27.2316C163.431 28.4694 163.184 28.7169 162.689 28.7169Z" fill="#1A1A1A"/>
<path d="M287.302 145.565C287.797 145.565 288.291 145.812 288.291 147.545C288.539 149.526 287.797 150.021 287.55 150.021C287.055 150.021 286.561 149.278 286.561 147.793C286.561 146.308 286.808 145.565 287.302 145.565Z" fill="#1A1A1A"/>
<path d="M305.104 145.565C305.599 145.565 305.846 145.812 306.093 147.545C306.093 149.526 305.599 150.021 305.104 150.021C304.61 150.021 304.115 149.278 304.362 147.793C304.362 146.555 304.61 145.812 305.104 145.565Z" fill="#1A1A1A"/>
<path d="M440.349 147.793C440.843 147.793 441.338 148.04 441.338 149.773C441.585 151.754 440.843 152.249 440.596 152.249C440.101 152.249 439.607 151.506 439.607 150.021C439.607 148.536 439.607 148.04 440.349 147.793Z" fill="#1A1A1A"/>
<path d="M455.678 148.04C456.173 148.04 456.42 148.288 456.667 150.021C456.667 152.001 456.173 152.496 455.678 152.496C455.184 152.496 454.689 151.754 454.936 150.268C454.936 148.783 454.936 148.04 455.678 148.04Z" fill="#1A1A1A"/>
<path d="M275.929 159.181C271.478 158.933 268.264 155.467 268.511 151.259C268.759 149.278 269.5 147.545 270.984 146.06C272.467 144.822 274.445 144.08 276.423 144.327C277.165 144.327 277.907 144.575 278.649 144.822C277.66 145.812 276.918 145.565 276.176 145.565C274.445 145.565 272.962 146.06 271.726 147.05C270.489 148.04 269.748 149.526 269.748 151.259C269.5 154.725 272.22 157.448 275.434 157.695C276.423 157.695 277.66 157.448 278.649 156.953C278.401 158.933 277.165 159.181 275.929 159.181Z" fill="#1A1A1A"/>
<path d="M274.445 155.715C273.951 154.477 277.907 151.506 277.907 151.506L273.456 148.288C274.445 147.298 279.39 151.011 279.39 151.011C279.39 152.001 274.94 155.467 274.94 155.467C274.693 155.715 274.693 155.715 274.445 155.715Z" fill="#1A1A1A"/>
<path d="M316.972 159.181C315.736 159.181 314.499 158.933 313.51 158.438C314.994 157.695 316.23 157.943 317.219 157.943C318.95 157.943 320.433 157.2 321.422 155.962C322.411 154.725 323.153 153.239 322.906 151.506C322.906 149.773 322.164 148.288 320.928 147.298C319.692 146.308 318.208 145.565 316.477 145.812C315.736 145.812 314.994 146.06 314.499 146.308C314.747 144.822 315.488 144.575 316.477 144.575C318.455 144.327 320.433 145.07 321.917 146.308C323.4 147.545 324.389 149.526 324.389 151.506C324.637 153.487 323.895 155.467 322.659 156.953C321.422 158.438 319.444 159.428 317.466 159.428C317.466 159.181 317.219 159.181 316.972 159.181Z" fill="#1A1A1A"/>
<path d="M318.703 155.715C318.208 155.467 313.758 152.001 313.758 152.001C313.758 151.011 318.703 147.298 318.703 147.298C319.444 148.288 314.994 151.506 314.994 151.506L318.95 154.477C318.95 155.715 318.703 155.715 318.703 155.715Z" fill="#1A1A1A"/>
<path d="M425.514 181.956C424.772 181.213 425.761 162.646 425.761 162.646C426.997 162.646 426.008 181.461 426.008 181.461C426.008 181.709 425.761 181.956 425.514 181.956Z" fill="#1A1A1A"/>
<path d="M449.002 178.49C448.508 178.49 447.766 178.49 447.272 178.49C446.777 178.49 446.283 178.49 445.788 178.49C442.574 178.49 439.854 178.243 437.382 177.748C434.909 177.252 432.437 176.51 430.706 174.282C429.223 171.806 428.728 168.835 428.728 166.36C428.728 164.627 428.728 163.142 428.728 161.656C429.223 158.438 429.717 153.734 429.717 152.744C429.223 151.754 428.481 150.764 427.492 149.773C424.525 147.298 419.827 147.793 417.355 150.764C416.118 152.249 415.624 154.229 415.871 155.962C416.118 157.943 416.86 159.676 418.344 160.914C420.816 163.142 424.525 163.142 427.245 161.161C424.772 164.627 420.569 164.627 417.355 161.904C415.624 160.418 414.635 158.438 414.388 156.21C414.14 153.982 414.882 151.754 416.366 150.021C419.333 146.308 424.772 145.812 428.234 148.783C429.47 149.773 430.212 151.011 430.706 152.249C430.706 152.496 430.212 157.943 429.717 161.656C429.47 162.894 429.47 164.379 429.717 166.112C429.717 168.34 430.212 171.311 431.448 173.291C432.684 175.272 435.156 175.767 437.382 176.262C439.854 176.757 442.327 177.005 445.541 177.005C446.035 177.005 446.53 177.005 447.024 177.005C450.733 177.005 454.689 177.252 456.914 173.787C458.892 170.568 458.892 166.36 459.14 162.399C459.14 161.409 459.14 160.666 459.14 159.676C459.14 156.953 458.892 138.881 458.892 138.633C460.129 139.376 460.623 156.953 460.623 159.676C460.623 160.418 460.623 161.409 460.623 162.151C460.623 166.112 460.623 170.816 458.398 174.282C455.925 177.995 452.464 178.49 449.002 178.49Z" fill="#1A1A1A"/>
<path d="M459.387 145.565C458.645 145.07 457.656 142.842 454.195 143.832C458.398 141.356 460.129 144.575 460.129 144.575C459.634 145.565 459.634 145.565 459.387 145.565Z" fill="#1A1A1A"/>
<path d="M437.135 146.06C440.349 140.119 444.552 142.842 444.552 142.842C443.81 143.832 440.596 142.099 437.629 145.812C437.382 145.812 437.382 146.06 437.135 146.06Z" fill="#1A1A1A"/>
<path d="M450.733 181.709C449.991 180.966 449.991 177.748 449.991 177.748C451.228 177.748 451.228 181.213 451.228 181.213C451.228 181.461 450.98 181.709 450.733 181.709Z" fill="#1A1A1A"/>
<path d="M417.602 150.021C416.86 149.773 414.635 148.288 413.399 137.148C412.657 130.711 416.366 126.008 420.322 124.77C425.267 123.284 430.953 123.532 432.684 123.78C436.64 116.353 441.585 113.63 445.047 112.639C449.25 111.402 453.453 111.897 457.162 114.125C461.118 116.353 463.343 119.324 464.332 122.789C465.321 126.998 464.085 130.711 463.096 132.444C463.837 132.692 464.579 133.434 465.321 134.425C467.052 137.643 466.557 144.327 460.376 147.793C465.321 143.584 465.568 137.89 464.332 134.92C464.085 134.425 463.343 133.187 462.601 133.682C461.859 132.692 464.579 127.988 463.343 122.789C462.601 119.571 460.376 116.848 456.914 114.867C453.453 112.887 449.497 112.392 445.788 113.382C442.327 114.372 437.629 117.095 433.92 124.275C433.179 124.522 426.256 123.78 421.063 125.513C418.344 126.503 414.388 129.969 415.13 136.653C416.366 147.05 418.344 148.536 418.344 148.536C418.096 149.773 417.849 150.021 417.602 150.021Z" fill="#1A1A1A"/>
<path d="M448.755 161.656C450.239 160.418 452.711 160.171 453.206 159.428C453.206 158.685 452.958 157.695 452.464 156.705C451.475 153.982 449.991 150.021 450.98 146.307C451.475 150.021 452.711 153.734 453.7 156.457C454.195 157.695 454.442 158.685 454.689 159.428C454.689 159.923 454.442 160.418 454.195 160.666C452.958 161.409 449.25 161.656 448.755 161.656Z" fill="#1A1A1A"/>
<path d="M444.305 171.063C442.821 171.063 441.09 170.568 439.854 169.578C438.123 168.34 436.887 165.865 436.887 163.389C436.887 161.656 437.382 160.418 438.123 159.676C438.865 159.181 439.854 158.933 440.596 159.181C441.585 159.676 442.327 160.666 442.574 162.151C442.821 163.884 443.068 163.884 443.316 164.379C443.563 164.627 443.81 164.874 445.541 164.627C447.024 164.379 448.261 164.874 449.002 165.865C449.497 166.607 449.744 167.35 449.25 168.34C448.755 169.331 447.519 170.321 446.035 170.816C445.788 170.816 445.046 171.063 444.305 171.063ZM439.854 160.418C438.618 161.161 438.123 161.904 438.123 163.389C438.123 165.37 439.112 167.35 440.596 168.34C442.821 170.073 445.046 169.578 446.035 169.331C447.272 168.835 448.261 168.093 448.508 167.598C448.755 167.102 448.755 166.607 448.261 166.36C447.766 165.865 447.024 165.617 446.035 165.617C444.057 165.865 443.563 165.617 442.821 165.122C442.079 164.627 441.832 164.132 441.585 162.151C441.338 161.161 440.843 160.418 440.349 160.171C440.101 160.418 440.101 160.418 439.854 160.418Z" fill="#1A1A1A"/>
<path d="M441.091 170.073C442.821 164.875 437.876 161.904 437.629 161.656C440.596 161.656 444.058 165.37 441.585 169.578C441.585 170.073 441.338 170.073 441.091 170.073Z" fill="#1A1A1A"/>
<path d="M420.569 160.171C420.322 158.933 425.514 156.21 425.514 156.21L420.569 151.259C421.558 150.268 426.997 155.962 426.997 155.962C426.75 156.953 420.816 159.923 420.816 159.923C420.816 160.171 420.816 160.171 420.569 160.171Z" fill="#1A1A1A"/>
<path d="M436.145 128.978C435.651 128.731 432.437 124.77 432.437 124.77C433.426 124.027 436.64 127.988 436.64 127.988C436.393 128.978 436.393 128.978 436.145 128.978Z" fill="#1A1A1A"/>
<path d="M481.392 179.976C480.65 179.233 480.65 156.953 480.65 156.953C480.65 155.715 480.65 133.93 480.65 133.93C480.65 127.245 486.09 121.799 492.765 121.799H543.698C550.374 121.799 555.814 127.245 555.814 133.93V155.715C555.814 162.399 550.374 167.845 543.698 167.845C549.632 166.607 554.577 161.656 554.577 155.715V133.682C554.577 127.741 549.632 122.789 543.698 122.789H492.765C486.831 122.789 481.886 127.741 481.886 133.682V155.467C481.886 155.962 481.886 156.21 481.886 156.705C481.886 156.953 481.886 177.995 481.886 177.995L499.688 166.607C499.936 166.607 528.864 166.607 528.864 166.607C528.864 167.845 500.43 167.845 500.43 167.845L481.639 179.976C481.639 179.728 481.392 179.976 481.392 179.976Z" fill="#1A1A1A"/>
<path d="M540.731 139.128H528.864C528.864 137.891 540.731 137.891 540.731 137.891C541.473 138.881 541.226 139.128 540.731 139.128Z" fill="#1A1A1A"/>
<path d="M514.77 139.128H495.485C495.485 137.891 514.77 137.891 514.77 137.891C515.265 138.881 515.018 139.128 514.77 139.128Z" fill="#1A1A1A"/>
<path d="M540.732 151.506H495.485C495.485 150.269 540.732 150.269 540.732 150.269C541.473 151.011 541.226 151.506 540.732 151.506Z" fill="#1A1A1A"/>
<path d="M226.726 294.348C203.732 294.348 198.293 263.403 196.562 253.006C193.842 237.904 187.908 200.275 187.908 199.78C189.145 200.028 195.079 237.657 197.798 252.758C199.529 263.155 204.969 294.595 228.704 292.863C239.336 292.12 250.462 283.703 250.215 262.908C251.698 284.693 239.831 293.358 228.704 294.348C228.21 294.348 227.468 294.348 226.726 294.348Z" fill="#1A1A1A"/>
<path d="M244.281 253.996C242.798 244.341 241.067 235.924 239.831 230.478C234.886 208.94 228.457 191.858 228.21 191.858C229.446 191.611 235.875 208.445 241.067 230.23C242.303 235.676 244.034 244.341 244.776 253.501C244.281 253.996 244.281 253.996 244.281 253.996Z" fill="#1A1A1A"/>
<path d="M296.45 173.787C293.236 173.787 288.539 173.044 284.83 170.321C281.863 168.093 280.132 164.379 279.143 159.181C278.401 155.715 278.401 144.822 278.401 141.109C279.638 145.07 279.885 155.715 280.379 158.933C281.368 163.884 283.099 167.35 285.819 169.331C289.28 172.054 293.731 172.549 296.698 172.549C297.192 173.539 296.945 173.787 296.45 173.787Z" fill="#1A1A1A"/>
<path d="M296.45 173.787C299.417 172.549 303.868 171.806 307.329 169.083C310.049 167.102 311.78 163.637 312.769 158.685C313.511 155.22 313.511 146.555 313.511 143.584C314.747 146.555 314.747 155.467 314.252 158.933C313.263 164.132 311.285 167.845 308.566 170.073C304.362 173.044 299.665 173.787 296.45 173.787Z" fill="#1A1A1A"/>
<path d="M313.016 144.327C300.654 144.327 288.044 132.692 284.83 129.474C284.088 132.197 281.863 138.881 279.39 141.356C281.121 137.395 283.841 127.988 283.841 127.988C285.077 127.988 299.665 142.842 313.016 142.842C313.758 144.327 313.511 144.327 313.016 144.327Z" fill="#1A1A1A"/>
<path d="M296.698 196.562C291.505 196.562 286.56 194.334 284.335 191.116C283.099 189.383 282.852 187.65 283.593 185.917C285.324 181.956 285.571 170.568 285.571 170.568C286.808 171.063 286.56 182.451 284.83 186.412C284.335 187.65 284.582 188.888 285.571 190.373C287.302 192.849 291.258 195.324 296.698 195.324C301.89 195.324 305.846 193.839 307.824 191.116C308.813 189.63 309.06 187.898 308.318 186.412C306.588 182.204 306.093 171.063 306.093 170.568C307.329 170.568 307.824 181.956 309.307 185.917C310.049 187.898 309.802 189.878 308.566 191.858C307.577 193.591 304.362 196.562 296.698 196.562Z" fill="#1A1A1A"/>
<path d="M275.434 145.565C274.693 144.575 270.737 131.702 274.693 125.017C275.929 123.037 277.412 121.799 279.638 121.304C280.379 120.314 284.088 115.61 290.269 114.62C299.17 113.135 313.263 115.363 316.725 125.017C318.208 129.474 318.208 134.425 316.725 144.327C316.972 134.425 316.972 129.721 315.489 125.513C312.274 116.353 298.923 114.372 290.269 115.858C283.841 117.096 280.379 122.294 280.132 122.294C277.66 123.037 276.423 124.027 275.434 125.76C271.726 131.949 275.682 144.575 275.682 144.822C275.682 145.565 275.682 145.565 275.434 145.565Z" fill="#1A1A1A"/>
<path d="M354.306 355C352.081 351.534 348.125 332.72 345.406 314.4C349.856 333.71 353.565 351.287 355.048 354.01C354.554 355 354.306 355 354.306 355Z" fill="#1A1A1A"/>
<path d="M342.439 287.911C340.708 275.286 340.708 267.116 341.944 261.67C346.147 242.608 339.472 223.794 339.224 223.546C340.461 223.298 347.384 242.608 343.18 261.918C341.944 267.116 341.944 275.286 343.18 287.169C342.439 287.911 342.439 287.911 342.439 287.911Z" fill="#1A1A1A"/>
<path d="M239.089 355C241.809 347.326 254.418 281.227 250.215 262.165C246.012 242.856 252.688 223.546 252.935 223.298C254.171 224.041 247.495 242.856 251.451 261.918C255.654 280.98 242.798 348.068 239.583 354.752C239.583 354.752 239.336 355 239.089 355Z" fill="#1A1A1A"/>
<path d="M199.035 203.741C193.101 203.741 188.403 202.504 187.909 199.78C187.414 197.552 189.639 195.572 194.09 193.591C190.876 196.562 188.898 198.295 189.145 199.533C189.639 202.008 198.046 203.494 209.666 201.266C215.106 200.276 220.051 198.79 223.512 197.057C226.727 195.324 228.457 193.591 228.457 192.354C228.21 191.611 227.716 190.621 224.749 190.126C227.963 189.383 229.446 190.373 229.694 192.106C229.941 194.087 228.21 196.067 224.254 198.047C220.545 199.78 215.6 201.513 210.161 202.504C206.452 203.494 202.496 203.741 199.035 203.741Z" fill="#1A1A1A"/>
<path d="M369.883 329.996C367.658 329.996 364.938 327.026 362.713 324.055C366.422 327.273 368.894 329.006 370.13 328.759C372.603 328.016 372.603 319.351 368.647 308.211C364.938 297.071 359.499 290.387 357.026 291.13C360.735 288.407 366.422 298.061 369.883 307.716C373.345 317.371 374.581 328.511 370.378 329.996C370.378 329.996 370.13 329.996 369.883 329.996Z" fill="#1A1A1A"/>
<path d="M182.963 192.106C182.469 191.611 157.744 125.76 157.744 125.76C158.239 125.017 210.161 105.46 210.161 105.46C210.902 105.955 235.627 171.806 235.627 171.806C235.133 172.549 229.941 174.529 229.941 174.529C229.446 173.291 234.144 171.559 234.144 171.559L210.161 106.698L159.475 125.513L183.211 190.621L219.062 177.252C219.556 178.49 183.211 192.106 182.963 192.106Z" fill="#1A1A1A"/>
<path d="M282.852 143.584C283.346 139.376 287.797 138.633 290.516 139.128C288.044 139.871 284.335 140.614 283.594 143.089C283.346 143.337 283.099 143.584 282.852 143.584Z" fill="#1A1A1A"/>
<path d="M297.439 164.627C295.956 164.627 294.72 164.132 294.72 164.132C295.214 162.894 298.181 163.884 300.406 162.399C301.395 161.656 302.137 160.418 302.137 158.438C303.373 160.666 302.384 162.399 301.148 163.389C299.912 164.627 298.676 164.627 297.439 164.627Z" fill="#1A1A1A"/>
<path d="M263.567 185.917C258.622 182.699 256.644 176.757 258.374 171.559C259.363 168.34 261.836 165.37 265.05 163.389C267.522 161.904 270.489 161.161 273.209 161.161C274.693 161.161 274.693 161.161 274.693 160.914C274.94 160.418 274.693 159.923 274.693 159.428C275.929 159.923 276.176 160.666 275.929 161.161C275.434 162.646 274.445 162.399 273.704 162.399C270.489 162.399 267.77 163.142 265.545 164.627C262.825 166.36 260.6 169.083 259.611 172.054C258.127 176.757 259.858 181.956 263.814 184.679C264.061 185.917 263.814 185.917 263.567 185.917Z" fill="#1A1A1A"/>
<path d="M328.593 185.917C332.301 181.956 334.032 176.757 332.549 172.054C331.56 169.083 329.335 166.36 326.615 164.627C324.39 163.142 321.67 162.399 318.95 162.399C317.714 162.399 316.478 162.646 316.23 161.161C315.983 160.418 315.983 159.923 316.23 159.181C317.467 159.923 317.467 160.418 317.467 160.666C317.467 160.914 317.467 161.161 318.456 160.914C322.164 160.914 324.884 161.656 327.356 163.142C330.323 165.122 332.796 168.093 334.032 171.311C335.763 176.51 333.785 182.451 329.334 185.422C328.84 185.917 328.593 185.917 328.593 185.917Z" fill="#1A1A1A"/>
<path d="M407.712 276.771C412.904 274.791 414.14 269.592 414.14 269.097C415.624 269.592 415.129 271.325 413.893 273.058C412.904 274.543 411.173 276.276 407.712 276.771C407.959 276.771 407.959 276.771 407.712 276.771Z" fill="#1A1A1A"/>
<path d="M403.509 261.67C403.014 261.67 402.767 261.175 402.767 260.927C403.509 257.957 404.992 253.748 410.432 250.778C417.107 247.064 422.794 249.292 423.041 249.54C422.547 250.778 417.107 248.55 410.926 252.015C405.981 254.739 404.498 258.452 404.003 261.423C404.003 261.423 403.756 261.67 403.509 261.67Z" fill="#1A1A1A"/>
<path d="M400.542 254.243C404.003 248.302 410.679 250.53 410.926 250.53C410.432 251.768 404.498 249.787 401.036 253.996C401.036 254.243 400.789 254.243 400.542 254.243Z" fill="#1A1A1A"/>
<path d="M324.389 306.974C322.906 305.488 322.164 303.26 322.906 301.032C323.4 299.299 325.378 296.824 330.323 295.338C339.719 292.615 351.34 295.586 351.834 295.833C351.34 297.071 339.472 294.1 330.571 296.576C326.862 297.566 324.637 299.299 323.895 301.527C323.4 303.26 323.895 304.993 324.637 305.983C324.637 306.974 324.389 306.974 324.389 306.974Z" fill="#1A1A1A"/>
<path d="M326.368 298.061C324.637 296.329 324.142 294.596 324.884 293.11C325.873 290.14 329.829 287.911 334.774 287.416C338.235 286.921 342.191 286.674 346.147 287.169C350.351 287.911 354.307 289.149 358.757 291.377C360.488 292.12 361.477 292.615 362.466 293.358C360.735 293.853 359.746 293.358 358.757 292.863C353.812 290.387 349.856 289.149 345.9 288.407C342.191 287.664 338.235 288.159 334.774 288.654C330.324 289.149 326.862 291.13 325.873 293.605C325.379 294.843 325.626 296.081 326.615 297.071C326.862 298.061 326.615 298.061 326.368 298.061Z" fill="#1A1A1A"/>
<path d="M361.971 323.808C359.993 323.808 358.263 323.56 356.779 323.065C349.856 320.837 347.878 315.886 347.384 314.4C345.406 313.658 343.18 313.905 340.955 314.153C340.213 314.153 339.719 314.4 338.977 314.4C335.763 314.648 332.301 314.895 329.087 314.648C326.862 314.4 324.637 314.153 323.153 312.172C321.917 310.439 322.164 307.964 323.895 305.736C325.379 304.003 327.356 303.26 329.334 302.517C337.246 299.794 345.9 300.042 353.565 303.26C345.653 301.527 337.494 301.28 329.829 303.755C327.851 304.498 326.12 304.993 324.884 306.478C323.895 307.716 323.153 309.697 324.39 311.182C325.378 312.667 327.356 312.915 329.334 313.162C332.549 313.41 335.763 313.41 338.977 312.915C339.472 312.915 340.213 312.667 340.955 312.667C343.428 312.42 345.9 311.925 348.373 312.915C348.867 313.658 350.351 319.104 357.521 321.332C361.724 322.817 367.163 322.075 372.356 319.599C369.141 323.065 365.433 323.808 361.971 323.808Z" fill="#1A1A1A"/>
<path d="M356.284 291.13C362.218 285.436 365.433 280.98 366.174 276.029C367.163 267.116 359.251 257.709 348.867 246.074C346.889 243.846 344.664 241.37 342.686 238.895C345.9 240.628 347.878 243.103 349.856 245.331C360.24 257.462 368.647 266.869 367.411 276.276C366.916 281.475 363.207 286.426 356.779 291.13C356.779 291.13 356.532 291.13 356.284 291.13Z" fill="#1A1A1A"/>
<path d="M199.035 203.741C193.101 203.741 188.403 202.504 187.909 199.78C187.414 197.552 189.639 195.572 194.09 193.591C190.876 196.562 188.898 198.295 189.145 199.533C189.639 202.008 198.046 203.494 209.666 201.266C215.106 200.276 220.051 198.79 223.512 197.057C226.727 195.324 228.457 193.591 228.457 192.354C228.21 191.611 227.716 190.621 224.749 190.126C227.963 189.383 229.446 190.373 229.694 192.106C229.941 194.087 228.21 196.067 224.254 198.047C220.545 199.78 215.6 201.513 210.161 202.504C206.452 203.494 202.496 203.741 199.035 203.741Z" fill="#1A1A1A"/>
<path d="M437.629 252.51C434.415 247.559 430.953 245.579 426.008 245.826C422.794 246.074 420.569 247.064 418.344 249.787C419.58 246.074 422.3 244.836 425.761 244.589C430.953 244.341 434.909 246.569 437.876 251.52C437.876 252.263 437.876 252.51 437.629 252.51Z" fill="#1A1A1A"/>
<path d="M403.509 310.439C402.52 310.439 401.284 310.439 400.295 310.439C425.019 310.687 457.162 292.615 477.189 276.771C476.942 275.038 475.211 266.374 471.502 259.195C466.31 249.54 457.656 244.341 455.925 243.351L430.459 256.224C429.964 254.986 455.678 241.865 455.678 241.865C456.667 242.113 466.804 247.312 472.738 258.452C477.189 266.869 478.672 276.771 478.672 276.771C458.892 292.863 428.234 310.439 403.509 310.439Z" fill="#1A1A1A"/>
<path d="M479.661 293.853C467.793 293.853 457.162 292.367 456.173 292.367C456.667 291.13 498.699 296.576 509.331 286.178C522.682 272.81 515.759 259.937 507.6 244.836L507.106 243.846C498.699 228.25 478.919 191.858 455.184 188.145C479.908 190.621 499.935 227.507 508.342 243.103L508.836 244.093C516.996 258.947 524.413 272.81 510.567 286.921C504.633 292.615 491.529 293.853 479.661 293.853Z" fill="#1A1A1A"/>
<path d="M292 158.438C291.258 157.943 289.28 156.21 289.28 154.229C289.28 153.487 289.528 152.744 290.022 152.249C290.517 151.754 291.258 151.259 292 151.259C292.742 151.259 293.731 151.754 294.225 152.001C294.72 148.536 294.967 143.337 294.225 142.347C296.698 143.584 295.709 151.754 295.461 153.487C293.978 153.487 292.989 152.744 292 152.744C291.506 152.744 291.258 152.992 290.764 153.239C290.517 155.22 291.753 156.705 292.247 157.2C292.247 158.438 292.247 158.438 292 158.438Z" fill="#1A1A1A"/>
<path d="M282.605 126.008C282.11 125.76 279.885 122.789 279.885 122.789C280.874 122.047 283.099 125.017 283.099 125.017C282.852 126.008 282.605 126.008 282.605 126.008Z" fill="#1A1A1A"/>
<path d="M445.788 160.418C443.81 158.933 440.349 158.438 437.876 158.19C436.887 158.19 435.898 157.943 435.404 157.943C433.179 157.448 432.684 151.259 432.437 149.278L431.942 147.298C437.876 140.614 438.371 132.444 438.371 132.197C439.854 132.197 446.53 141.109 459.634 138.138C448.755 142.099 441.832 136.405 439.36 133.93C439.113 136.653 437.629 142.594 433.179 147.545L433.673 149.278C433.92 153.239 434.909 156.457 435.651 156.705C436.146 156.953 436.887 156.953 437.876 156.953C440.596 157.2 444.305 157.695 446.036 159.428C446.036 160.418 445.788 160.418 445.788 160.418Z" fill="#1A1A1A"/>
<path d="M459.881 162.151C457.656 160.914 454.936 161.409 454.936 161.409C454.689 160.171 457.903 159.428 460.376 160.914C460.376 162.151 460.129 162.151 459.881 162.151Z" fill="#1A1A1A"/>
<path d="M491.282 354.753C484.112 334.7 484.606 293.605 484.606 293.11C485.842 293.605 485.595 334.453 492.024 353.762C491.282 354.752 491.282 354.753 491.282 354.753Z" fill="#1A1A1A"/>
<path d="M379.031 354.752C377.548 343.117 378.289 325.54 378.289 325.293C379.526 325.54 378.784 343.117 379.526 354.01C379.031 354.752 379.031 354.752 379.031 354.752Z" fill="#1A1A1A"/>
<path d="M433.179 223.051C432.684 222.556 417.107 189.135 417.107 189.135C417.107 188.393 424.525 180.471 424.525 180.471C425.514 180.471 444.552 201.018 444.552 201.018L449.744 180.966C450.98 180.718 456.173 188.64 456.173 188.64C456.173 188.888 456.173 217.605 456.173 217.605C454.936 218.1 444.799 203.741 444.799 203.741L433.426 223.051C433.426 223.051 433.426 223.051 433.179 223.051ZM418.591 188.888L433.179 220.823L444.305 202.256L425.267 181.708L418.591 188.888ZM445.788 202.256L455.184 215.377V189.135L450.98 182.699L445.788 202.256Z" fill="#1A1A1A"/>
<path d="M444.552 244.836C439.854 230.973 434.909 218.842 434.909 218.595C436.146 218.347 441.091 230.478 445.294 243.846C444.799 244.836 444.552 244.836 444.552 244.836Z" fill="#1A1A1A"/>
<path d="M456.914 242.113C455.925 225.031 454.442 216.367 454.442 216.367C455.678 216.119 457.409 225.031 457.656 241.618C456.914 242.113 456.914 242.113 456.914 242.113Z" fill="#1A1A1A"/>
<path d="M172.579 137.148C172.332 135.91 207.441 122.789 207.441 122.789C207.936 124.027 172.826 137.148 172.579 137.148C172.826 137.148 172.826 137.148 172.579 137.148Z" fill="#1A1A1A"/>
<path d="M177.771 152.249C177.524 150.764 212.633 137.891 212.633 137.891C213.128 139.128 178.019 152.001 177.771 152.249C178.019 152.249 178.019 152.249 177.771 152.249Z" fill="#1A1A1A"/>
<path d="M182.963 167.35C182.716 166.112 217.825 152.992 217.825 152.992C218.32 154.229 183.211 167.103 182.963 167.35C183.211 167.35 183.211 167.103 182.963 167.35Z" fill="#1A1A1A"/>
<path d="M426.256 245.826C426.256 244.589 440.102 243.846 452.217 243.598C440.102 245.084 426.256 245.826 426.256 245.826Z" fill="#1A1A1A"/>
<path d="M507.6 266.374C504.139 256.224 499.936 250.53 493.26 247.559H492.024C480.65 245.579 470.266 255.481 470.266 255.729C469.771 254.491 480.156 244.341 492.271 246.322L493.507 246.569C500.43 249.787 504.88 255.729 508.095 265.879C507.6 266.374 507.6 266.374 507.6 266.374Z" fill="#1A1A1A"/>
<path d="M494.249 247.559C493.754 247.312 493.507 247.064 493.507 246.817C493.507 246.569 494.743 242.113 487.82 239.142C480.65 235.924 471.749 241.865 471.749 241.865C471.502 240.628 480.65 234.686 488.315 237.904C496.474 241.37 494.743 247.064 494.743 247.064C494.991 247.312 494.743 247.559 494.249 247.559Z" fill="#1A1A1A"/>
<path d="M456.173 243.103C455.925 241.865 459.881 236.914 469.524 233.448C479.414 229.983 485.101 237.162 485.101 237.162C483.865 237.657 478.92 231.468 470.019 234.686C460.87 238.152 456.667 242.856 456.667 242.856C456.667 242.856 456.42 243.103 456.173 243.103Z" fill="#1A1A1A"/>
<path d="M296.45 334.948C295.709 334.205 295.709 203.246 295.709 203.246C296.945 203.246 296.945 334.453 296.945 334.453C297.192 334.7 296.698 334.948 296.45 334.948Z" fill="#1A1A1A"/>
<path d="M306.093 223.051C304.362 223.051 302.879 221.566 302.879 219.833C302.879 218.1 304.362 216.614 306.093 216.614C307.824 216.614 309.307 218.1 309.307 219.833C309.307 221.566 308.071 223.051 306.093 223.051ZM306.093 217.852C305.104 217.852 304.115 218.595 304.115 219.833C304.115 220.823 304.857 221.813 306.093 221.813C307.082 221.813 308.071 221.07 308.071 219.833C308.071 218.842 307.329 217.852 306.093 217.852Z" fill="#1A1A1A"/>
<path d="M306.093 255.729C304.362 255.729 302.879 254.243 302.879 252.511C302.879 250.778 304.362 249.292 306.093 249.292C307.824 249.292 309.307 250.778 309.307 252.511C309.307 254.243 308.071 255.729 306.093 255.729ZM306.093 250.778C305.104 250.778 304.115 251.52 304.115 252.758C304.115 253.748 304.857 254.739 306.093 254.739C307.082 254.739 308.071 253.996 308.071 252.758C308.071 251.52 307.329 250.778 306.093 250.778Z" fill="#1A1A1A"/>
<path d="M306.093 288.407C304.362 288.407 302.879 286.921 302.879 285.188C302.879 283.455 304.362 281.97 306.093 281.97C307.824 281.97 309.307 283.455 309.307 285.188C309.307 286.921 308.071 288.407 306.093 288.407ZM306.093 283.455C305.104 283.455 304.115 284.198 304.115 285.436C304.115 286.426 304.857 287.416 306.093 287.416C307.082 287.416 308.071 286.674 308.071 285.436C308.071 284.198 307.329 283.455 306.093 283.455Z" fill="#1A1A1A"/>
<path d="M306.093 288.407C304.362 288.407 302.879 286.921 302.879 285.188C302.879 283.455 304.362 281.97 306.093 281.97C307.824 281.97 309.307 283.455 309.307 285.188C309.307 286.921 308.071 288.407 306.093 288.407ZM306.093 283.455C305.104 283.455 304.115 284.198 304.115 285.436C304.115 286.426 304.857 287.416 306.093 287.416C307.082 287.416 308.071 286.674 308.071 285.436C308.071 284.198 307.329 283.455 306.093 283.455Z" fill="#1A1A1A"/>
<path d="M306.093 321.084C304.362 321.084 302.879 319.599 302.879 317.866C302.879 316.133 304.362 314.648 306.093 314.648C307.824 314.648 309.307 316.133 309.307 317.866C309.307 319.847 308.071 321.084 306.093 321.084ZM306.093 316.133C305.104 316.133 304.115 316.876 304.115 318.114C304.115 319.351 304.857 320.094 306.093 320.094C307.082 320.094 308.071 319.351 308.071 318.114C308.071 316.876 307.329 316.133 306.093 316.133Z" fill="#1A1A1A"/>
<path d="M443.81 223.051C443.316 222.803 437.382 214.634 437.382 214.634C438.371 213.891 444.058 221.813 444.058 221.813L450.486 221.318L451.228 212.158C452.464 212.158 451.722 221.813 451.722 221.813C451.475 222.308 444.058 223.051 443.81 223.051Z" fill="#1A1A1A"/>
<path d="M442.574 239.142C442.08 239.142 441.832 238.895 441.832 238.4L443.069 222.556C444.305 222.556 443.069 238.647 443.069 238.647C443.316 238.895 443.069 239.142 442.574 239.142Z" fill="#1A1A1A"/>
<path d="M456.667 232.953C456.173 232.706 450.733 222.061 450.733 222.061C451.969 221.566 457.162 232.211 457.162 232.211C456.667 232.953 456.667 232.953 456.667 232.953Z" fill="#1A1A1A"/>
<path d="M117.196 177.252C115.712 177.252 113.981 176.262 112.745 174.529C111.509 172.796 110.52 170.073 110.273 167.35C110.025 164.627 110.273 161.904 111.014 159.676C112.003 157.448 113.487 156.21 114.97 155.962C118.432 155.467 121.646 159.923 122.388 165.865C122.635 168.093 122.635 169.578 122.141 171.063C121.152 169.331 121.152 168.093 120.904 165.865C120.41 160.914 117.69 156.705 114.97 157.2C113.734 157.448 112.745 158.438 112.003 160.171C111.262 162.151 111.014 164.627 111.262 167.103C111.509 169.578 112.498 172.054 113.487 173.787C114.723 175.272 115.959 176.262 117.196 176.015C118.185 176.015 118.679 175.52 119.421 174.529C119.668 176.51 118.679 177.005 117.443 177.252C117.443 177.252 117.443 177.252 117.196 177.252Z" fill="#1A1A1A"/>
<path d="M132.772 174.529C129.558 174.529 126.591 170.321 125.849 164.627C125.602 161.904 125.849 159.181 126.591 156.953C127.58 154.725 129.064 153.487 130.547 153.239C132.278 152.992 134.008 153.982 135.492 155.962C136.728 157.695 137.717 160.418 137.964 163.142C138.706 169.083 136.481 174.034 133.019 174.529H132.772ZM131.042 154.477C129.558 154.725 128.569 155.715 127.827 157.448C127.086 159.428 126.838 161.904 127.086 164.379C127.58 169.331 130.3 173.539 133.019 173.044C135.739 172.796 137.47 168.093 136.728 163.142C136.481 160.666 135.492 158.19 134.503 156.457C133.514 155.22 132.278 154.477 131.042 154.477Z" fill="#1A1A1A"/>
<path d="M121.893 166.855C121.893 164.874 123.871 163.142 126.838 164.874C123.624 164.627 122.635 166.36 122.388 166.607C122.388 166.855 122.141 166.855 121.893 166.855Z" fill="#1A1A1A"/>
<path d="M171.096 313.905C170.354 313.905 89.5039 306.726 89.5039 306.726C86.7841 306.478 84.3117 304.745 83.3227 302.27L73.9272 282.218C75.1635 281.722 84.5589 301.775 84.5589 301.775C85.5479 303.755 87.5259 305.241 89.7511 305.488L170.601 312.667C172.826 312.915 175.052 311.925 176.288 309.944C177.524 307.964 177.771 305.736 176.782 303.508L163.926 276.524C165.162 276.029 177.771 303.013 177.771 303.013C179.008 305.488 178.76 308.459 177.03 310.687C175.793 312.667 173.568 313.905 171.096 313.905Z" fill="#1A1A1A"/>
<path d="M157.744 262.413C157.25 261.918 148.349 243.598 148.349 243.598C147.36 241.618 145.382 240.132 143.157 239.885L62.3065 232.706C60.0813 232.458 57.8561 233.448 56.6198 235.429C55.3836 237.409 55.1364 239.637 56.1253 241.865L60.3286 250.778C59.0923 251.273 54.8891 242.36 54.8891 242.36C53.6529 239.885 53.9001 236.914 55.6308 234.686C57.1143 232.458 59.8341 231.22 62.5538 231.468L143.404 238.647C146.124 238.895 148.596 240.628 149.585 243.103L158.239 261.67C157.992 262.413 157.992 262.413 157.744 262.413Z" fill="#1A1A1A"/>
<path d="M175.793 311.925C175.299 310.687 180.986 305.241 180.986 305.241C181.975 303.508 181.975 301.28 181.233 299.299L152.799 239.637C151.81 237.657 149.832 236.172 147.607 235.924L66.7571 228.745C65.7681 228.745 65.0264 228.745 64.0374 228.992L58.3507 233.696C57.6089 232.706 63.2956 228.002 63.2956 228.002C64.5319 227.507 65.5209 227.507 66.7571 227.507L147.607 234.686C150.327 234.934 152.799 236.667 153.788 239.142L181.975 299.052C182.964 301.28 182.964 304.003 181.727 306.231C181.727 306.478 176.041 311.925 176.041 311.925H175.793Z" fill="#1A1A1A"/>
<path d="M152.305 190.868C148.102 190.868 144.887 189.878 143.157 187.65C141.673 185.917 140.931 183.689 141.179 181.708C141.673 177.5 145.629 174.282 145.876 174.034C146.618 175.024 142.909 177.995 142.415 181.708C142.168 183.441 142.909 185.174 144.146 186.66C146.124 189.135 150.327 189.878 156.755 189.135C161.948 188.393 168.129 187.155 169.859 183.194C170.107 182.451 170.354 181.461 170.354 180.223C170.107 176.51 168.623 172.796 166.398 170.073C163.925 167.102 161.948 165.122 163.184 161.409C164.667 156.21 163.431 149.278 160.217 145.07C158.981 143.337 156.755 141.356 153.788 141.356H150.327C149.832 141.109 148.349 138.881 148.349 138.881C143.157 131.206 136.728 132.692 130.052 133.93C127.086 134.672 123.871 135.167 120.657 134.92C115.712 134.672 111.262 135.91 108.542 138.633C106.317 140.861 105.08 144.327 105.328 148.288C105.328 149.773 105.822 152.249 108.295 153.982C110.52 155.467 115.218 156.457 123.871 152.992C132.525 149.526 137.964 147.793 138.953 148.288C139.201 148.783 140.684 158.685 142.909 161.409C139.695 159.428 138.459 151.506 138.212 149.278C137.223 149.526 134.256 150.021 124.613 153.982C115.218 157.695 110.273 156.457 107.8 154.972C105.575 153.487 104.339 151.259 104.091 148.288C103.844 143.832 105.08 140.119 107.8 137.643C111.756 133.682 117.69 133.434 120.904 133.682C123.871 133.93 127.086 133.187 130.052 132.692C136.728 131.206 143.898 129.969 149.585 138.138L150.821 140.119H153.788C156.508 140.119 159.228 141.604 161.206 144.327C164.667 148.783 165.903 155.962 164.42 161.656C163.678 164.874 164.914 166.36 166.892 168.588C169.859 172.054 171.59 176.015 171.59 180.223C171.59 181.213 171.59 182.699 171.096 183.937C169.118 188.64 162.442 189.878 157.003 190.868C155.272 190.621 153.788 190.868 152.305 190.868Z" fill="#1A1A1A"/>
<path d="M89.2566 354.752C94.4488 341.137 94.2016 306.726 94.2016 306.231C95.4378 307.716 95.9323 341.384 89.9983 354.257C89.7511 354.752 89.5038 354.752 89.2566 354.752Z" fill="#1A1A1A"/>
<path d="M122.388 194.334C118.679 194.334 114.97 193.344 113.487 190.126C110.52 184.432 116.207 179.233 116.454 178.985C117.196 180.223 112.251 184.679 114.723 189.383C117.196 194.334 126.097 193.096 129.805 191.611C128.322 193.591 125.355 194.334 122.388 194.334Z" fill="#1A1A1A"/>
<path d="M66.5097 282.713C59.834 282.713 54.3945 280.98 52.1693 278.257C50.4385 276.029 49.2023 273.306 48.4605 269.84C47.2243 264.393 46.7298 258.7 47.4716 253.253C48.2133 247.064 55.1362 241.865 55.6307 241.618C56.3725 242.608 49.4495 247.807 48.955 253.253C48.2133 258.452 48.7078 264.146 49.944 269.345C50.6858 272.81 51.922 275.286 53.4055 277.266C55.3835 279.99 62.0592 281.97 72.1964 280.98C75.1633 280.732 80.6028 278.257 80.1083 274.296C79.861 273.058 79.3666 272.068 78.1303 271.573C80.1083 271.077 81.0973 272.563 81.3445 274.048C81.839 278.752 76.1523 281.723 72.1964 281.97C69.9711 282.713 68.2404 282.713 66.5097 282.713Z" fill="#1A1A1A"/>
<path d="M71.4546 263.403C67.0041 263.403 57.3614 262.413 56.1252 261.918C57.6087 261.175 69.9711 262.413 72.9381 262.165C74.6688 261.918 76.3995 261.67 77.1413 260.68C78.1303 259.195 78.3775 257.709 77.6358 256.224C77.1413 254.986 76.1523 253.996 74.9161 253.253C73.6798 252.51 72.4436 252.758 71.2073 252.758C70.9601 252.758 70.4656 252.758 70.2183 252.758C56.8669 253.006 54.3945 250.035 54.1472 249.787C55.3835 249.045 57.6087 251.768 70.2183 251.52C72.6908 251.273 74.1743 251.273 75.6578 252.015C77.3885 253.006 78.6248 254.243 79.1193 255.729C79.861 257.462 79.6138 259.69 78.3775 261.423C77.3885 262.908 75.1633 263.156 73.6798 263.403C72.6908 263.403 72.1963 263.403 71.4546 263.403Z" fill="#1A1A1A"/>
<path d="M101.125 231.963C100.383 231.22 100.383 228.745 100.383 228.745C101.619 228.745 101.619 231.22 101.619 231.22C101.866 231.468 101.619 231.963 101.125 231.963Z" fill="#1A1A1A"/>
<path d="M68.9823 273.305C62.5539 273.305 55.8782 272.315 55.8782 272.315C56.1254 271.077 66.5098 272.563 73.9273 271.82C76.647 271.573 79.3667 269.84 79.1195 266.621C78.8722 265.136 77.8833 263.403 76.3998 262.165C79.1195 262.413 80.3557 264.393 80.603 266.374C80.8502 270.582 77.636 272.81 74.1745 273.058C72.4438 273.305 70.7131 273.305 68.9823 273.305Z" fill="#1A1A1A"/>
<path d="M113.24 279.742C112.498 279.742 111.509 279.494 110.52 278.999C108.789 278.257 107.553 276.771 106.317 274.791C104.091 270.83 104.339 266.621 107.058 265.136C109.778 263.651 113.734 265.631 115.959 269.345C118.185 273.306 117.937 277.514 115.218 279.247C114.723 279.494 113.981 279.742 113.24 279.742ZM109.284 265.879C108.789 265.879 108.295 265.879 107.8 266.374C105.822 267.612 105.575 271.077 107.553 274.296C108.542 276.029 109.778 277.266 111.262 277.762C112.498 278.504 113.734 278.504 114.723 278.009C116.701 276.771 116.948 273.305 114.97 270.087C113.487 267.612 111.262 265.879 109.284 265.879Z" fill="#1A1A1A"/>
<path d="M135.245 217.852C130.3 216.367 131.536 203.989 132.031 201.266L129.558 190.621C130.794 190.373 133.267 201.018 133.267 201.018C132.525 207.207 132.525 215.624 134.75 216.614C138.212 217.852 148.102 206.96 153.541 199.78L151.316 190.373C152.552 190.126 154.777 199.78 154.777 199.78C153.294 202.008 141.179 217.852 135.245 217.852Z" fill="#1A1A1A"/>
<path d="M143.651 144.822C143.404 143.584 147.854 141.356 147.854 141.356C148.349 142.594 143.898 144.822 143.898 144.822C143.898 144.822 143.898 144.822 143.651 144.822Z" fill="#1A1A1A"/>
<path d="M428.234 124.522C426.256 121.057 425.761 119.571 424.772 117.096L424.031 115.115C423.536 114.125 423.536 112.64 424.031 111.649C425.02 109.421 426.256 106.946 427.245 104.718C428.481 102.242 429.717 99.7664 430.706 97.2909C430.953 96.7957 430.706 95.5579 430.459 95.3104C428.481 93.0824 426.256 90.8543 424.031 88.8738C422.3 87.1409 420.816 85.6556 419.333 83.9227C418.591 83.18 418.097 82.9324 417.108 83.6751C411.915 86.3982 407.465 88.3787 403.262 90.3592C402.273 90.8543 400.789 90.8543 399.553 90.6068C395.103 88.8738 390.652 87.1409 386.202 85.408C385.213 84.9129 383.729 83.9227 383.235 82.6849C381.751 78.7239 380.02 74.5154 378.29 69.0691C377.795 67.8313 377.548 67.3362 376.064 67.3362C371.119 67.3362 366.174 67.3362 360.735 67.3362C359.499 67.3362 359.004 67.5837 358.51 69.0691C357.768 71.2971 357.026 73.5252 356.037 75.5056C355.296 77.7337 354.307 80.2093 353.565 82.4373C353.07 84.1702 352.081 84.9129 350.351 85.6556C345.9 87.1409 341.697 88.8738 337.988 90.6068C336.257 91.3494 335.021 91.3494 333.538 90.6068C331.312 89.369 328.84 88.3787 326.615 87.1409C324.39 86.1507 322.164 84.9129 319.939 83.9227C318.95 83.4275 318.208 83.4275 317.467 84.4178C313.511 88.6263 310.049 92.0921 306.588 95.3104C305.599 96.3006 305.599 96.7957 306.34 98.0335C308.318 101.994 310.544 106.698 312.769 111.649C313.263 112.64 313.263 114.372 312.769 115.61C312.027 117.096 312.027 117.591 311.533 118.581C310.791 116.848 311.038 116.6 311.285 115.61C312.027 114.125 312.027 112.887 311.533 112.144C309.307 107.193 307.082 102.49 305.104 98.5287C304.362 97.0433 304.115 95.8055 305.599 94.3201C309.06 91.1019 312.522 87.636 316.478 83.4275C317.714 82.1897 318.95 81.9422 320.434 82.6849C322.659 83.6751 324.884 84.9129 327.109 85.9031C329.335 87.1409 331.807 88.1312 334.032 89.369C335.268 90.1116 336.01 90.1116 337.494 89.369C341.45 87.636 345.653 85.9031 350.103 84.4178C351.587 83.9227 352.081 83.4275 352.576 82.1897C353.318 79.9617 354.307 77.4861 355.048 75.2581C355.79 73.03 356.532 70.802 357.274 68.8215C358.015 67.0886 359.004 66.3459 360.735 66.3459C366.174 66.3459 371.119 66.3459 376.064 66.3459C378.29 66.3459 379.031 67.3362 379.526 68.8215C381.504 74.2678 382.987 78.4764 384.471 82.4373C384.718 83.18 385.707 83.9227 386.696 84.4178C390.899 86.1507 395.597 87.8836 400.047 89.6165C400.789 89.8641 402.025 89.8641 402.767 89.369C406.97 87.3885 411.421 85.408 416.613 82.6849C418.097 81.9422 419.333 82.1897 420.322 83.4275C421.805 85.1605 423.536 86.6458 425.02 88.3787C426.997 90.6068 429.223 92.5872 431.448 94.8153C432.19 95.5579 432.437 97.2909 431.942 98.2811C430.706 100.757 429.717 103.232 428.481 105.708C427.492 107.936 426.256 110.412 425.267 112.64C425.02 113.135 425.02 114.372 425.267 115.115L426.009 117.096C426.998 119.571 427.492 121.057 428.728 124.275C428.481 124.522 428.481 124.522 428.234 124.522Z" fill="#1A1A1A"/>
<path d="M368.647 176.757C360.488 176.757 352.823 173.539 346.889 167.845C341.202 162.151 337.988 154.229 337.988 146.06C337.988 137.891 341.202 130.216 346.889 124.275C352.576 118.581 360.488 115.363 368.894 115.363C385.707 115.363 399.306 129.226 399.306 146.06C399.306 162.894 385.46 176.757 368.647 176.757ZM368.894 116.6C360.982 116.6 353.317 119.571 347.878 125.265C342.439 130.711 339.224 138.138 339.224 146.06C339.224 153.982 342.191 161.409 347.878 166.855C353.317 172.301 360.735 175.52 368.647 175.52C384.965 175.52 398.069 162.399 398.069 146.06C398.069 129.721 384.965 116.6 368.894 116.6Z" fill="#1A1A1A"/>
<path d="M368.647 182.946C358.263 182.946 348.373 178.49 341.45 171.063C349.114 177.5 358.757 181.709 368.647 181.709C370.625 181.709 372.356 181.461 374.334 181.213C372.603 182.946 370.625 182.946 368.647 182.946Z" fill="#1A1A1A"/>
<path d="M392.135 174.529C395.35 170.321 398.317 166.607 400.542 162.399C399.553 167.35 396.339 171.311 392.63 174.529C392.383 174.282 392.135 174.529 392.135 174.529Z" fill="#1A1A1A"/>
<path d="M387.685 115.61C381.751 112.144 375.323 110.164 368.894 110.164C363.949 110.164 359.251 111.154 354.801 112.887C359.004 109.669 363.702 108.926 368.894 108.926C375.817 108.926 382.246 110.907 388.18 114.372C388.18 115.61 387.932 115.61 387.685 115.61Z" fill="#1A1A1A"/>
<path d="M251.451 126.255C247.743 126.255 244.034 126.255 239.831 126.255C238.347 126.255 237.605 125.76 237.111 124.275C235.627 120.066 234.391 116.6 233.402 113.382C233.155 112.887 232.661 112.392 232.166 112.144C230.683 111.402 229.199 110.907 227.963 110.164C226.232 109.421 224.254 108.679 222.523 107.688C221.534 107.193 221.04 107.193 220.051 107.688C218.32 108.431 216.837 109.174 215.353 109.916C214.364 110.411 213.375 110.907 212.386 111.402C212.881 109.669 213.87 109.421 214.611 108.926C216.095 108.183 217.578 107.441 219.309 106.698C220.545 106.203 221.534 106.203 222.771 106.698C224.501 107.441 226.232 108.431 228.21 109.174C229.694 109.916 231.177 110.411 232.413 111.154C233.155 111.649 234.144 112.392 234.391 113.135C235.627 116.353 236.864 119.819 238.1 124.027C238.347 124.77 238.594 125.017 239.583 125.017C243.787 125.017 247.495 125.017 250.957 125.017C251.946 125.017 252.193 124.77 252.44 124.027C253.677 120.066 254.913 116.6 256.149 113.135C256.644 112.144 257.385 111.402 258.374 110.907C261.589 109.421 264.803 107.936 268.264 106.698C269.006 106.45 270.242 106.203 270.984 106.698C273.951 107.936 276.671 109.421 279.638 110.659L282.357 111.897L284.088 109.916C286.561 107.441 288.786 104.965 291.258 102.737C291.506 102.49 291.506 101.747 291.258 101.499C290.517 99.7664 289.528 97.7859 288.786 96.053C288.044 94.3201 287.302 92.8347 286.561 91.1018C286.066 90.3591 286.066 89.1213 286.313 88.3786C287.55 84.6653 288.786 81.447 290.022 78.2287C290.517 77.2385 291.258 76.4958 292.247 76.0007C295.956 74.5153 299.665 73.2775 302.384 72.2873C303.126 72.0397 303.373 71.7922 303.373 70.8019C303.373 66.5934 303.373 62.88 303.373 59.4142C303.373 58.424 303.126 58.1764 302.137 57.9289C299.417 56.9386 295.709 55.7008 292.247 54.2155C291.258 53.9679 290.517 52.9777 290.022 51.9874C288.786 49.2643 287.55 46.046 286.313 42.3326C286.066 41.5899 286.066 40.5997 286.313 39.6095C287.055 37.8766 287.797 36.1436 288.786 34.4107C289.775 32.6778 290.517 30.6973 291.258 28.9644C291.506 28.7169 291.258 27.9742 291.011 27.7266C289.528 25.9937 287.797 24.5084 286.313 23.023C285.077 21.7852 283.841 20.5474 282.852 19.3096C282.357 18.8145 282.11 18.8145 281.368 19.0621C277.66 21.0425 274.198 22.5279 270.984 24.0132C270.242 24.5084 269.006 24.5084 268.264 24.2608C265.05 23.023 261.589 21.7852 258.374 20.2998C257.633 20.0523 256.644 19.0621 256.149 18.3194C254.913 15.3487 253.924 12.1304 252.44 8.16944C252.193 7.17921 251.946 6.93165 250.957 6.93165C247.248 6.93165 243.539 6.93165 239.583 6.93165C238.594 6.93165 238.347 7.17921 238.1 8.16944C237.605 9.90236 236.864 11.3877 236.369 12.8731C235.627 14.606 235.133 16.3389 234.638 18.0718C234.144 19.3096 233.402 20.0523 232.166 20.5474C228.952 21.7852 225.738 23.023 223.018 24.2608C221.782 24.7559 220.793 24.7559 219.556 24.2608C217.826 23.2706 216.095 22.5279 214.364 21.7852C212.633 21.0425 211.15 20.2998 209.419 19.3096C208.677 18.8145 208.43 19.0621 207.688 19.5572C204.721 22.2803 202.249 24.7559 199.777 27.2315C199.035 27.9742 199.035 28.2217 199.529 28.9644C201.013 31.9351 202.743 35.401 204.227 39.1144C204.474 39.857 204.474 41.0948 204.227 42.0851C202.743 45.3033 201.26 48.5216 199.777 51.7399C199.282 52.4826 198.54 53.4728 197.551 53.9679C193.843 55.4533 190.134 56.6911 186.672 57.6813C185.683 58.1764 185.436 58.424 185.436 59.4142C185.436 62.88 185.436 66.5934 185.436 70.8019C185.436 71.5446 185.683 71.7922 186.425 72.0397C189.639 73.03 193.595 74.2678 197.551 75.7531C198.54 76.2482 199.282 77.2385 199.777 77.9812C200.518 79.4665 201.013 80.7043 201.507 82.1897C202.249 83.9226 202.991 85.6555 203.732 87.3884C204.474 88.8738 204.474 89.864 203.732 91.3494C202.991 93.0823 202.249 94.5676 201.26 96.3006C200.518 97.7859 199.777 99.5188 199.035 101.004C198.54 101.747 198.788 102.242 199.282 102.737C201.013 104.47 202.496 105.708 204.227 107.688C201.507 106.946 200.271 105.46 198.293 103.727C197.304 102.737 197.057 101.747 197.799 100.261C198.54 98.7761 199.282 97.2908 200.024 95.5579C200.766 93.825 201.507 92.3396 202.496 90.6067C202.991 89.6164 202.991 88.8738 202.496 87.8835C201.754 86.1506 200.766 84.4177 200.024 82.6848C199.529 81.1994 198.788 79.9616 198.293 78.4763C198.046 77.7336 197.304 76.9909 196.81 76.7434C193.101 75.258 189.145 74.0202 185.931 73.03C184.694 72.5349 183.953 71.7922 183.953 70.3068C183.953 66.0983 183.953 62.3849 183.953 58.9191C183.953 57.1862 184.942 56.4435 185.931 56.1959C189.392 54.9582 193.101 53.7204 196.562 52.4826C197.057 52.235 197.799 51.4923 198.046 50.9972C199.529 47.7789 201.013 44.5607 202.496 41.3424C202.743 40.8473 202.743 39.857 202.496 39.3619C201.013 35.6485 199.282 32.1827 197.799 29.212C197.304 27.9742 197.057 26.9839 198.293 25.7462C200.765 23.2706 203.485 20.795 206.452 17.5767C207.441 16.5865 208.43 16.3389 209.666 17.0816C211.397 17.8243 212.881 18.5669 214.611 19.5572C216.342 20.2998 218.073 21.2901 219.804 22.0328C220.793 22.5279 221.287 22.5279 222.276 22.0328C225.243 20.795 228.457 19.3096 231.672 18.3194C232.66 18.0718 233.155 17.5767 233.402 16.5865C233.897 14.8535 234.638 13.1206 235.38 11.3877C235.875 9.90236 236.616 8.16944 237.111 6.68409C237.605 5.19873 238.347 4.70361 239.831 4.70361C243.787 4.70361 247.495 4.70361 251.204 4.70361C252.935 4.70361 253.429 5.44629 253.924 6.68409C255.407 10.645 256.396 13.8633 257.633 16.834C257.88 17.3291 258.374 17.8243 259.116 18.0718C262.33 19.5572 265.544 20.795 269.006 22.0328C269.5 22.2803 270.242 22.2803 270.984 22.0328C274.198 20.5474 277.412 19.0621 281.368 17.0816C282.605 16.5865 283.346 16.5865 284.335 17.5767C285.572 18.8145 286.808 20.0523 287.797 21.2901C289.28 22.7754 291.011 24.5084 292.495 26.2413C292.989 26.984 293.236 28.2217 292.989 28.9644C292.247 30.9449 291.258 32.6778 290.517 34.4107C289.775 36.1436 288.786 37.8766 288.044 39.6095C287.797 40.1046 287.797 40.8473 288.044 41.3424C289.528 45.0558 290.764 48.274 291.753 50.9972C292 51.7399 292.742 52.4826 293.236 52.7301C296.698 54.2155 300.406 55.4533 303.126 56.4435C304.61 56.9386 305.104 57.6813 305.104 59.1667C305.104 62.88 305.104 66.5934 305.104 70.5544C305.104 72.0397 304.61 72.7824 303.373 73.2775C300.654 74.2678 296.945 75.5056 293.236 76.9909C292.742 77.2385 292 77.9812 291.753 78.4763C290.517 81.447 289.28 84.9128 288.044 88.6262C287.797 89.1213 288.044 89.864 288.291 90.3591C289.033 92.092 289.775 93.5774 290.517 95.3103C291.506 97.0432 292.247 99.0237 292.989 100.757C293.236 101.499 293.236 102.985 292.742 103.48C290.517 105.955 288.044 108.431 285.572 110.907L283.346 113.135C282.605 113.382 279.638 111.897 279.638 111.897C276.671 110.411 273.951 109.174 270.984 107.936C270.489 107.688 269.748 107.688 269.253 107.936C265.792 109.421 262.578 110.659 259.363 112.144C258.622 112.392 258.127 113.135 257.88 113.63C256.644 116.848 255.407 120.561 254.171 124.275C253.429 125.76 252.688 126.255 251.451 126.255Z" fill="#1A1A1A"/>
<path d="M245.517 88.1311C239.336 88.1311 233.649 85.6555 229.199 81.447C224.996 77.2385 222.523 71.2971 222.523 65.1081C222.523 58.9191 224.996 53.2253 229.199 48.7692C233.649 44.5607 239.336 42.0851 245.517 42.0851C258.127 42.0851 268.264 52.4826 268.264 65.1081C268.511 77.7336 258.127 88.1311 245.517 88.1311ZM245.765 43.3229C239.831 43.3229 234.391 45.5509 230.188 49.7594C226.232 53.7204 224.007 59.1667 224.007 65.1081C224.007 71.0495 226.232 76.4958 230.188 80.4568C234.144 84.4177 239.583 86.8933 245.517 86.8933C257.385 86.8933 267.275 77.2385 267.275 65.3557C267.275 53.2252 257.632 43.3229 245.765 43.3229Z" fill="#1A1A1A"/>
<path d="M218.567 73.2775C217.331 70.3068 216.837 67.5837 216.837 65.1081C216.837 59.9093 218.073 54.9581 220.793 50.7496C219.556 55.4533 218.32 60.4044 218.32 65.1081C218.32 67.5837 218.567 70.0593 219.309 72.5348C218.567 73.2775 218.567 73.2775 218.567 73.2775Z" fill="#1A1A1A"/>
<path d="M245.517 93.825C243.045 93.825 240.819 93.5774 238.594 93.0823C241.067 92.3397 243.292 92.5872 245.517 92.5872C257.88 92.5872 268.759 84.4178 271.973 72.5349C269.995 85.1604 258.374 93.825 245.517 93.825Z" fill="#1A1A1A"/>
<path d="M257.385 40.1047C253.429 38.3717 249.721 37.6291 245.765 37.6291C249.968 36.3913 253.924 37.1339 257.633 38.8669C257.88 39.8571 257.633 40.1047 257.385 40.1047Z" fill="#1A1A1A"/>
<path d="M476.942 233.944C476.2 233.201 474.469 224.041 471.008 217.605C475.705 223.546 477.436 232.706 477.436 233.201C476.942 233.944 476.942 233.944 476.942 233.944Z" fill="#1A1A1A"/>
<path d="M420.074 275.038C419.085 275.038 418.096 274.791 417.355 274.296C416.118 273.553 415.129 272.068 414.635 269.84C414.388 268.849 414.14 267.612 414.14 266.621C413.893 261.423 414.882 256.967 417.355 253.748C420.074 250.282 424.03 248.054 427.739 248.054C433.426 248.054 435.156 252.263 435.156 252.511C433.92 252.758 432.437 249.54 427.739 249.54C424.278 249.54 420.816 251.52 418.344 254.739C415.377 258.7 415.129 263.898 415.377 266.621C415.377 267.612 415.624 268.602 415.871 269.592C416.366 271.325 417.107 272.563 418.096 273.306C418.838 273.801 419.58 273.801 420.569 273.801C422.547 273.553 424.278 272.563 425.019 271.077C425.761 269.84 425.761 268.354 425.761 267.364C425.761 264.641 425.761 262.66 426.255 260.68C426.997 258.452 428.233 256.719 429.47 255.234C429.47 257.462 428.233 259.195 427.492 261.175C426.997 262.908 426.997 264.641 426.997 266.374C426.997 268.602 426.997 270.335 426.008 271.82C425.019 273.553 422.794 274.791 420.569 275.038C420.322 275.038 420.322 275.038 420.074 275.038Z" fill="#1A1A1A"/>
</svg>
