<svg width="318" height="367" viewBox="0 0 318 367" fill="none" xmlns="http://www.w3.org/2000/svg">
<path d="M145.596 24.597V139.141H30.9883C30.9883 202.312 82.1437 253.685 145.596 253.685C208.803 253.685 260.204 202.558 260.204 139.141C260.204 75.724 208.803 24.597 145.596 24.597Z" fill="#0CD494"/>
<path d="M0.245921 114.069H113.378V1.00005C113.378 1.00005 66.8956 -2.19539 31.2343 36.3956C-4.42693 74.7408 0.245921 114.069 0.245921 114.069Z" fill="#1A1A1A"/>
<path d="M179.29 213.865C179.29 213.865 165.763 212.636 155.926 222.96C146.088 233.283 141.661 245.328 141.661 245.328L140.678 211.407C140.678 211.407 135.513 206.245 122.97 207.228C110.427 207.966 105.754 208.703 104.033 210.67C104.033 210.67 101.573 237.216 102.311 258.847C103.049 280.478 104.278 295.963 124.446 295.717C144.613 295.472 155.926 279.986 155.926 279.986L153.466 359.134H246.432C246.432 359.134 244.464 335.292 245.448 331.359C245.448 331.359 271.517 326.197 273.977 313.661C276.436 301.125 275.207 293.505 270.042 277.774C270.042 277.774 262.664 258.11 256.269 246.065C249.875 234.021 246.186 224.435 231.921 217.798C217.657 210.915 205.852 215.094 205.852 215.094L179.29 213.865Z" fill="#1A1A1A"/>
<path d="M205.851 206.737L205.36 191.005C205.36 191.005 212 191.989 213.476 188.302C215.197 184.369 213.967 180.682 212 179.453C210.032 178.469 203.884 176.995 201.67 182.157L202.654 191.497C202.654 191.497 204.13 202.067 196.26 203.05C188.144 204.279 184.455 203.787 184.455 203.787V206.491L189.128 224.926L205.851 206.737Z" fill="white"/>
<path d="M194.538 164.95C194.538 164.95 186.914 171.341 176.339 169.866L176.585 172.816C176.585 172.816 174.617 175.52 174.617 180.682C174.617 185.844 176.585 188.302 176.585 188.302C176.585 188.302 178.798 190.022 181.258 188.302C181.258 188.302 183.225 190.268 185.93 189.531C188.636 188.793 189.128 187.81 190.357 187.564C190.357 187.564 191.341 189.531 193.8 189.039C196.014 188.547 196.506 186.827 196.506 186.827C196.506 186.827 198.965 188.056 199.949 185.844C201.179 183.877 200.195 178.224 200.195 178.224C200.195 178.224 194.784 172.324 194.538 164.95Z" fill="white"/>
<path d="M134.037 214.357L133.791 204.279C133.791 204.279 137.234 196.413 137.972 191.743C138.71 187.073 137.726 185.106 135.513 183.631C133.299 182.157 133.053 182.157 133.053 182.157C133.053 182.157 133.299 174.537 132.07 169.866C130.84 165.442 130.594 162.984 127.889 163.23C125.183 163.23 123.216 166.917 123.462 169.621C123.708 172.324 124.445 180.19 124.445 180.19C124.445 180.19 123.708 177.24 119.773 177.486C115.838 177.732 115.1 182.894 115.1 182.894C115.1 182.894 113.132 178.469 109.443 178.715C105.754 178.961 105.508 183.877 105.508 186.089C105.754 188.302 106 193.955 107.23 195.43C107.23 195.43 108.705 203.541 109.197 206.737C109.689 209.932 109.935 214.848 109.935 214.848C109.935 214.848 124.937 218.29 134.037 214.357Z" fill="white"/>
<path d="M189.865 310.957C189.865 310.957 184.209 306.533 177.814 305.058C171.42 303.583 169.698 303.583 167.731 305.304C165.763 307.024 162.32 309.728 160.353 311.203C158.385 312.678 153.466 315.627 157.893 319.56C162.32 323.493 170.436 318.085 172.404 314.89L192.079 318.823C192.079 318.823 190.603 311.94 189.865 310.957Z" fill="white"/>
<path d="M245.694 85.3103C245.694 108.416 226.756 127.343 203.638 127.343C180.52 127.343 161.582 108.416 161.582 85.3103C161.582 62.2049 180.52 43.2781 203.638 43.2781C226.756 43.2781 245.694 62.2049 245.694 85.3103Z" fill="#1A1A1A"/>
<path d="M233.889 85.3104C233.889 102.025 220.362 115.544 203.638 115.544C186.914 115.544 173.387 102.025 173.387 85.3104C173.387 68.5958 186.914 55.0767 203.638 55.0767C220.362 55.0767 233.889 68.5958 233.889 85.3104Z" fill="white"/>
<path d="M212.738 179.699C212.738 179.699 216.181 174.537 215.935 167.9C215.689 161.263 212.738 159.543 210.278 159.051C208.065 158.56 199.703 158.314 199.703 158.314C199.703 158.314 196.752 152.414 192.325 150.202C187.898 147.99 182.241 147.007 177.814 150.448C173.387 153.889 170.928 159.789 174.371 165.196C174.371 165.934 171.174 166.179 171.174 170.604C170.928 175.028 174.371 176.995 174.371 176.995L176.339 173.062L176.585 170.112C176.585 170.112 187.406 171.341 194.046 165.196C194.046 165.196 195.768 174.291 199.949 177.486L199.703 185.844C199.703 185.844 197.981 186.581 196.506 186.581C196.506 186.581 194.784 189.285 193.063 189.039C191.341 188.793 189.865 187.564 189.865 187.564C189.865 187.564 186.914 189.285 185.93 189.531C184.947 189.776 181.749 189.039 181.257 188.302C180.766 188.302 178.552 189.776 176.093 188.056C175.847 188.302 176.093 195.184 176.093 196.905C176.093 198.38 178.06 204.279 184.947 204.033C191.833 204.033 197.244 203.296 199.703 201.575C202.162 199.609 202.654 194.692 202.408 191.989C202.162 189.285 202.162 181.911 202.162 181.911C202.162 181.911 205.606 175.766 212.738 179.699Z" fill="#0CD494"/>
<path d="M184.209 206.983L179.29 213.865L179.782 238.445C179.782 238.445 177.814 283.427 179.782 298.667L192.079 257.864L197.981 240.412L199.211 242.624L212.492 213.865L205.852 206.491L184.209 206.983Z" fill="white"/>
<path d="M188.882 225.172L182.733 233.529L183.471 241.887L179.29 250.244C179.29 250.244 179.29 250.735 179.044 251.719C178.552 265.975 178.306 288.097 179.536 298.175C179.782 298.175 191.833 257.864 191.833 257.864L192.817 254.914C192.817 253.931 192.817 253.193 192.817 253.193L190.111 241.887L195.03 235.496L188.882 225.172Z" fill="#0CD494"/>
<path d="M195.276 190.76C195.276 190.76 191.095 192.234 191.587 196.905C191.587 196.905 188.882 197.888 187.652 197.15C186.422 196.413 184.701 194.938 185.438 193.709C186.176 192.48 187.652 192.726 188.882 192.726C190.111 192.726 190.603 193.218 191.341 191.989C192.079 190.76 192.325 189.776 193.554 189.531C194.784 189.285 195.276 190.76 195.276 190.76Z" fill="#1A1A1A"/>
<path d="M195.276 190.76C195.276 190.76 191.095 192.48 191.833 196.659C191.833 196.659 193.554 197.151 194.784 194.938C196.014 192.48 195.276 190.76 195.276 190.76Z" fill="white"/>
<path d="M211.262 322.756L204.13 327.917L210.032 328.655L156.172 366.508L90.2598 352.989L97.1461 347.828L91.7354 346.844L145.596 309.482L211.262 322.756Z" fill="white"/>
<path d="M204.13 327.917L210.032 328.655L156.172 366.508L90.2598 352.989L97.1461 347.828L157.401 360.118L204.13 327.917Z" fill="#0CD494"/>
<path d="M159.615 320.789C159.615 320.789 165.271 323.493 170.436 320.052C175.601 316.611 175.847 315.627 175.847 315.627L172.895 314.398C173.141 314.398 167.239 322.018 159.615 320.789Z" fill="#CCCCCC"/>
<path d="M202.162 197.396C202.162 197.396 203.392 209.441 184.701 207.72L184.209 204.279L194.292 203.541C194.292 203.541 201.67 203.787 202.162 197.396Z" fill="#CCCCCC"/>
<path d="M205.114 87.0309C205.114 88.9973 203.392 90.7179 201.425 90.7179C199.457 90.7179 197.735 88.9973 197.735 87.0309C197.735 85.0645 199.457 83.3439 201.425 83.3439C203.392 83.3439 205.114 84.8187 205.114 87.0309Z" fill="#0CD494"/>
<path d="M190.357 227.63L185.93 234.267L186.422 242.378L179.044 266.467L179.29 250.49L183.225 241.887L182.733 234.021L188.636 225.418L190.357 227.63Z" fill="white"/>
<path d="M191.587 188.547C194.046 187.073 197.49 175.52 191.095 171.833C191.095 171.833 197.244 169.866 197.735 180.682C197.981 189.776 191.587 188.547 191.587 188.547Z" fill="#CCCCCC"/>
<path d="M177.814 188.547C180.274 187.073 183.963 175.766 177.568 172.079C177.568 172.079 184.701 169.866 183.717 180.682C183.225 189.531 177.814 188.547 177.814 188.547Z" fill="#CCCCCC"/>
<path d="M180.766 196.167C180.52 192.726 180.274 188.547 180.274 188.547C179.536 188.793 178.552 188.793 177.814 188.547C176.339 188.056 176.585 195.184 176.585 196.659C176.585 198.134 178.552 204.033 185.439 203.787C187.16 203.787 188.882 203.787 190.603 203.541C185.93 202.804 181.258 202.067 180.766 196.167Z" fill="white"/>
<path d="M176.339 173.062L176.585 170.112C176.585 170.112 185.93 171.095 192.571 166.179C190.849 166.425 178.06 166.425 178.552 156.839C178.798 150.694 182.979 148.727 186.176 148.236C183.225 147.99 180.274 148.482 177.568 150.448C173.142 153.889 170.682 159.788 174.125 165.196C174.125 165.934 170.928 166.179 170.928 170.604C170.682 175.028 174.125 176.995 174.125 176.995L176.339 173.062Z" fill="white"/>
<path d="M134.037 215.586C133.545 212.636 133.053 204.279 133.053 204.279C133.053 204.033 136.005 195.43 136.005 195.43C136.251 194.938 136.251 194.693 136.497 194.201C137.48 191.497 138.218 188.547 137.234 186.335C136.743 185.106 135.513 184.369 134.283 183.631C132.562 182.648 130.84 181.665 129.118 180.928C128.381 180.682 127.397 180.436 126.659 180.19C124.937 179.944 122.97 180.928 122.724 182.894C122.478 183.877 122.97 185.106 123.708 186.335C124.692 187.81 126.413 188.793 127.397 189.776C129.61 191.251 132.07 192.234 134.283 192.234C131.578 193.218 128.873 192.234 126.659 190.514C125.429 189.776 123.708 188.547 122.724 186.827C121.74 185.352 121.248 183.877 121.494 182.648C121.986 179.944 124.446 178.715 126.659 178.961C127.643 178.961 128.627 179.453 129.61 179.699C131.578 180.436 133.299 181.419 135.021 182.402C136.497 183.386 137.726 184.123 138.464 185.598C139.694 188.302 138.956 191.497 137.972 194.447C137.726 194.938 137.726 195.184 137.48 195.676L134.775 204.279C134.775 205.262 135.267 212.636 135.021 215.094C134.775 215.34 134.529 215.586 134.037 215.586Z" fill="#1A1A1A"/>
<path d="M109.935 215.34C109.443 214.848 108.705 207.72 108.705 207.72C108.705 207.72 107.476 202.067 106.492 194.938C108.459 201.821 109.689 207.474 109.689 207.474L110.673 214.848C109.935 215.34 109.935 215.34 109.935 215.34Z" fill="#1A1A1A"/>
<path d="M110.181 196.659C108.951 196.659 107.476 196.167 106.738 195.184C106.492 194.938 106.246 194.447 106 194.201C105.754 193.709 105.508 192.972 105.508 192.234C105.016 189.039 104.524 185.352 105.016 182.157C105.262 181.173 105.754 179.944 106.738 178.961C107.968 177.732 109.935 177.486 111.657 178.469C113.378 179.207 114.116 181.173 114.608 182.648C114.854 183.386 115.1 184.123 115.1 185.106C115.592 187.564 115.592 189.776 115.346 191.743C115.1 193.463 114.362 194.938 113.378 195.676C112.64 196.413 111.411 196.659 110.181 196.659ZM107.23 193.709C108.951 195.921 111.411 195.921 112.886 194.692C113.87 193.955 114.362 192.726 114.608 191.497C114.854 189.531 114.608 187.564 114.362 186.089C114.116 184.369 113.87 183.631 113.624 183.14C113.378 182.157 112.64 180.19 111.165 179.453C109.935 178.961 108.459 178.961 107.476 179.944C106.738 180.682 106.246 181.665 106.246 182.648C105.754 185.598 106.246 189.285 106.738 192.48C106.738 192.972 106.984 193.463 107.23 193.709Z" fill="#1A1A1A"/>
<path d="M133.053 182.402C132.315 177.24 131.824 171.587 130.348 166.671C130.102 165.934 129.856 164.95 129.118 164.213C127.888 162.984 126.413 163.721 125.429 164.459C123.216 166.671 123.462 169.375 123.708 172.57C123.953 175.274 124.199 177.24 124.445 179.453C123.216 177.486 122.97 175.52 122.724 173.308C122.232 169.375 121.986 166.179 124.691 163.721C126.167 162.492 128.38 161.755 129.856 163.476C130.594 164.213 131.086 165.442 131.332 166.425C132.807 171.587 133.299 177.24 133.545 181.911C133.299 182.402 133.299 182.402 133.053 182.402Z" fill="#1A1A1A"/>
<path d="M121.248 195.184C120.018 195.184 118.789 194.693 117.805 194.201C116.329 193.218 115.592 191.497 115.346 190.268C115.1 189.285 115.1 188.056 114.854 187.073C114.854 186.581 114.608 185.844 114.608 185.352C114.362 183.631 114.116 181.665 114.854 179.944C115.837 177.732 118.543 176.012 121.248 176.749C123.216 177.486 124.199 178.715 124.199 180.19C122.97 178.715 121.74 177.978 120.756 177.732C118.789 176.995 116.575 178.47 115.837 180.19C115.1 181.665 115.346 183.386 115.592 185.106C115.592 185.598 115.837 186.335 115.837 186.827C116.083 187.81 116.083 188.793 116.329 189.776C116.575 190.76 117.067 192.234 118.297 193.218C119.527 193.955 121.494 194.447 122.97 193.709C124.445 192.972 124.937 191.251 124.937 189.039C126.167 192.48 124.691 193.955 123.462 194.693C122.724 195.184 121.986 195.184 121.248 195.184Z" fill="#1A1A1A"/>
<path d="M118.789 203.541C117.805 198.134 120.264 194.692 120.51 194.447C121.248 195.184 119.035 198.379 119.281 202.804C118.789 203.541 118.789 203.541 118.789 203.541Z" fill="#1A1A1A"/>
<path d="M162.074 321.527C160.107 321.527 158.385 320.789 156.909 319.314C155.926 318.331 155.434 317.348 155.434 316.119C155.68 313.907 158.139 312.186 161.09 309.974C163.058 308.745 165.025 307.024 166.747 305.304C170.19 301.862 175.601 303.829 180.52 305.549C186.422 307.516 190.111 310.957 190.357 310.957C189.619 311.695 185.93 308.499 180.274 306.533C174.617 304.566 170.436 303.337 167.731 306.041C166.009 308.007 163.796 309.482 161.828 310.957C159.123 312.924 156.664 314.644 156.664 316.365C156.664 317.102 156.909 317.84 157.647 318.577C158.877 320.052 160.599 320.543 162.32 320.543C167.977 320.298 173.879 312.678 173.879 312.678C174.617 313.661 168.469 321.281 162.32 321.772C162.32 321.527 162.074 321.527 162.074 321.527Z" fill="#1A1A1A"/>
<path d="M229.954 298.913C227.494 277.282 216.919 243.116 216.919 242.624C218.148 242.624 228.724 277.036 230.445 298.175C229.954 298.913 229.954 298.913 229.954 298.913Z" fill="#1A1A1A"/>
<path d="M183.963 307.516C183.963 306.287 206.835 300.142 240.775 297.684C207.081 301.371 184.455 307.516 183.963 307.516Z" fill="#1A1A1A"/>
<path d="M201.179 336.275C239.299 335.046 258.974 326.688 264.139 324.23C268.566 322.018 271.763 318.331 273.239 313.415C277.666 299.896 271.517 276.791 254.793 244.59C254.547 244.099 254.056 243.361 253.81 242.378C251.104 236.971 246.677 227.63 237.578 221.239C230.445 216.323 222.575 213.865 212.246 213.865C222.575 212.636 230.937 215.094 238.07 220.256C247.169 226.647 251.842 236.233 254.547 241.641C255.039 242.378 255.285 243.116 255.531 243.853C272.255 276.299 278.404 299.65 273.977 313.415C272.255 318.577 269.058 322.51 264.139 324.968C259.466 327.672 239.545 336.275 201.179 336.275Z" fill="#1A1A1A"/>
<path d="M141.661 246.557C151.499 219.764 165.025 215.831 165.517 215.586C172.158 213.373 179.29 212.882 179.29 212.882C179.29 214.111 172.404 214.602 165.763 216.569C165.517 216.569 152.237 220.748 142.153 246.065C142.153 246.311 141.907 246.557 141.661 246.557Z" fill="#1A1A1A"/>
<path d="M205.851 207.474C205.36 206.983 204.376 190.76 204.376 190.76C205.606 190.76 206.343 206.737 206.343 206.737C205.851 207.474 205.851 207.474 205.851 207.474Z" fill="#1A1A1A"/>
<path d="M176.339 173.553C175.847 173.062 175.847 170.604 175.847 170.604C177.077 170.604 176.831 173.062 176.831 173.062C177.077 173.308 176.831 173.553 176.339 173.553Z" fill="#1A1A1A"/>
<path d="M185.684 204.525C182.733 204.525 179.536 204.279 177.568 201.329C175.601 198.38 175.601 194.447 175.601 191.005C175.601 190.268 175.601 189.531 175.601 188.793C175.601 188.547 175.601 187.564 175.601 187.564H176.831C176.831 187.564 176.831 188.302 176.831 188.547C176.831 189.285 176.831 190.022 176.831 190.76C176.831 194.201 176.831 197.888 178.552 200.592C180.52 203.541 183.717 203.541 187.16 203.296C187.652 203.296 187.898 203.296 188.39 203.296C191.095 203.296 193.309 203.05 195.522 202.558C197.49 202.067 199.457 201.575 200.441 200.1C201.671 198.38 201.916 195.921 201.916 193.955C201.916 192.726 201.671 182.157 201.671 182.157C201.671 181.911 202.162 179.944 203.146 178.961C204.622 177.732 206.589 177.24 208.557 177.24C210.524 177.486 212.246 178.47 213.476 179.944C214.705 181.419 215.197 183.386 215.197 185.352C214.951 187.318 213.968 189.039 212.492 190.268C209.787 192.48 206.097 192.48 203.392 190.514C206.343 191.497 209.541 191.251 211.754 189.531C212.984 188.547 213.722 187.073 213.968 185.352C214.213 183.631 213.722 182.157 212.492 180.928C211.508 179.699 210.032 178.961 208.311 178.715C206.589 178.47 205.114 178.961 203.884 180.19C203.146 180.682 202.9 181.911 202.9 182.402C202.9 182.648 203.146 192.972 203.146 194.201C203.146 196.167 202.654 198.871 201.425 201.083C199.949 203.05 197.736 203.541 195.768 204.033C193.555 204.525 191.341 204.77 188.39 204.77C187.898 204.77 187.652 204.77 187.16 204.77C186.668 204.525 186.176 204.525 185.684 204.525Z" fill="#1A1A1A"/>
<path d="M184.209 207.474C183.717 206.983 183.717 204.033 183.717 204.033C184.947 204.033 184.947 206.983 184.947 206.983C184.701 207.228 184.455 207.474 184.209 207.474Z" fill="#1A1A1A"/>
<path d="M212.738 180.19C212.492 179.207 214.213 177.978 215.197 168.883C215.935 163.23 212.492 160.034 210.032 159.297C205.36 157.822 199.457 158.559 199.457 158.559C195.768 151.923 191.587 149.711 188.636 148.727C185.438 147.744 181.995 148.236 179.044 149.956C176.093 151.677 174.125 154.135 173.387 156.839C172.404 161.263 174.863 165.196 174.863 165.196C173.633 165.688 173.141 166.425 172.65 166.671C171.42 168.637 171.42 173.062 174.617 176.011C170.19 173.553 170.19 168.637 171.666 166.179C172.158 165.442 172.65 164.95 173.387 164.95C172.65 163.476 171.42 160.034 172.404 156.593C173.141 153.643 175.109 150.94 178.552 148.973C181.749 147.007 185.438 146.515 189.128 147.744C192.079 148.727 196.506 150.94 199.703 157.33C201.179 157.085 206.097 156.839 210.278 158.314C213.722 159.297 216.919 163.476 216.181 168.883C215.197 178.715 213.23 179.944 212.738 180.19Z" fill="#1A1A1A"/>
<path d="M185.93 190.022C185.684 190.022 182.241 190.022 181.257 188.793C181.012 188.547 180.766 188.056 180.766 187.81C180.766 187.073 181.258 186.335 181.503 185.352C182.241 183.631 183.471 180.682 183.963 176.503C184.701 181.173 183.471 183.877 182.487 185.844C181.995 186.827 181.749 187.564 181.749 188.056C182.487 188.793 184.455 189.039 185.684 189.039C186.422 189.776 186.176 190.022 185.93 190.022Z" fill="#1A1A1A"/>
<path d="M189.865 198.134C188.882 198.134 188.144 197.888 187.16 197.642C185.93 197.151 184.947 196.167 184.701 195.184C184.455 194.447 184.701 193.709 185.193 192.972C185.93 192.234 187.16 191.989 188.144 192.48C189.62 192.972 189.865 192.726 190.111 192.726C190.357 192.48 190.603 192.48 191.095 191.005C191.587 189.776 192.325 189.039 193.309 188.793C194.046 188.547 194.784 188.793 195.522 189.531C196.26 190.268 196.506 191.497 196.26 192.726C196.014 194.938 194.784 196.659 193.063 197.642C191.833 197.888 190.849 198.134 189.865 198.134ZM187.406 193.218C186.914 193.218 186.422 193.463 186.176 193.709C185.93 193.955 185.684 194.447 185.93 194.692C185.93 195.184 186.668 195.921 187.652 196.413C188.39 196.659 190.357 197.396 192.325 196.167C193.8 195.43 194.784 193.955 195.03 192.234C195.276 191.005 195.03 190.268 194.538 190.022C194.292 189.776 193.8 189.531 193.555 189.776C193.063 190.022 192.571 190.514 192.325 191.251C191.833 192.972 191.587 193.218 190.849 193.709C190.111 193.955 189.865 194.201 188.144 193.709C187.898 193.218 187.652 193.218 187.406 193.218Z" fill="#1A1A1A"/>
<path d="M191.833 197.642C189.865 193.218 193.309 190.76 195.276 190.022C195.522 191.251 190.849 192.972 192.325 196.905C192.079 197.642 192.079 197.642 191.833 197.642Z" fill="#1A1A1A"/>
<path d="M210.032 188.793C209.787 188.793 204.622 186.089 204.622 186.089C204.376 185.352 209.049 180.436 209.049 180.436C209.787 181.173 205.606 185.598 205.606 185.598L210.278 187.81C210.524 188.793 210.278 188.793 210.032 188.793Z" fill="#1A1A1A"/>
<path d="M196.752 162.001C196.26 161.018 198.965 157.576 198.965 157.576C199.949 158.314 196.998 161.755 196.998 161.755C196.998 162.001 196.752 162.001 196.752 162.001Z" fill="#1A1A1A"/>
<path d="M188.39 189.285C188.636 187.81 189.128 187.564 189.865 187.318C189.374 188.547 189.128 188.793 188.636 189.039C188.636 189.039 188.636 189.285 188.39 189.285Z" fill="#1A1A1A"/>
<path d="M196.26 187.073C196.506 185.844 198.227 185.598 198.965 185.598L199.211 177.978C195.276 173.553 194.046 168.392 193.8 166.179C191.341 167.9 183.963 172.324 174.125 170.112C185.93 171.587 193.8 164.705 193.8 164.705C194.784 165.196 195.03 172.324 199.949 177.486C200.195 177.978 199.703 186.335 199.703 186.335C199.703 186.581 196.752 187.073 196.26 187.073Z" fill="#1A1A1A"/>
<path d="M199.211 242.87C198.719 242.624 188.882 226.155 188.882 226.155L180.028 238.445C179.044 238.199 179.044 213.619 179.044 213.619C179.044 213.373 183.717 206.737 183.717 206.737C184.701 206.983 189.374 224.189 189.374 224.189L205.851 206.491C206.589 206.491 212.984 213.373 212.984 213.373C212.984 214.111 199.949 242.87 199.949 242.87C199.211 242.87 199.211 242.87 199.211 242.87ZM189.619 225.172L199.211 241.149L211.754 213.619L206.097 207.474L189.619 225.172ZM180.274 213.619V236.233L188.39 224.926L183.963 208.212L180.274 213.619Z" fill="#1A1A1A"/>
<path d="M179.782 300.142C178.798 295.963 178.06 260.322 178.06 258.601C178.306 244.345 179.782 236.971 179.782 236.725C180.766 236.971 179.536 244.59 179.29 258.601C179.29 258.847 179.782 286.377 180.274 296.209C183.471 285.148 193.8 248.769 197.49 239.92C194.046 250.735 180.52 299.159 180.274 299.65C180.274 299.896 180.028 300.142 179.782 300.142Z" fill="#1A1A1A"/>
<path d="M190.111 242.87L183.717 242.378C183.225 241.887 182.487 233.529 182.487 233.529C183.717 233.529 184.209 241.149 184.209 241.149L189.865 241.641L194.784 234.758C195.768 235.496 190.603 242.378 190.603 242.378C190.357 242.87 190.111 242.87 190.111 242.87Z" fill="#1A1A1A"/>
<path d="M179.044 251.473C178.552 250.735 182.979 241.641 182.979 241.641C183.963 242.132 179.536 251.227 179.536 251.227C179.536 251.227 179.29 251.473 179.044 251.473Z" fill="#1A1A1A"/>
<path d="M266.107 359.626H166.747C166.747 358.397 266.353 358.397 266.353 358.397C266.845 359.38 266.599 359.626 266.107 359.626Z" fill="#1A1A1A"/>
<path d="M2.95117 359.872C2.95117 358.643 120.264 358.643 120.264 358.643C120.264 359.626 2.95117 359.872 2.95117 359.872Z" fill="#1A1A1A"/>
<path d="M127.151 128.08H50.4177C50.4177 126.851 126.659 126.851 126.659 126.851V15.994C127.889 15.994 127.889 127.343 127.889 127.343C127.643 127.834 127.397 128.08 127.151 128.08Z" fill="#1A1A1A"/>
<path d="M192.817 189.531C191.341 189.531 189.865 188.547 188.882 186.581C187.898 184.86 187.652 182.648 187.652 180.19C187.652 177.732 188.39 175.52 189.374 173.799C190.357 172.079 191.833 171.095 193.309 171.095C194.784 171.095 196.26 172.079 197.244 174.045C198.227 175.766 198.473 177.978 198.473 180.436C198.227 185.598 195.768 189.531 192.817 189.531ZM193.063 172.324C192.079 172.324 191.095 173.062 190.111 174.537C189.128 176.012 188.636 178.224 188.636 180.436C188.636 182.648 188.882 184.86 189.865 186.335C190.603 187.81 191.587 188.547 192.571 188.547C194.784 188.547 196.998 184.86 196.998 180.682C196.998 178.47 196.752 176.257 195.768 174.782C195.276 173.062 194.292 172.324 193.063 172.324Z" fill="#1A1A1A"/>
<path d="M178.798 189.531C177.077 189.531 175.847 188.547 174.863 186.581C173.879 184.86 173.633 182.648 173.633 180.19C173.633 177.732 174.371 175.52 175.355 173.799C176.339 172.079 177.814 171.095 179.29 171.095C182.241 171.095 184.701 175.274 184.455 180.19C183.471 175.766 181.503 172.079 179.29 172.079C178.306 172.079 177.077 172.816 176.339 174.291C175.355 175.766 174.863 177.978 174.863 180.19C174.863 182.402 175.109 184.615 176.093 186.089C176.831 187.564 177.814 188.302 178.798 188.302C179.536 188.302 180.028 188.056 180.766 187.564C180.766 189.285 179.782 189.531 178.798 189.531Z" fill="#1A1A1A"/>
<path d="M183.717 181.665C183.225 180.682 183.717 179.944 184.947 179.698C185.93 179.453 187.16 179.699 188.39 180.436C185.439 179.944 184.455 181.173 184.209 181.419C184.209 181.665 183.963 181.665 183.717 181.665Z" fill="#1A1A1A"/>
<path d="M203.638 116.281C186.668 116.281 172.896 102.517 172.896 85.5561C172.896 68.5958 186.668 54.8308 203.638 54.8308C220.608 54.8308 234.381 68.5958 234.381 85.5561C234.381 102.517 220.608 116.281 203.638 116.281ZM203.638 55.814C187.16 55.814 173.879 69.0874 173.879 85.5561C173.879 102.025 187.16 115.298 203.638 115.298C220.116 115.298 233.397 102.025 233.397 85.5561C233.397 69.0874 219.87 55.814 203.638 55.814Z" fill="#1A1A1A"/>
<path d="M203.638 128.326C180.028 128.326 160.599 109.153 160.599 85.5561C160.599 61.9591 179.782 42.7865 203.638 42.7865C227.248 42.7865 246.678 61.9591 246.678 85.5561C246.432 109.153 227.248 128.326 203.638 128.326ZM203.638 43.7697C180.52 43.7697 161.828 62.4507 161.828 85.5561C161.828 108.662 180.52 127.343 203.638 127.343C226.756 127.343 245.448 108.662 245.448 85.5561C245.448 62.4507 226.756 43.7697 203.638 43.7697Z" fill="#1A1A1A"/>
<path d="M203.638 89.2432C201.671 89.2432 199.949 87.5226 199.949 85.5562C199.949 83.5898 201.671 81.8691 203.638 81.8691C205.852 81.8691 207.327 83.5898 207.327 85.5562C207.327 87.5226 205.606 89.2432 203.638 89.2432ZM203.638 82.8523C202.162 82.8523 200.933 84.0814 200.933 85.5562C200.933 87.031 202.162 88.26 203.638 88.26C205.114 88.26 206.343 87.031 206.343 85.5562C206.343 83.8356 205.114 82.8523 203.638 82.8523Z" fill="#1A1A1A"/>
<path d="M192.079 100.059C191.587 99.0753 200.933 87.5226 200.933 87.5226C201.917 88.26 192.571 99.8127 192.571 99.8127C192.571 99.8127 192.325 100.059 192.079 100.059Z" fill="#1A1A1A"/>
<path d="M204.622 82.8523C204.13 82.1149 209.295 60.4843 209.295 60.4843C210.278 60.7301 205.114 82.3607 205.114 82.3607C205.114 82.6065 204.868 82.8523 204.622 82.8523Z" fill="#1A1A1A"/>
<path d="M203.638 67.121C203.146 66.6294 203.146 59.5011 203.146 59.5011C204.376 59.5011 204.376 66.3836 204.376 66.3836C204.13 66.8752 203.884 67.121 203.638 67.121Z" fill="#1A1A1A"/>
<path d="M203.638 111.857C203.146 111.365 203.146 104.237 203.146 104.237C204.376 104.237 204.376 111.12 204.376 111.12C204.13 111.611 203.884 111.857 203.638 111.857Z" fill="#1A1A1A"/>
<path d="M229.462 86.0477H222.575C222.575 84.8187 229.462 84.8187 229.462 84.8187C229.954 85.8019 229.708 86.0477 229.462 86.0477Z" fill="#1A1A1A"/>
<path d="M184.701 86.0477H177.814C177.814 84.8187 184.701 84.8187 184.701 84.8187C185.193 85.8019 184.947 86.0477 184.701 86.0477Z" fill="#1A1A1A"/>
<path d="M123.462 295.963C119.035 295.963 113.87 294.98 109.935 291.293C102.557 284.41 102.311 273.349 102.065 263.517C102.065 261.305 102.065 259.093 101.819 257.126C100.835 243.853 103.049 211.653 103.049 211.407C104.032 211.899 102.065 243.853 103.049 257.126C103.295 259.093 103.295 261.305 103.295 263.517C103.541 273.104 103.786 283.919 110.919 290.556C117.559 296.701 128.134 294.734 132.315 293.751C140.923 291.539 148.793 286.868 155.68 279.74C149.285 287.606 141.415 292.522 132.561 294.734C130.348 295.226 127.151 295.963 123.462 295.963Z" fill="#1A1A1A"/>
<path d="M139.94 281.215C142.891 269.171 140.186 211.899 140.186 211.407C141.415 213.619 144.121 269.417 140.678 280.969C140.186 280.969 140.186 281.215 139.94 281.215Z" fill="#1A1A1A"/>
<path d="M192.325 319.56C190.603 312.186 187.898 307.024 185.193 307.27C188.636 306.041 191.587 311.203 192.817 318.823C192.325 319.56 192.325 319.56 192.325 319.56Z" fill="#1A1A1A"/>
<path d="M157.647 360.609L91.4896 347.336C91.2437 346.353 145.35 308.991 145.35 308.991C145.842 308.991 158.631 311.449 158.631 311.449C158.385 312.432 145.596 309.974 145.596 309.974L92.9652 346.353L157.401 359.38L210.278 323.001L173.142 315.627C173.388 314.644 211.754 322.264 211.754 322.264C212 323.247 157.893 360.609 157.893 360.609C157.893 360.609 157.893 360.609 157.647 360.609Z" fill="#1A1A1A"/>
<path d="M156.172 367L90.0138 353.727C89.7679 352.744 97.1461 347.582 97.1461 347.582C97.8839 348.565 91.4895 352.989 91.4895 352.989L155.926 366.017L208.557 329.638L203.884 328.655C204.13 327.672 210.032 328.655 210.032 328.655C210.278 329.638 156.172 367 156.172 367C156.418 367 156.418 367 156.172 367Z" fill="#1A1A1A"/>
<path d="M246.432 359.38C244.464 345.124 244.956 331.359 244.956 331.113C246.186 331.359 245.448 344.878 246.923 358.643C246.432 359.38 246.432 359.38 246.432 359.38Z" fill="#1A1A1A"/>
<path d="M154.942 311.203C154.696 273.595 158.139 252.948 160.844 242.132C159.123 253.193 155.68 273.595 155.434 310.711C155.434 310.957 155.188 311.203 154.942 311.203Z" fill="#1A1A1A"/>
<path d="M179.782 306.287C179.29 305.795 179.29 299.65 179.29 299.65C180.52 299.65 180.274 305.795 180.274 305.795C180.274 306.041 180.028 306.287 179.782 306.287Z" fill="#1A1A1A"/>
<path d="M193.063 254.914C192.571 254.422 189.374 242.378 189.374 242.378C190.357 242.132 193.555 254.177 193.555 254.177C193.309 254.914 193.309 254.914 193.063 254.914Z" fill="#1A1A1A"/>
<path d="M121.986 216.815C112.394 216.815 102.803 215.094 102.803 211.899C102.803 210.67 103.786 208.949 108.951 207.966C106 209.686 104.032 210.915 104.032 211.899C104.032 213.619 110.919 215.832 121.986 215.832C133.053 215.832 139.94 213.619 139.94 211.899C139.94 210.915 138.218 209.686 133.791 208.949C138.71 208.703 141.169 210.178 141.169 211.899C141.169 215.094 131.578 216.815 121.986 216.815Z" fill="#1A1A1A"/>
<path d="M159.123 348.319L113.132 338.979C113.378 337.995 159.123 347.09 159.123 347.09C159.615 348.319 159.369 348.319 159.123 348.319Z" fill="#1A1A1A"/>
<path d="M172.158 339.962L126.167 330.621C126.413 329.638 172.158 338.733 172.158 338.733C172.65 339.716 172.404 339.962 172.158 339.962Z" fill="#1A1A1A"/>
<path d="M185.438 331.113L139.448 321.772C139.694 320.789 185.438 329.884 185.438 329.884C185.93 330.867 185.684 331.113 185.438 331.113Z" fill="#1A1A1A"/>
<path d="M24.8398 85.3104C42.0556 43.2781 82.1438 16.7314 127.151 16.7314C161.09 16.7314 192.817 31.9712 214.213 58.5179C192.079 32.9544 160.844 17.7147 127.151 17.7147C82.6357 17.7147 42.7934 44.0155 25.5777 84.8188C25.3317 85.3104 25.0858 85.3104 24.8398 85.3104Z" fill="#1A1A1A"/>
<path d="M127.151 239.674C112.394 239.674 98.3758 236.97 84.8491 231.317C98.6217 235.741 112.64 238.445 127.151 238.445C135.513 238.445 143.875 237.462 151.991 235.741C144.121 238.691 135.513 239.674 127.151 239.674Z" fill="#1A1A1A"/>
<path d="M209.786 204.033C223.313 193.463 234.38 181.173 242.496 166.425C235.118 181.911 224.051 194.201 210.032 204.033H209.786Z" fill="#1A1A1A"/>
<path d="M186.668 147.99C187.16 141.845 187.652 136.437 187.652 131.03C188.636 136.683 188.144 142.091 187.16 147.498C187.16 147.744 186.914 147.99 186.668 147.99Z" fill="#1A1A1A"/>
<path d="M275.206 250.735C274.961 249.752 275.944 249.015 277.912 247.54C276.682 249.752 275.698 250.49 275.698 250.49C275.452 250.735 275.452 250.735 275.206 250.735ZM283.322 244.59C284.552 242.132 286.028 240.658 287.749 239.183C287.012 241.395 285.29 242.87 283.814 244.345C283.568 244.345 283.322 244.59 283.322 244.59ZM292.422 235.496C293.406 233.038 294.882 231.317 296.111 229.596C295.619 232.054 294.144 233.529 292.914 235.25C292.668 235.496 292.668 235.496 292.422 235.496ZM300.538 225.418C301.276 222.714 302.506 220.993 303.49 219.273C303.244 221.731 302.26 223.451 301.03 225.172C300.784 225.172 300.538 225.418 300.538 225.418ZM307.179 214.357C307.67 211.653 308.654 209.686 309.392 207.72C309.638 210.178 308.654 212.144 307.67 214.111C307.425 214.111 307.425 214.357 307.179 214.357ZM312.343 202.558C312.589 199.854 313.081 197.642 313.819 195.676C314.311 198.134 313.573 200.1 313.081 202.067C312.589 202.312 312.343 202.558 312.343 202.558ZM315.541 190.022C315.295 187.318 315.786 185.106 316.032 183.14C316.77 185.352 316.524 187.564 316.032 189.776C316.032 190.022 315.787 190.022 315.541 190.022ZM317.262 177.241C316.77 175.028 316.77 173.062 316.77 171.341V170.112C318 170.112 318 171.341 318 171.341C318 173.062 318 175.028 317.754 176.749C317.754 177.241 317.508 177.241 317.262 177.241ZM317.016 164.459C316.278 161.755 316.032 159.789 315.786 157.576C317.262 159.543 317.508 161.755 317.508 163.967C317.262 164.459 317.016 164.459 317.016 164.459ZM315.295 151.677C314.311 149.219 313.819 147.007 313.327 145.04C315.049 146.761 315.541 148.973 315.786 151.185C315.541 151.677 315.295 151.677 315.295 151.677ZM312.097 139.387C310.868 136.929 310.13 134.962 309.392 132.996C311.114 134.471 311.851 136.683 312.589 138.65C312.343 139.387 312.097 139.387 312.097 139.387ZM307.425 127.343C305.949 125.13 304.965 123.164 303.981 121.443C305.949 122.672 306.933 124.639 307.916 126.605C307.425 127.343 307.425 127.343 307.425 127.343ZM301.03 116.281C299.309 114.315 298.079 112.594 296.849 110.874C299.063 111.857 300.292 113.578 301.522 115.298C301.276 116.036 301.03 116.281 301.03 116.281ZM292.914 106.204C290.947 104.483 289.471 103.008 287.995 101.533C290.209 102.271 291.93 103.746 293.406 105.22C293.16 105.958 293.16 106.204 292.914 106.204ZM283.568 97.3547C281.601 95.8799 279.879 94.6509 278.158 93.4218C280.617 93.6676 282.339 94.8967 284.06 96.3715C283.814 97.3547 283.814 97.3547 283.568 97.3547ZM272.993 90.2264C270.78 88.9974 269.058 88.0142 267.09 87.2768C269.55 87.2768 271.517 88.26 273.239 89.2432C273.239 89.9806 272.993 90.2264 272.993 90.2264ZM261.188 84.573C257.253 83.0981 254.793 82.6065 254.793 82.6065C255.039 81.6233 257.499 82.1149 261.188 83.3439C261.68 84.573 261.434 84.573 261.188 84.573Z" fill="#1A1A1A"/>
</svg>
