<svg width="100" height="100" viewBox="0 0 100 100" fill="none" xmlns="http://www.w3.org/2000/svg">
<g clip-path="url(#clip0_112_1377)">
<path d="M82.5201 0H17.4799C7.826 0 0 7.826 0 17.4799V82.5201C0 92.174 7.826 100 17.4799 100H82.5201C92.174 100 100 92.174 100 82.5201V17.4799C100 7.826 92.174 0 82.5201 0Z" fill="#444444"/>
<path d="M68.5207 65.1099C64.6517 68.9789 59.3064 71.3715 53.4007 71.3715C41.5893 71.3715 32.015 61.7972 32.015 49.9858C32.015 38.1744 41.5893 28.6002 53.4007 28.6002C59.3064 28.6002 64.6517 30.9927 68.5207 34.8617L78.0132 25.3692C71.7149 19.0709 63.0117 15.1733 53.4007 15.1733C34.1786 15.1733 18.5964 30.7555 18.5964 49.9776C18.5964 69.1998 34.1786 84.782 53.4007 84.782C63.0117 84.782 71.7149 80.8844 78.0132 74.586L68.5207 65.0936V65.1099Z" fill="url(#paint0_linear_112_1377)"/>
</g>
<defs>
<linearGradient id="paint0_linear_112_1377" x1="18.5923" y1="49.9899" x2="78.0091" y2="49.9899" gradientUnits="userSpaceOnUse">
<stop stop-color="#56E21B"/>
<stop offset="1" stop-color="#236D05"/>
</linearGradient>
<clipPath id="clip0_112_1377">
<rect width="100" height="100" fill="white"/>
</clipPath>
</defs>
</svg>
