<svg width="258" height="49" viewBox="0 0 258 49" fill="none" xmlns="http://www.w3.org/2000/svg">
<g clip-path="url(#clip0_422_502)">
<path d="M91.5903 20.2693C91.2809 20.2062 90.9095 20.143 90.5382 20.143C90.1669 20.143 89.7956 20.0799 89.4862 20.0799C88.6198 20.0799 87.8153 20.2693 87.0727 20.585C86.33 20.9008 85.7731 21.3428 85.2161 21.8479C84.7829 22.2899 84.4116 22.7951 84.164 23.4265C83.8546 23.9948 83.669 24.6263 83.5452 25.3209C83.4214 25.9523 83.2977 26.6469 83.2977 27.2783C83.2358 27.9098 83.2358 28.5412 83.2358 29.1727V39.2758H79.4608V16.5438H82.7407L83.112 20.5219C83.7308 19.1327 84.5972 18.0593 85.8349 17.4278C87.0727 16.7332 88.3723 16.4175 89.7956 16.4175C90.3526 16.4175 90.9714 16.4807 91.5284 16.5438V20.2693H91.5903Z" fill="white"/>
<path d="M111.332 29.1727H95.5509C95.5509 30.2461 95.7366 31.2564 96.1079 32.2667C96.4792 33.2771 97.0362 34.1611 97.7169 34.8557C98.769 35.9291 100.13 36.4974 101.801 36.4974C103.596 36.4974 105.019 35.9923 105.948 35.0451C106.257 34.7294 106.505 34.3505 106.752 34.0348C106.938 33.6559 107.123 33.2139 107.309 32.5825H110.96C110.837 33.7191 110.403 34.7925 109.785 35.8028C109.166 36.8131 108.423 37.5709 107.495 38.2023C106.69 38.7706 105.824 39.1495 104.834 39.4652C103.844 39.7809 102.853 39.9072 101.801 39.9072C100.192 39.9072 98.769 39.5915 97.5313 38.96C96.2936 38.3286 95.2415 37.5077 94.3751 36.4343C93.4468 35.2977 92.7661 34.0348 92.271 32.5825C91.8378 31.1301 91.5903 29.6147 91.5903 27.9729C91.5903 26.5838 91.714 25.3209 91.9616 24.058C92.2091 22.8582 92.6423 21.7216 93.2612 20.6482C94.0657 19.259 95.1796 18.1224 96.603 17.2384C98.0264 16.3544 99.7591 15.9124 101.678 15.9124C103.101 15.9124 104.401 16.1649 105.514 16.6701C106.628 17.1753 107.619 17.933 108.423 18.817C109.351 19.8273 110.032 21.0271 110.527 22.4162C111.022 23.8054 111.27 25.2577 111.208 26.7732L111.332 29.1727ZM107.495 25.8892C107.495 25.0052 107.371 24.1843 107.123 23.3634C106.876 22.5425 106.567 21.8479 106.133 21.2796C105.638 20.6482 105.081 20.143 104.339 19.7642C103.596 19.3853 102.73 19.1959 101.739 19.1959C100.687 19.1959 99.821 19.3853 99.0784 19.7642C98.3358 20.143 97.7169 20.6482 97.16 21.2796C96.6649 21.9111 96.2936 22.6057 95.9841 23.4265C95.7366 24.2474 95.6128 25.0683 95.5509 25.8892H107.495Z" fill="white"/>
<path d="M132.311 31.6353C132.249 32.835 131.94 33.9716 131.506 34.8557C131.073 35.8028 130.454 36.6237 129.712 37.3814C128.907 38.1392 127.979 38.7706 126.927 39.2126C125.875 39.6546 124.637 39.8441 123.276 39.8441C121.233 39.8441 119.562 39.402 118.263 38.5812C116.963 37.7603 115.911 36.75 115.107 35.5502C114.488 34.6662 114.055 33.5928 113.745 32.3299C113.436 31.067 113.25 29.6147 113.25 27.8466C113.25 26.1417 113.436 24.6263 113.745 23.3634C114.055 22.1005 114.55 21.027 115.107 20.143C115.911 18.9433 116.963 17.933 118.263 17.1121C119.562 16.2912 121.233 15.8492 123.214 15.8492C124.513 15.8492 125.751 16.0386 126.803 16.4807C127.855 16.9227 128.783 17.491 129.588 18.2487C130.331 19.0064 130.949 19.8273 131.444 20.7745C131.878 21.7216 132.187 22.7951 132.249 24.058H128.474C128.412 23.3002 128.226 22.6057 127.917 22.0374C127.608 21.4691 127.298 20.9639 126.865 20.5219C126.432 20.0799 125.875 19.7642 125.256 19.5116C124.637 19.259 123.956 19.1327 123.214 19.1327C122.347 19.1327 121.605 19.259 120.986 19.5747C120.367 19.8904 119.81 20.2062 119.315 20.6482C118.449 21.4059 117.83 22.4794 117.52 23.7423C117.211 25.0051 117.087 26.3943 117.087 27.7835C117.087 29.1727 117.211 30.5618 117.52 31.8247C117.83 33.0876 118.449 34.1611 119.315 34.9188C119.81 35.3608 120.367 35.6765 120.986 35.9923C121.605 36.308 122.347 36.4343 123.214 36.4343C123.956 36.4343 124.699 36.308 125.38 36.0554C126.06 35.8028 126.617 35.424 127.051 34.9188C127.484 34.4768 127.793 34.0348 128.041 33.4665C128.288 32.8982 128.474 32.2667 128.536 31.509H132.311V31.6353Z" fill="white"/>
<path d="M153.723 29.1727H137.942C137.942 30.2461 138.128 31.2564 138.499 32.2667C138.871 33.2771 139.428 34.1611 140.108 34.8557C141.16 35.9291 142.522 36.4974 144.193 36.4974C145.988 36.4974 147.411 35.9923 148.339 35.0451C148.649 34.7294 148.896 34.3505 149.144 34.0348C149.329 33.6559 149.515 33.2139 149.701 32.5825H153.352C153.228 33.7191 152.795 34.7925 152.176 35.8028C151.557 36.8131 150.815 37.5709 149.886 38.2023C149.082 38.7706 148.215 39.1495 147.225 39.4652C146.235 39.7809 145.245 39.9072 144.193 39.9072C142.584 39.9072 141.16 39.5915 139.923 38.96C138.685 38.3286 137.633 37.5077 136.767 36.4343C135.838 35.2977 135.158 34.0348 134.662 32.5825C134.229 31.1301 133.982 29.6147 133.982 27.9729C133.982 26.5838 134.106 25.3209 134.353 24.058C134.601 22.8582 135.034 21.7216 135.653 20.6482C136.457 19.259 137.571 18.1224 138.994 17.2384C140.418 16.3544 142.151 15.9124 144.069 15.9124C145.492 15.9124 146.792 16.1649 147.906 16.6701C149.02 17.1753 150.01 17.933 150.815 18.817C151.743 19.8273 152.424 21.0271 152.919 22.4162C153.414 23.8054 153.661 25.2577 153.599 26.7732L153.723 29.1727ZM149.948 25.8892C149.948 25.0052 149.824 24.1843 149.577 23.3634C149.329 22.5425 149.02 21.8479 148.587 21.2796C148.092 20.6482 147.535 20.143 146.792 19.7642C146.049 19.3853 145.183 19.1959 144.193 19.1959C143.141 19.1959 142.274 19.3853 141.532 19.7642C140.789 20.143 140.17 20.6482 139.613 21.2796C139.118 21.9111 138.747 22.6057 138.437 23.4265C138.19 24.2474 138.066 25.0683 138.004 25.8892H149.948Z" fill="white"/>
<path d="M177.178 27.9098C177.178 29.8041 176.93 31.5722 176.373 33.2139C175.816 34.8557 175.012 36.2448 173.96 37.3814C173.217 38.1392 172.351 38.7706 171.299 39.2126C170.247 39.6546 169.071 39.8441 167.647 39.8441C166.41 39.8441 165.11 39.5283 163.872 38.8969C162.635 38.2655 161.644 37.3814 161.026 36.2448L160.778 39.2126H157.498V6.81958H161.273V19.1959C161.583 18.6907 161.954 18.2487 162.449 17.8067C162.944 17.4278 163.439 17.049 164.058 16.7964C164.615 16.5438 165.234 16.2912 165.915 16.1649C166.533 16.0387 167.152 15.9124 167.771 15.9124C169.071 15.9124 170.247 16.1018 171.299 16.5438C172.289 16.9858 173.155 17.491 173.898 18.1856C175.012 19.3222 175.878 20.7113 176.435 22.4162C176.93 24.1211 177.178 25.9523 177.178 27.9098ZM173.341 27.9098C173.341 26.8363 173.217 25.826 173.031 24.8157C172.846 23.8054 172.536 22.8582 172.041 21.9742C171.546 21.1533 170.927 20.4588 170.123 19.9536C169.318 19.4484 168.266 19.1959 167.029 19.1959C166.224 19.1959 165.481 19.3222 164.924 19.6379C164.367 19.9536 163.872 20.2693 163.377 20.7113C162.449 21.5322 161.768 22.6057 161.459 23.8685C161.088 25.1314 160.902 26.5206 160.902 27.9098C160.902 29.3621 161.088 30.6881 161.459 31.951C161.83 33.2139 162.449 34.2874 163.377 35.1082C163.81 35.5503 164.306 35.866 164.924 36.1817C165.481 36.4974 166.224 36.6237 167.029 36.6237C168.266 36.6237 169.318 36.3711 170.123 35.866C170.927 35.3608 171.608 34.6662 172.041 33.8454C172.536 33.0245 172.846 32.0773 173.031 31.0039C173.279 29.9935 173.341 28.9201 173.341 27.9098Z" fill="white"/>
<path d="M180.767 11.3028V6.81958H185.161V11.3028H180.767ZM181.015 39.2758V16.5438H184.852V39.2758H181.015Z" fill="white"/>
<path d="M190.731 36.6237C190.731 35.1082 191.906 33.9085 193.33 33.9085C194.753 33.9085 195.929 35.1082 195.929 36.5606V36.6237C195.929 38.076 194.753 39.2758 193.33 39.2758C191.906 39.2758 190.731 38.076 190.731 36.6237Z" fill="white"/>
<path d="M219.074 39.0232C218.641 39.2126 218.27 39.4021 217.898 39.4652C217.527 39.5283 217.094 39.5915 216.599 39.5915C215.609 39.5915 214.804 39.2758 214.185 38.5812C213.628 37.8866 213.319 37.0657 213.319 36.1186H213.257C212.638 37.2552 211.648 38.1392 210.348 38.8338C209.049 39.5283 207.625 39.8441 206.078 39.8441C204.779 39.8441 203.665 39.6546 202.736 39.2126C201.808 38.8338 201.004 38.2655 200.385 37.634C199.766 37.0026 199.271 36.2448 198.961 35.3608C198.652 34.5399 198.466 33.6559 198.466 32.7719C198.466 32.0773 198.59 31.2564 198.838 30.4987C199.085 29.6778 199.518 28.9201 200.137 28.2887C200.756 27.5941 201.561 27.0258 202.551 26.5838C203.541 26.0786 204.84 25.826 206.326 25.6997L213.071 25.3209V23.6791C213.071 23.1108 213.009 22.4794 212.886 21.9111C212.762 21.2796 212.452 20.7113 211.957 20.2693C211.586 19.8905 211.091 19.6379 210.534 19.3853C209.977 19.1959 209.234 19.0696 208.306 19.0696C207.254 19.0696 206.45 19.1959 205.769 19.4485C205.15 19.701 204.593 20.0167 204.222 20.3956C203.479 21.1533 203.108 22.0374 203.108 23.1108H199.456C199.456 22.0374 199.642 21.1533 200.013 20.3956C200.323 19.6379 200.818 18.9433 201.375 18.375C202.118 17.5541 203.108 16.9858 204.345 16.5438C205.583 16.1649 206.883 15.9124 208.244 15.9124C210.41 15.9124 212.143 16.3544 213.443 17.1753C214.742 17.9961 215.609 19.0696 216.166 20.3325C216.599 21.4059 216.846 22.5425 216.846 23.8686V34.9188C216.846 35.5503 216.97 35.9291 217.156 36.1186C217.403 36.308 217.651 36.4343 218.084 36.4343C218.146 36.4343 218.27 36.4343 218.393 36.4343C218.517 36.4343 218.641 36.4343 218.703 36.3711L219.074 36.308V39.0232ZM213.133 28.2887L207.13 28.6675C206.573 28.6675 206.016 28.7938 205.397 28.9832C204.84 29.1727 204.284 29.3621 203.788 29.6778C203.293 29.9936 202.922 30.4356 202.675 30.9407C202.365 31.4459 202.241 32.0773 202.241 32.7719C202.241 33.7822 202.551 34.7294 203.231 35.4871C203.912 36.308 205.026 36.6869 206.635 36.6869C207.502 36.6869 208.306 36.5606 209.111 36.2448C209.915 35.9291 210.596 35.4871 211.215 34.8557C211.895 34.1611 212.391 33.3402 212.638 32.4562C212.947 31.5722 213.071 30.625 213.071 29.6778V28.2887H213.133Z" fill="white"/>
<path d="M241.229 27.9098C241.229 29.8673 240.92 31.6985 240.363 33.4033C239.806 35.1082 238.939 36.4974 237.825 37.634C237.083 38.3286 236.216 38.8969 235.226 39.2758C234.236 39.7178 233.06 39.9072 231.699 39.9072C231.08 39.9072 230.461 39.8441 229.842 39.6546C229.223 39.5283 228.604 39.2758 227.986 39.0232C227.367 38.7706 226.872 38.3918 226.377 38.0129C225.881 37.634 225.51 37.1289 225.201 36.6237V49H221.426V16.5438H224.706L224.953 19.5116C225.572 18.375 226.562 17.491 227.8 16.8595C229.038 16.2281 230.337 15.9124 231.575 15.9124C232.936 15.9124 234.174 16.1018 235.226 16.5438C236.278 16.9858 237.145 17.6173 237.887 18.375C238.939 19.5116 239.744 20.8376 240.301 22.5425C240.981 24.2474 241.229 26.0155 241.229 27.9098ZM237.392 27.9098C237.392 26.8363 237.268 25.826 237.083 24.7526C236.897 23.7423 236.588 22.7951 236.093 21.9111C235.597 21.0902 234.979 20.3956 234.174 19.8905C233.37 19.3853 232.318 19.1327 231.08 19.1327C230.275 19.1327 229.533 19.259 228.976 19.5747C228.419 19.8905 227.924 20.2062 227.429 20.6482C226.5 21.4691 225.82 22.5425 225.51 23.8054C225.139 25.0683 224.953 26.4575 224.953 27.8466C224.953 29.299 225.139 30.625 225.51 31.8879C225.881 33.1508 226.5 34.2242 227.429 35.0451C227.862 35.4871 228.357 35.8028 228.976 36.1186C229.533 36.4343 230.275 36.5606 231.08 36.5606C232.318 36.5606 233.37 36.308 234.174 35.8028C234.979 35.2977 235.659 34.6031 236.093 33.7822C236.588 32.9613 236.897 32.0142 237.083 30.9407C237.33 29.9936 237.392 28.9832 237.392 27.9098Z" fill="white"/>
<path d="M257.195 22.5425C256.638 20.9008 255.834 19.5116 254.782 18.375C254.039 17.6173 253.173 16.9858 252.121 16.5438C251.069 16.1018 249.893 15.9124 248.47 15.9124C247.232 15.9124 245.932 16.2281 244.695 16.8595C243.457 17.491 242.467 18.375 241.848 19.5116L241.6 16.5438H238.259C238.568 16.7964 238.877 17.049 239.125 17.3647C240.363 18.6276 241.229 20.2062 241.848 22.1005C242.034 22.6688 242.157 23.174 242.281 23.7423C242.652 22.5425 243.271 21.5322 244.2 20.7113C244.633 20.2693 245.128 19.9536 245.747 19.6379C246.304 19.3222 247.046 19.1959 247.851 19.1959C249.088 19.1959 250.141 19.4485 250.945 19.9536C251.75 20.4588 252.43 21.1533 252.863 21.9742C253.359 22.7951 253.668 23.7423 253.854 24.8157C254.039 25.826 254.163 26.8995 254.163 27.9729C254.163 29.0464 254.039 30.0567 253.854 31.1302C253.668 32.1405 253.359 33.0876 252.863 33.9716C252.368 34.7925 251.75 35.4871 250.945 35.9923C250.141 36.4974 249.088 36.75 247.851 36.75C247.046 36.75 246.304 36.6237 245.747 36.308C245.19 35.9923 244.695 35.6765 244.2 35.2345C243.271 34.4137 242.652 33.4033 242.281 32.2036C242.157 32.835 241.972 33.4033 241.786 33.9716C241.167 35.866 240.177 37.5077 238.877 38.7706C238.63 38.9601 238.444 39.1495 238.197 39.3389V49.0631H241.972V36.6237C242.281 37.1289 242.652 37.5709 243.147 38.0129C243.643 38.3918 244.138 38.7706 244.757 39.0232C245.313 39.2758 245.932 39.5283 246.613 39.6546C247.232 39.7809 247.851 39.9072 248.47 39.9072C249.769 39.9072 250.945 39.7178 251.997 39.2758C252.987 38.8338 253.916 38.3286 254.596 37.634C255.71 36.4974 256.577 35.1082 257.134 33.4033C257.691 31.6985 258 29.8673 258 27.9098C258 26.0155 257.691 24.2474 257.195 22.5425Z" fill="white"/>
<path d="M22.8976 0C10.273 0 0 10.482 0 23.3634C0 36.2448 10.273 46.7268 22.8976 46.7268C35.5222 46.7268 45.7952 36.2448 45.7952 23.3634C45.7952 10.482 35.5841 0 22.8976 0ZM22.8976 44.0116C11.7582 44.0116 2.72296 34.7925 2.72296 23.3634C2.72296 11.9974 11.7582 2.77835 22.8976 2.77835C34.0369 2.77835 43.1341 11.9974 43.1341 23.3634C43.1341 34.7925 34.0988 44.0116 22.8976 44.0116Z" fill="#0CD494"/>
<path d="M21.4742 40.7281V36.4343C19.0606 36.3711 16.5852 35.6134 15.1619 34.6031L16.152 31.7616C17.6373 32.7719 19.8033 33.5928 22.093 33.5928C25.0635 33.5928 27.0439 31.8879 27.0439 29.4253C27.0439 27.0889 25.4348 25.6366 22.3406 24.3737C18.1324 22.6688 15.4713 20.7113 15.4713 17.049C15.4713 13.5129 17.9467 10.8608 21.7217 10.2294V5.99872H24.3209V10.1031C26.7963 10.1662 28.5291 10.8608 29.7049 11.5554L28.6529 14.3338C27.8484 13.8918 26.1156 12.9446 23.5164 12.9446C20.2983 12.9446 19.1225 14.9021 19.1225 16.607C19.1225 18.817 20.6697 19.8905 24.259 21.4059C28.5291 23.174 30.6951 25.384 30.6951 29.1727C30.6951 32.5193 28.4053 35.6134 24.1352 36.3711V40.7912H21.4742V40.7281Z" fill="#0CD494"/>
<path d="M57.9865 18.0593V14.5863C57.9865 13.9549 57.4914 13.4497 56.8726 13.4497H44.743C45.5476 15.2178 46.1045 17.1121 46.4139 19.1327H56.9345C57.4914 19.1959 57.9865 18.6907 57.9865 18.0593Z" fill="#0CD494"/>
<path d="M46.6615 25.9523H67.7025C68.3214 25.9523 68.8164 25.4472 68.8164 24.8157V21.3428C68.8164 20.7113 68.3214 20.2062 67.7025 20.2062H46.5996C46.7234 21.2165 46.7853 22.2268 46.7853 23.3003C46.7853 24.2474 46.7234 25.1314 46.6615 25.9523Z" fill="#0CD494"/>
<path d="M64.9796 31.6353V28.1624C64.9796 27.5309 64.4845 27.0258 63.8656 27.0258H46.5377C46.2283 28.9832 45.7332 30.8776 44.9906 32.7088H63.9275C64.4845 32.7088 64.9796 32.2036 64.9796 31.6353Z" fill="#0CD494"/>
<path d="M68.1357 38.3917V34.9188C68.1357 34.2874 67.6406 33.7822 67.0217 33.7822H44.4955C43.5053 35.866 42.2676 37.7603 40.8442 39.4652H67.0836C67.6406 39.5283 68.1357 39.0232 68.1357 38.3917Z" fill="#0CD494"/>
<path d="M61.4521 45.1482V41.6753C61.4521 41.0438 60.957 40.5387 60.3382 40.5387H39.7922C37.3787 43.0013 34.4082 44.9588 31.0664 46.2216H60.4001C61.0189 46.2848 61.4521 45.7796 61.4521 45.1482Z" fill="#0CD494"/>
</g>
<defs>
<clipPath id="clip0_422_502">
<rect width="258" height="49" fill="white"/>
</clipPath>
</defs>
</svg>
