<svg width="258" height="54" viewBox="0 0 258 54" fill="none" xmlns="http://www.w3.org/2000/svg">
<path d="M70.6 31.7999C70.5 32.8999 70.3 33.8999 69.9 34.7999C69.5 35.6999 68.9 36.3999 68.2 37.0999C67.5 37.7999 66.6 38.3999 65.6 38.7999C64.6 39.1999 63.5 39.3999 62.1 39.3999C60.2 39.3999 58.6 38.9999 57.4 38.2999C56.2 37.4999 55.2 36.5999 54.4 35.4999C53.8 34.6999 53.4 33.6999 53.1 32.4999C52.8 31.2999 52.6 29.9999 52.6 28.3999C52.6 26.7999 52.8 25.3999 53.1 24.2999C53.4 23.0999 53.8 22.0999 54.4 21.2999C55.1 20.1999 56.1 19.2999 57.4 18.4999C58.6 17.6999 60.2 17.3999 62.1 17.3999C63.3 17.3999 64.5 17.5999 65.5 17.9999C66.5 18.3999 67.4 18.8999 68.1 19.6999C68.8 20.3999 69.4 21.1999 69.8 21.9999C70.2 22.8999 70.5 23.8999 70.6 25.0999H67C66.9 24.3999 66.7 23.6999 66.5 23.1999C66.3 22.6999 65.9 22.1999 65.5 21.7999C65.1 21.3999 64.6 21.0999 64 20.8999C63.4 20.6999 62.8 20.4999 62.1 20.4999C61.3 20.4999 60.6 20.5999 60 20.8999C59.4 21.1999 58.9 21.4999 58.4 21.8999C57.6 22.5999 57 23.5999 56.7 24.7999C56.4 25.9999 56.3 27.1999 56.3 28.4999C56.3 29.7999 56.4 31.0999 56.7 32.1999C57 33.3999 57.6 34.2999 58.4 35.0999C58.9 35.4999 59.4 35.7999 60 36.0999C60.6 36.3999 61.3 36.4999 62.1 36.4999C62.8 36.4999 63.5 36.3999 64.1 36.0999C64.7 35.8999 65.2 35.4999 65.7 35.0999C66.1 34.6999 66.4 34.2999 66.6 33.7999C66.8 33.2999 67 32.6999 67.1 31.9999H70.6V31.7999Z" fill="white"/>
<path d="M86.3 38.8999V25.4999C86.3 23.8999 85.9 22.6999 85.2 21.7999C84.5 20.8999 83.3 20.4999 81.6 20.4999C80.6 20.4999 79.7 20.7999 78.9 21.3999C78.1 21.9999 77.5 22.7999 77 23.6999C76.6 24.4999 76.4 25.3999 76.4 26.3999C76.3 27.3999 76.3 28.2999 76.3 29.0999V38.8999H72.8V8.8999H76.3V20.6999C76.9 19.5999 77.8 18.7999 79 18.1999C80.1 17.5999 81.3 17.2999 82.5 17.2999C84.9 17.2999 86.7 17.9999 88 19.2999C89.2 20.6999 89.9 22.5999 89.9 24.9999V38.8999H86.3Z" fill="white"/>
<path d="M110.8 29.5H95.9C95.9 30.5 96.1 31.4 96.4 32.4C96.8 33.4 97.3 34.1999 97.9 34.7999C98.9 35.7999 100.2 36.2999 101.8 36.2999C103.5 36.2999 104.8 35.8 105.7 34.9C106 34.6 106.3 34.3 106.4 33.9C106.6 33.6 106.8 33.0999 106.9 32.5999H110.4C110.3 33.6999 109.9 34.5999 109.3 35.5999C108.7 36.4999 108 37.2999 107.1 37.7999C106.4 38.2999 105.5 38.7 104.6 39C103.7 39.2999 102.7 39.4 101.7 39.4C100.2 39.4 98.9 39.1 97.7 38.5C96.5 37.9 95.5 37.2 94.7 36.2C93.8 35.2 93.2 33.9999 92.7 32.5999C92.3 31.2999 92.1 29.7999 92.1 28.2999C92.1 26.9999 92.2 25.8 92.5 24.7C92.7 23.6 93.2 22.5 93.7 21.6C94.4 20.3 95.5 19.3 96.9 18.4C98.3 17.6 99.9 17.2 101.7 17.2C103.1 17.2 104.3 17.4 105.3 17.9C106.4 18.4 107.3 19 108.1 19.9C109 20.8 109.6 22 110.1 23.2C110.6 24.5 110.8 25.7999 110.8 27.2999V29.5ZM107.2 26.5C107.2 25.7 107.1 24.9 106.9 24.2C106.7 23.5 106.4 22.8 105.9 22.2C105.5 21.6 104.9 21.1999 104.2 20.7999C103.5 20.4999 102.7 20.2999 101.7 20.2999C100.7 20.2999 99.9 20.4999 99.2 20.7999C98.5 21.1999 97.9 21.6 97.4 22.2C96.9 22.8 96.6 23.4 96.3 24.2C96.2 25 96 25.7 96 26.5H107.2Z" fill="white"/>
<path d="M127 47.8999V36.4999C126.7 36.9999 126.4 37.3999 125.9 37.7999C125.4 38.1999 124.9 38.4999 124.4 38.6999C123.8 38.8999 123.3 39.0999 122.7 39.2999C122.1 39.3999 121.5 39.4999 120.9 39.4999C119.7 39.4999 118.6 39.2999 117.6 38.8999C116.6 38.4999 115.8 37.9999 115.1 37.3999C114 36.3999 113.2 35.0999 112.7 33.4999C112.2 31.8999 111.9 30.1999 111.9 28.3999C111.9 26.6999 112.2 24.9999 112.7 23.4999C113.2 21.9999 114 20.6999 115 19.6999C115.7 18.9999 116.5 18.3999 117.5 17.9999C118.5 17.5999 119.6 17.3999 120.9 17.3999C122.1 17.3999 123.3 17.6999 124.5 18.2999C125.7 18.8999 126.6 19.6999 127.2 20.6999L127.4 17.9999H130.5V47.9999H127V47.8999ZM127.2 28.3999C127.2 27.0999 127 25.7999 126.7 24.5999C126.4 23.3999 125.8 22.3999 124.9 21.6999C124.5 21.2999 124 20.9999 123.5 20.6999C123 20.3999 122.3 20.2999 121.5 20.2999C120.3 20.2999 119.4 20.4999 118.6 20.9999C117.8 21.4999 117.2 22.0999 116.8 22.8999C116.4 23.6999 116 24.4999 115.9 25.4999C115.7 26.4999 115.6 27.3999 115.6 28.3999C115.6 29.3999 115.7 30.2999 115.9 31.2999C116.1 32.2999 116.4 33.0999 116.8 33.8999C117.2 34.6999 117.9 35.2999 118.6 35.7999C119.4 36.2999 120.3 36.4999 121.5 36.4999C122.3 36.4999 122.9 36.3999 123.5 36.0999C124 35.7999 124.5 35.4999 124.9 35.0999C125.8 34.2999 126.4 33.2999 126.7 32.1999C127 30.9999 127.2 29.6999 127.2 28.3999Z" fill="white"/>
<path d="M148.3 38.9001L148 35.7001C147.4 36.9001 146.6 37.8 145.4 38.5C144.2 39.1 143 39.4001 141.8 39.4001C139.4 39.4001 137.6 38.7001 136.4 37.4001C135.2 36.0001 134.6 34.1 134.6 31.7001V17.8H138.1V31.1C138.1 32.7001 138.4 33.9 139.1 34.8C139.8 35.7 140.9 36.1 142.6 36.1C143.3 36.1 144 36 144.5 35.7001C145.1 35.4001 145.6 35 146.1 34.6C146.8 33.9 147.2 33 147.5 32C147.7 30.9 147.9 29.9 147.9 28.8V17.8H151.4V38.8H148.3V38.9001Z" fill="white"/>
<path d="M172.7 29.5H157.8C157.8 30.5 158 31.4 158.3 32.4C158.7 33.4 159.2 34.1999 159.8 34.7999C160.8 35.7999 162.1 36.2999 163.7 36.2999C165.4 36.2999 166.7 35.8 167.6 34.9C167.9 34.6 168.2 34.3 168.3 33.9C168.5 33.6 168.7 33.0999 168.8 32.5999H172.3C172.2 33.6999 171.8 34.5999 171.2 35.5999C170.6 36.4999 169.9 37.2999 169 37.7999C168.3 38.2999 167.4 38.7 166.5 39C165.6 39.2999 164.6 39.4 163.6 39.4C162.1 39.4 160.8 39.1 159.6 38.5C158.4 37.9 157.4 37.2 156.6 36.2C155.7 35.2 155.1 33.9999 154.6 32.5999C154.2 31.2999 154 29.7999 154 28.2999C154 26.9999 154.1 25.8 154.4 24.7C154.6 23.6 155.1 22.5 155.6 21.6C156.3 20.3 157.4 19.3 158.8 18.4C160.2 17.6 161.8 17.2 163.6 17.2C165 17.2 166.2 17.4 167.2 17.9C168.3 18.4 169.2 19 170 19.9C170.9 20.8 171.5 22 172 23.2C172.5 24.5 172.7 25.7999 172.7 27.2999V29.5ZM169.1 26.5C169.1 25.7 169 24.9 168.8 24.2C168.6 23.5 168.3 22.8 167.8 22.2C167.4 21.6 166.8 21.1999 166.1 20.7999C165.4 20.4999 164.6 20.2999 163.6 20.2999C162.6 20.2999 161.8 20.4999 161.1 20.7999C160.4 21.1999 159.8 21.6 159.3 22.2C158.8 22.8 158.5 23.4 158.2 24.2C158 24.9 157.8 25.7 157.8 26.5H169.1Z" fill="white"/>
<path d="M194.5 36.3999C194.5 34.9999 195.6 33.8999 197 33.8999C198.4 33.8999 199.5 34.9999 199.5 36.3999C199.5 37.7999 198.4 38.8999 197 38.8999C195.6 38.8999 194.5 37.7999 194.5 36.3999Z" fill="white"/>
<path d="M221.2 38.7001C220.8 38.9001 220.4 39.0001 220.1 39.1001C219.7 39.2001 219.3 39.2001 218.9 39.2001C217.9 39.2001 217.2 38.9001 216.6 38.3001C216.1 37.7001 215.8 36.9001 215.8 36.0001H215.7C215.1 37.1001 214.2 37.9001 213 38.5001C211.8 39.1001 210.4 39.4001 209 39.4001C207.8 39.4001 206.7 39.2001 205.8 38.8001C204.9 38.4001 204.2 37.9001 203.6 37.3001C203 36.7001 202.6 36.0001 202.3 35.2001C202 34.4001 201.8 33.6001 201.8 32.8001C201.8 32.1001 201.9 31.4001 202.2 30.7001C202.4 30.0001 202.8 29.3001 203.4 28.6001C204 28.0001 204.7 27.4001 205.7 27.0001C206.7 26.6001 207.8 26.3001 209.3 26.2001L215.7 25.8001V24.3001C215.7 23.8001 215.6 23.2001 215.5 22.6001C215.4 22.0001 215.1 21.5001 214.6 21.1001C214.2 20.8001 213.8 20.5001 213.2 20.3001C212.7 20.1001 212 20.0001 211.1 20.0001C210.1 20.0001 209.3 20.1001 208.7 20.4001C208.1 20.6001 207.6 20.9001 207.2 21.3001C206.5 22.0001 206.2 22.8001 206.2 23.8001H202.7C202.7 22.8001 202.9 22.0001 203.2 21.3001C203.5 20.6001 204 20.0001 204.5 19.4001C205.2 18.7001 206.2 18.1001 207.3 17.7001C208.5 17.3001 209.7 17.1001 211 17.1001C213.1 17.1001 214.7 17.5001 215.9 18.2001C217.1 19.0001 218 19.9001 218.5 21.1001C218.9 22.1001 219.1 23.2001 219.1 24.3001V34.5001C219.1 35.1001 219.2 35.4001 219.4 35.6001C219.6 35.8001 219.9 35.9001 220.3 35.9001C220.4 35.9001 220.5 35.9001 220.6 35.9001C220.7 35.9001 220.8 35.9001 220.9 35.9001L221.2 35.8001V38.7001ZM215.6 28.7001L210 29.0001C209.5 29.0001 208.9 29.1001 208.4 29.3001C207.8 29.5001 207.4 29.7001 206.9 30.0001C206.5 30.3001 206.1 30.7001 205.8 31.1001C205.5 31.6001 205.4 32.1001 205.4 32.8001C205.4 33.7001 205.7 34.6001 206.4 35.3001C207 36.0001 208.1 36.4001 209.6 36.4001C210.4 36.4001 211.2 36.3001 211.9 36.0001C212.7 35.7001 213.3 35.3001 213.9 34.7001C214.5 34.1001 215 33.3001 215.3 32.5001C215.6 31.7001 215.7 30.8001 215.7 29.9001V28.7001H215.6Z" fill="white"/>
<path d="M242.1 28.4C242.1 30.2 241.8 31.9 241.3 33.5C240.8 35.1 240 36.4001 238.9 37.4001C238.2 38.0001 237.4 38.6001 236.4 38.9001C235.4 39.3001 234.3 39.5 233.1 39.5C232.5 39.5 231.9 39.4 231.3 39.3C230.7 39.2 230.1 39 229.6 38.7001C229 38.5 228.5 38.1 228.1 37.8C227.6 37.4 227.3 37 227 36.5V47.9001H223.5V17.9H226.6L226.8 20.6C227.4 19.5001 228.3 18.7001 229.5 18.2001C230.7 17.6001 231.9 17.3 233.1 17.3C234.4 17.3 235.5 17.5 236.5 17.9C237.5 18.3 238.3 18.9 239 19.6C240 20.6 240.8 21.9 241.3 23.4C241.9 25 242.1 26.6 242.1 28.4ZM238.5 28.4C238.5 27.4 238.4 26.5 238.2 25.5C238 24.5 237.7 23.7 237.3 22.9C236.9 22.1 236.2 21.5 235.5 21C234.7 20.5 233.8 20.3 232.6 20.3C231.8 20.3 231.2 20.4001 230.6 20.7001C230 21.0001 229.6 21.3001 229.2 21.7001C228.3 22.5001 227.7 23.5001 227.4 24.6C227.1 25.8 226.9 27 226.9 28.4C226.9 29.7 227.1 31.0001 227.4 32.2001C227.7 33.4001 228.3 34.4 229.2 35.1C229.6 35.5 230.1 35.8 230.6 36.1C231.1 36.4 231.8 36.5 232.6 36.5C233.8 36.5 234.7 36.3 235.5 35.8C236.3 35.3 236.9 34.7001 237.3 33.9001C237.7 33.1001 238.1 32.3 238.2 31.3C238.4 30.3 238.5 29.4 238.5 28.4Z" fill="white"/>
<path d="M257.1 23.4999C256.6 21.9999 255.8 20.6999 254.8 19.6999C254.1 18.9999 253.3 18.3999 252.3 17.9999C251.3 17.5999 250.2 17.3999 248.9 17.3999C247.7 17.3999 246.5 17.6999 245.3 18.2999C244.1 18.8999 243.2 19.6999 242.6 20.6999L242.4 17.9999H239.3C239.6 18.1999 239.9 18.4999 240.1 18.6999C241.2 19.8999 242.1 21.2999 242.7 23.0999C242.9 23.5999 243 24.0999 243.1 24.5999C243.4 23.4999 244 22.4999 244.9 21.7999C245.3 21.3999 245.8 21.0999 246.3 20.7999C246.8 20.4999 247.5 20.3999 248.3 20.3999C249.5 20.3999 250.4 20.5999 251.2 21.0999C252 21.5999 252.6 22.1999 253 22.9999C253.4 23.7999 253.8 24.5999 253.9 25.5999C254.1 26.5999 254.2 27.4999 254.2 28.4999C254.2 29.4999 254.1 30.3999 253.9 31.3999C253.7 32.3999 253.4 33.1999 253 33.9999C252.6 34.7999 251.9 35.3999 251.2 35.8999C250.4 36.3999 249.5 36.5999 248.3 36.5999C247.5 36.5999 246.9 36.4999 246.3 36.1999C245.8 35.8999 245.3 35.5999 244.9 35.1999C244 34.3999 243.4 33.4999 243.1 32.3999C243 32.9999 242.8 33.4999 242.6 33.9999C242 35.7999 241.1 37.2999 239.9 38.4999C239.7 38.6999 239.5 38.8999 239.2 38.9999V47.9999H242.7V36.4999C243 36.9999 243.3 37.3999 243.8 37.7999C244.3 38.1999 244.8 38.4999 245.3 38.6999C245.9 38.8999 246.4 39.0999 247 39.2999C247.6 39.3999 248.2 39.4999 248.8 39.4999C250 39.4999 251.2 39.2999 252.1 38.8999C253.1 38.4999 253.9 37.9999 254.6 37.3999C255.7 36.3999 256.5 35.0999 257 33.4999C257.5 31.8999 257.8 30.1999 257.8 28.3999C257.9 26.5999 257.7 24.9999 257.1 23.4999Z" fill="white"/>
<path d="M38.7 38.7C35.7 41.7 31.6 43.6 27 43.6C17.8 43.6 10.4 36.2 10.4 27C10.4 17.8 17.8 10.4 27 10.4C31.6 10.4 35.7 12.3 38.7 15.3L46.1 7.9C41.2 3 34.4 0 27 0C12.1 0 0 12.1 0 27C0 41.9 12.1 54 27 54C34.4 54 41.2 51 46.1 46.1L38.7 38.7Z" fill="url(#paint0_linear_1_1661)"/>
<path d="M192.3 32.7999C192.3 33.6999 192.1 34.4999 191.8 35.1999C191.5 35.8999 191.1 36.4999 190.6 36.9999C189.8 37.7999 188.8 38.3999 187.6 38.7999C186.4 39.1999 185.1 39.3999 183.7 39.3999C182.4 39.3999 181.1 39.1999 180 38.8999C178.8 38.5999 177.8 37.8999 176.9 37.0999C176.3 36.4999 175.8 35.6999 175.4 34.8999C175 34.0999 174.9 33.1999 174.9 32.2999H178.4C178.4 32.9999 178.6 33.5999 178.9 34.1999C179.2 34.6999 179.6 35.1999 180.1 35.5999C180.6 35.9999 181.2 36.1999 181.8 36.2999C182.5 36.3999 183.2 36.4999 183.8 36.4999C184.5 36.4999 185.2 36.3999 185.9 36.2999C186.5 36.0999 187.2 35.7999 187.7 35.3999C188 35.1999 188.3 34.8999 188.4 34.3999C188.6 33.9999 188.7 33.4999 188.7 33.0999C188.7 32.2999 188.4 31.5999 187.9 31.0999C187.3 30.5999 186.5 30.1999 185.5 30.0999C185.3 30.0999 185 29.9999 184.6 29.9999C184.2 29.8999 183.8 29.8999 183.4 29.7999C183 29.6999 182.5 29.6999 182.1 29.5999C181.6 29.4999 181.2 29.4999 180.9 29.3999C179.3 29.1999 178.1 28.4999 177.1 27.5999C176.1 26.6999 175.7 25.3999 175.7 23.7999C175.7 22.9999 175.9 22.1999 176.2 21.4999C176.5 20.7999 177 20.1999 177.4 19.6999C178.1 18.9999 179 18.3999 180 17.9999C181.1 17.5999 182.2 17.3999 183.6 17.3999C185 17.3999 186.3 17.5999 187.5 18.0999C188.7 18.4999 189.6 19.1999 190.3 20.0999C190.8 20.6999 191.1 21.1999 191.4 21.8999C191.7 22.4999 191.8 23.2999 191.8 24.0999H188.3C188.3 23.4999 188.1 22.9999 187.9 22.5999C187.7 22.0999 187.4 21.7999 187.1 21.4999C186.3 20.7999 185.1 20.3999 183.7 20.3999C183.3 20.3999 182.9 20.3999 182.5 20.3999C182.1 20.3999 181.7 20.5999 181.2 20.7999C180.5 21.0999 180 21.4999 179.6 21.9999C179.2 22.4999 179 23.0999 179 23.5999C179 24.4999 179.2 25.0999 179.7 25.4999C180.2 25.8999 180.9 26.1999 181.8 26.2999C182.4 26.3999 183.1 26.4999 183.9 26.5999C184.7 26.6999 185.7 26.7999 186.8 26.9999C188.3 27.1999 189.6 27.8999 190.6 28.8999C191.8 29.8999 192.3 31.1999 192.3 32.7999Z" fill="white"/>
<defs>
<linearGradient id="paint0_linear_1_1661" x1="0" y1="26.978" x2="46.0544" y2="26.978" gradientUnits="userSpaceOnUse">
<stop stop-color="#56E21B"/>
<stop offset="1" stop-color="#236D05"/>
</linearGradient>
</defs>
</svg>
