<svg xmlns="http://www.w3.org/2000/svg" xmlns:xlink="http://www.w3.org/1999/xlink" viewBox="0 0 600 600" width="600" height="600" preserveAspectRatio="xMidYMid meet" style="width: 100%; height: 100%; transform: translate3d(0px, 0px, 0px); content-visibility: visible;" id="Coins"><defs><clipPath id="__lottie_element_6655"><rect width="600" height="600" x="0" y="0"/></clipPath></defs><g clip-path="url(#__lottie_element_6655)"><g transform="matrix(1,0,0,1,16,-123.89274597167969)" opacity="1" style="display: block;"><g opacity="1" transform="matrix(1,0,0,1,192.27000427246094,383.3869934082031)"><path fill="rgb(255,204,42)" fill-opacity="1" d=" M114.96199798583984,0 C114.96199798583984,7.709000110626221 107.43399810791016,14.857000350952148 94.57599639892578,20.729999542236328 C73.83100128173828,30.23900032043457 39.207000732421875,36.46200180053711 0,36.46200180053711 C-39.20600128173828,36.46200180053711 -73.83100128173828,30.23900032043457 -94.57499694824219,20.729999542236328 C-107.43399810791016,14.857000350952148 -114.96199798583984,7.709000110626221 -114.96199798583984,0 C-114.96199798583984,-20.13599967956543 -63.49300003051758,-36.46200180053711 0,-36.46200180053711 C63.49300003051758,-36.46200180053711 114.96199798583984,-20.13599967956543 114.96199798583984,0z"/></g><g opacity="1" transform="matrix(1,0,0,1,192.27000427246094,422.3479919433594)"><path fill="rgb(255,158,20)" fill-opacity="1" d=" M114.96199798583984,-38.96099853515625 C114.96199798583984,-38.96099853515625 114.96199798583984,2.5 114.96199798583984,2.5 C114.96199798583984,22.636999130249023 63.49300003051758,38.96099853515625 0,38.96099853515625 C-63.49300003051758,38.96099853515625 -114.96199798583984,22.636999130249023 -114.96199798583984,2.5 C-114.96199798583984,2.5 -114.96199798583984,-38.96099853515625 -114.96199798583984,-38.96099853515625 C-114.96199798583984,-31.25200080871582 -107.43399810791016,-24.104999542236328 -94.57499694824219,-18.23200035095215 C-73.83100128173828,-8.722999572753906 -39.20600128173828,-2.5 0,-2.5 C39.207000732421875,-2.5 73.83100128173828,-8.722999572753906 94.57599639892578,-18.23200035095215 C107.43399810791016,-24.104999542236328 114.96199798583984,-31.25200080871582 114.96199798583984,-38.96099853515625z"/></g><g opacity="1" transform="matrix(1,0,0,1,173.51600646972656,383.3869934082031)"><path stroke-linecap="butt" stroke-linejoin="miter" fill-opacity="0" stroke-miterlimit="10" stroke="rgb(0,0,0)" stroke-opacity="1" stroke-width="16.361" d=" M117.98600006103516,0 C117.98600006103516,7.709000110626221 110.25900268554688,14.857000350952148 97.06300354003906,20.729999542236328 C75.77300262451172,30.23900032043457 40.237998962402344,36.46200180053711 0.0010000000474974513,36.46200180053711 C-40.23699951171875,36.46200180053711 -75.77300262451172,30.23900032043457 -97.06300354003906,20.729999542236328 C-110.26000213623047,14.857000350952148 -117.98500061035156,7.709000110626221 -117.98500061035156,0 C-117.98500061035156,-20.13599967956543 -65.16200256347656,-36.46200180053711 0.0010000000474974513,-36.46200180053711 C65.16400146484375,-36.46200180053711 117.98600006103516,-20.13599967956543 117.98600006103516,0z"/></g><g opacity="1" transform="matrix(1,0,0,1,173.51600646972656,422.3479919433594)"><path stroke-linecap="butt" stroke-linejoin="miter" fill-opacity="0" stroke-miterlimit="10" stroke="rgb(0,0,0)" stroke-opacity="1" stroke-width="16.361" d=" M117.98600006103516,-38.96099853515625 C117.98600006103516,-38.96099853515625 117.98600006103516,2.5 117.98600006103516,2.5 C117.98600006103516,22.636999130249023 65.16400146484375,38.96099853515625 0.0010000000474974513,38.96099853515625 C-65.16200256347656,38.96099853515625 -117.98500061035156,22.636999130249023 -117.98500061035156,2.5 C-117.98500061035156,2.5 -117.98500061035156,-38.96099853515625 -117.98500061035156,-38.96099853515625 C-117.98500061035156,-31.25200080871582 -110.26000213623047,-24.104999542236328 -97.06300354003906,-18.23200035095215 C-75.77300262451172,-8.722999572753906 -40.23699951171875,-2.5 0.0010000000474974513,-2.5 C40.237998962402344,-2.5 75.77300262451172,-8.722999572753906 97.06300354003906,-18.23200035095215 C110.25900268554688,-24.104999542236328 117.98600006103516,-31.25200080871582 117.98600006103516,-38.96099853515625z"/></g></g><g transform="matrix(1,0,0,1,16,-476.13543701171875)" opacity="1" style="display: block;"><g opacity="1" transform="matrix(1,0,0,1,192.27000427246094,343.3869934082031)"><path fill="rgb(255,204,42)" fill-opacity="1" d=" M114.96199798583984,0 C114.96199798583984,7.709000110626221 107.43399810791016,14.857000350952148 94.57599639892578,20.729999542236328 C73.83100128173828,30.23900032043457 39.207000732421875,36.46200180053711 0,36.46200180053711 C-39.20600128173828,36.46200180053711 -73.83100128173828,30.23900032043457 -94.57499694824219,20.729999542236328 C-107.43399810791016,14.857000350952148 -114.96199798583984,7.709000110626221 -114.96199798583984,0 C-114.96199798583984,-20.13599967956543 -63.49300003051758,-36.46200180053711 0,-36.46200180053711 C63.49300003051758,-36.46200180053711 114.96199798583984,-20.13599967956543 114.96199798583984,0z"/></g><g opacity="1" transform="matrix(1,0,0,1,192.27000427246094,382.3479919433594)"><path fill="rgb(255,158,20)" fill-opacity="1" d=" M114.96199798583984,-38.96200180053711 C114.96199798583984,-38.96200180053711 114.96199798583984,2.499000072479248 114.96199798583984,2.499000072479248 C114.96199798583984,22.63599967956543 63.49300003051758,38.96099853515625 0,38.96099853515625 C-63.49300003051758,38.96099853515625 -114.96199798583984,22.63599967956543 -114.96199798583984,2.499000072479248 C-114.96199798583984,2.499000072479248 -114.96199798583984,-38.96200180053711 -114.96199798583984,-38.96200180053711 C-114.96199798583984,-31.253000259399414 -107.43399810791016,-24.104999542236328 -94.57499694824219,-18.23200035095215 C-73.83100128173828,-8.722999572753906 -39.20600128173828,-2.5 0,-2.5 C39.207000732421875,-2.5 73.83100128173828,-8.722999572753906 94.57599639892578,-18.23200035095215 C107.43399810791016,-24.104999542236328 114.96199798583984,-31.253000259399414 114.96199798583984,-38.96200180053711z"/></g><g opacity="1" transform="matrix(1,0,0,1,173.51600646972656,343.3869934082031)"><path stroke-linecap="butt" stroke-linejoin="miter" fill-opacity="0" stroke-miterlimit="10" stroke="rgb(0,0,0)" stroke-opacity="1" stroke-width="16.361" d=" M117.98600006103516,0 C117.98600006103516,7.709000110626221 110.25900268554688,14.857000350952148 97.06300354003906,20.729999542236328 C75.77300262451172,30.23900032043457 40.237998962402344,36.46200180053711 0.0010000000474974513,36.46200180053711 C-40.23699951171875,36.46200180053711 -75.77300262451172,30.23900032043457 -97.06300354003906,20.729999542236328 C-110.26000213623047,14.857000350952148 -117.98500061035156,7.709000110626221 -117.98500061035156,0 C-117.98500061035156,-20.13599967956543 -65.16200256347656,-36.46200180053711 0.0010000000474974513,-36.46200180053711 C65.16400146484375,-36.46200180053711 117.98600006103516,-20.13599967956543 117.98600006103516,0z"/></g><g opacity="1" transform="matrix(1,0,0,1,173.51600646972656,382.3479919433594)"><path stroke-linecap="butt" stroke-linejoin="miter" fill-opacity="0" stroke-miterlimit="10" stroke="rgb(0,0,0)" stroke-opacity="1" stroke-width="16.361" d=" M117.98600006103516,-38.96200180053711 C117.98600006103516,-38.96200180053711 117.98600006103516,2.499000072479248 117.98600006103516,2.499000072479248 C117.98600006103516,22.63599967956543 65.16400146484375,38.96099853515625 0.0010000000474974513,38.96099853515625 C-65.16200256347656,38.96099853515625 -117.98500061035156,22.63599967956543 -117.98500061035156,2.499000072479248 C-117.98500061035156,2.499000072479248 -117.98500061035156,-38.96200180053711 -117.98500061035156,-38.96200180053711 C-117.98500061035156,-31.253000259399414 -110.26000213623047,-24.104999542236328 -97.06300354003906,-18.23200035095215 C-75.77300262451172,-8.722999572753906 -40.23699951171875,-2.5 0.0010000000474974513,-2.5 C40.237998962402344,-2.5 75.77300262451172,-8.722999572753906 97.06300354003906,-18.23200035095215 C110.25900268554688,-24.104999542236328 117.98600006103516,-31.253000259399414 117.98600006103516,-38.96200180053711z"/></g></g><g transform="matrix(1,0,0,1,16,-9)" opacity="1" style="display: none;"><g opacity="1" transform="matrix(1,0,0,1,192.27000427246094,300.3869934082031)"><path fill="rgb(255,204,42)" fill-opacity="1" d=" M114.96199798583984,0 C114.96199798583984,7.709000110626221 107.43399810791016,14.857000350952148 94.57599639892578,20.729999542236328 C73.83100128173828,30.23900032043457 39.207000732421875,36.46200180053711 0,36.46200180053711 C-39.20600128173828,36.46200180053711 -73.83100128173828,30.23900032043457 -94.57499694824219,20.729999542236328 C-107.43399810791016,14.857000350952148 -114.96199798583984,7.709000110626221 -114.96199798583984,0 C-114.96199798583984,-20.13599967956543 -63.49300003051758,-36.46200180053711 0,-36.46200180053711 C63.49300003051758,-36.46200180053711 114.96199798583984,-20.13599967956543 114.96199798583984,0z"/></g><g opacity="1" transform="matrix(1,0,0,1,192.27000427246094,339.3479919433594)"><path fill="rgb(255,158,20)" fill-opacity="1" d=" M114.96199798583984,-38.96200180053711 C114.96199798583984,-38.96200180053711 114.96199798583984,2.499000072479248 114.96199798583984,2.499000072479248 C114.96199798583984,22.63599967956543 63.49300003051758,38.96099853515625 0,38.96099853515625 C-63.49300003051758,38.96099853515625 -114.96199798583984,22.63599967956543 -114.96199798583984,2.499000072479248 C-114.96199798583984,2.499000072479248 -114.96199798583984,-38.96200180053711 -114.96199798583984,-38.96200180053711 C-114.96199798583984,-31.253000259399414 -107.43399810791016,-24.104999542236328 -94.57499694824219,-18.23200035095215 C-73.83100128173828,-8.722999572753906 -39.20600128173828,-2.5 0,-2.5 C39.207000732421875,-2.5 73.83100128173828,-8.722999572753906 94.57599639892578,-18.23200035095215 C107.43399810791016,-24.104999542236328 114.96199798583984,-31.253000259399414 114.96199798583984,-38.96200180053711z"/></g><g opacity="1" transform="matrix(1,0,0,1,173.51600646972656,300.3869934082031)"><path stroke-linecap="butt" stroke-linejoin="miter" fill-opacity="0" stroke-miterlimit="10" stroke="rgb(0,0,0)" stroke-opacity="1" stroke-width="16.361" d=" M117.98600006103516,0 C117.98600006103516,7.709000110626221 110.25900268554688,14.857000350952148 97.06300354003906,20.729999542236328 C75.77300262451172,30.23900032043457 40.237998962402344,36.46200180053711 0.0010000000474974513,36.46200180053711 C-40.23699951171875,36.46200180053711 -75.77300262451172,30.23900032043457 -97.06300354003906,20.729999542236328 C-110.26000213623047,14.857000350952148 -117.98500061035156,7.709000110626221 -117.98500061035156,0 C-117.98500061035156,-20.13599967956543 -65.16200256347656,-36.46200180053711 0.0010000000474974513,-36.46200180053711 C65.16400146484375,-36.46200180053711 117.98600006103516,-20.13599967956543 117.98600006103516,0z"/></g><g opacity="1" transform="matrix(1,0,0,1,173.51600646972656,339.3479919433594)"><path stroke-linecap="butt" stroke-linejoin="miter" fill-opacity="0" stroke-miterlimit="10" stroke="rgb(0,0,0)" stroke-opacity="1" stroke-width="16.361" d=" M117.98600006103516,-38.96200180053711 C117.98600006103516,-38.96200180053711 117.98600006103516,2.499000072479248 117.98600006103516,2.499000072479248 C117.98600006103516,22.63599967956543 65.16400146484375,38.96099853515625 0.0010000000474974513,38.96099853515625 C-65.16200256347656,38.96099853515625 -117.98500061035156,22.63599967956543 -117.98500061035156,2.499000072479248 C-117.98500061035156,2.499000072479248 -117.98500061035156,-38.96200180053711 -117.98500061035156,-38.96200180053711 C-117.98500061035156,-31.253000259399414 -110.26000213623047,-24.104999542236328 -97.06300354003906,-18.23200035095215 C-75.77300262451172,-8.722999572753906 -40.23699951171875,-2.5 0.0010000000474974513,-2.5 C40.237998962402344,-2.5 75.77300262451172,-8.722999572753906 97.06300354003906,-18.23200035095215 C110.25900268554688,-24.104999542236328 117.98600006103516,-31.253000259399414 117.98600006103516,-38.96200180053711z"/></g></g><g transform="matrix(1,0,0,1,16,-9)" opacity="1" style="display: none;"><g opacity="1" transform="matrix(1,0,0,1,192.27000427246094,261.3869934082031)"><path fill="rgb(255,204,42)" fill-opacity="1" d=" M114.96199798583984,0 C114.96199798583984,7.708000183105469 107.43399810791016,14.857000350952148 94.57599639892578,20.729999542236328 C73.83100128173828,30.23900032043457 39.207000732421875,36.46200180053711 0,36.46200180053711 C-39.20600128173828,36.46200180053711 -73.83100128173828,30.23900032043457 -94.57499694824219,20.729999542236328 C-107.43399810791016,14.857000350952148 -114.96199798583984,7.708000183105469 -114.96199798583984,0 C-114.96199798583984,-20.13599967956543 -63.49300003051758,-36.46200180053711 0,-36.46200180053711 C63.49300003051758,-36.46200180053711 114.96199798583984,-20.13599967956543 114.96199798583984,0z"/></g><g opacity="1" transform="matrix(1,0,0,1,192.27000427246094,300.3479919433594)"><path fill="rgb(255,158,20)" fill-opacity="1" d=" M114.96199798583984,-38.96200180053711 C114.96199798583984,-38.96200180053711 114.96199798583984,2.499000072479248 114.96199798583984,2.499000072479248 C114.96199798583984,22.63599967956543 63.49300003051758,38.96099853515625 0,38.96099853515625 C-63.49300003051758,38.96099853515625 -114.96199798583984,22.63599967956543 -114.96199798583984,2.499000072479248 C-114.96199798583984,2.499000072479248 -114.96199798583984,-38.96200180053711 -114.96199798583984,-38.96200180053711 C-114.96199798583984,-31.253999710083008 -107.43399810791016,-24.104999542236328 -94.57499694824219,-18.23200035095215 C-73.83100128173828,-8.722999572753906 -39.20600128173828,-2.5 0,-2.5 C39.207000732421875,-2.5 73.83100128173828,-8.722999572753906 94.57599639892578,-18.23200035095215 C107.43399810791016,-24.104999542236328 114.96199798583984,-31.253999710083008 114.96199798583984,-38.96200180053711z"/></g><g opacity="1" transform="matrix(1,0,0,1,173.51600646972656,261.3869934082031)"><path stroke-linecap="butt" stroke-linejoin="miter" fill-opacity="0" stroke-miterlimit="10" stroke="rgb(0,0,0)" stroke-opacity="1" stroke-width="16.361" d=" M117.98600006103516,0 C117.98600006103516,7.708000183105469 110.25900268554688,14.857000350952148 97.06300354003906,20.729999542236328 C75.77300262451172,30.23900032043457 40.237998962402344,36.46200180053711 0.0010000000474974513,36.46200180053711 C-40.23699951171875,36.46200180053711 -75.77300262451172,30.23900032043457 -97.06300354003906,20.729999542236328 C-110.26000213623047,14.857000350952148 -117.98500061035156,7.708000183105469 -117.98500061035156,0 C-117.98500061035156,-20.13599967956543 -65.16200256347656,-36.46200180053711 0.0010000000474974513,-36.46200180053711 C65.16400146484375,-36.46200180053711 117.98600006103516,-20.13599967956543 117.98600006103516,0z"/></g><g opacity="1" transform="matrix(1,0,0,1,173.51600646972656,300.3479919433594)"><path stroke-linecap="butt" stroke-linejoin="miter" fill-opacity="0" stroke-miterlimit="10" stroke="rgb(0,0,0)" stroke-opacity="1" stroke-width="16.361" d=" M117.98600006103516,-38.96200180053711 C117.98600006103516,-38.96200180053711 117.98600006103516,2.499000072479248 117.98600006103516,2.499000072479248 C117.98600006103516,22.63599967956543 65.16400146484375,38.96099853515625 0.0010000000474974513,38.96099853515625 C-65.16200256347656,38.96099853515625 -117.98500061035156,22.63599967956543 -117.98500061035156,2.499000072479248 C-117.98500061035156,2.499000072479248 -117.98500061035156,-38.96200180053711 -117.98500061035156,-38.96200180053711 C-117.98500061035156,-31.253999710083008 -110.26000213623047,-24.104999542236328 -97.06300354003906,-18.23200035095215 C-75.77300262451172,-8.722999572753906 -40.23699951171875,-2.5 0.0010000000474974513,-2.5 C40.237998962402344,-2.5 75.77300262451172,-8.722999572753906 97.06300354003906,-18.23200035095215 C110.25900268554688,-24.104999542236328 117.98600006103516,-31.253999710083008 117.98600006103516,-38.96200180053711z"/></g></g><g transform="matrix(1,0,0,1,16,-9)" opacity="1" style="display: none;"><g opacity="1" transform="matrix(1,0,0,1,192.27000427246094,219.38699340820312)"><path fill="rgb(255,204,42)" fill-opacity="1" d=" M114.96199798583984,0 C114.96199798583984,7.708000183105469 107.43399810791016,14.857000350952148 94.57599639892578,20.729999542236328 C73.83100128173828,30.23900032043457 39.207000732421875,36.46200180053711 0,36.46200180053711 C-39.20600128173828,36.46200180053711 -73.83100128173828,30.23900032043457 -94.57499694824219,20.729999542236328 C-107.43399810791016,14.857000350952148 -114.96199798583984,7.708000183105469 -114.96199798583984,0 C-114.96199798583984,-20.13599967956543 -63.49300003051758,-36.46200180053711 0,-36.46200180053711 C63.49300003051758,-36.46200180053711 114.96199798583984,-20.13599967956543 114.96199798583984,0z"/></g><g opacity="1" transform="matrix(1,0,0,1,192.27000427246094,258.3479919433594)"><path fill="rgb(255,158,20)" fill-opacity="1" d=" M114.96199798583984,-38.96200180053711 C114.96199798583984,-38.96200180053711 114.96199798583984,2.499000072479248 114.96199798583984,2.499000072479248 C114.96199798583984,22.635000228881836 63.49300003051758,38.96099853515625 0,38.96099853515625 C-63.49300003051758,38.96099853515625 -114.96199798583984,22.635000228881836 -114.96199798583984,2.499000072479248 C-114.96199798583984,2.499000072479248 -114.96199798583984,-38.96200180053711 -114.96199798583984,-38.96200180053711 C-114.96199798583984,-31.253999710083008 -107.43399810791016,-24.104999542236328 -94.57499694824219,-18.23200035095215 C-73.83100128173828,-8.722999572753906 -39.20600128173828,-2.5 0,-2.5 C39.207000732421875,-2.5 73.83100128173828,-8.722999572753906 94.57599639892578,-18.23200035095215 C107.43399810791016,-24.104999542236328 114.96199798583984,-31.253999710083008 114.96199798583984,-38.96200180053711z"/></g><g opacity="1" transform="matrix(1,0,0,1,173.51600646972656,219.38699340820312)"><path stroke-linecap="butt" stroke-linejoin="miter" fill-opacity="0" stroke-miterlimit="10" stroke="rgb(0,0,0)" stroke-opacity="1" stroke-width="16.361" d=" M117.98600006103516,0 C117.98600006103516,7.708000183105469 110.25900268554688,14.857000350952148 97.06300354003906,20.729999542236328 C75.77300262451172,30.23900032043457 40.237998962402344,36.46200180053711 0.0010000000474974513,36.46200180053711 C-40.23699951171875,36.46200180053711 -75.77300262451172,30.23900032043457 -97.06300354003906,20.729999542236328 C-110.26000213623047,14.857000350952148 -117.98500061035156,7.708000183105469 -117.98500061035156,0 C-117.98500061035156,-20.13599967956543 -65.16200256347656,-36.46200180053711 0.0010000000474974513,-36.46200180053711 C65.16400146484375,-36.46200180053711 117.98600006103516,-20.13599967956543 117.98600006103516,0z"/></g><g opacity="1" transform="matrix(1,0,0,1,173.51600646972656,258.3479919433594)"><path stroke-linecap="butt" stroke-linejoin="miter" fill-opacity="0" stroke-miterlimit="10" stroke="rgb(0,0,0)" stroke-opacity="1" stroke-width="16.361" d=" M117.98600006103516,-38.96200180053711 C117.98600006103516,-38.96200180053711 117.98600006103516,2.499000072479248 117.98600006103516,2.499000072479248 C117.98600006103516,22.635000228881836 65.16400146484375,38.96099853515625 0.0010000000474974513,38.96099853515625 C-65.16200256347656,38.96099853515625 -117.98500061035156,22.635000228881836 -117.98500061035156,2.499000072479248 C-117.98500061035156,2.499000072479248 -117.98500061035156,-38.96200180053711 -117.98500061035156,-38.96200180053711 C-117.98500061035156,-31.253999710083008 -110.26000213623047,-24.104999542236328 -97.06300354003906,-18.23200035095215 C-75.77300262451172,-8.722999572753906 -40.23699951171875,-2.5 0.0010000000474974513,-2.5 C40.237998962402344,-2.5 75.77300262451172,-8.722999572753906 97.06300354003906,-18.23200035095215 C110.25900268554688,-24.104999542236328 117.98600006103516,-31.253999710083008 117.98600006103516,-38.96200180053711z"/></g></g><g transform="matrix(1,0,0,1,16,-9)" opacity="1" style="display: none;"><g opacity="1" transform="matrix(1,0,0,1,192.27000427246094,175.38699340820312)"><path fill="rgb(255,204,42)" fill-opacity="1" d=" M114.96199798583984,0 C114.96199798583984,7.708000183105469 107.43399810791016,14.857000350952148 94.57599639892578,20.729999542236328 C73.83100128173828,30.23900032043457 39.207000732421875,36.46200180053711 0,36.46200180053711 C-39.20600128173828,36.46200180053711 -73.83100128173828,30.23900032043457 -94.57499694824219,20.729999542236328 C-107.43399810791016,14.857000350952148 -114.96199798583984,7.708000183105469 -114.96199798583984,0 C-114.96199798583984,-20.13599967956543 -63.49300003051758,-36.46200180053711 0,-36.46200180053711 C63.49300003051758,-36.46200180053711 114.96199798583984,-20.13599967956543 114.96199798583984,0z"/></g><g opacity="1" transform="matrix(1,0,0,1,192.27000427246094,214.34800720214844)"><path fill="rgb(255,158,20)" fill-opacity="1" d=" M114.96199798583984,-38.96200180053711 C114.96199798583984,-38.96200180053711 114.96199798583984,2.499000072479248 114.96199798583984,2.499000072479248 C114.96199798583984,22.635000228881836 63.49300003051758,38.96200180053711 0,38.96200180053711 C-63.49300003051758,38.96200180053711 -114.96199798583984,22.635000228881836 -114.96199798583984,2.499000072479248 C-114.96199798583984,2.499000072479248 -114.96199798583984,-38.96200180053711 -114.96199798583984,-38.96200180053711 C-114.96199798583984,-31.253999710083008 -107.43399810791016,-24.104000091552734 -94.57499694824219,-18.231000900268555 C-73.83100128173828,-8.722000122070312 -39.20600128173828,-2.499000072479248 0,-2.499000072479248 C39.207000732421875,-2.499000072479248 73.83100128173828,-8.722000122070312 94.57599639892578,-18.231000900268555 C107.43399810791016,-24.104000091552734 114.96199798583984,-31.253999710083008 114.96199798583984,-38.96200180053711z"/></g><g opacity="1" transform="matrix(1,0,0,1,173.51600646972656,175.38699340820312)"><path stroke-linecap="butt" stroke-linejoin="miter" fill-opacity="0" stroke-miterlimit="10" stroke="rgb(0,0,0)" stroke-opacity="1" stroke-width="16.361" d=" M117.98600006103516,0 C117.98600006103516,7.708000183105469 110.25900268554688,14.857000350952148 97.06300354003906,20.729999542236328 C75.77300262451172,30.23900032043457 40.237998962402344,36.46200180053711 0.0010000000474974513,36.46200180053711 C-40.23699951171875,36.46200180053711 -75.77300262451172,30.23900032043457 -97.06300354003906,20.729999542236328 C-110.26000213623047,14.857000350952148 -117.98500061035156,7.708000183105469 -117.98500061035156,0 C-117.98500061035156,-20.13599967956543 -65.16200256347656,-36.46200180053711 0.0010000000474974513,-36.46200180053711 C65.16400146484375,-36.46200180053711 117.98600006103516,-20.13599967956543 117.98600006103516,0z"/></g><g opacity="1" transform="matrix(1,0,0,1,173.51600646972656,214.34800720214844)"><path stroke-linecap="butt" stroke-linejoin="miter" fill-opacity="0" stroke-miterlimit="10" stroke="rgb(0,0,0)" stroke-opacity="1" stroke-width="16.361" d=" M117.98600006103516,-38.96200180053711 C117.98600006103516,-38.96200180053711 117.98600006103516,2.499000072479248 117.98600006103516,2.499000072479248 C117.98600006103516,22.635000228881836 65.16400146484375,38.96200180053711 0.0010000000474974513,38.96200180053711 C-65.16200256347656,38.96200180053711 -117.98500061035156,22.635000228881836 -117.98500061035156,2.499000072479248 C-117.98500061035156,2.499000072479248 -117.98500061035156,-38.96200180053711 -117.98500061035156,-38.96200180053711 C-117.98500061035156,-31.253999710083008 -110.26000213623047,-24.104000091552734 -97.06300354003906,-18.231000900268555 C-75.77300262451172,-8.722000122070312 -40.23699951171875,-2.499000072479248 0.0010000000474974513,-2.499000072479248 C40.237998962402344,-2.499000072479248 75.77300262451172,-8.722000122070312 97.06300354003906,-18.231000900268555 C110.25900268554688,-24.104000091552734 117.98600006103516,-31.253999710083008 117.98600006103516,-38.96200180053711z"/></g></g><g transform="matrix(1,0,0,1,16,-9)" opacity="1" style="display: none;"><g opacity="1" transform="matrix(1,0,0,1,192.27000427246094,255.7740020751953)"><path fill="rgb(255,158,20)" fill-opacity="1" d=" M114.96199798583984,-38.96200180053711 C114.96199798583984,-38.96200180053711 114.96199798583984,2.499000072479248 114.96199798583984,2.499000072479248 C114.96199798583984,22.635000228881836 63.49300003051758,38.96200180053711 0,38.96200180053711 C-63.49300003051758,38.96200180053711 -114.96199798583984,22.635000228881836 -114.96199798583984,2.499000072479248 C-114.96199798583984,2.499000072479248 -114.96199798583984,-38.96200180053711 -114.96199798583984,-38.96200180053711 C-114.96199798583984,-31.253999710083008 -107.43399810791016,-24.104000091552734 -94.57499694824219,-18.231000900268555 C-73.83100128173828,-8.722000122070312 -39.20600128173828,-2.499000072479248 0,-2.499000072479248 C39.207000732421875,-2.499000072479248 73.83100128173828,-8.722000122070312 94.57599639892578,-18.231000900268555 C107.43399810791016,-24.104000091552734 114.96199798583984,-31.253999710083008 114.96199798583984,-38.96200180053711z"/></g><g opacity="1" transform="matrix(1,0,0,1,192.27000427246094,297.23199462890625)"><path fill="rgb(255,158,20)" fill-opacity="1" d=" M114.96199798583984,-38.96099853515625 C114.96199798583984,-38.96099853515625 114.96199798583984,2.5 114.96199798583984,2.5 C114.96199798583984,22.636999130249023 63.49300003051758,38.96200180053711 0,38.96200180053711 C-63.49300003051758,38.96200180053711 -114.96199798583984,22.636999130249023 -114.96199798583984,2.5 C-114.96199798583984,2.5 -114.96199798583984,-38.96099853515625 -114.96199798583984,-38.96099853515625 C-114.96199798583984,-31.253000259399414 -107.43399810791016,-24.104000091552734 -94.57499694824219,-18.231000900268555 C-73.83100128173828,-8.722000122070312 -39.20600128173828,-2.499000072479248 0,-2.499000072479248 C39.207000732421875,-2.499000072479248 73.83100128173828,-8.722000122070312 94.57599639892578,-18.231000900268555 C107.43399810791016,-24.104000091552734 114.96199798583984,-31.253000259399414 114.96199798583984,-38.96099853515625z"/></g><g opacity="1" transform="matrix(1,0,0,1,192.27000427246094,339.6889953613281)"><path fill="rgb(255,158,20)" fill-opacity="1" d=" M114.96199798583984,-38.96099853515625 C114.96199798583984,-38.96099853515625 114.96199798583984,2.499000072479248 114.96199798583984,2.499000072479248 C114.96199798583984,22.63599967956543 63.49300003051758,38.96099853515625 0,38.96099853515625 C-63.49300003051758,38.96099853515625 -114.96199798583984,22.63599967956543 -114.96199798583984,2.499000072479248 C-114.96199798583984,2.499000072479248 -114.96199798583984,-38.96099853515625 -114.96199798583984,-38.96099853515625 C-114.96199798583984,-31.253000259399414 -107.43399810791016,-24.104000091552734 -94.57499694824219,-18.231000900268555 C-73.83100128173828,-8.722000122070312 -39.20600128173828,-2.5 0,-2.5 C39.207000732421875,-2.5 73.83100128173828,-8.722000122070312 94.57599639892578,-18.231000900268555 C107.43399810791016,-24.104000091552734 114.96199798583984,-31.253000259399414 114.96199798583984,-38.96099853515625z"/></g><g opacity="1" transform="matrix(1,0,0,1,192.27000427246094,381.114990234375)"><path fill="rgb(255,158,20)" fill-opacity="1" d=" M114.96199798583984,-38.96200180053711 C114.96199798583984,-38.96200180053711 114.96199798583984,2.499000072479248 114.96199798583984,2.499000072479248 C114.96199798583984,22.63599967956543 63.49300003051758,38.96099853515625 0,38.96099853515625 C-63.49300003051758,38.96099853515625 -114.96199798583984,22.63599967956543 -114.96199798583984,2.499000072479248 C-114.96199798583984,2.499000072479248 -114.96199798583984,-38.96200180053711 -114.96199798583984,-38.96200180053711 C-114.96199798583984,-31.253000259399414 -107.43399810791016,-24.104999542236328 -94.57499694824219,-18.23200035095215 C-73.83100128173828,-8.722999572753906 -39.20600128173828,-2.5 0,-2.5 C39.207000732421875,-2.5 73.83100128173828,-8.722999572753906 94.57599639892578,-18.23200035095215 C107.43399810791016,-24.104999542236328 114.96199798583984,-31.253000259399414 114.96199798583984,-38.96200180053711z"/></g><g opacity="1" transform="matrix(1,0,0,1,192.27000427246094,422.572998046875)"><path fill="rgb(255,158,20)" fill-opacity="1" d=" M114.96199798583984,-38.96200180053711 C114.96199798583984,-38.96200180053711 114.96199798583984,2.499000072479248 114.96199798583984,2.499000072479248 C114.96199798583984,22.63599967956543 63.49300003051758,38.96099853515625 0,38.96099853515625 C-63.49300003051758,38.96099853515625 -114.96199798583984,22.63599967956543 -114.96199798583984,2.499000072479248 C-114.96199798583984,2.499000072479248 -114.96199798583984,-38.96200180053711 -114.96199798583984,-38.96200180053711 C-114.96199798583984,-31.253000259399414 -107.43399810791016,-24.104999542236328 -94.57499694824219,-18.23200035095215 C-73.83100128173828,-8.722999572753906 -39.20600128173828,-2.5 0,-2.5 C39.207000732421875,-2.5 73.83100128173828,-8.722999572753906 94.57599639892578,-18.23200035095215 C107.43399810791016,-24.104999542236328 114.96199798583984,-31.253000259399414 114.96199798583984,-38.96200180053711z"/></g><g opacity="1" transform="matrix(1,0,0,1,431.385009765625,381.114990234375)"><path fill="rgb(255,158,20)" fill-opacity="1" d=" M114.61499786376953,-38.96200180053711 C114.61499786376953,-38.96200180053711 114.61499786376953,2.499000072479248 114.61499786376953,2.499000072479248 C114.61499786376953,22.63599967956543 63.30099868774414,38.96099853515625 0,38.96099853515625 C-63.301998138427734,38.96099853515625 -114.61499786376953,22.63599967956543 -114.61499786376953,2.499000072479248 C-114.61499786376953,2.499000072479248 -114.61499786376953,-38.96200180053711 -114.61499786376953,-38.96200180053711 C-114.61499786376953,-31.253000259399414 -107.11000061035156,-24.104999542236328 -94.29000091552734,-18.23200035095215 C-73.60900115966797,-8.722999572753906 -39.0880012512207,-2.5 0,-2.5 C39.0880012512207,-2.5 73.60700225830078,-8.722999572753906 94.28900146484375,-18.23200035095215 C107.10900115966797,-24.104999542236328 114.61499786376953,-31.253000259399414 114.61499786376953,-38.96200180053711z"/></g><g opacity="1" transform="matrix(1,0,0,1,431.385009765625,422.572998046875)"><path fill="rgb(255,158,20)" fill-opacity="1" d=" M114.61499786376953,-38.96200180053711 C114.61499786376953,-38.96200180053711 114.61499786376953,2.499000072479248 114.61499786376953,2.499000072479248 C114.61499786376953,22.63599967956543 63.30099868774414,38.96099853515625 0,38.96099853515625 C-63.301998138427734,38.96099853515625 -114.61499786376953,22.63599967956543 -114.61499786376953,2.499000072479248 C-114.61499786376953,2.499000072479248 -114.61499786376953,-38.96200180053711 -114.61499786376953,-38.96200180053711 C-114.61499786376953,-31.253000259399414 -107.11000061035156,-24.104999542236328 -94.29000091552734,-18.23200035095215 C-73.60900115966797,-8.722999572753906 -39.0880012512207,-2.5 0,-2.5 C39.0880012512207,-2.5 73.60700225830078,-8.722999572753906 94.28900146484375,-18.23200035095215 C107.10900115966797,-24.104999542236328 114.61499786376953,-31.253000259399414 114.61499786376953,-38.96200180053711z"/></g><g opacity="1" transform="matrix(1,0,0,1,192.27000427246094,175.38699340820312)"><path fill="rgb(255,204,42)" fill-opacity="1" d=" M114.96199798583984,0 C114.96199798583984,7.708000183105469 107.43399810791016,14.857000350952148 94.57599639892578,20.729999542236328 C73.83100128173828,30.23900032043457 39.207000732421875,36.46200180053711 0,36.46200180053711 C-39.20600128173828,36.46200180053711 -73.83100128173828,30.23900032043457 -94.57499694824219,20.729999542236328 C-107.43399810791016,14.857000350952148 -114.96199798583984,7.708000183105469 -114.96199798583984,0 C-114.96199798583984,-20.13599967956543 -63.49300003051758,-36.46200180053711 0,-36.46200180053711 C63.49300003051758,-36.46200180053711 114.96199798583984,-20.13599967956543 114.96199798583984,0z"/></g><g opacity="1" transform="matrix(1,0,0,1,192.27000427246094,214.34800720214844)"><path fill="rgb(255,158,20)" fill-opacity="1" d=" M114.96199798583984,-38.96200180053711 C114.96199798583984,-38.96200180053711 114.96199798583984,2.499000072479248 114.96199798583984,2.499000072479248 C114.96199798583984,22.635000228881836 63.49300003051758,38.96200180053711 0,38.96200180053711 C-63.49300003051758,38.96200180053711 -114.96199798583984,22.635000228881836 -114.96199798583984,2.499000072479248 C-114.96199798583984,2.499000072479248 -114.96199798583984,-38.96200180053711 -114.96199798583984,-38.96200180053711 C-114.96199798583984,-31.253999710083008 -107.43399810791016,-24.104000091552734 -94.57499694824219,-18.231000900268555 C-73.83100128173828,-8.722000122070312 -39.20600128173828,-2.499000072479248 0,-2.499000072479248 C39.207000732421875,-2.499000072479248 73.83100128173828,-8.722000122070312 94.57599639892578,-18.231000900268555 C107.43399810791016,-24.104000091552734 114.96199798583984,-31.253999710083008 114.96199798583984,-38.96200180053711z"/></g><g opacity="1" transform="matrix(1,0,0,1,173.51600646972656,175.38699340820312)"><path stroke-linecap="butt" stroke-linejoin="miter" fill-opacity="0" stroke-miterlimit="10" stroke="rgb(0,0,0)" stroke-opacity="1" stroke-width="16.361" d=" M117.98600006103516,0 C117.98600006103516,7.708000183105469 110.25900268554688,14.857000350952148 97.06300354003906,20.729999542236328 C75.77300262451172,30.23900032043457 40.237998962402344,36.46200180053711 0.0010000000474974513,36.46200180053711 C-40.23699951171875,36.46200180053711 -75.77300262451172,30.23900032043457 -97.06300354003906,20.729999542236328 C-110.26000213623047,14.857000350952148 -117.98500061035156,7.708000183105469 -117.98500061035156,0 C-117.98500061035156,-20.13599967956543 -65.16200256347656,-36.46200180053711 0.0010000000474974513,-36.46200180053711 C65.16400146484375,-36.46200180053711 117.98600006103516,-20.13599967956543 117.98600006103516,0z"/></g><g opacity="1" transform="matrix(1,0,0,1,173.51600646972656,214.34800720214844)"><path stroke-linecap="butt" stroke-linejoin="miter" fill-opacity="0" stroke-miterlimit="10" stroke="rgb(0,0,0)" stroke-opacity="1" stroke-width="16.361" d=" M117.98600006103516,-38.96200180053711 C117.98600006103516,-38.96200180053711 117.98600006103516,2.499000072479248 117.98600006103516,2.499000072479248 C117.98600006103516,22.635000228881836 65.16400146484375,38.96200180053711 0.0010000000474974513,38.96200180053711 C-65.16200256347656,38.96200180053711 -117.98500061035156,22.635000228881836 -117.98500061035156,2.499000072479248 C-117.98500061035156,2.499000072479248 -117.98500061035156,-38.96200180053711 -117.98500061035156,-38.96200180053711 C-117.98500061035156,-31.253999710083008 -110.26000213623047,-24.104000091552734 -97.06300354003906,-18.231000900268555 C-75.77300262451172,-8.722000122070312 -40.23699951171875,-2.499000072479248 0.0010000000474974513,-2.499000072479248 C40.237998962402344,-2.499000072479248 75.77300262451172,-8.722000122070312 97.06300354003906,-18.231000900268555 C110.25900268554688,-24.104000091552734 117.98600006103516,-31.253999710083008 117.98600006103516,-38.96200180053711z"/></g><g opacity="1" transform="matrix(1,0,0,1,173.51600646972656,255.7740020751953)"><path stroke-linecap="butt" stroke-linejoin="miter" fill-opacity="0" stroke-miterlimit="10" stroke="rgb(0,0,0)" stroke-opacity="1" stroke-width="16.361" d=" M117.98600006103516,-38.96200180053711 C117.98600006103516,-38.96200180053711 117.98600006103516,2.499000072479248 117.98600006103516,2.499000072479248 C117.98600006103516,22.635000228881836 65.16400146484375,38.96200180053711 0.0010000000474974513,38.96200180053711 C-65.16200256347656,38.96200180053711 -117.98500061035156,22.635000228881836 -117.98500061035156,2.499000072479248 C-117.98500061035156,2.499000072479248 -117.98500061035156,-38.96200180053711 -117.98500061035156,-38.96200180053711 C-117.98500061035156,-31.253999710083008 -110.26000213623047,-24.104000091552734 -97.06300354003906,-18.231000900268555 C-75.77300262451172,-8.722000122070312 -40.23699951171875,-2.499000072479248 0.0010000000474974513,-2.499000072479248 C40.237998962402344,-2.499000072479248 75.77300262451172,-8.722000122070312 97.06300354003906,-18.231000900268555 C110.25900268554688,-24.104000091552734 117.98600006103516,-31.253999710083008 117.98600006103516,-38.96200180053711z"/></g><g opacity="1" transform="matrix(1,0,0,1,173.51600646972656,297.23199462890625)"><path stroke-linecap="butt" stroke-linejoin="miter" fill-opacity="0" stroke-miterlimit="10" stroke="rgb(0,0,0)" stroke-opacity="1" stroke-width="16.361" d=" M117.98600006103516,-38.96099853515625 C117.98600006103516,-38.96099853515625 117.98600006103516,2.5 117.98600006103516,2.5 C117.98600006103516,22.636999130249023 65.16400146484375,38.96200180053711 0.0010000000474974513,38.96200180053711 C-65.16200256347656,38.96200180053711 -117.98500061035156,22.636999130249023 -117.98500061035156,2.5 C-117.98500061035156,2.5 -117.98500061035156,-38.96099853515625 -117.98500061035156,-38.96099853515625 C-117.98500061035156,-31.253000259399414 -110.26000213623047,-24.104000091552734 -97.06300354003906,-18.231000900268555 C-75.77300262451172,-8.722000122070312 -40.23699951171875,-2.499000072479248 0.0010000000474974513,-2.499000072479248 C40.237998962402344,-2.499000072479248 75.77300262451172,-8.722000122070312 97.06300354003906,-18.231000900268555 C110.25900268554688,-24.104000091552734 117.98600006103516,-31.253000259399414 117.98600006103516,-38.96099853515625z"/></g><g opacity="1" transform="matrix(1,0,0,1,173.51600646972656,339.6889953613281)"><path stroke-linecap="butt" stroke-linejoin="miter" fill-opacity="0" stroke-miterlimit="10" stroke="rgb(0,0,0)" stroke-opacity="1" stroke-width="16.361" d=" M117.98600006103516,-38.96099853515625 C117.98600006103516,-38.96099853515625 117.98600006103516,2.499000072479248 117.98600006103516,2.499000072479248 C117.98600006103516,22.63599967956543 65.16400146484375,38.96099853515625 0.0010000000474974513,38.96099853515625 C-65.16200256347656,38.96099853515625 -117.98500061035156,22.63599967956543 -117.98500061035156,2.499000072479248 C-117.98500061035156,2.499000072479248 -117.98500061035156,-38.96099853515625 -117.98500061035156,-38.96099853515625 C-117.98500061035156,-31.253000259399414 -110.26000213623047,-24.104000091552734 -97.06300354003906,-18.231000900268555 C-75.77300262451172,-8.722000122070312 -40.23699951171875,-2.5 0.0010000000474974513,-2.5 C40.237998962402344,-2.5 75.77300262451172,-8.722000122070312 97.06300354003906,-18.231000900268555 C110.25900268554688,-24.104000091552734 117.98600006103516,-31.253000259399414 117.98600006103516,-38.96099853515625z"/></g><g opacity="1" transform="matrix(1,0,0,1,173.51600646972656,381.114990234375)"><path stroke-linecap="butt" stroke-linejoin="miter" fill-opacity="0" stroke-miterlimit="10" stroke="rgb(0,0,0)" stroke-opacity="1" stroke-width="16.361" d=" M117.98600006103516,-38.96200180053711 C117.98600006103516,-38.96200180053711 117.98600006103516,2.499000072479248 117.98600006103516,2.499000072479248 C117.98600006103516,22.63599967956543 65.16400146484375,38.96099853515625 0.0010000000474974513,38.96099853515625 C-65.16200256347656,38.96099853515625 -117.98500061035156,22.63599967956543 -117.98500061035156,2.499000072479248 C-117.98500061035156,2.499000072479248 -117.98500061035156,-38.96200180053711 -117.98500061035156,-38.96200180053711 C-117.98500061035156,-31.253000259399414 -110.26000213623047,-24.104999542236328 -97.06300354003906,-18.23200035095215 C-75.77300262451172,-8.722999572753906 -40.23699951171875,-2.5 0.0010000000474974513,-2.5 C40.237998962402344,-2.5 75.77300262451172,-8.722999572753906 97.06300354003906,-18.23200035095215 C110.25900268554688,-24.104999542236328 117.98600006103516,-31.253000259399414 117.98600006103516,-38.96200180053711z"/></g><g opacity="1" transform="matrix(1,0,0,1,173.51600646972656,422.572998046875)"><path stroke-linecap="butt" stroke-linejoin="miter" fill-opacity="0" stroke-miterlimit="10" stroke="rgb(0,0,0)" stroke-opacity="1" stroke-width="16.361" d=" M117.98600006103516,-38.96200180053711 C117.98600006103516,-38.96200180053711 117.98600006103516,2.499000072479248 117.98600006103516,2.499000072479248 C117.98600006103516,22.63599967956543 65.16400146484375,38.96099853515625 0.0010000000474974513,38.96099853515625 C-65.16200256347656,38.96099853515625 -117.98500061035156,22.63599967956543 -117.98500061035156,2.499000072479248 C-117.98500061035156,2.499000072479248 -117.98500061035156,-38.96200180053711 -117.98500061035156,-38.96200180053711 C-117.98500061035156,-31.253000259399414 -110.26000213623047,-24.104999542236328 -97.06300354003906,-18.23200035095215 C-75.77300262451172,-8.722999572753906 -40.23699951171875,-2.5 0.0010000000474974513,-2.5 C40.237998962402344,-2.5 75.77300262451172,-8.722999572753906 97.06300354003906,-18.23200035095215 C110.25900268554688,-24.104999542236328 117.98600006103516,-31.253000259399414 117.98600006103516,-38.96200180053711z"/></g><g opacity="1" transform="matrix(1,0,0,1,431.385009765625,300.7279968261719)"><path fill="rgb(255,204,42)" fill-opacity="1" d=" M114.61499786376953,0 C114.61499786376953,7.708000183105469 107.10900115966797,14.857000350952148 94.28900146484375,20.729999542236328 C73.60700225830078,30.23900032043457 39.0880012512207,36.46099853515625 0,36.46099853515625 C-39.0880012512207,36.46099853515625 -73.60900115966797,30.23900032043457 -94.29000091552734,20.729999542236328 C-107.11000061035156,14.857000350952148 -114.61499786376953,7.708000183105469 -114.61499786376953,0 C-114.61499786376953,-20.13599967956543 -63.301998138427734,-36.46099853515625 0,-36.46099853515625 C63.30099868774414,-36.46099853515625 114.61499786376953,-20.13599967956543 114.61499786376953,0z"/></g><g opacity="1" transform="matrix(1,0,0,1,431.385009765625,339.6889953613281)"><path fill="rgb(255,158,20)" fill-opacity="1" d=" M114.61499786376953,-38.96099853515625 C114.61499786376953,-38.96099853515625 114.61499786376953,2.499000072479248 114.61499786376953,2.499000072479248 C114.61499786376953,22.63599967956543 63.30099868774414,38.96099853515625 0,38.96099853515625 C-63.301998138427734,38.96099853515625 -114.61499786376953,22.63599967956543 -114.61499786376953,2.499000072479248 C-114.61499786376953,2.499000072479248 -114.61499786376953,-38.96099853515625 -114.61499786376953,-38.96099853515625 C-114.61499786376953,-31.253000259399414 -107.11000061035156,-24.104000091552734 -94.29000091552734,-18.231000900268555 C-73.60900115966797,-8.722000122070312 -39.0880012512207,-2.5 0,-2.5 C39.0880012512207,-2.5 73.60700225830078,-8.722000122070312 94.28900146484375,-18.231000900268555 C107.10900115966797,-24.104000091552734 114.61499786376953,-31.253000259399414 114.61499786376953,-38.96099853515625z"/></g><g opacity="1" transform="matrix(1,0,0,1,413.781005859375,300.7279968261719)"><path stroke-linecap="butt" stroke-linejoin="miter" fill-opacity="0" stroke-miterlimit="10" stroke="rgb(0,0,0)" stroke-opacity="1" stroke-width="16.361" d=" M117.98600006103516,0 C117.98600006103516,7.708000183105469 110.26000213623047,14.857000350952148 97.06300354003906,20.729999542236328 C75.77300262451172,30.23900032043457 40.237998962402344,36.46099853515625 0.0010000000474974513,36.46099853515625 C-40.23699951171875,36.46099853515625 -75.77300262451172,30.23900032043457 -97.06300354003906,20.729999542236328 C-110.26000213623047,14.857000350952148 -117.98600006103516,7.708000183105469 -117.98600006103516,0 C-117.98600006103516,-20.13599967956543 -65.16200256347656,-36.46099853515625 0.0010000000474974513,-36.46099853515625 C65.16400146484375,-36.46099853515625 117.98600006103516,-20.13599967956543 117.98600006103516,0z"/></g><g opacity="1" transform="matrix(1,0,0,1,413.781005859375,339.6889953613281)"><path stroke-linecap="butt" stroke-linejoin="miter" fill-opacity="0" stroke-miterlimit="10" stroke="rgb(0,0,0)" stroke-opacity="1" stroke-width="16.361" d=" M117.98600006103516,-38.96099853515625 C117.98600006103516,-38.96099853515625 117.98600006103516,2.499000072479248 117.98600006103516,2.499000072479248 C117.98600006103516,22.63599967956543 65.16400146484375,38.96099853515625 0.0010000000474974513,38.96099853515625 C-65.16200256347656,38.96099853515625 -117.98600006103516,22.63599967956543 -117.98600006103516,2.499000072479248 C-117.98600006103516,2.499000072479248 -117.98600006103516,-38.96099853515625 -117.98600006103516,-38.96099853515625 C-117.98600006103516,-31.253000259399414 -110.26000213623047,-24.104000091552734 -97.06300354003906,-18.231000900268555 C-75.77300262451172,-8.722000122070312 -40.23699951171875,-2.5 0.0010000000474974513,-2.5 C40.237998962402344,-2.5 75.77300262451172,-8.722000122070312 97.06300354003906,-18.231000900268555 C110.26000213623047,-24.104000091552734 117.98600006103516,-31.253000259399414 117.98600006103516,-38.96099853515625z"/></g><g opacity="1" transform="matrix(1,0,0,1,413.781005859375,381.114990234375)"><path stroke-linecap="butt" stroke-linejoin="miter" fill-opacity="0" stroke-miterlimit="10" stroke="rgb(0,0,0)" stroke-opacity="1" stroke-width="16.361" d=" M117.98600006103516,-38.96200180053711 C117.98600006103516,-38.96200180053711 117.98600006103516,2.499000072479248 117.98600006103516,2.499000072479248 C117.98600006103516,22.63599967956543 65.16400146484375,38.96099853515625 0.0010000000474974513,38.96099853515625 C-65.16200256347656,38.96099853515625 -117.98600006103516,22.63599967956543 -117.98600006103516,2.499000072479248 C-117.98600006103516,2.499000072479248 -117.98600006103516,-38.96200180053711 -117.98600006103516,-38.96200180053711 C-117.98600006103516,-31.253000259399414 -110.26000213623047,-24.104999542236328 -97.06300354003906,-18.23200035095215 C-75.77300262451172,-8.722999572753906 -40.23699951171875,-2.5 0.0010000000474974513,-2.5 C40.237998962402344,-2.5 75.77300262451172,-8.722999572753906 97.06300354003906,-18.23200035095215 C110.26000213623047,-24.104999542236328 117.98600006103516,-31.253000259399414 117.98600006103516,-38.96200180053711z"/></g><g opacity="1" transform="matrix(1,0,0,1,413.781005859375,422.572998046875)"><path stroke-linecap="butt" stroke-linejoin="miter" fill-opacity="0" stroke-miterlimit="10" stroke="rgb(0,0,0)" stroke-opacity="1" stroke-width="16.361" d=" M117.98600006103516,-38.96200180053711 C117.98600006103516,-38.96200180053711 117.98600006103516,2.499000072479248 117.98600006103516,2.499000072479248 C117.98600006103516,22.63599967956543 65.16400146484375,38.96099853515625 0.0010000000474974513,38.96099853515625 C-65.16200256347656,38.96099853515625 -117.98600006103516,22.63599967956543 -117.98600006103516,2.499000072479248 C-117.98600006103516,2.499000072479248 -117.98600006103516,-38.96200180053711 -117.98600006103516,-38.96200180053711 C-117.98600006103516,-31.253000259399414 -110.26000213623047,-24.104999542236328 -97.06300354003906,-18.23200035095215 C-75.77300262451172,-8.722999572753906 -40.23699951171875,-2.5 0.0010000000474974513,-2.5 C40.237998962402344,-2.5 75.77300262451172,-8.722999572753906 97.06300354003906,-18.23200035095215 C110.26000213623047,-24.104999542236328 117.98600006103516,-31.253000259399414 117.98600006103516,-38.96200180053711z"/></g></g><g transform="matrix(1,0,0,1,16,-9)" opacity="1" style="display: none;"><g opacity="1" transform="matrix(1,0,0,1,192.27000427246094,255.7740020751953)"><path fill="rgb(255,158,20)" fill-opacity="1" d=" M114.96199798583984,-38.96200180053711 C114.96199798583984,-38.96200180053711 114.96199798583984,2.499000072479248 114.96199798583984,2.499000072479248 C114.96199798583984,22.635000228881836 63.49300003051758,38.96200180053711 0,38.96200180053711 C-63.49300003051758,38.96200180053711 -114.96199798583984,22.635000228881836 -114.96199798583984,2.499000072479248 C-114.96199798583984,2.499000072479248 -114.96199798583984,-38.96200180053711 -114.96199798583984,-38.96200180053711 C-114.96199798583984,-31.253999710083008 -107.43399810791016,-24.104000091552734 -94.57499694824219,-18.231000900268555 C-73.83100128173828,-8.722000122070312 -39.20600128173828,-2.499000072479248 0,-2.499000072479248 C39.207000732421875,-2.499000072479248 73.83100128173828,-8.722000122070312 94.57599639892578,-18.231000900268555 C107.43399810791016,-24.104000091552734 114.96199798583984,-31.253999710083008 114.96199798583984,-38.96200180053711z"/></g><g opacity="1" transform="matrix(1,0,0,1,192.27000427246094,297.23199462890625)"><path fill="rgb(255,158,20)" fill-opacity="1" d=" M114.96199798583984,-38.96099853515625 C114.96199798583984,-38.96099853515625 114.96199798583984,2.5 114.96199798583984,2.5 C114.96199798583984,22.636999130249023 63.49300003051758,38.96200180053711 0,38.96200180053711 C-63.49300003051758,38.96200180053711 -114.96199798583984,22.636999130249023 -114.96199798583984,2.5 C-114.96199798583984,2.5 -114.96199798583984,-38.96099853515625 -114.96199798583984,-38.96099853515625 C-114.96199798583984,-31.253000259399414 -107.43399810791016,-24.104000091552734 -94.57499694824219,-18.231000900268555 C-73.83100128173828,-8.722000122070312 -39.20600128173828,-2.499000072479248 0,-2.499000072479248 C39.207000732421875,-2.499000072479248 73.83100128173828,-8.722000122070312 94.57599639892578,-18.231000900268555 C107.43399810791016,-24.104000091552734 114.96199798583984,-31.253000259399414 114.96199798583984,-38.96099853515625z"/></g><g opacity="1" transform="matrix(1,0,0,1,192.27000427246094,339.6889953613281)"><path fill="rgb(255,158,20)" fill-opacity="1" d=" M114.96199798583984,-38.96099853515625 C114.96199798583984,-38.96099853515625 114.96199798583984,2.499000072479248 114.96199798583984,2.499000072479248 C114.96199798583984,22.63599967956543 63.49300003051758,38.96099853515625 0,38.96099853515625 C-63.49300003051758,38.96099853515625 -114.96199798583984,22.63599967956543 -114.96199798583984,2.499000072479248 C-114.96199798583984,2.499000072479248 -114.96199798583984,-38.96099853515625 -114.96199798583984,-38.96099853515625 C-114.96199798583984,-31.253000259399414 -107.43399810791016,-24.104000091552734 -94.57499694824219,-18.231000900268555 C-73.83100128173828,-8.722000122070312 -39.20600128173828,-2.5 0,-2.5 C39.207000732421875,-2.5 73.83100128173828,-8.722000122070312 94.57599639892578,-18.231000900268555 C107.43399810791016,-24.104000091552734 114.96199798583984,-31.253000259399414 114.96199798583984,-38.96099853515625z"/></g><g opacity="1" transform="matrix(1,0,0,1,192.27000427246094,381.114990234375)"><path fill="rgb(255,158,20)" fill-opacity="1" d=" M114.96199798583984,-38.96200180053711 C114.96199798583984,-38.96200180053711 114.96199798583984,2.499000072479248 114.96199798583984,2.499000072479248 C114.96199798583984,22.63599967956543 63.49300003051758,38.96099853515625 0,38.96099853515625 C-63.49300003051758,38.96099853515625 -114.96199798583984,22.63599967956543 -114.96199798583984,2.499000072479248 C-114.96199798583984,2.499000072479248 -114.96199798583984,-38.96200180053711 -114.96199798583984,-38.96200180053711 C-114.96199798583984,-31.253000259399414 -107.43399810791016,-24.104999542236328 -94.57499694824219,-18.23200035095215 C-73.83100128173828,-8.722999572753906 -39.20600128173828,-2.5 0,-2.5 C39.207000732421875,-2.5 73.83100128173828,-8.722999572753906 94.57599639892578,-18.23200035095215 C107.43399810791016,-24.104999542236328 114.96199798583984,-31.253000259399414 114.96199798583984,-38.96200180053711z"/></g><g opacity="1" transform="matrix(1,0,0,1,192.27000427246094,422.572998046875)"><path fill="rgb(255,158,20)" fill-opacity="1" d=" M114.96199798583984,-38.96200180053711 C114.96199798583984,-38.96200180053711 114.96199798583984,2.499000072479248 114.96199798583984,2.499000072479248 C114.96199798583984,22.63599967956543 63.49300003051758,38.96099853515625 0,38.96099853515625 C-63.49300003051758,38.96099853515625 -114.96199798583984,22.63599967956543 -114.96199798583984,2.499000072479248 C-114.96199798583984,2.499000072479248 -114.96199798583984,-38.96200180053711 -114.96199798583984,-38.96200180053711 C-114.96199798583984,-31.253000259399414 -107.43399810791016,-24.104999542236328 -94.57499694824219,-18.23200035095215 C-73.83100128173828,-8.722999572753906 -39.20600128173828,-2.5 0,-2.5 C39.207000732421875,-2.5 73.83100128173828,-8.722999572753906 94.57599639892578,-18.23200035095215 C107.43399810791016,-24.104999542236328 114.96199798583984,-31.253000259399414 114.96199798583984,-38.96200180053711z"/></g><g opacity="1" transform="matrix(1,0,0,1,431.385009765625,381.114990234375)"><path fill="rgb(255,158,20)" fill-opacity="1" d=" M114.61499786376953,-38.96200180053711 C114.61499786376953,-38.96200180053711 114.61499786376953,2.499000072479248 114.61499786376953,2.499000072479248 C114.61499786376953,22.63599967956543 63.30099868774414,38.96099853515625 0,38.96099853515625 C-63.301998138427734,38.96099853515625 -114.61499786376953,22.63599967956543 -114.61499786376953,2.499000072479248 C-114.61499786376953,2.499000072479248 -114.61499786376953,-38.96200180053711 -114.61499786376953,-38.96200180053711 C-114.61499786376953,-31.253000259399414 -107.11000061035156,-24.104999542236328 -94.29000091552734,-18.23200035095215 C-73.60900115966797,-8.722999572753906 -39.0880012512207,-2.5 0,-2.5 C39.0880012512207,-2.5 73.60700225830078,-8.722999572753906 94.28900146484375,-18.23200035095215 C107.10900115966797,-24.104999542236328 114.61499786376953,-31.253000259399414 114.61499786376953,-38.96200180053711z"/></g><g opacity="1" transform="matrix(1,0,0,1,431.385009765625,422.572998046875)"><path fill="rgb(255,158,20)" fill-opacity="1" d=" M114.61499786376953,-38.96200180053711 C114.61499786376953,-38.96200180053711 114.61499786376953,2.499000072479248 114.61499786376953,2.499000072479248 C114.61499786376953,22.63599967956543 63.30099868774414,38.96099853515625 0,38.96099853515625 C-63.301998138427734,38.96099853515625 -114.61499786376953,22.63599967956543 -114.61499786376953,2.499000072479248 C-114.61499786376953,2.499000072479248 -114.61499786376953,-38.96200180053711 -114.61499786376953,-38.96200180053711 C-114.61499786376953,-31.253000259399414 -107.11000061035156,-24.104999542236328 -94.29000091552734,-18.23200035095215 C-73.60900115966797,-8.722999572753906 -39.0880012512207,-2.5 0,-2.5 C39.0880012512207,-2.5 73.60700225830078,-8.722999572753906 94.28900146484375,-18.23200035095215 C107.10900115966797,-24.104999542236328 114.61499786376953,-31.253000259399414 114.61499786376953,-38.96200180053711z"/></g><g opacity="1" transform="matrix(1,0,0,1,192.27000427246094,175.38699340820312)"><path fill="rgb(255,204,42)" fill-opacity="1" d=" M114.96199798583984,0 C114.96199798583984,7.708000183105469 107.43399810791016,14.857000350952148 94.57599639892578,20.729999542236328 C73.83100128173828,30.23900032043457 39.207000732421875,36.46200180053711 0,36.46200180053711 C-39.20600128173828,36.46200180053711 -73.83100128173828,30.23900032043457 -94.57499694824219,20.729999542236328 C-107.43399810791016,14.857000350952148 -114.96199798583984,7.708000183105469 -114.96199798583984,0 C-114.96199798583984,-20.13599967956543 -63.49300003051758,-36.46200180053711 0,-36.46200180053711 C63.49300003051758,-36.46200180053711 114.96199798583984,-20.13599967956543 114.96199798583984,0z"/></g><g opacity="1" transform="matrix(1,0,0,1,192.27000427246094,214.34800720214844)"><path fill="rgb(255,158,20)" fill-opacity="1" d=" M114.96199798583984,-38.96200180053711 C114.96199798583984,-38.96200180053711 114.96199798583984,2.499000072479248 114.96199798583984,2.499000072479248 C114.96199798583984,22.635000228881836 63.49300003051758,38.96200180053711 0,38.96200180053711 C-63.49300003051758,38.96200180053711 -114.96199798583984,22.635000228881836 -114.96199798583984,2.499000072479248 C-114.96199798583984,2.499000072479248 -114.96199798583984,-38.96200180053711 -114.96199798583984,-38.96200180053711 C-114.96199798583984,-31.253999710083008 -107.43399810791016,-24.104000091552734 -94.57499694824219,-18.231000900268555 C-73.83100128173828,-8.722000122070312 -39.20600128173828,-2.499000072479248 0,-2.499000072479248 C39.207000732421875,-2.499000072479248 73.83100128173828,-8.722000122070312 94.57599639892578,-18.231000900268555 C107.43399810791016,-24.104000091552734 114.96199798583984,-31.253999710083008 114.96199798583984,-38.96200180053711z"/></g><g opacity="1" transform="matrix(1,0,0,1,173.51600646972656,175.38699340820312)"><path stroke-linecap="butt" stroke-linejoin="miter" fill-opacity="0" stroke-miterlimit="10" stroke="rgb(0,0,0)" stroke-opacity="1" stroke-width="16.361" d=" M117.98600006103516,0 C117.98600006103516,7.708000183105469 110.25900268554688,14.857000350952148 97.06300354003906,20.729999542236328 C75.77300262451172,30.23900032043457 40.237998962402344,36.46200180053711 0.0010000000474974513,36.46200180053711 C-40.23699951171875,36.46200180053711 -75.77300262451172,30.23900032043457 -97.06300354003906,20.729999542236328 C-110.26000213623047,14.857000350952148 -117.98500061035156,7.708000183105469 -117.98500061035156,0 C-117.98500061035156,-20.13599967956543 -65.16200256347656,-36.46200180053711 0.0010000000474974513,-36.46200180053711 C65.16400146484375,-36.46200180053711 117.98600006103516,-20.13599967956543 117.98600006103516,0z"/></g><g opacity="1" transform="matrix(1,0,0,1,173.51600646972656,214.34800720214844)"><path stroke-linecap="butt" stroke-linejoin="miter" fill-opacity="0" stroke-miterlimit="10" stroke="rgb(0,0,0)" stroke-opacity="1" stroke-width="16.361" d=" M117.98600006103516,-38.96200180053711 C117.98600006103516,-38.96200180053711 117.98600006103516,2.499000072479248 117.98600006103516,2.499000072479248 C117.98600006103516,22.635000228881836 65.16400146484375,38.96200180053711 0.0010000000474974513,38.96200180053711 C-65.16200256347656,38.96200180053711 -117.98500061035156,22.635000228881836 -117.98500061035156,2.499000072479248 C-117.98500061035156,2.499000072479248 -117.98500061035156,-38.96200180053711 -117.98500061035156,-38.96200180053711 C-117.98500061035156,-31.253999710083008 -110.26000213623047,-24.104000091552734 -97.06300354003906,-18.231000900268555 C-75.77300262451172,-8.722000122070312 -40.23699951171875,-2.499000072479248 0.0010000000474974513,-2.499000072479248 C40.237998962402344,-2.499000072479248 75.77300262451172,-8.722000122070312 97.06300354003906,-18.231000900268555 C110.25900268554688,-24.104000091552734 117.98600006103516,-31.253999710083008 117.98600006103516,-38.96200180053711z"/></g><g opacity="1" transform="matrix(1,0,0,1,173.51600646972656,255.7740020751953)"><path stroke-linecap="butt" stroke-linejoin="miter" fill-opacity="0" stroke-miterlimit="10" stroke="rgb(0,0,0)" stroke-opacity="1" stroke-width="16.361" d=" M117.98600006103516,-38.96200180053711 C117.98600006103516,-38.96200180053711 117.98600006103516,2.499000072479248 117.98600006103516,2.499000072479248 C117.98600006103516,22.635000228881836 65.16400146484375,38.96200180053711 0.0010000000474974513,38.96200180053711 C-65.16200256347656,38.96200180053711 -117.98500061035156,22.635000228881836 -117.98500061035156,2.499000072479248 C-117.98500061035156,2.499000072479248 -117.98500061035156,-38.96200180053711 -117.98500061035156,-38.96200180053711 C-117.98500061035156,-31.253999710083008 -110.26000213623047,-24.104000091552734 -97.06300354003906,-18.231000900268555 C-75.77300262451172,-8.722000122070312 -40.23699951171875,-2.499000072479248 0.0010000000474974513,-2.499000072479248 C40.237998962402344,-2.499000072479248 75.77300262451172,-8.722000122070312 97.06300354003906,-18.231000900268555 C110.25900268554688,-24.104000091552734 117.98600006103516,-31.253999710083008 117.98600006103516,-38.96200180053711z"/></g><g opacity="1" transform="matrix(1,0,0,1,173.51600646972656,297.23199462890625)"><path stroke-linecap="butt" stroke-linejoin="miter" fill-opacity="0" stroke-miterlimit="10" stroke="rgb(0,0,0)" stroke-opacity="1" stroke-width="16.361" d=" M117.98600006103516,-38.96099853515625 C117.98600006103516,-38.96099853515625 117.98600006103516,2.5 117.98600006103516,2.5 C117.98600006103516,22.636999130249023 65.16400146484375,38.96200180053711 0.0010000000474974513,38.96200180053711 C-65.16200256347656,38.96200180053711 -117.98500061035156,22.636999130249023 -117.98500061035156,2.5 C-117.98500061035156,2.5 -117.98500061035156,-38.96099853515625 -117.98500061035156,-38.96099853515625 C-117.98500061035156,-31.253000259399414 -110.26000213623047,-24.104000091552734 -97.06300354003906,-18.231000900268555 C-75.77300262451172,-8.722000122070312 -40.23699951171875,-2.499000072479248 0.0010000000474974513,-2.499000072479248 C40.237998962402344,-2.499000072479248 75.77300262451172,-8.722000122070312 97.06300354003906,-18.231000900268555 C110.25900268554688,-24.104000091552734 117.98600006103516,-31.253000259399414 117.98600006103516,-38.96099853515625z"/></g><g opacity="1" transform="matrix(1,0,0,1,173.51600646972656,339.6889953613281)"><path stroke-linecap="butt" stroke-linejoin="miter" fill-opacity="0" stroke-miterlimit="10" stroke="rgb(0,0,0)" stroke-opacity="1" stroke-width="16.361" d=" M117.98600006103516,-38.96099853515625 C117.98600006103516,-38.96099853515625 117.98600006103516,2.499000072479248 117.98600006103516,2.499000072479248 C117.98600006103516,22.63599967956543 65.16400146484375,38.96099853515625 0.0010000000474974513,38.96099853515625 C-65.16200256347656,38.96099853515625 -117.98500061035156,22.63599967956543 -117.98500061035156,2.499000072479248 C-117.98500061035156,2.499000072479248 -117.98500061035156,-38.96099853515625 -117.98500061035156,-38.96099853515625 C-117.98500061035156,-31.253000259399414 -110.26000213623047,-24.104000091552734 -97.06300354003906,-18.231000900268555 C-75.77300262451172,-8.722000122070312 -40.23699951171875,-2.5 0.0010000000474974513,-2.5 C40.237998962402344,-2.5 75.77300262451172,-8.722000122070312 97.06300354003906,-18.231000900268555 C110.25900268554688,-24.104000091552734 117.98600006103516,-31.253000259399414 117.98600006103516,-38.96099853515625z"/></g><g opacity="1" transform="matrix(1,0,0,1,173.51600646972656,381.114990234375)"><path stroke-linecap="butt" stroke-linejoin="miter" fill-opacity="0" stroke-miterlimit="10" stroke="rgb(0,0,0)" stroke-opacity="1" stroke-width="16.361" d=" M117.98600006103516,-38.96200180053711 C117.98600006103516,-38.96200180053711 117.98600006103516,2.499000072479248 117.98600006103516,2.499000072479248 C117.98600006103516,22.63599967956543 65.16400146484375,38.96099853515625 0.0010000000474974513,38.96099853515625 C-65.16200256347656,38.96099853515625 -117.98500061035156,22.63599967956543 -117.98500061035156,2.499000072479248 C-117.98500061035156,2.499000072479248 -117.98500061035156,-38.96200180053711 -117.98500061035156,-38.96200180053711 C-117.98500061035156,-31.253000259399414 -110.26000213623047,-24.104999542236328 -97.06300354003906,-18.23200035095215 C-75.77300262451172,-8.722999572753906 -40.23699951171875,-2.5 0.0010000000474974513,-2.5 C40.237998962402344,-2.5 75.77300262451172,-8.722999572753906 97.06300354003906,-18.23200035095215 C110.25900268554688,-24.104999542236328 117.98600006103516,-31.253000259399414 117.98600006103516,-38.96200180053711z"/></g><g opacity="1" transform="matrix(1,0,0,1,173.51600646972656,422.572998046875)"><path stroke-linecap="butt" stroke-linejoin="miter" fill-opacity="0" stroke-miterlimit="10" stroke="rgb(0,0,0)" stroke-opacity="1" stroke-width="16.361" d=" M117.98600006103516,-38.96200180053711 C117.98600006103516,-38.96200180053711 117.98600006103516,2.499000072479248 117.98600006103516,2.499000072479248 C117.98600006103516,22.63599967956543 65.16400146484375,38.96099853515625 0.0010000000474974513,38.96099853515625 C-65.16200256347656,38.96099853515625 -117.98500061035156,22.63599967956543 -117.98500061035156,2.499000072479248 C-117.98500061035156,2.499000072479248 -117.98500061035156,-38.96200180053711 -117.98500061035156,-38.96200180053711 C-117.98500061035156,-31.253000259399414 -110.26000213623047,-24.104999542236328 -97.06300354003906,-18.23200035095215 C-75.77300262451172,-8.722999572753906 -40.23699951171875,-2.5 0.0010000000474974513,-2.5 C40.237998962402344,-2.5 75.77300262451172,-8.722999572753906 97.06300354003906,-18.23200035095215 C110.25900268554688,-24.104999542236328 117.98600006103516,-31.253000259399414 117.98600006103516,-38.96200180053711z"/></g><g opacity="1" transform="matrix(1,0,0,1,431.385009765625,300.7279968261719)"><path fill="rgb(255,204,42)" fill-opacity="1" d=" M114.61499786376953,0 C114.61499786376953,7.708000183105469 107.10900115966797,14.857000350952148 94.28900146484375,20.729999542236328 C73.60700225830078,30.23900032043457 39.0880012512207,36.46099853515625 0,36.46099853515625 C-39.0880012512207,36.46099853515625 -73.60900115966797,30.23900032043457 -94.29000091552734,20.729999542236328 C-107.11000061035156,14.857000350952148 -114.61499786376953,7.708000183105469 -114.61499786376953,0 C-114.61499786376953,-20.13599967956543 -63.301998138427734,-36.46099853515625 0,-36.46099853515625 C63.30099868774414,-36.46099853515625 114.61499786376953,-20.13599967956543 114.61499786376953,0z"/></g><g opacity="1" transform="matrix(1,0,0,1,431.385009765625,339.6889953613281)"><path fill="rgb(255,158,20)" fill-opacity="1" d=" M114.61499786376953,-38.96099853515625 C114.61499786376953,-38.96099853515625 114.61499786376953,2.499000072479248 114.61499786376953,2.499000072479248 C114.61499786376953,22.63599967956543 63.30099868774414,38.96099853515625 0,38.96099853515625 C-63.301998138427734,38.96099853515625 -114.61499786376953,22.63599967956543 -114.61499786376953,2.499000072479248 C-114.61499786376953,2.499000072479248 -114.61499786376953,-38.96099853515625 -114.61499786376953,-38.96099853515625 C-114.61499786376953,-31.253000259399414 -107.11000061035156,-24.104000091552734 -94.29000091552734,-18.231000900268555 C-73.60900115966797,-8.722000122070312 -39.0880012512207,-2.5 0,-2.5 C39.0880012512207,-2.5 73.60700225830078,-8.722000122070312 94.28900146484375,-18.231000900268555 C107.10900115966797,-24.104000091552734 114.61499786376953,-31.253000259399414 114.61499786376953,-38.96099853515625z"/></g><g opacity="1" transform="matrix(1,0,0,1,413.781005859375,300.7279968261719)"><path stroke-linecap="butt" stroke-linejoin="miter" fill-opacity="0" stroke-miterlimit="10" stroke="rgb(0,0,0)" stroke-opacity="1" stroke-width="16.361" d=" M117.98600006103516,0 C117.98600006103516,7.708000183105469 110.26000213623047,14.857000350952148 97.06300354003906,20.729999542236328 C75.77300262451172,30.23900032043457 40.237998962402344,36.46099853515625 0.0010000000474974513,36.46099853515625 C-40.23699951171875,36.46099853515625 -75.77300262451172,30.23900032043457 -97.06300354003906,20.729999542236328 C-110.26000213623047,14.857000350952148 -117.98600006103516,7.708000183105469 -117.98600006103516,0 C-117.98600006103516,-20.13599967956543 -65.16200256347656,-36.46099853515625 0.0010000000474974513,-36.46099853515625 C65.16400146484375,-36.46099853515625 117.98600006103516,-20.13599967956543 117.98600006103516,0z"/></g><g opacity="1" transform="matrix(1,0,0,1,413.781005859375,339.6889953613281)"><path stroke-linecap="butt" stroke-linejoin="miter" fill-opacity="0" stroke-miterlimit="10" stroke="rgb(0,0,0)" stroke-opacity="1" stroke-width="16.361" d=" M117.98600006103516,-38.96099853515625 C117.98600006103516,-38.96099853515625 117.98600006103516,2.499000072479248 117.98600006103516,2.499000072479248 C117.98600006103516,22.63599967956543 65.16400146484375,38.96099853515625 0.0010000000474974513,38.96099853515625 C-65.16200256347656,38.96099853515625 -117.98600006103516,22.63599967956543 -117.98600006103516,2.499000072479248 C-117.98600006103516,2.499000072479248 -117.98600006103516,-38.96099853515625 -117.98600006103516,-38.96099853515625 C-117.98600006103516,-31.253000259399414 -110.26000213623047,-24.104000091552734 -97.06300354003906,-18.231000900268555 C-75.77300262451172,-8.722000122070312 -40.23699951171875,-2.5 0.0010000000474974513,-2.5 C40.237998962402344,-2.5 75.77300262451172,-8.722000122070312 97.06300354003906,-18.231000900268555 C110.26000213623047,-24.104000091552734 117.98600006103516,-31.253000259399414 117.98600006103516,-38.96099853515625z"/></g><g opacity="1" transform="matrix(1,0,0,1,413.781005859375,381.114990234375)"><path stroke-linecap="butt" stroke-linejoin="miter" fill-opacity="0" stroke-miterlimit="10" stroke="rgb(0,0,0)" stroke-opacity="1" stroke-width="16.361" d=" M117.98600006103516,-38.96200180053711 C117.98600006103516,-38.96200180053711 117.98600006103516,2.499000072479248 117.98600006103516,2.499000072479248 C117.98600006103516,22.63599967956543 65.16400146484375,38.96099853515625 0.0010000000474974513,38.96099853515625 C-65.16200256347656,38.96099853515625 -117.98600006103516,22.63599967956543 -117.98600006103516,2.499000072479248 C-117.98600006103516,2.499000072479248 -117.98600006103516,-38.96200180053711 -117.98600006103516,-38.96200180053711 C-117.98600006103516,-31.253000259399414 -110.26000213623047,-24.104999542236328 -97.06300354003906,-18.23200035095215 C-75.77300262451172,-8.722999572753906 -40.23699951171875,-2.5 0.0010000000474974513,-2.5 C40.237998962402344,-2.5 75.77300262451172,-8.722999572753906 97.06300354003906,-18.23200035095215 C110.26000213623047,-24.104999542236328 117.98600006103516,-31.253000259399414 117.98600006103516,-38.96200180053711z"/></g><g opacity="1" transform="matrix(1,0,0,1,413.781005859375,422.572998046875)"><path stroke-linecap="butt" stroke-linejoin="miter" fill-opacity="0" stroke-miterlimit="10" stroke="rgb(0,0,0)" stroke-opacity="1" stroke-width="16.361" d=" M117.98600006103516,-38.96200180053711 C117.98600006103516,-38.96200180053711 117.98600006103516,2.499000072479248 117.98600006103516,2.499000072479248 C117.98600006103516,22.63599967956543 65.16400146484375,38.96099853515625 0.0010000000474974513,38.96099853515625 C-65.16200256347656,38.96099853515625 -117.98600006103516,22.63599967956543 -117.98600006103516,2.499000072479248 C-117.98600006103516,2.499000072479248 -117.98600006103516,-38.96200180053711 -117.98600006103516,-38.96200180053711 C-117.98600006103516,-31.253000259399414 -110.26000213623047,-24.104999542236328 -97.06300354003906,-18.23200035095215 C-75.77300262451172,-8.722999572753906 -40.23699951171875,-2.5 0.0010000000474974513,-2.5 C40.237998962402344,-2.5 75.77300262451172,-8.722999572753906 97.06300354003906,-18.23200035095215 C110.26000213623047,-24.104999542236328 117.98600006103516,-31.253000259399414 117.98600006103516,-38.96200180053711z"/></g></g><g transform="matrix(1,0,0,1,16,-473.2030029296875)" opacity="1" style="display: block;"><g opacity="1" transform="matrix(1,0,0,1,431.385009765625,383.7279968261719)"><path fill="rgb(255,204,42)" fill-opacity="1" d=" M114.61499786376953,0 C114.61499786376953,7.709000110626221 107.10900115966797,14.857000350952148 94.28900146484375,20.729999542236328 C73.60700225830078,30.23900032043457 39.0880012512207,36.46200180053711 0,36.46200180053711 C-39.0880012512207,36.46200180053711 -73.60900115966797,30.23900032043457 -94.29000091552734,20.729999542236328 C-107.11000061035156,14.857000350952148 -114.61499786376953,7.709000110626221 -114.61499786376953,0 C-114.61499786376953,-20.13599967956543 -63.301998138427734,-36.46200180053711 0,-36.46200180053711 C63.30099868774414,-36.46200180053711 114.61499786376953,-20.13599967956543 114.61499786376953,0z"/></g><g opacity="1" transform="matrix(1,0,0,1,431.385009765625,422.6889953613281)"><path fill="rgb(255,158,20)" fill-opacity="1" d=" M114.61499786376953,-38.96200180053711 C114.61499786376953,-38.96200180053711 114.61499786376953,2.499000072479248 114.61499786376953,2.499000072479248 C114.61499786376953,22.63599967956543 63.30099868774414,38.96200180053711 0,38.96200180053711 C-63.301998138427734,38.96200180053711 -114.61499786376953,22.63599967956543 -114.61499786376953,2.499000072479248 C-114.61499786376953,2.499000072479248 -114.61499786376953,-38.96200180053711 -114.61499786376953,-38.96200180053711 C-114.61499786376953,-31.253000259399414 -107.11000061035156,-24.104000091552734 -94.29000091552734,-18.231000900268555 C-73.60900115966797,-8.722000122070312 -39.0880012512207,-2.499000072479248 0,-2.499000072479248 C39.0880012512207,-2.499000072479248 73.60700225830078,-8.722000122070312 94.28900146484375,-18.231000900268555 C107.10900115966797,-24.104000091552734 114.61499786376953,-31.253000259399414 114.61499786376953,-38.96200180053711z"/></g><g opacity="1" transform="matrix(1,0,0,1,413.781005859375,383.7279968261719)"><path stroke-linecap="butt" stroke-linejoin="miter" fill-opacity="0" stroke-miterlimit="10" stroke="rgb(0,0,0)" stroke-opacity="1" stroke-width="16.361" d=" M117.98600006103516,0 C117.98600006103516,7.709000110626221 110.26000213623047,14.857000350952148 97.06300354003906,20.729999542236328 C75.77300262451172,30.23900032043457 40.237998962402344,36.46200180053711 0.0010000000474974513,36.46200180053711 C-40.23699951171875,36.46200180053711 -75.77300262451172,30.23900032043457 -97.06300354003906,20.729999542236328 C-110.26000213623047,14.857000350952148 -117.98600006103516,7.709000110626221 -117.98600006103516,0 C-117.98600006103516,-20.13599967956543 -65.16200256347656,-36.46200180053711 0.0010000000474974513,-36.46200180053711 C65.16400146484375,-36.46200180053711 117.98600006103516,-20.13599967956543 117.98600006103516,0z"/></g><g opacity="1" transform="matrix(1,0,0,1,413.781005859375,422.6889953613281)"><path stroke-linecap="butt" stroke-linejoin="miter" fill-opacity="0" stroke-miterlimit="10" stroke="rgb(0,0,0)" stroke-opacity="1" stroke-width="16.361" d=" M117.98600006103516,-38.96200180053711 C117.98600006103516,-38.96200180053711 117.98600006103516,2.499000072479248 117.98600006103516,2.499000072479248 C117.98600006103516,22.63599967956543 65.16400146484375,38.96200180053711 0.0010000000474974513,38.96200180053711 C-65.16200256347656,38.96200180053711 -117.98600006103516,22.63599967956543 -117.98600006103516,2.499000072479248 C-117.98600006103516,2.499000072479248 -117.98600006103516,-38.96200180053711 -117.98600006103516,-38.96200180053711 C-117.98600006103516,-31.253000259399414 -110.26000213623047,-24.104000091552734 -97.06300354003906,-18.231000900268555 C-75.77300262451172,-8.722000122070312 -40.23699951171875,-2.499000072479248 0.0010000000474974513,-2.499000072479248 C40.237998962402344,-2.499000072479248 75.77300262451172,-8.722000122070312 97.06300354003906,-18.231000900268555 C110.26000213623047,-24.104000091552734 117.98600006103516,-31.253000259399414 117.98600006103516,-38.96200180053711z"/></g></g><g transform="matrix(1,0,0,1,16,-9)" opacity="1" style="display: none;"><g opacity="1" transform="matrix(1,0,0,1,431.385009765625,343.7279968261719)"><path fill="rgb(255,204,42)" fill-opacity="1" d=" M114.61499786376953,0 C114.61499786376953,7.709000110626221 107.10900115966797,14.857000350952148 94.28900146484375,20.729999542236328 C73.60700225830078,30.23900032043457 39.0880012512207,36.46200180053711 0,36.46200180053711 C-39.0880012512207,36.46200180053711 -73.60900115966797,30.23900032043457 -94.29000091552734,20.729999542236328 C-107.11000061035156,14.857000350952148 -114.61499786376953,7.709000110626221 -114.61499786376953,0 C-114.61499786376953,-20.13599967956543 -63.301998138427734,-36.46200180053711 0,-36.46200180053711 C63.30099868774414,-36.46200180053711 114.61499786376953,-20.13599967956543 114.61499786376953,0z"/></g><g opacity="1" transform="matrix(1,0,0,1,431.385009765625,382.6889953613281)"><path fill="rgb(255,158,20)" fill-opacity="1" d=" M114.61499786376953,-38.96200180053711 C114.61499786376953,-38.96200180053711 114.61499786376953,2.499000072479248 114.61499786376953,2.499000072479248 C114.61499786376953,22.63599967956543 63.30099868774414,38.96099853515625 0,38.96099853515625 C-63.301998138427734,38.96099853515625 -114.61499786376953,22.63599967956543 -114.61499786376953,2.499000072479248 C-114.61499786376953,2.499000072479248 -114.61499786376953,-38.96200180053711 -114.61499786376953,-38.96200180053711 C-114.61499786376953,-31.253000259399414 -107.11000061035156,-24.104999542236328 -94.29000091552734,-18.23200035095215 C-73.60900115966797,-8.722999572753906 -39.0880012512207,-2.5 0,-2.5 C39.0880012512207,-2.5 73.60700225830078,-8.722999572753906 94.28900146484375,-18.23200035095215 C107.10900115966797,-24.104999542236328 114.61499786376953,-31.253000259399414 114.61499786376953,-38.96200180053711z"/></g><g opacity="1" transform="matrix(1,0,0,1,413.781005859375,343.7279968261719)"><path stroke-linecap="butt" stroke-linejoin="miter" fill-opacity="0" stroke-miterlimit="10" stroke="rgb(0,0,0)" stroke-opacity="1" stroke-width="16.361" d=" M117.98600006103516,0 C117.98600006103516,7.709000110626221 110.26000213623047,14.857000350952148 97.06300354003906,20.729999542236328 C75.77300262451172,30.23900032043457 40.237998962402344,36.46200180053711 0.0010000000474974513,36.46200180053711 C-40.23699951171875,36.46200180053711 -75.77300262451172,30.23900032043457 -97.06300354003906,20.729999542236328 C-110.26000213623047,14.857000350952148 -117.98600006103516,7.709000110626221 -117.98600006103516,0 C-117.98600006103516,-20.13599967956543 -65.16200256347656,-36.46200180053711 0.0010000000474974513,-36.46200180053711 C65.16400146484375,-36.46200180053711 117.98600006103516,-20.13599967956543 117.98600006103516,0z"/></g><g opacity="1" transform="matrix(1,0,0,1,413.781005859375,382.6889953613281)"><path stroke-linecap="butt" stroke-linejoin="miter" fill-opacity="0" stroke-miterlimit="10" stroke="rgb(0,0,0)" stroke-opacity="1" stroke-width="16.361" d=" M117.98600006103516,-38.96200180053711 C117.98600006103516,-38.96200180053711 117.98600006103516,2.499000072479248 117.98600006103516,2.499000072479248 C117.98600006103516,22.63599967956543 65.16400146484375,38.96099853515625 0.0010000000474974513,38.96099853515625 C-65.16200256347656,38.96099853515625 -117.98600006103516,22.63599967956543 -117.98600006103516,2.499000072479248 C-117.98600006103516,2.499000072479248 -117.98600006103516,-38.96200180053711 -117.98600006103516,-38.96200180053711 C-117.98600006103516,-31.253000259399414 -110.26000213623047,-24.104999542236328 -97.06300354003906,-18.23200035095215 C-75.77300262451172,-8.722999572753906 -40.23699951171875,-2.5 0.0010000000474974513,-2.5 C40.237998962402344,-2.5 75.77300262451172,-8.722999572753906 97.06300354003906,-18.23200035095215 C110.26000213623047,-24.104999542236328 117.98600006103516,-31.253000259399414 117.98600006103516,-38.96200180053711z"/></g></g><g transform="matrix(1,0,0,1,16,-9)" opacity="1" style="display: none;"><g opacity="1" transform="matrix(1,0,0,1,431.385009765625,300.7279968261719)"><path fill="rgb(255,204,42)" fill-opacity="1" d=" M114.61499786376953,0 C114.61499786376953,7.708000183105469 107.10900115966797,14.857000350952148 94.28900146484375,20.729999542236328 C73.60700225830078,30.23900032043457 39.0880012512207,36.46099853515625 0,36.46099853515625 C-39.0880012512207,36.46099853515625 -73.60900115966797,30.23900032043457 -94.29000091552734,20.729999542236328 C-107.11000061035156,14.857000350952148 -114.61499786376953,7.708000183105469 -114.61499786376953,0 C-114.61499786376953,-20.13599967956543 -63.301998138427734,-36.46099853515625 0,-36.46099853515625 C63.30099868774414,-36.46099853515625 114.61499786376953,-20.13599967956543 114.61499786376953,0z"/></g><g opacity="1" transform="matrix(1,0,0,1,431.385009765625,339.6889953613281)"><path fill="rgb(255,158,20)" fill-opacity="1" d=" M114.61499786376953,-38.96099853515625 C114.61499786376953,-38.96099853515625 114.61499786376953,2.499000072479248 114.61499786376953,2.499000072479248 C114.61499786376953,22.63599967956543 63.30099868774414,38.96099853515625 0,38.96099853515625 C-63.301998138427734,38.96099853515625 -114.61499786376953,22.63599967956543 -114.61499786376953,2.499000072479248 C-114.61499786376953,2.499000072479248 -114.61499786376953,-38.96099853515625 -114.61499786376953,-38.96099853515625 C-114.61499786376953,-31.253000259399414 -107.11000061035156,-24.104000091552734 -94.29000091552734,-18.231000900268555 C-73.60900115966797,-8.722000122070312 -39.0880012512207,-2.5 0,-2.5 C39.0880012512207,-2.5 73.60700225830078,-8.722000122070312 94.28900146484375,-18.231000900268555 C107.10900115966797,-24.104000091552734 114.61499786376953,-31.253000259399414 114.61499786376953,-38.96099853515625z"/></g><g opacity="1" transform="matrix(1,0,0,1,413.781005859375,300.7279968261719)"><path stroke-linecap="butt" stroke-linejoin="miter" fill-opacity="0" stroke-miterlimit="10" stroke="rgb(0,0,0)" stroke-opacity="1" stroke-width="16.361" d=" M117.98600006103516,0 C117.98600006103516,7.708000183105469 110.26000213623047,14.857000350952148 97.06300354003906,20.729999542236328 C75.77300262451172,30.23900032043457 40.237998962402344,36.46099853515625 0.0010000000474974513,36.46099853515625 C-40.23699951171875,36.46099853515625 -75.77300262451172,30.23900032043457 -97.06300354003906,20.729999542236328 C-110.26000213623047,14.857000350952148 -117.98600006103516,7.708000183105469 -117.98600006103516,0 C-117.98600006103516,-20.13599967956543 -65.16200256347656,-36.46099853515625 0.0010000000474974513,-36.46099853515625 C65.16400146484375,-36.46099853515625 117.98600006103516,-20.13599967956543 117.98600006103516,0z"/></g><g opacity="1" transform="matrix(1,0,0,1,413.781005859375,339.6889953613281)"><path stroke-linecap="butt" stroke-linejoin="miter" fill-opacity="0" stroke-miterlimit="10" stroke="rgb(0,0,0)" stroke-opacity="1" stroke-width="16.361" d=" M117.98600006103516,-38.96099853515625 C117.98600006103516,-38.96099853515625 117.98600006103516,2.499000072479248 117.98600006103516,2.499000072479248 C117.98600006103516,22.63599967956543 65.16400146484375,38.96099853515625 0.0010000000474974513,38.96099853515625 C-65.16200256347656,38.96099853515625 -117.98600006103516,22.63599967956543 -117.98600006103516,2.499000072479248 C-117.98600006103516,2.499000072479248 -117.98600006103516,-38.96099853515625 -117.98600006103516,-38.96099853515625 C-117.98600006103516,-31.253000259399414 -110.26000213623047,-24.104000091552734 -97.06300354003906,-18.231000900268555 C-75.77300262451172,-8.722000122070312 -40.23699951171875,-2.5 0.0010000000474974513,-2.5 C40.237998962402344,-2.5 75.77300262451172,-8.722000122070312 97.06300354003906,-18.231000900268555 C110.26000213623047,-24.104000091552734 117.98600006103516,-31.253000259399414 117.98600006103516,-38.96099853515625z"/></g></g></g></svg>