<svg width="427" height="323" viewBox="0 0 427 323" fill="none" xmlns="http://www.w3.org/2000/svg">
<path d="M258.845 139.605C258.845 188.609 219.263 228.465 170.112 228.465C121.179 228.465 81.3796 188.827 81.3796 139.605C81.3796 90.602 120.961 50.7458 170.112 50.7458C219.046 50.7458 258.845 90.602 258.845 139.605Z" fill="#56E21B"/>
<path d="M130.966 204.726C130.966 204.726 118.352 207.339 108.565 214.309C108.565 214.309 99.8656 226.287 97.9082 236.523L85.9467 231.514C85.9467 231.514 70.0705 238.919 69.418 253.729C69.418 253.729 57.0215 265.49 58.109 274.419C58.109 274.419 84.4243 291.625 95.7334 294.892L95.0809 322.334H155.976C155.976 322.334 154.671 278.557 154.019 273.33C153.366 268.103 153.584 236.959 152.279 228.683C150.974 220.407 150.539 213.437 144.449 209.517C138.577 205.815 132.053 205.379 130.966 204.726Z" fill="#56E21B"/>
<path d="M288.64 200.37C288.64 200.37 308.214 201.023 318.435 193.836C328.657 186.649 328.222 179.244 328.657 170.75C329.092 162.038 324.742 148.535 324.742 148.535L328.222 145.486L332.789 148.753C332.789 148.753 339.966 146.793 344.751 144.179C349.535 141.566 349.535 141.566 349.535 141.566V138.734C349.535 138.734 351.058 138.299 351.492 139.388C351.492 139.388 355.625 153.326 356.712 165.305C357.799 177.284 359.539 194.489 346.49 213.873L319.088 289.229L320.393 322.334H248.188L245.361 277.251L248.406 209.953C248.406 209.953 251.233 205.161 261.89 202.112C261.89 202.112 266.457 201.241 269.284 201.241C272.329 201.241 276.026 200.152 276.026 200.152L287.553 206.25L287.988 200.37H288.64Z" fill="#56E21B"/>
<path d="M194.47 192.311C194.47 192.311 182.291 190.569 162.718 219.536C142.927 248.72 149.886 262.876 149.886 262.876C149.886 262.876 151.626 272.895 168.807 270.499C168.807 270.499 168.59 283.349 167.72 294.456C166.633 305.564 164.24 322.334 164.24 322.334H248.188L245.361 277.251C245.361 277.251 257.323 274.855 257.975 259.392C258.41 243.928 252.321 221.06 251.016 216.704C249.711 212.131 245.361 199.281 232.095 195.143C218.828 191.005 200.125 190.569 194.47 192.311Z" fill="#1A1A1A"/>
<path d="M133.14 113.47C129.008 109.332 122.266 109.332 117.917 113.47L113.784 117.608C109.652 121.746 109.652 128.498 113.784 132.854L144.014 163.127C148.147 167.265 154.889 167.265 159.238 163.127L221.221 102.363C225.353 98.2247 225.353 91.4731 221.221 87.1173L217.088 82.9792C212.956 78.8411 206.214 78.8411 201.865 82.9792L151.409 131.983L133.14 113.47Z" fill="white"/>
<path d="M98.5606 169.225L100.953 182.293C100.953 182.293 97.2557 185.124 97.0382 185.995C97.0382 186.867 100.953 189.698 100.953 189.698C100.953 189.698 102.91 200.588 114.219 196.667L115.524 201.023L123.136 197.974C123.136 197.974 121.396 190.787 122.701 184.906C122.701 184.906 125.963 182.511 124.658 178.155C123.354 173.581 117.264 174.888 115.959 177.066C115.089 177.284 102.91 174.452 98.5606 169.225Z" fill="white"/>
<path d="M69.6355 253.947C69.6355 253.947 62.0236 247.631 59.4139 243.275C56.8041 238.919 54.1943 237.612 52.2369 239.137C50.2796 240.661 51.367 244.146 52.6719 245.889C53.9768 247.413 57.4565 251.333 54.6292 252.422C54.6292 252.422 53.9768 253.293 52.0195 251.333C50.0621 249.373 42.0153 241.315 42.0153 241.315C42.0153 241.315 40.7104 243.275 40.7104 244.146C40.7104 244.146 38.753 245.017 39.188 248.502C39.623 251.987 42.0153 256.996 48.3223 260.916C54.6292 264.837 58.9789 267.232 59.4139 269.192C59.1964 268.757 63.3285 258.521 69.6355 253.947Z" fill="white"/>
<path d="M216.653 186.867L215.566 173.799C215.566 173.799 221.221 175.759 223.178 170.314C225.135 164.869 220.133 162.692 217.523 162.909C214.914 163.345 213.609 165.087 213.609 165.087C213.609 165.087 208.607 159.642 206.649 152.237C206.649 152.237 200.56 159.86 191.86 157.029C191.86 157.029 191.643 169.879 191.643 173.146C191.643 176.412 190.338 184.035 198.385 184.906V187.302L202.735 202.33L216.653 186.867Z" fill="white"/>
<path d="M194.688 230.861C194.688 230.861 191.208 226.505 185.554 225.198C179.899 223.891 175.549 224.98 174.679 226.941C174.679 226.941 165.98 228.465 167.502 234.563C167.502 234.563 170.765 233.257 175.984 234.781C181.204 236.306 184.901 240.008 184.901 240.008C184.901 240.008 190.121 233.257 194.688 230.861Z" fill="white"/>
<path d="M210.346 238.484C210.346 238.484 212.086 234.128 218.611 236.306C218.611 236.306 223.83 234.563 227.745 237.395C227.745 237.395 229.92 236.306 233.4 237.83C236.662 239.137 238.619 245.017 239.489 247.413C240.142 249.809 238.619 253.947 234.487 252.205C234.052 252.205 233.617 255.471 230.137 255.036C226.658 254.818 224.918 250.898 224.918 250.898C224.918 250.898 224.048 254.382 220.786 253.947C217.741 253.511 216.653 251.116 216.653 250.244C216.653 249.373 216.871 245.889 216.436 245.017C216.001 244.146 213.609 240.226 213.609 240.226L210.346 238.484Z" fill="white"/>
<path d="M290.38 161.82L293.207 177.066C293.207 177.066 295.6 187.52 287.335 187.956L288.64 200.37L287.988 206.468L276.461 200.152C276.461 200.152 280.158 198.845 281.028 194.054C281.898 189.044 280.593 185.995 277.766 183.817C274.939 181.64 273.199 180.551 273.199 180.551C273.199 180.551 267.109 182.728 265.804 177.501C264.5 172.274 269.284 171.185 271.894 171.621C271.894 171.621 276.896 167.919 278.418 163.78C279.941 159.642 280.811 155.069 280.811 155.069C280.811 155.069 288.423 159.425 290.38 161.82Z" fill="white"/>
<path d="M332.572 148.535C332.572 148.535 326.917 144.615 324.307 142.872C321.697 141.13 320.175 138.299 320.61 135.467C321.045 132.854 326.482 125.013 327.787 124.578C329.092 124.142 331.049 125.013 331.267 127.627C331.702 130.24 331.267 128.716 331.267 128.716C331.267 128.716 337.791 128.498 341.488 127.845C344.968 127.191 348.665 125.884 348.665 125.884C348.665 125.884 349.97 135.467 349.535 141.348C349.535 141.348 345.62 144.615 340.183 146.139C334.964 148.099 332.572 148.535 332.572 148.535Z" fill="white"/>
<path d="M81.597 233.692L70.7229 226.505L63.9809 230.643L56.1516 229.554L65.5033 223.456C65.5033 223.456 60.9362 222.802 58.5439 224.109C56.1516 225.416 52.0194 229.118 52.0194 229.118C52.0194 229.118 48.9747 229.554 48.5397 231.514C48.1047 233.692 50.7145 235.87 55.0642 236.523C59.1963 237.177 64.8509 237.395 64.8509 237.395C64.8509 237.395 67.0257 241.75 72.2453 243.928C72.2453 243.928 76.16 238.484 77.4648 237.395C78.5523 236.523 81.597 233.692 81.597 233.692Z" fill="white"/>
<path d="M198.385 187.084L194.47 192.311L194.905 213.002L194.253 230.207L197.733 232.385L203.387 232.168L209.477 213.873L211.216 216.704L222.091 192.094L215.349 185.342L198.385 187.084Z" fill="white"/>
<path d="M202.735 202.112L197.733 209.953L198.385 216.269L194.905 222.802L194.47 230.425L197.733 232.385L203.387 232.168L204.474 228.683V227.158L203.387 216.269L207.519 210.824L202.735 202.112Z" fill="#56E21B"/>
<path d="M222.091 164.216C222.091 164.216 225.353 161.385 224.483 155.287C223.613 149.188 222.526 145.486 210.564 146.575C210.564 146.575 205.779 140.694 198.603 142.655C191.426 144.615 189.033 148.753 188.381 152.237C187.728 155.94 191.643 162.038 191.643 162.038V156.811C191.643 156.811 201.212 159.207 206.867 152.02C206.867 152.02 210.564 162.474 213.826 164.869C213.609 165.087 216.219 160.731 222.091 164.216Z" fill="white"/>
<path d="M155.106 232.385C155.106 232.385 158.586 221.931 157.281 212.131C155.976 202.548 151.844 196.014 145.102 193.836C138.142 191.876 135.098 186.867 134.228 183.382C133.358 179.897 134.228 171.621 132.488 165.087C130.748 158.553 125.311 155.504 118.351 155.94C118.351 155.94 99.4305 153.98 97.9081 168.354C97.9081 168.354 102.91 174.888 115.089 177.066C115.742 177.066 116.829 175.106 119.874 174.888C122.919 174.67 124.876 177.066 125.093 179.679C125.311 182.075 122.919 184.253 122.919 184.253C122.919 184.253 121.614 188.391 122.049 193.4C122.484 198.41 125.963 203.419 131.4 204.943C136.837 206.468 145.754 207.557 148.582 214.309C151.409 221.06 152.714 228.247 152.714 231.514C152.714 234.999 152.931 237.177 152.931 237.177L155.106 232.385Z" fill="#1A1A1A"/>
<path d="M48.9746 234.563L51.3669 238.919L54.6291 236.741C54.6291 236.741 49.8445 234.563 49.4096 234.128C49.1921 233.692 48.9746 234.563 48.9746 234.563Z" fill="#1A1A1A"/>
<path d="M63.7634 231.079L75.0725 224.109L72.2452 219.753L56.369 230.207C56.1515 229.99 62.0235 231.296 63.7634 231.079Z" fill="#1A1A1A"/>
<path d="M108.565 298.377C108.565 298.377 107.912 286.398 119.874 282.913C131.835 279.429 136.837 287.269 136.837 287.269C136.837 287.269 130.313 295.545 122.701 297.07C115.089 298.594 108.565 298.377 108.565 298.377Z" fill="#1A1A1A"/>
<path d="M52.0194 245.017L24.6167 217.358C24.6167 217.358 22.6593 216.051 21.5719 217.358C20.4845 218.664 21.5719 220.407 21.5719 220.407L53.1068 252.205C53.1068 252.205 54.4117 252.204 55.2817 251.333C56.1516 250.68 55.2817 248.938 55.0642 248.502C54.8467 248.284 52.0194 245.017 52.0194 245.017Z" fill="#1A1A1A"/>
<path d="M122.919 197.974C122.919 197.974 113.784 201.023 112.044 203.637C110.305 206.25 108.347 214.526 108.347 214.526C108.347 214.526 120.744 206.032 130.748 204.943C130.965 204.726 125.093 203.419 122.919 197.974Z" fill="white"/>
<path d="M114.437 196.232L116.612 195.143L115.307 199.281L114.437 196.232Z" fill="#B5B5B5"/>
<path d="M255.148 204.943C255.148 204.943 249.711 201.676 251.668 193.836C253.843 185.995 262.107 186.867 262.107 186.867L254.713 165.741C254.713 165.741 254.713 151.584 270.589 150.713C270.589 150.713 276.244 148.099 281.246 148.971C286.248 149.624 289.728 154.198 290.815 160.078C290.815 160.731 272.981 164.869 272.981 164.869C272.981 164.869 271.242 160.949 268.849 160.078C268.849 160.078 271.894 167.047 271.894 171.621C271.894 171.621 266.022 170.314 265.804 175.759C265.587 181.204 270.589 181.64 272.981 180.333C272.981 180.333 280.811 183.6 281.246 191.222C281.681 198.627 274.721 200.588 274.721 200.588C274.721 200.588 267.109 200.37 262.542 201.894C257.975 203.419 255.148 204.943 255.148 204.943Z" fill="#1A1A1A"/>
<path d="M287.335 187.956L289.075 200.37L296.034 200.152C296.034 200.152 297.774 195.578 296.687 192.094C295.6 188.827 291.467 186.431 291.467 186.431C291.467 186.431 289.075 188.173 287.335 187.956Z" fill="#56E21B"/>
<path d="M397.164 62.2889C397.164 96.7002 369.326 124.578 334.964 124.578C300.602 124.578 272.764 96.7002 272.764 62.2889C272.981 27.8775 300.819 0 335.181 0C369.326 0 397.164 27.8775 397.164 62.2889Z" fill="#1A1A1A"/>
<path d="M367.586 81.8902C366.064 92.1265 358.017 99.7493 345.838 101.927C344.533 102.145 343.228 102.581 341.706 102.798C341.706 106.501 341.706 110.203 341.706 114.124C338.226 114.124 334.964 114.124 331.484 114.124C331.484 110.639 331.484 106.936 331.484 102.798C316.695 101.056 308.213 93.4333 305.169 80.1479C310.606 78.8411 315.825 77.5344 321.262 76.2276C321.697 77.3166 322.132 78.4055 322.35 79.2767C325.177 87.3351 334.094 91.2553 342.576 87.9884C346.49 86.4639 348.23 83.6326 348.665 79.9301C348.883 76.6632 347.36 73.8319 343.881 72.3073C339.531 70.565 334.964 68.8226 330.397 67.2981C328.004 66.4269 325.612 65.5557 323.22 64.6846C311.693 59.6753 306.474 51.3992 307.996 39.8561C309.518 28.7487 316.478 21.7793 328.874 19.3836C329.309 19.3836 329.962 19.1658 330.614 18.948C330.614 16.1167 330.614 13.2854 330.614 10.2363C334.311 10.2363 340.836 10.2363 340.836 10.2363L341.053 18.7302C341.053 18.7302 343.228 18.948 349.1 21.1259C357.364 23.9572 362.149 29.8377 364.759 37.896C359.974 39.6384 355.19 41.5985 350.405 43.3408C348.665 40.7273 347.143 38.1138 345.185 35.7181C342.141 32.2334 337.791 31.3622 333.224 32.4512C329.527 33.3224 327.352 35.7181 326.699 39.2028C326.047 42.9053 327.352 45.9544 331.049 47.4789C334.746 49.2212 338.661 50.528 342.576 52.0526C345.838 53.3593 349.1 54.4483 352.145 55.7551C364.541 61.1999 369.326 69.476 367.586 81.8902Z" fill="#56E21B"/>
<path d="M365.157 260.027C370.839 238.638 358.131 216.686 336.773 210.996C315.415 205.306 293.495 218.032 287.813 239.421C282.131 260.809 294.838 282.761 316.196 288.451C337.555 294.141 359.475 281.415 365.157 260.027Z" fill="white"/>
<path d="M281.246 246.542H321.262L321.48 206.468C321.48 206.468 305.821 205.379 293.207 218.011C280.811 230.861 281.246 246.542 281.246 246.542Z" fill="#1A1A1A"/>
<path d="M279.071 256.125C279.071 256.125 281.028 252.422 282.116 249.155C283.42 245.889 283.855 242.404 287.118 242.186C287.118 242.186 286.683 249.155 286.683 250.898C286.683 252.64 286.248 255.036 288.64 254.6C290.815 254.165 293.86 253.294 297.122 250.027C300.384 246.76 302.994 242.839 305.821 244.146C308.648 245.453 307.126 247.849 307.126 247.849C307.126 247.849 308.866 248.066 309.953 249.591C311.258 251.116 309.518 252.64 309.518 252.64C309.518 252.64 311.476 253.294 311.476 255.254C311.476 256.996 309.736 259.61 305.604 263.312C301.689 267.014 295.164 272.677 290.815 273.548C290.815 273.548 287.77 267.886 284.943 263.965C282.333 260.045 278.636 256.343 278.636 256.343H279.071V256.125Z" fill="white"/>
<path d="M291.902 276.815C291.902 276.815 280.811 301.208 247.753 311.444L247.101 305.346C247.318 305.564 268.632 302.297 291.902 276.815Z" fill="#1A1A1A"/>
<path d="M137.055 287.269C137.055 287.269 128.138 307.96 95.2984 304.91L95.7334 295.545C95.7334 295.545 106.825 299.466 116.177 298.377C125.528 297.288 134.663 291.843 137.055 287.269Z" fill="#1A1A1A"/>
<path d="M332.572 148.753L328.222 145.486C328.222 145.486 324.09 147.446 324.742 148.971C325.395 150.495 332.572 148.753 332.572 148.753Z" fill="#1A1A1A"/>
<path d="M349.535 138.952V142.001C349.535 142.001 351.057 140.694 351.057 139.605C351.057 138.516 349.535 138.952 349.535 138.952Z" fill="#1A1A1A"/>
<path d="M115.307 155.94C109.87 156.158 98.9956 157.682 97.6907 168.354C97.6907 168.354 99.648 170.75 103.998 173.363C104.215 173.363 98.7781 159.425 115.307 155.94Z" fill="white"/>
<path d="M136.62 206.25C119.656 202.33 124.006 183.164 124.006 183.164C123.354 184.035 122.919 184.253 122.919 184.253C122.919 184.253 121.614 188.391 122.049 193.4C122.484 198.41 125.963 203.201 131.4 204.943C133.793 205.597 136.62 206.25 139.447 207.121C138.577 206.686 137.707 206.468 136.62 206.25Z" fill="white"/>
<path d="M281.463 148.971C276.461 148.317 270.807 150.713 270.807 150.713C285.813 149.624 286.03 161.82 286.03 161.82L291.032 160.731C289.945 154.198 286.248 149.624 281.463 148.971Z" fill="white"/>
<path d="M281.463 191.44C281.028 184.035 273.199 180.551 273.199 180.551C273.199 180.551 278.853 183.817 277.766 192.094C276.896 198.192 271.894 200.37 269.502 201.023C272.546 200.805 275.156 200.805 275.156 200.805C275.156 200.805 281.681 198.845 281.463 191.44Z" fill="white"/>
<path d="M291.902 200.152C291.902 200.37 295.6 200.152 295.6 200.152C295.6 200.152 297.339 195.578 296.252 192.094C295.165 188.827 291.032 186.431 291.032 186.431C291.032 186.431 290.597 186.867 289.945 187.084C291.467 188.391 295.6 192.094 291.902 200.152Z" fill="white"/>
<path d="M203.387 204.29L200.125 210.17L200.995 216.486L194.905 231.296L194.47 223.02L198.167 216.051L197.515 209.517L202.735 202.548L203.387 204.29Z" fill="white"/>
<path d="M262.107 187.52C257.54 173.581 254.278 166.394 254.278 166.394C254.06 163.998 255.148 158.989 258.628 155.069C261.672 151.802 265.804 150.06 270.589 150.495C266.022 151.148 262.107 152.673 259.28 155.722C256.018 159.207 254.93 163.78 254.93 165.958C255.365 166.83 258.193 173.799 262.325 186.867C262.325 187.52 262.107 187.52 262.107 187.52Z" fill="#1A1A1A"/>
<path d="M281.681 188.609C281.246 188.609 281.028 188.609 280.593 188.609C282.116 187.738 284.508 187.738 286.03 187.52C287.553 187.302 288.64 187.084 289.728 186.649C291.25 185.778 292.12 184.471 292.555 182.293C292.99 178.808 292.337 175.106 291.685 171.621C291.032 168.572 289.51 161.167 289.51 161.167C290.38 160.949 292.12 168.354 292.555 170.968C293.207 175.106 294.077 178.808 293.425 182.511C292.99 184.906 291.902 186.649 290.162 187.52C288.858 188.173 287.118 188.391 286.248 188.609C284.943 188.609 283.203 188.609 281.681 188.609Z" fill="#1A1A1A"/>
<path d="M279.288 169.008C279.723 168.79 279.941 169.008 280.158 170.314C280.593 171.839 280.158 172.057 279.941 172.057C279.506 172.057 279.288 171.621 279.071 170.75C278.853 169.661 278.853 169.225 279.288 169.008Z" fill="#1A1A1A"/>
<path d="M289.945 166.83C290.38 166.612 290.597 166.83 291.032 168.136C291.467 169.661 291.032 169.879 290.815 169.879C290.38 169.879 290.163 169.443 289.945 168.572C289.51 167.701 289.293 167.047 289.945 166.83Z" fill="#1A1A1A"/>
<path d="M287.553 163.998C289.293 162.256 290.38 162.692 291.032 163.127C289.945 163.563 289.075 163.345 287.553 163.998Z" fill="#1A1A1A"/>
<path d="M277.331 166.612C278.636 163.998 281.246 164.216 281.246 164.216C281.028 165.087 278.853 164.869 277.549 166.394C277.549 166.612 277.331 166.612 277.331 166.612Z" fill="#1A1A1A"/>
<path d="M270.589 181.64C267.979 181.64 265.587 179.679 265.37 176.848C265.152 174.017 267.109 171.403 270.154 170.968C271.242 170.968 272.329 170.968 273.199 171.621C271.894 172.057 271.024 171.839 270.154 171.839C267.762 172.057 266.022 174.235 266.239 176.63C266.457 179.026 268.632 180.768 271.024 180.551C271.894 180.551 272.546 180.115 273.199 179.679C272.981 180.986 272.112 181.422 271.024 181.422C270.807 181.64 270.807 181.64 270.589 181.64Z" fill="#1A1A1A"/>
<path d="M269.937 179.244C269.502 178.373 271.894 175.977 271.894 175.977L268.414 174.235C268.849 173.363 272.764 175.541 272.764 175.541C272.981 176.195 270.154 179.244 270.154 179.244H269.937Z" fill="#1A1A1A"/>
<path d="M287.988 206.904C287.77 206.904 276.244 200.588 276.244 200.588C276.679 199.716 287.553 205.597 287.553 205.597L288.423 200.37L286.683 187.956C287.553 187.738 289.293 200.152 289.293 200.152C289.293 200.37 288.423 206.25 288.423 206.25C288.205 206.904 287.988 206.904 287.988 206.904Z" fill="#1A1A1A"/>
<path d="M255.148 205.379C249.711 201.241 249.928 196.014 251.886 192.311C254.06 188.391 258.845 185.56 263.195 187.084C259.063 186.431 254.495 189.262 252.538 192.747C250.146 196.885 251.233 201.241 255.148 204.508C255.365 205.379 255.365 205.379 255.148 205.379Z" fill="#1A1A1A"/>
<path d="M295.817 200.588C296.687 196.667 296.687 193.836 295.6 191.44C294.077 188.173 290.815 186.867 290.815 186.867C291.25 185.995 294.73 187.302 296.469 191.005C297.557 193.618 297.557 196.667 296.252 200.152C296.035 200.37 296.035 200.588 295.817 200.588Z" fill="#1A1A1A"/>
<path d="M273.416 201.459C273.634 200.588 280.376 200.152 280.811 192.094C281.246 184.035 272.546 180.986 272.329 180.986C272.764 180.115 282.116 183.382 281.681 192.311C281.246 201.241 273.634 201.459 273.416 201.459Z" fill="#1A1A1A"/>
<path d="M289.293 176.848C289.51 175.541 290.38 174.017 290.38 173.146C289.945 172.492 289.075 173.146 288.64 173.363C288.205 173.581 287.77 173.799 287.553 173.799C287.118 173.146 285.813 168.79 285.378 167.919C286.683 169.225 287.553 171.839 287.77 172.71C288.858 172.057 289.945 171.403 290.597 172.057C290.815 172.274 291.032 172.492 291.032 173.146C291.032 174.452 289.945 176.195 289.293 176.848C289.51 176.848 289.51 176.848 289.293 176.848Z" fill="#1A1A1A"/>
<path d="M285.378 180.986C284.943 180.986 284.508 180.986 284.073 180.768C282.551 180.115 282.116 178.155 281.898 178.155C282.768 177.937 283.203 179.462 284.29 179.897C284.943 180.333 285.813 180.115 286.9 179.679C286.683 180.768 286.03 180.986 285.378 180.986Z" fill="#1A1A1A"/>
<path d="M63.9809 231.296C63.7634 230.425 74.2025 223.674 74.2025 223.674L72.0277 220.189L56.5865 229.99C56.1515 229.118 72.0277 219.1 72.0277 219.1C72.6802 219.318 75.5074 223.674 75.5074 223.674C75.2899 224.327 64.4158 231.296 64.4158 231.296C64.1983 231.296 64.1984 231.296 63.9809 231.296Z" fill="#1A1A1A"/>
<path d="M74.855 224.545C74.6375 223.674 76.3773 222.585 76.3773 222.585L74.2025 219.1L72.4627 219.971C72.0277 219.1 73.985 217.793 73.985 217.793C74.6375 218.011 77.4648 222.367 77.4648 222.367C77.2473 223.02 75.2899 224.327 75.2899 224.327C75.0725 224.327 75.0725 224.545 74.855 224.545Z" fill="#1A1A1A"/>
<path d="M47.0173 240.008C47.0173 239.137 51.1494 238.484 51.1494 238.484L54.6292 236.306C55.0641 237.177 51.5844 239.355 51.5844 239.355C51.3669 239.573 47.0173 240.008 47.0173 240.008Z" fill="#1A1A1A"/>
<path d="M45.9298 238.919C45.4949 238.266 48.3221 233.91 48.3221 233.91C49.1921 234.345 46.1473 238.701 46.1473 238.701C46.1473 238.919 46.1473 238.919 45.9298 238.919Z" fill="#1A1A1A"/>
<path d="M62.676 238.048C54.1942 238.048 50.7145 235.87 49.4096 234.563C48.5397 233.692 48.1047 232.821 48.3222 231.95C48.5397 228.901 52.8893 228.683 53.1068 228.683C53.3243 228.683 63.9809 231.514 68.1131 230.207C64.1984 232.385 53.9767 229.99 53.1068 229.554C52.6719 229.554 49.4096 229.772 49.4096 231.732C49.4096 232.385 49.6271 233.039 50.2795 233.692C51.367 234.781 54.8467 237.177 65.2858 236.741C64.1984 238.048 63.3285 238.048 62.676 238.048Z" fill="#1A1A1A"/>
<path d="M52.0194 229.772C51.8019 228.901 55.4991 224.98 58.3264 223.891C61.1537 222.585 65.0684 223.456 65.2858 223.456C65.0684 224.327 61.1537 223.674 58.7614 224.763C56.1516 225.852 52.4544 229.554 52.4544 229.772C52.2369 229.772 52.2369 229.772 52.0194 229.772Z" fill="#1A1A1A"/>
<path d="M81.597 233.91C81.3795 233.91 70.7229 226.941 70.7229 226.941C71.1579 226.069 81.8145 233.039 81.8145 233.039C81.8145 233.91 81.597 233.91 81.597 233.91Z" fill="#1A1A1A"/>
<path d="M72.4627 244.8C67.6781 242.622 65.0683 240.444 64.1984 237.83C65.9382 239.79 68.3305 241.968 72.6802 243.928C72.8976 244.582 72.6802 244.8 72.4627 244.8Z" fill="#1A1A1A"/>
<path d="M103.128 185.778C102.475 185.778 101.823 185.342 101.605 184.689L100.083 178.155C99.8655 177.284 100.3 176.412 101.17 176.195C101.605 176.195 102.04 176.195 102.258 176.412C102.693 176.63 102.91 177.066 102.91 177.284L104.433 183.817C104.65 184.689 104.215 185.56 103.345 185.778C103.345 185.56 103.128 185.778 103.128 185.778ZM101.605 177.066C101.17 177.066 100.953 177.501 100.953 177.937L102.475 184.471C102.475 184.906 102.91 185.124 103.128 184.906C103.563 184.906 103.563 184.471 103.563 184.253L102.04 177.719C101.823 177.066 101.605 177.066 101.605 177.066Z" fill="#1A1A1A"/>
<path d="M103.345 180.986C103.128 180.115 115.524 176.848 115.524 176.848C115.742 177.937 103.563 180.986 103.345 180.986Z" fill="#1A1A1A"/>
<path d="M95.0808 322.116C94.4284 314.058 94.6459 303.168 95.0808 295.545C95.5158 303.168 95.5158 313.84 95.5158 321.681C95.0808 322.116 95.0808 322.116 95.0808 322.116Z" fill="#1A1A1A"/>
<path d="M95.7333 261.134C95.2984 258.956 95.5159 257.649 95.5159 256.125C96.6033 238.266 97.0382 230.207 108.13 214.309C108.782 213.873 121.396 205.379 130.965 204.508C122.049 206.25 109.87 214.308 108.782 214.962C97.9082 230.643 97.4732 238.701 96.3858 256.343C96.3858 257.867 96.1683 259.392 96.1683 260.916C96.1683 260.916 95.9508 261.134 95.7333 261.134Z" fill="#1A1A1A"/>
<path d="M155.976 322.116C155.541 321.245 154.236 290.101 153.366 268.539C155.323 290.101 156.411 321.463 156.411 321.681C155.976 322.116 155.976 322.116 155.976 322.116Z" fill="#1A1A1A"/>
<path d="M113.132 299.03C103.128 299.03 93.5586 294.892 85.2942 290.972C75.9425 286.398 67.0257 280.735 58.3264 275.073C57.8915 274.419 57.0215 268.757 63.7635 259.392C70.0705 251.116 75.0726 251.116 75.5075 251.116C75.725 251.116 76.8124 251.551 76.8124 251.551C86.5991 255.907 96.3858 260.263 106.173 264.619C110.087 266.361 112.697 265.925 114.219 263.312C115.307 261.57 115.742 259.174 115.959 257.214L116.394 253.293C117.264 246.106 118.352 238.701 119.439 231.514C119.221 238.919 118.352 246.324 117.482 253.293L117.047 257.214C116.829 259.392 116.394 261.787 115.089 263.748C113.132 266.579 110.087 267.232 105.738 265.272C95.9509 260.916 86.1642 256.56 76.3775 252.205L75.5075 251.769C74.8551 251.769 70.288 252.422 64.6334 259.609C58.7614 267.45 58.7614 272.677 58.7614 273.766C67.4607 279.211 76.3775 284.873 85.7292 289.665C94.211 293.803 104.433 298.159 114.654 297.723C130.748 297.07 141.622 283.349 145.102 270.064C146.624 264.183 148.147 257.432 148.147 257.432C149.017 257.649 147.494 264.401 145.972 270.281C142.275 283.785 131.183 297.723 114.654 298.594C114.219 299.03 113.567 299.03 113.132 299.03Z" fill="#1A1A1A"/>
<path d="M69.6355 254.382C69.2005 253.729 68.3306 248.72 75.0725 239.573C81.3795 231.296 86.3816 231.296 86.8165 231.296C87.034 231.296 98.1256 236.306 98.1256 236.306C97.6907 237.177 86.5991 232.168 86.5991 232.168C85.9466 232.168 81.3795 232.821 75.725 240.008C69.2005 248.72 69.8529 253.729 69.8529 253.729C69.6355 254.382 69.6355 254.382 69.6355 254.382Z" fill="#1A1A1A"/>
<path d="M102.258 175.541C102.693 174.017 104.433 172.928 106.607 174.017C103.998 173.581 102.475 175.324 102.475 175.324C102.475 175.541 102.475 175.541 102.258 175.541Z" fill="#1A1A1A"/>
<path d="M154.888 233.91C160.326 214.962 156.411 199.281 145.102 194.489C133.793 189.698 133.575 184.906 133.358 177.284C133.358 174.67 133.14 171.621 132.488 167.919C130.313 154.633 118.786 156.376 118.351 156.376C116.829 156.158 115.524 156.376 113.567 156.593C103.563 157.9 98.7781 161.385 98.3431 167.919C97.9082 160.949 102.91 157.029 113.349 155.722C115.089 155.504 116.612 155.287 118.134 155.504C118.569 155.504 121.614 155.069 124.876 156.158C128.138 157.247 132.27 160.296 133.358 167.701C134.01 171.403 134.01 174.452 134.228 177.066C134.445 184.689 134.663 188.827 145.537 193.4C157.281 198.41 161.413 214.526 155.323 233.474C155.323 233.692 155.106 233.91 154.888 233.91Z" fill="#1A1A1A"/>
<path d="M109.217 197.756C107.912 197.756 106.608 197.538 105.52 196.885C101.823 194.925 100.735 190.569 100.735 189.48C99.4306 188.609 96.6033 186.867 96.6033 185.778C96.6033 184.689 98.9956 182.728 100.518 181.857L98.3432 169.443C99.2131 169.225 101.388 182.075 101.388 182.075C99.2131 183.817 97.4733 185.342 97.4733 185.778C97.4733 186.213 99.2131 187.52 101.388 188.827C101.605 189.262 102.475 194.054 105.955 196.014C108.565 197.321 111.827 196.885 115.959 194.707C113.784 197.103 111.392 197.756 109.217 197.756Z" fill="#1A1A1A"/>
<path d="M105.085 178.373C104.65 178.373 104.433 178.59 104.868 179.897C105.303 181.422 105.738 181.422 105.955 181.422C106.172 181.204 106.39 180.768 106.172 179.679C105.738 178.808 105.52 178.373 105.085 178.373Z" fill="#1A1A1A"/>
<path d="M102.693 192.747C103.128 191.876 103.998 191.658 104.433 191.222C105.303 190.351 105.303 188.827 105.303 188.827C106.173 188.827 106.39 190.787 105.085 191.876C104.433 192.529 103.563 192.747 102.693 192.747Z" fill="#1A1A1A"/>
<path d="M119.874 185.56C119.221 185.56 118.786 185.56 118.134 185.342C119.221 184.689 120.309 184.689 121.179 184.471C122.266 184.035 123.354 183.382 123.789 182.293C124.441 181.204 124.441 179.897 124.006 178.808C123.571 177.719 122.919 176.63 121.831 176.195C120.744 175.541 119.439 175.541 118.352 175.977C116.829 176.412 115.742 177.719 115.307 179.244C114.872 177.066 116.177 175.759 118.134 175.106C119.439 174.67 120.961 174.888 122.266 175.541C123.571 176.195 124.441 177.284 124.876 178.808C125.311 180.115 125.093 181.64 124.441 182.946C123.789 184.253 122.701 185.124 121.179 185.56C121.179 185.56 120.526 185.56 119.874 185.56Z" fill="#1A1A1A"/>
<path d="M121.831 182.293C121.614 182.293 117.699 181.204 117.699 181.204C117.482 180.551 120.091 176.848 120.091 176.848C120.744 177.501 118.569 180.333 118.569 180.333L122.049 181.204C122.266 182.293 122.049 182.293 121.831 182.293Z" fill="#1A1A1A"/>
<path d="M108.565 214.962C108.13 214.308 108.565 208.21 111.392 204.072C113.349 201.023 120.091 198.41 122.701 197.538C117.482 200.37 113.349 202.765 112.045 204.726C109.435 208.646 109 214.526 109 214.744C109 214.744 108.782 214.962 108.565 214.962Z" fill="#1A1A1A"/>
<path d="M152.931 238.266C152.496 228.465 150.974 220.189 149.669 216.922C148.582 214.744 147.494 212.784 145.972 211.259C143.362 208.646 139.665 207.775 135.968 206.686C133.358 206.032 130.531 205.379 128.356 203.854C121.831 200.152 120.744 191.44 122.484 184.471C121.614 191.44 122.701 199.716 128.791 203.201C130.965 204.508 133.793 205.161 136.185 205.815C139.882 206.686 143.797 207.775 146.624 210.606C148.147 212.131 149.669 214.091 150.539 216.486C152.061 219.753 153.584 228.247 153.584 237.83C153.366 238.048 153.149 238.266 152.931 238.266Z" fill="#1A1A1A"/>
<path d="M115.742 177.501C102.258 175.324 97.4733 168.79 97.4733 168.572C98.3432 168.136 102.91 174.452 115.959 176.63C116.177 177.501 116.177 177.501 115.742 177.501Z" fill="#1A1A1A"/>
<path d="M115.307 201.676C114.872 201.241 113.567 196.449 113.567 196.449C114.437 196.232 115.742 201.023 115.742 201.023C115.524 201.677 115.524 201.676 115.307 201.676Z" fill="#1A1A1A"/>
<path d="M69.6354 254.382C69.4179 254.165 68.548 253.729 64.6333 250.027C63.1109 248.502 61.806 247.195 60.5011 245.671C60.0662 245.017 59.4137 244.364 58.9788 243.493C58.3263 242.404 57.4564 241.533 56.8039 240.444C56.5865 240.226 56.369 239.79 55.934 239.572C55.4991 239.137 55.0641 238.701 54.4116 238.484C53.7592 238.266 53.1067 238.484 52.4543 238.701C51.8019 239.137 51.3669 239.79 51.3669 240.661C51.3669 241.75 52.0193 243.057 52.6718 244.146C53.1067 244.8 53.3242 245.235 53.7592 245.889C54.1942 246.542 54.6291 247.195 55.0641 247.849C55.7165 248.72 56.8039 250.462 54.6291 252.205C54.1942 252.64 53.3242 252.858 52.4543 252.205C53.5417 251.769 53.9767 251.551 54.1942 251.551C55.7165 250.462 55.0641 249.373 54.4116 248.72C53.7592 247.849 53.3242 247.195 52.8893 246.542C52.4543 245.888 52.0193 245.453 51.8019 244.8C51.1494 243.711 50.2795 242.186 50.2795 240.879C50.2795 239.79 50.9319 238.919 51.8019 238.266C52.6718 237.612 53.7592 237.612 54.6291 237.83C55.4991 238.048 55.934 238.701 56.369 238.919C56.5865 239.137 57.0214 239.572 57.2389 239.79C58.1088 240.661 58.7613 241.75 59.6312 242.839C60.0662 243.493 60.5011 244.146 61.1536 244.8C62.241 246.106 63.5459 247.631 65.0683 248.938C68.983 252.422 69.6354 253.076 69.6354 253.076C69.8529 254.382 69.8529 254.382 69.6354 254.382Z" fill="#1A1A1A"/>
<path d="M48.1048 255.471C39.4055 248.72 38.9705 245.017 41.1453 241.315C40.4929 244.582 39.8404 247.849 48.5397 254.818C48.3223 255.254 48.3223 255.471 48.1048 255.471Z" fill="#1A1A1A"/>
<path d="M59.1964 269.41C57.8915 267.232 56.3691 266.361 53.7593 264.837C52.6719 264.183 51.5845 263.748 50.4971 262.876C45.495 259.609 41.3628 255.254 39.623 251.333C37.2307 245.453 40.7104 242.622 40.7104 242.404C41.1453 243.275 38.3181 245.671 40.4929 250.898C42.0153 254.6 46.1474 258.956 50.932 262.005C52.2369 262.876 53.3243 263.312 54.1943 263.965C56.8041 265.49 58.5439 266.361 59.6313 268.757C59.1964 269.192 59.1964 269.41 59.1964 269.41Z" fill="#1A1A1A"/>
<path d="M108.782 298.595C107.477 291.407 112.479 284.656 120.091 282.478C126.616 280.518 133.575 282.26 137.272 287.051C133.14 283.349 126.398 281.607 120.309 283.567C113.132 285.745 108.347 292.061 109.217 298.377C108.782 298.595 108.782 298.595 108.782 298.595Z" fill="#1A1A1A"/>
<path d="M326.699 250.244H310.171C310.171 249.373 326.265 249.373 326.265 249.373V209.735C327.134 209.735 327.134 249.809 327.134 249.809C327.134 250.027 326.917 250.244 326.699 250.244Z" fill="#1A1A1A"/>
<path d="M297.122 250.244H286.683C286.683 249.373 297.122 249.373 297.122 249.373C297.557 250.027 297.339 250.244 297.122 250.244Z" fill="#1A1A1A"/>
<path d="M353.667 279.864C361.497 271.588 366.281 260.916 366.281 249.809C366.281 228.029 348.448 210.17 326.7 210.17C307.996 210.17 291.685 223.456 287.988 241.75C290.815 222.802 307.561 209.081 326.7 209.081C349.1 209.081 367.151 227.158 367.151 249.591C367.151 260.916 362.367 271.806 353.885 279.429C353.885 279.646 353.667 279.864 353.667 279.864Z" fill="#1A1A1A"/>
<path d="M286.9 254.165C286.465 253.729 286.248 251.333 286.248 249.809C286.248 246.977 286.465 244.364 287.118 241.75C287.553 244.582 287.335 247.195 287.335 249.809C287.335 251.333 287.553 253.729 287.553 253.729C286.9 254.165 286.9 254.165 286.9 254.165Z" fill="#1A1A1A"/>
<path d="M326.7 290.318C312.998 290.318 301.037 284.002 293.425 272.895C301.472 283.131 313.433 289.447 326.7 289.447C329.092 289.447 331.267 289.229 333.441 288.794C331.484 290.101 329.092 290.318 326.7 290.318Z" fill="#1A1A1A"/>
<path d="M335.616 118.697H325.395C324.96 118.262 324.96 107.372 324.96 107.372C310.388 105.63 301.906 98.0069 298.644 84.286C299.079 83.6326 315.173 79.9301 315.173 79.9301C315.608 80.1479 316.043 81.2369 316.043 81.2369C316.26 81.8902 316.695 82.7614 316.913 83.4148C318.218 87.1173 320.827 89.9486 324.307 91.6909C328.222 93.4333 332.571 93.6511 336.704 92.1265C340.183 90.8198 342.141 88.2062 342.358 84.5038C342.576 81.2369 341.053 78.6233 338.009 77.3166C334.964 76.0098 331.702 74.7031 328.439 73.6141C327.134 73.1785 325.829 72.7429 324.525 72.0895C323.655 71.8718 322.785 71.4362 322.132 71.2184C320.61 70.565 319.088 70.1294 317.565 69.476C305.821 64.4668 300.602 55.9729 302.124 44.212C303.646 32.8868 310.823 25.9174 323.437 23.3039C323.655 23.3039 324.09 23.0861 324.525 23.0861C324.96 22.8683 324.96 14.5921 324.96 14.5921C325.395 14.1566 335.616 14.1566 335.616 14.1566C336.051 14.5921 336.269 22.8683 336.269 22.8683C337.139 23.0861 339.531 23.5217 344.098 25.0462C351.927 27.8775 357.147 33.3224 359.974 42.0341C359.757 42.6875 345.403 48.1323 345.403 48.1323C344.315 47.0433 343.663 46.39 343.228 45.5188C342.141 43.7764 341.053 42.0341 339.748 40.5095C336.921 37.2426 332.789 36.1537 328.222 37.2426C324.742 38.1138 322.567 40.2917 321.915 43.7764C321.262 47.4789 322.567 50.0924 326.047 51.617C328.657 52.706 331.484 53.7949 334.311 54.8839C335.399 55.3195 336.486 55.7551 337.574 56.1906C338.661 56.6262 339.748 57.0618 340.836 57.4974C343.011 58.3686 345.185 59.022 347.143 60.1109C359.322 65.5558 364.106 73.8319 362.367 86.4639C360.844 96.918 352.362 104.759 340.183 106.936C339.313 107.154 338.443 107.372 337.356 107.59L336.269 107.808V118.697C336.051 118.48 335.834 118.697 335.616 118.697ZM325.83 117.826H335.181V106.936C335.616 106.501 336.921 106.065 336.921 106.065C338.009 105.847 338.878 105.63 339.748 105.412C351.71 103.234 359.757 95.829 361.062 85.5927C362.801 73.3963 358.017 65.338 346.273 60.1109C344.315 59.2398 342.141 58.3686 339.966 57.7152C338.878 57.2796 337.791 56.844 336.704 56.4084C335.616 55.9729 334.529 55.5373 333.441 55.1017C330.614 54.0127 328.004 52.9237 325.177 51.8348C321.48 50.3102 319.957 47.0433 320.61 42.9053C321.262 39.2028 323.655 36.5893 327.569 35.7181C332.571 34.4113 337.139 35.7181 339.966 39.2028C341.271 40.7273 342.358 42.4697 343.663 44.4298C344.098 45.0832 344.533 45.9544 344.968 46.6077L358.452 41.3807C355.625 33.1046 350.84 28.0953 343.228 25.4818C337.574 23.5217 335.181 23.3039 335.181 23.3039C334.746 22.8683 334.529 14.8099 334.529 14.8099H325.177V23.0861C323.655 23.9573 323.437 23.9573 323.002 23.9573C310.823 26.353 303.864 33.1046 302.341 43.9942C300.819 55.3195 306.039 63.3778 317.348 68.1693C318.87 68.8227 320.392 69.476 321.915 69.9116C322.785 70.1294 323.655 70.565 324.307 70.7828C325.612 71.2184 326.917 71.654 328.222 72.3073C331.484 73.3963 334.746 74.7031 337.791 76.0098C341.271 77.5344 343.011 80.3657 342.793 84.0682C342.576 88.2062 340.401 91.0376 336.486 92.5621C332.136 94.3045 327.352 94.0867 323.437 92.1265C319.74 90.3842 316.913 87.3351 315.608 83.4148C315.39 82.7614 315.173 82.108 314.738 81.2369C314.52 80.5835 299.297 84.286 299.297 84.286C302.559 97.3536 311.041 104.541 325.177 106.283C325.829 106.936 325.83 117.826 325.83 117.826Z" fill="#1A1A1A"/>
<path d="M258.193 259.174C261.237 245.235 261.672 231.95 261.672 231.732C262.542 231.95 262.325 245.453 258.628 258.738C258.41 259.174 258.41 259.174 258.193 259.174Z" fill="#1A1A1A"/>
<path d="M320.393 322.116C319.958 321.463 319.958 307.088 318.435 289.447C320.61 307.088 320.828 321.463 320.828 321.681C320.393 322.116 320.393 322.116 320.393 322.116Z" fill="#1A1A1A"/>
<path d="M247.536 305.782C262.76 302.733 280.158 288.794 291.685 276.38C291.25 275.073 288.64 269.192 284.943 264.183C281.028 259.174 277.983 255.907 277.113 255.036C275.156 256.343 264.5 263.312 255.148 270.717C264.717 261.787 276.679 254.165 276.896 254.165C277.548 254.165 281.028 257.649 285.595 263.748C289.945 269.628 292.555 276.38 292.555 276.38C281.028 289.447 263.195 303.604 247.536 305.782Z" fill="#1A1A1A"/>
<path d="M248.623 210.388C249.711 207.775 251.016 206.904 253.191 205.379C258.193 202.33 263.412 200.37 273.416 200.37C263.63 201.241 258.628 203.201 253.626 206.032C251.451 207.339 250.363 208.428 248.841 209.953C248.841 210.388 248.623 210.388 248.623 210.388Z" fill="#1A1A1A"/>
<path d="M289.075 200.805C303.646 199.934 320.828 196.232 325.395 185.778C327.134 182.075 328.004 177.719 328.222 172.492C328.439 165.087 327.134 156.811 324.525 149.188C328.222 156.593 329.527 164.869 329.092 172.492C328.874 177.937 328.004 182.293 326.265 186.213C322.132 195.36 308.214 200.805 289.075 200.805Z" fill="#1A1A1A"/>
<path d="M346.49 214.962C346.925 213.002 347.795 211.695 348.448 210.606C363.454 187.084 354.32 150.277 351.057 139.605C356.06 153.109 363.889 187.956 349.318 211.042C348.665 212.131 347.795 213.437 346.925 214.744C346.708 214.962 346.708 214.962 346.49 214.962Z" fill="#1A1A1A"/>
<path d="M333.006 149.188C332.789 148.971 329.092 146.357 325.177 143.961C321.48 141.566 319.305 137.645 320.392 135.032C320.392 135.032 324.742 124.36 328.657 123.924C329.309 123.924 330.179 123.924 331.049 125.231C334.311 130.023 328.657 138.081 328.222 138.516C327.569 137.863 333.006 130.023 330.179 125.884C329.744 125.231 329.309 125.013 328.657 125.013C326.047 125.231 322.132 132.854 321.262 135.467C320.61 137.428 321.915 140.694 325.829 143.308C329.744 145.704 333.441 148.535 333.441 148.535C333.224 149.188 333.006 149.188 333.006 149.188Z" fill="#1A1A1A"/>
<path d="M349.535 142.437C349.753 135.032 348.665 126.32 348.665 126.102C349.535 126.102 350.622 134.814 350.188 142.001C349.97 142.219 349.753 142.437 349.535 142.437Z" fill="#1A1A1A"/>
<path d="M290.815 273.766C296.904 271.806 309.953 259.174 310.823 255.907C311.476 253.729 309.518 252.858 309.518 252.64C309.953 251.116 309.953 250.027 309.301 249.373C309.083 249.155 308.648 248.938 308.431 248.72C307.996 248.502 307.343 248.72 306.691 248.938C307.126 247.631 307.996 247.413 308.648 247.849C309.083 248.066 309.518 248.284 309.953 248.72C310.823 249.809 311.041 251.116 310.388 252.205C311.258 252.858 312.346 254.165 311.693 256.125C310.823 259.609 297.557 272.677 290.815 273.766Z" fill="#1A1A1A"/>
<path d="M296.469 257.649C297.992 255.689 302.776 251.551 304.299 250.244C305.821 248.938 307.126 247.631 307.126 246.542C307.126 246.106 306.909 245.671 306.474 245.017C304.951 243.711 303.864 244.364 301.906 246.324C301.689 246.542 301.254 246.977 300.819 247.413C299.297 248.938 297.122 251.116 295.599 252.205C293.642 253.729 290.597 255.471 288.423 255.471C287.118 255.471 286.683 254.165 286.683 253.511C287.553 253.729 287.77 254.382 288.64 254.382C290.162 254.382 292.772 253.076 295.165 251.333C296.469 250.244 298.644 248.066 300.167 246.542C300.602 246.106 301.037 245.671 301.254 245.453C302.776 244.146 304.734 241.968 307.126 244.146C307.778 244.8 308.213 245.453 308.213 246.324C308.213 247.849 306.691 249.155 305.821 250.027C303.864 251.987 298.862 256.125 297.122 257.214C296.687 257.432 296.687 257.649 296.469 257.649Z" fill="#1A1A1A"/>
<path d="M279.071 256.56C279.941 254.165 280.811 251.551 281.681 249.155C282.116 248.066 282.333 247.195 282.768 246.542C282.985 246.106 282.985 245.671 283.203 245.235C283.855 243.493 284.508 241.097 287.335 241.533C285.378 242.186 284.725 243.493 284.073 245.453C283.855 245.889 283.855 246.324 283.638 246.76C283.42 247.413 282.985 248.284 282.768 249.373C281.898 251.769 281.028 254.6 279.723 256.125C279.288 256.343 279.071 256.56 279.071 256.56Z" fill="#1A1A1A"/>
<path d="M299.732 262.005C299.514 261.134 301.907 259.174 304.516 256.996C306.691 255.254 309.301 251.987 309.301 251.987C309.083 253.729 306.909 256.343 304.951 257.867C302.341 260.045 299.732 262.005 299.732 262.005Z" fill="#1A1A1A"/>
<path d="M327.134 150.06C325.83 150.06 324.742 149.842 324.525 148.971C324.09 147.882 325.395 146.575 328.222 145.05C325.177 147.882 325.395 148.753 325.395 148.753C325.612 149.406 330.614 149.406 339.096 146.357C342.576 145.05 345.838 143.744 348.23 142.219C351.057 140.694 351.275 139.823 351.275 139.605C351.057 139.17 351.057 139.17 350.187 139.17C351.492 138.299 351.927 138.299 352.145 139.17C352.58 140.259 351.275 141.348 348.665 143.09C346.273 144.397 343.011 145.921 339.313 147.228C336.051 148.535 330.397 150.06 327.134 150.06Z" fill="#1A1A1A"/>
<path d="M338.009 140.041C334.529 135.467 336.704 128.716 336.921 128.498C337.791 128.934 335.616 135.25 338.444 139.388C338.226 140.041 338.226 140.041 338.009 140.041Z" fill="#1A1A1A"/>
<path d="M418.695 171.185C414.562 171.185 411.083 167.701 411.083 163.563C411.083 159.425 414.562 155.94 418.695 155.94C422.827 155.94 426.306 159.425 426.306 163.563C426.306 167.919 422.827 171.185 418.695 171.185ZM418.695 157.029C414.997 157.029 411.953 160.078 411.953 163.78C411.953 167.483 414.997 170.532 418.695 170.532C422.392 170.532 425.436 167.483 425.436 163.78C425.436 159.86 422.392 157.029 418.695 157.029Z" fill="#1A1A1A"/>
<path d="M13.7426 129.369C9.61045 129.369 6.13074 125.884 6.13074 121.746C6.13074 117.608 9.61045 114.124 13.7426 114.124C17.8748 114.124 21.3545 117.608 21.3545 121.746C21.3545 126.102 17.8748 129.369 13.7426 129.369ZM13.7426 115.213C10.0454 115.213 7.00067 118.262 7.00067 121.964C7.00067 125.449 10.0454 128.498 13.7426 128.498C17.4398 128.498 20.4846 125.449 20.4846 121.746C20.4846 118.044 17.4398 115.213 13.7426 115.213Z" fill="#1A1A1A"/>
<path d="M408.038 322.77H37.2306C37.2306 321.898 408.038 321.898 408.038 321.898C408.473 322.552 408.255 322.77 408.038 322.77Z" fill="#1A1A1A"/>
<path d="M147.277 179.244C144.449 179.244 141.622 178.155 139.447 175.977L133.14 169.661C133.793 169.008 140.1 175.324 140.1 175.324C144.014 179.244 150.539 179.244 154.454 175.324L216.001 115.213C219.916 111.292 219.916 104.759 216.001 100.838L211.869 96.7002C209.912 94.74 207.302 93.6511 204.692 93.6511C202.082 93.6511 199.472 94.74 197.515 96.7002L147.494 145.268C146.842 145.268 128.573 126.973 128.573 126.973C126.616 125.013 124.006 123.924 121.396 123.924C118.786 123.924 116.177 125.013 114.219 126.973L110.087 131.112C108.13 133.072 107.042 135.685 107.042 138.299C107.042 140.912 108.13 143.526 110.087 145.486L120.091 155.504C119.439 156.158 109.435 145.921 109.435 145.921C107.26 143.744 106.172 141.13 106.172 138.081C106.172 135.032 107.26 132.418 109.435 130.24L113.567 126.102C115.742 123.924 118.351 122.835 121.396 122.835C124.441 122.835 127.051 123.924 129.226 126.102L147.277 144.179L196.863 95.829C199.037 93.6511 201.647 92.5621 204.692 92.5621C207.737 92.5621 210.346 93.6511 212.521 95.829L216.653 99.9671C221.003 104.323 221.003 111.292 216.653 115.648L155.106 175.977C152.931 178.155 150.104 179.244 147.277 179.244Z" fill="#1A1A1A"/>
<path d="M233.835 279.211C216.219 279.211 193.818 267.668 179.029 256.125C178.812 255.689 179.899 248.502 182.944 242.622C187.076 234.563 194.253 230.861 194.688 230.643C195.123 230.643 213.609 240.008 213.609 240.008C213.174 240.879 194.905 231.732 194.905 231.732C193.6 232.385 187.511 236.088 183.814 243.057C181.204 248.284 179.899 254.382 179.682 255.689C194.253 267.232 216.436 278.557 233.617 278.557C234.052 278.557 234.487 278.557 234.705 278.557C244.709 278.34 251.016 275.508 254.278 270.281C251.451 276.38 245.144 279.211 234.705 279.646C234.705 279.211 234.27 279.211 233.835 279.211Z" fill="#1A1A1A"/>
<path d="M254.93 270.717C257.323 265.708 258.193 259.392 257.323 250.68C255.365 231.296 249.493 214.309 249.493 214.091C244.926 199.934 230.355 193.183 222.091 192.965C230.79 192.311 245.796 199.281 250.363 213.873C250.363 214.091 256.235 231.079 258.193 250.68C259.063 259.392 258.193 265.925 255.365 270.499C255.365 270.717 255.148 270.717 254.93 270.717Z" fill="#1A1A1A"/>
<path d="M229.267 236.523C227.962 228.683 229.485 219.536 229.485 219.536C230.355 219.753 228.832 228.901 229.92 236.088C229.267 236.523 229.267 236.523 229.267 236.523Z" fill="#1A1A1A"/>
<path d="M205.562 163.345C205.127 163.345 204.909 163.345 204.909 164.869C204.909 166.394 205.127 166.612 205.562 166.612C205.997 166.612 206.214 166.176 206.214 165.087C206.214 163.998 206.214 163.345 205.562 163.345Z" fill="#1A1A1A"/>
<path d="M194.688 163.563C194.253 163.563 194.035 163.78 194.035 165.087C194.035 166.612 194.253 166.83 194.688 166.83C195.123 166.83 195.34 166.394 195.34 165.305C195.34 163.998 195.34 163.563 194.688 163.563Z" fill="#1A1A1A"/>
<path d="M216.436 187.52C216.001 187.084 215.131 173.581 215.131 173.581C216.001 173.581 216.871 186.867 216.871 186.867C216.436 187.52 216.436 187.52 216.436 187.52Z" fill="#1A1A1A"/>
<path d="M199.472 185.124C197.08 185.124 194.47 184.689 192.948 182.511C191.208 180.115 191.208 176.848 191.208 173.799C191.208 173.146 191.208 172.492 191.208 172.057C191.208 170.096 191.425 157.464 191.425 157.029C192.295 157.247 192.078 170.096 192.295 172.057C192.295 172.71 192.295 173.363 192.295 174.017C192.295 176.848 192.295 179.897 193.818 182.075C195.34 184.471 198.167 184.471 200.995 184.253C201.43 184.253 201.647 184.253 202.082 184.253C204.474 184.253 206.214 184.035 207.954 183.6C206.432 184.906 204.474 185.124 202.082 185.124C201.647 185.124 201.43 185.124 200.995 185.124C200.342 185.124 199.907 185.124 199.472 185.124Z" fill="#1A1A1A"/>
<path d="M217.958 174.67C216.654 174.67 215.349 174.235 214.261 173.363C216.654 174.017 219.263 174.017 221.221 172.492C223.395 170.75 223.613 167.483 221.873 165.305C221.003 164.216 219.698 163.563 218.393 163.563C217.088 163.345 215.784 163.78 214.696 164.652C214.044 165.305 213.391 165.958 213.174 166.83C212.739 165.523 213.391 164.652 214.044 163.998C215.349 162.909 216.871 162.474 218.393 162.692C219.916 162.909 221.438 163.563 222.526 164.869C223.613 166.176 224.048 167.701 223.83 169.225C223.613 170.75 222.96 172.274 221.656 173.363C220.786 174.235 219.481 174.67 217.958 174.67Z" fill="#1A1A1A"/>
<path d="M191.86 161.82C191.426 161.167 192.513 158.771 195.775 159.642C192.948 159.86 192.295 161.385 192.295 161.603C192.295 161.82 192.078 161.82 191.86 161.82Z" fill="#1A1A1A"/>
<path d="M207.954 162.038C205.344 158.989 203.17 160.514 203.17 160.514C202.735 159.642 205.562 157.9 208.389 161.385C208.172 162.038 208.172 162.038 207.954 162.038Z" fill="#1A1A1A"/>
<path d="M198.385 187.52C197.95 187.084 197.95 184.689 197.95 184.689C198.82 184.689 198.82 187.084 198.82 187.084C198.385 187.52 198.385 187.52 198.385 187.52Z" fill="#1A1A1A"/>
<path d="M221.873 164.869C224.048 161.167 224.7 157.029 223.83 153.326C222.96 150.277 221.003 148.317 218.393 147.446C217.088 147.01 215.349 146.793 213.609 147.01C212.739 147.01 210.781 147.228 210.781 147.228C210.781 146.357 212.739 146.139 213.609 146.139C215.566 145.921 217.088 146.139 218.611 146.575C221.438 147.446 223.613 149.842 224.483 153.109C225.57 157.029 224.7 161.603 222.308 164.652C222.308 164.652 222.091 164.869 221.873 164.869Z" fill="#1A1A1A"/>
<path d="M219.698 172.057C219.481 172.057 215.131 169.879 215.131 169.879C214.914 169.225 218.828 165.087 218.828 165.087C219.481 165.741 216.001 169.443 216.001 169.443L219.698 171.185C220.133 171.839 219.916 172.057 219.698 172.057Z" fill="#1A1A1A"/>
<path d="M208.607 149.842C208.172 149.188 210.564 146.139 210.564 146.139C211.216 146.793 209.042 149.624 209.042 149.624C208.824 149.842 208.607 149.842 208.607 149.842Z" fill="#1A1A1A"/>
<path d="M229.92 255.471C228.398 255.471 226.658 254.818 225.57 253.511C225.57 253.511 223.613 251.333 223.83 249.591C224.483 250.68 225.57 252.205 226.223 252.858C227.093 253.729 228.615 254.382 229.92 254.382C231.442 254.382 232.53 253.729 232.965 252.64C233.182 251.987 233.4 251.116 233.4 250.462C233.4 245.671 231.66 239.79 227.093 237.177C222.743 234.781 218.828 236.306 218.828 236.306C218.611 235.434 222.743 233.692 227.528 236.306C232.53 239.137 234.27 245.235 234.27 250.244C234.27 251.116 234.27 251.987 233.835 252.858C233.182 254.165 231.877 255.036 230.355 255.036C230.137 255.254 230.137 255.471 229.92 255.471Z" fill="#1A1A1A"/>
<path d="M207.954 238.048C209.694 233.692 212.521 232.168 216.218 232.385C218.828 232.603 220.568 233.474 222.308 235.434C220.133 234.128 218.393 233.474 216.218 233.257C212.956 233.039 210.346 234.563 208.389 237.83C208.389 238.048 208.172 238.048 207.954 238.048Z" fill="#1A1A1A"/>
<path d="M165.545 271.153C159.891 271.153 155.106 270.281 152.496 267.886C141.405 256.996 152.931 235.652 156.846 228.465C161.196 220.407 176.419 194.272 195.34 191.222C177.072 195.143 161.848 221.06 157.716 228.901C147.712 247.631 146.189 260.263 153.366 267.232C160.978 274.637 194.688 265.925 194.905 265.925C194.035 267.014 178.159 271.153 165.545 271.153Z" fill="#1A1A1A"/>
<path d="M213.609 165.523C209.694 161.603 207.302 155.287 206.432 153.109C204.909 154.851 199.907 159.207 191.643 157.247C201.43 158.553 206.214 151.802 206.214 151.802C207.084 152.02 209.694 160.296 213.826 164.652C213.826 165.523 213.826 165.523 213.609 165.523Z" fill="#1A1A1A"/>
<path d="M164.24 322.77C167.72 302.297 168.372 270.935 168.372 270.499C169.242 270.935 168.59 302.297 164.675 322.334C164.675 322.552 164.458 322.77 164.24 322.77Z" fill="#1A1A1A"/>
<path d="M248.188 322.77C247.753 313.622 244.926 277.686 244.926 277.251C245.796 277.469 248.623 313.622 248.623 322.334C248.623 322.552 248.406 322.77 248.188 322.77Z" fill="#1A1A1A"/>
<path d="M211.216 217.14C210.781 216.922 202.517 203.201 202.517 203.201L195.34 213.437C194.47 213.22 194.253 192.747 194.253 192.747C194.253 192.529 197.95 186.867 197.95 186.867C198.82 187.084 202.735 201.241 202.735 201.241L216.219 186.431C216.871 186.431 222.308 192.094 222.308 192.094C222.308 192.529 211.651 216.704 211.651 216.704C211.216 217.14 211.216 217.14 211.216 217.14ZM203.17 202.33L211.216 215.615L221.438 192.529L216.653 187.52L203.17 202.33ZM195.34 192.965L195.558 211.695L202.3 202.33L198.602 188.391L195.34 192.965Z" fill="#1A1A1A"/>
<path d="M203.17 232.821C205.562 222.585 209.042 213.873 209.042 213.655C209.912 214.091 206.432 222.802 203.605 232.385C203.605 232.603 203.387 232.821 203.17 232.821Z" fill="#1A1A1A"/>
<path d="M194.253 230.643C194.035 218.447 195.123 212.131 195.123 212.131C195.993 212.348 194.905 218.664 194.688 230.207C194.688 230.425 194.47 230.643 194.253 230.643Z" fill="#1A1A1A"/>
<path d="M216.218 233.257C216.001 233.257 206.214 232.821 197.732 232.821C206.432 231.95 216.218 232.385 216.218 232.385C216.653 233.039 216.436 233.257 216.218 233.257Z" fill="#1A1A1A"/>
<path d="M158.368 248.502C160.108 240.661 163.153 236.306 168.155 234.128C168.372 234.128 169.242 233.91 169.242 233.91C177.942 232.385 185.336 239.572 185.554 239.79C184.901 240.444 177.507 233.474 169.242 234.781C163.805 236.959 160.761 241.097 158.803 248.066C158.586 248.284 158.368 248.502 158.368 248.502Z" fill="#1A1A1A"/>
<path d="M167.503 234.781C167.068 234.345 165.763 230.425 171.635 227.812C177.289 225.416 183.814 229.554 184.031 229.772C183.379 230.425 177.072 226.505 172.07 228.683C167.068 230.861 167.937 234.128 168.155 234.128C167.72 234.781 167.503 234.781 167.503 234.781Z" fill="#1A1A1A"/>
<path d="M194.688 231.514C194.253 231.296 191.425 227.812 184.684 225.634C178.377 223.456 174.679 228.029 174.679 228.029C174.027 227.376 177.942 222.149 185.118 224.763C191.86 227.158 194.905 230.643 195.123 230.861C194.905 231.296 194.905 231.514 194.688 231.514Z" fill="#1A1A1A"/>
<path d="M203.387 217.14L197.95 216.704C197.515 216.269 196.863 209.517 196.863 209.517C197.733 209.517 198.385 215.833 198.385 215.833L202.952 216.269L207.084 210.606C207.737 211.042 203.605 217.14 203.605 217.14C203.822 217.14 203.605 217.14 203.387 217.14Z" fill="#1A1A1A"/>
<path d="M204.474 228.465C204.039 228.029 203.17 216.704 203.17 216.704C204.039 216.704 205.127 228.029 205.127 228.029C204.474 228.465 204.474 228.465 204.474 228.465Z" fill="#1A1A1A"/>
<path d="M194.47 224.327C194.035 223.674 197.733 216.051 197.733 216.051C198.602 216.486 194.905 224.109 194.905 224.109C194.905 224.109 194.688 224.327 194.47 224.327Z" fill="#1A1A1A"/>
<path d="M180.117 224.98C179.682 224.109 180.986 217.575 183.379 212.784C181.856 217.793 180.551 224.545 180.551 224.545C180.334 224.763 180.334 224.98 180.117 224.98Z" fill="#1A1A1A"/>
<path d="M220.786 254.165C218.611 253.947 217.088 253.076 216.436 251.769C215.783 250.68 215.783 249.591 215.783 248.502C215.783 246.542 215.783 245.235 215.349 244.146C214.914 242.622 213.826 241.533 213.174 240.444C214.696 240.879 215.783 242.186 216.218 243.711C216.653 245.017 216.653 246.324 216.653 247.631C216.653 249.591 216.871 250.462 217.088 251.116C217.741 252.205 218.828 252.858 220.351 252.858C221.003 252.858 221.656 252.858 222.09 252.422C222.743 251.987 223.395 251.116 223.613 249.809C223.83 249.155 223.83 248.502 223.83 247.631C224.048 245.671 223.83 241.75 221.656 239.137C219.916 236.959 217.306 235.652 214.914 235.652C211.434 235.652 210.346 238.266 210.346 238.266C209.477 237.83 210.781 234.781 214.914 234.781C217.741 234.781 220.568 236.306 222.525 238.701C224.265 240.879 225.135 244.146 224.918 247.849C224.918 248.72 224.7 249.373 224.7 250.244C224.265 251.769 223.613 252.858 222.743 253.511C222.308 253.947 221.656 254.165 220.786 254.165Z" fill="#1A1A1A"/>
<path d="M201.865 178.155C201.43 178.155 200.777 178.155 200.125 177.937C201.43 177.501 202.3 177.284 202.952 177.066C204.04 176.412 204.257 174.888 204.257 174.888C205.127 175.106 204.909 177.066 203.387 177.937C202.952 177.937 202.517 178.155 201.865 178.155Z" fill="#1A1A1A"/>
<path d="M236.009 252.858C235.139 252.858 234.269 252.64 233.617 252.422C234.922 251.769 236.444 252.204 237.532 251.551C238.619 250.898 238.837 249.373 238.837 248.72C239.054 244.582 236.009 240.879 234.269 239.137C231.66 236.306 227.528 237.612 227.31 237.612C227.31 236.741 231.66 235.217 234.922 238.484C236.879 240.444 239.924 244.364 239.707 248.938C239.707 250.68 238.837 251.769 237.967 252.422C237.314 252.64 236.662 252.858 236.009 252.858Z" fill="#1A1A1A"/>
<path d="M199.037 173.799C197.95 173.799 196.21 173.581 195.34 172.71C194.905 172.274 194.905 171.839 194.905 171.185C195.34 168.79 197.515 161.82 197.515 161.603C198.385 162.038 196.21 169.225 195.775 171.403C196.645 172.928 199.037 172.928 199.69 172.71C199.907 173.799 199.69 173.799 199.037 173.799Z" fill="#1A1A1A"/>
<path d="M191.426 162.692C190.991 162.474 183.814 152.455 190.556 146.357C196.863 140.477 204.909 140.477 210.564 146.139C204.474 141.566 197.08 141.566 191.208 147.01C185.119 152.673 191.643 161.82 191.861 162.038C191.643 162.692 191.643 162.692 191.426 162.692Z" fill="#1A1A1A"/>
<path d="M53.1068 252.64C52.6718 252.422 21.3544 220.842 21.3544 220.842C20.9194 220.407 20.4844 219.753 20.4844 219.1C20.4844 218.447 20.7019 217.793 21.3544 217.358C22.4418 216.269 23.9642 216.269 25.0516 217.358L53.7592 246.106C53.1068 246.76 24.1816 217.793 24.1816 217.793C23.5292 217.14 22.4418 217.14 21.7893 217.793C21.5718 218.011 21.3544 218.447 21.3544 218.882C21.3544 219.318 21.5718 219.753 21.7893 219.971L53.3243 251.769C53.3243 252.64 53.1068 252.64 53.1068 252.64Z" fill="#1A1A1A"/>
<path d="M20.0496 113.47C20.702 111.292 22.0069 109.986 23.0943 108.679C22.6593 110.421 21.5719 111.728 20.267 113.252L20.0496 113.47ZM27.2265 105.412C28.0964 103.452 29.6188 102.145 30.9237 101.056C30.2712 102.798 28.7488 104.105 27.6614 105.412C27.444 105.412 27.2265 105.412 27.2265 105.412ZM35.2733 98.6603C36.3607 96.7002 37.8831 95.829 39.4055 94.74C38.3181 96.4824 36.7957 97.3536 35.4908 98.4425C35.4908 98.4425 35.4908 98.6603 35.2733 98.6603ZM44.4076 92.9977C45.7125 91.2553 47.4523 90.602 49.1922 89.9486C47.8873 91.4731 46.1474 92.1265 44.4076 92.9977C44.6251 92.9977 44.6251 92.9977 44.4076 92.9977ZM54.4118 89.0774C55.9341 87.5529 57.674 87.1173 59.4138 86.8995C57.8915 87.9884 56.1516 88.424 54.4118 89.0774ZM87.4691 87.7706C87.0341 87.7706 86.8166 87.5529 86.1642 87.3351C87.0341 86.6817 87.4691 86.6817 87.6865 86.6817C87.6865 87.7706 87.4691 87.7706 87.4691 87.7706ZM64.8509 86.6817C66.5908 85.5927 68.3306 85.3749 70.0705 85.1571C68.3306 86.2461 66.5908 86.4639 64.8509 86.6817ZM80.7271 86.6817C78.9872 86.4639 77.2474 86.2461 75.29 86.2461C77.0299 85.3749 78.9872 85.5927 80.7271 85.5927C81.1621 86.4639 81.1621 86.6817 80.7271 86.6817Z" fill="#1A1A1A"/>
<path d="M13.5251 206.686C13.0901 206.468 12.0027 204.726 10.4803 201.676C12.8726 204.29 13.96 205.815 13.96 206.032C13.7425 206.686 13.5251 206.686 13.5251 206.686ZM8.74045 197.103C7.65304 195.143 7.00059 193.4 6.34814 191.876C7.87052 193.183 8.52296 194.925 9.17541 196.449C8.74045 197.103 8.74045 197.103 8.74045 197.103ZM5.04325 187.084C4.17332 185.124 3.52087 183.382 3.08591 181.64C4.3908 183.164 4.82577 184.906 5.47821 186.649C5.04325 187.084 5.04325 187.084 5.04325 187.084ZM2.43346 176.63C1.56353 174.452 1.34605 172.71 1.12857 170.968C2.43346 172.492 2.65094 174.235 2.86843 175.977C2.43346 176.63 2.43346 176.63 2.43346 176.63ZM1.34605 165.958C0.693604 164.434 0.693604 163.127 0.693604 162.038C0.693604 161.385 0.693604 160.731 0.693604 160.078C1.56353 160.731 1.56353 161.385 1.56353 162.038C1.56353 163.127 1.56353 164.434 1.56353 165.523C1.34605 165.958 1.34605 165.958 1.34605 165.958ZM1.56353 155.287C1.34605 152.891 1.56353 151.148 1.78101 149.406C2.43346 151.366 2.21598 153.109 1.9985 154.851C1.9985 155.069 1.78101 155.287 1.56353 155.287ZM3.52087 144.832C3.52087 142.437 4.17332 140.694 4.60828 139.17C4.82577 141.13 4.3908 142.872 3.95584 144.615C3.73835 144.615 3.73835 144.832 3.52087 144.832ZM7.00059 134.596C6.78311 133.289 7.00059 132.854 7.43555 132.2C7.65303 131.547 8.088 131.112 8.30548 130.458C8.74045 131.547 8.52296 131.983 8.30548 132.636C8.088 133.289 7.65303 133.725 7.43555 134.378C7.43555 134.596 7.21807 134.596 7.00059 134.596Z" fill="#1A1A1A"/>
<path d="M110.305 207.121C88.1214 190.133 75.0725 163.781 75.0725 136.556C75.0725 87.9885 114.654 48.3501 163.153 48.3501C211.651 48.3501 251.233 87.9885 251.233 136.556C251.233 157.682 243.621 178.155 229.702 194.272C242.751 177.937 250.146 157.465 250.146 136.556C250.146 88.424 210.999 49.2213 162.935 49.2213C114.872 49.2213 75.725 88.424 75.725 136.556C75.725 163.345 88.5564 189.48 110.305 206.25C110.522 206.904 110.305 207.121 110.305 207.121Z" fill="#1A1A1A"/>
<path d="M192.948 43.7764C192.513 43.123 192.73 41.1629 193.818 37.896C193.6 41.3807 193.383 43.3408 193.383 43.3408C193.383 43.5586 193.165 43.7764 192.948 43.7764ZM196.428 33.5401C196.863 31.3622 197.733 29.6199 198.602 28.0953C198.385 30.0555 197.733 31.58 196.863 33.3224C196.645 33.5401 196.645 33.5401 196.428 33.5401ZM201.865 24.3928C202.517 22.2149 203.822 20.9081 205.127 19.6014C204.475 21.5615 203.387 22.8683 202.3 24.175C202.3 24.3928 202.082 24.3928 201.865 24.3928ZM209.259 16.7701C210.347 14.8099 211.869 13.721 213.174 12.632C212.304 14.3743 210.781 15.4633 209.477 16.5523C209.477 16.7701 209.477 16.7701 209.259 16.7701ZM283.638 15.2455C282.116 13.9388 280.593 12.8498 279.071 11.7608C281.246 11.9786 282.551 13.2854 283.856 14.3743C283.856 15.2455 283.638 15.2455 283.638 15.2455ZM218.176 10.8897C219.481 9.14731 221.221 8.49393 222.743 7.62276C221.438 9.14731 219.916 10.0185 218.393 10.6719C218.393 10.8897 218.176 10.8897 218.176 10.8897ZM274.721 9.36511C272.981 8.49393 271.242 7.84055 269.719 7.18717C271.677 6.96938 273.416 7.84055 274.939 8.49393C275.156 9.14731 274.939 9.36511 274.721 9.36511ZM227.963 6.75159C229.267 5.44483 231.007 4.79145 232.53 4.57365C231.225 5.66262 229.702 6.09821 227.963 6.75159C228.18 6.75159 228.18 6.75159 227.963 6.75159ZM264.935 5.22703C263.195 4.79145 261.455 4.35586 259.715 3.92028C261.672 3.2669 263.412 3.70248 265.152 4.13807C265.37 5.22703 265.152 5.22703 264.935 5.22703ZM238.402 4.13807C240.142 2.83131 241.881 2.61352 243.621 2.61352C242.099 3.70248 240.359 3.92028 238.402 4.13807ZM254.495 3.48469C252.973 3.2669 251.233 3.2669 249.711 3.2669C251.451 2.39572 252.973 2.39572 254.713 2.61352C254.93 3.2669 254.713 3.48469 254.495 3.48469Z" fill="#1A1A1A"/>
<path d="M331.702 129.369C365.194 127.845 392.379 99.9671 392.379 66.4269C392.379 32.2334 364.541 4.35586 330.397 4.35586C296.252 4.35586 268.414 32.2334 268.414 66.4269C268.414 98.2247 292.12 124.578 323.437 128.062C291.467 125.449 267.327 98.4425 267.327 66.4269C267.327 31.58 295.6 3.48469 330.179 3.48469C364.976 3.48469 393.032 31.7978 393.032 66.4269C393.032 82.9792 386.725 98.6603 374.981 110.639C363.671 122.4 348.23 129.151 331.702 129.369Z" fill="#1A1A1A"/>
<path d="M377.59 240.008C378.895 238.266 380.418 237.395 381.94 236.523C381.07 238.266 379.33 239.137 377.59 240.008ZM386.725 234.563C387.812 232.603 389.334 231.514 390.639 230.425C389.769 232.385 388.464 233.474 386.942 234.345C386.942 234.563 386.942 234.563 386.725 234.563ZM394.989 227.594C395.859 225.634 397.164 224.327 398.469 223.02C398.034 224.98 396.729 226.287 395.424 227.594C395.206 227.594 395.206 227.594 394.989 227.594ZM402.166 219.753C402.818 217.575 403.906 216.051 404.993 214.744C404.776 216.704 403.688 218.229 402.601 219.536C402.383 219.753 402.383 219.753 402.166 219.753ZM408.038 210.824C408.473 208.646 409.343 206.904 409.995 205.379C409.995 207.339 409.125 209.081 408.255 210.606C408.473 210.824 408.255 210.824 408.038 210.824ZM412.605 201.241C412.822 199.063 413.475 197.321 413.91 195.578C414.345 197.538 413.692 199.281 413.04 201.023C413.04 201.023 412.822 201.241 412.605 201.241ZM415.867 191.005C415.867 188.827 416.302 187.084 416.52 185.124C417.172 187.084 416.737 188.827 416.302 190.569C416.302 190.787 416.085 191.005 415.867 191.005ZM417.825 180.551C417.607 178.373 417.825 176.412 417.825 174.67C418.694 176.63 418.477 178.373 418.26 180.115C418.26 180.333 418.042 180.551 417.825 180.551Z" fill="#1A1A1A"/>
<path d="M417.607 149.188C416.955 147.01 416.737 145.268 416.302 143.526C417.607 145.05 417.825 146.793 418.042 148.753C417.607 149.188 417.607 149.188 417.607 149.188ZM415.65 138.516C414.78 136.339 414.345 134.596 413.91 133.072C415.215 134.596 415.65 136.339 416.085 138.081C415.867 138.516 415.65 138.516 415.65 138.516ZM412.823 128.28C411.735 126.32 411.083 124.578 410.43 123.053C411.953 124.36 412.605 126.102 413.257 127.627C412.822 128.28 412.823 128.28 412.823 128.28ZM408.69 118.48C407.385 116.519 406.733 114.995 405.863 113.47C407.603 114.559 408.473 116.084 409.125 117.826C408.69 118.479 408.69 118.48 408.69 118.48ZM403.253 109.114C401.948 107.372 400.861 106.065 399.774 104.541C401.513 105.412 402.601 106.936 403.688 108.461C403.471 109.114 403.471 109.114 403.253 109.114ZM396.729 100.62C394.119 98.0069 392.597 96.7002 392.597 96.7002C393.249 96.0468 394.771 97.1358 397.164 99.7493C396.946 100.62 396.946 100.62 396.729 100.62Z" fill="#1A1A1A"/>
<path d="M272.329 171.839C271.894 171.403 271.459 164.869 268.632 160.296C269.502 159.642 272.111 161.603 273.199 163.998L290.597 160.296C290.38 158.771 289.51 153.326 285.16 150.713C281.681 148.535 276.896 148.753 270.807 151.148C276.896 147.664 281.898 147.664 285.595 150.06C290.815 153.326 291.467 160.514 291.467 160.731C291.032 161.167 272.981 165.087 272.981 165.087C272.111 163.78 271.242 162.692 270.589 162.038C272.546 166.394 272.764 171.185 272.764 171.403C272.329 171.839 272.329 171.839 272.329 171.839Z" fill="#1A1A1A"/>
</svg>
