<svg width="69" height="69" viewBox="0 0 69 69" fill="none" xmlns="http://www.w3.org/2000/svg">
<path fill-rule="evenodd" clip-rule="evenodd" d="M34.5 0C41.3234 0 47.9937 2.02339 53.6672 5.8143C59.3407 9.60521 63.7626 14.9934 66.3738 21.2974C68.9851 27.6015 69.6683 34.5383 68.3371 41.2306C67.0059 47.9229 63.7201 54.0703 58.8952 58.8952C54.0703 63.7201 47.9229 67.0059 41.2306 68.3371C34.5383 69.6683 27.6015 68.9851 21.2974 66.3738C14.9934 63.7626 9.60521 59.3407 5.8143 53.6672C2.02339 47.9937 0 41.3234 0 34.5C0 25.35 3.63481 16.5748 10.1048 10.1048C16.5748 3.63481 25.35 0 34.5 0Z" fill="#25D366"/>
<path fill-rule="evenodd" clip-rule="evenodd" d="M43.2373 37.942C42.8105 37.723 40.6992 36.6898 40.3061 36.5438C39.9131 36.3978 39.6323 36.3305 39.3403 36.7628C39.0483 37.1952 38.2173 38.1554 37.9758 38.4474C37.7344 38.7394 37.4761 38.7731 37.0493 38.5541C35.7851 38.0479 34.6185 37.3259 33.6016 36.4203C32.6634 35.5523 31.8575 34.5515 31.2095 33.4498C31.1614 33.3803 31.128 33.3016 31.1116 33.2187C31.0951 33.1357 31.0958 33.0503 31.1137 32.9676C31.1316 32.885 31.1663 32.8069 31.2156 32.7382C31.2649 32.6695 31.3278 32.6117 31.4004 32.5683C31.5969 32.3773 31.8271 32.0685 32.0461 31.8158C32.2213 31.5973 32.3649 31.3554 32.4729 31.0971C32.5292 30.9785 32.5556 30.8478 32.5497 30.7166C32.5439 30.5855 32.5059 30.4577 32.4392 30.3446C32.3269 30.1312 31.4678 28.0199 31.1196 27.1552C30.7715 26.2904 30.4121 26.4364 30.1482 26.4196C29.8843 26.4027 29.6147 26.4196 29.3284 26.4196C29.1128 26.4317 28.9019 26.4877 28.7088 26.5843C28.5157 26.6808 28.3443 26.8159 28.2053 26.9811C27.7195 27.441 27.3348 27.9971 27.0757 28.6139C26.8166 29.2307 26.6888 29.8947 26.7004 30.5636C26.7004 32.6749 28.239 34.7133 28.4524 35.0053C28.6658 35.2973 31.4453 39.5985 35.769 41.4516C36.5672 41.7961 37.3825 42.0997 38.2117 42.3612C39.0865 42.6275 40.0115 42.6851 40.9126 42.5297C41.738 42.4118 43.4507 41.4965 43.81 40.4913C44.0917 39.8512 44.1796 39.1426 44.0627 38.453C43.9617 38.2621 43.6753 38.1554 43.2429 37.9364L43.2373 37.942ZM47.561 22.2194C44.6145 19.2772 40.6997 17.5055 36.5446 17.2339C32.3896 16.9622 28.2774 18.2091 24.9729 20.7426C21.6684 23.276 19.3967 26.9235 18.5804 31.0066C17.764 35.0897 18.4586 39.3303 20.5349 42.9396L18.0979 51.8285L27.2058 49.442C29.7218 50.8105 32.5399 51.5285 35.404 51.5309C38.8017 51.5319 42.1234 50.5253 44.949 48.6382C47.7745 46.7512 49.9769 44.0686 51.2776 40.9298C52.5784 37.7909 52.919 34.3368 52.2565 31.0043C51.5939 27.6719 49.9579 24.6107 47.5554 22.2082L47.561 22.2194ZM35.4153 48.6334C32.8477 48.6384 30.3261 47.9517 28.1155 46.6456L27.5933 46.3312L22.2195 47.7294L23.6626 42.4623L23.3257 41.9008C21.6555 39.2154 20.9248 36.0513 21.2483 32.9056C21.5718 29.7598 22.9312 26.8106 25.1129 24.5214C27.2946 22.2322 30.1751 20.7326 33.3016 20.2583C36.4282 19.7839 39.6238 20.3617 42.3863 21.9009C45.1488 23.4401 47.3217 25.8533 48.5637 28.7616C49.8056 31.6699 50.0462 34.9083 49.2476 37.9682C48.4491 41.0281 46.6566 43.736 44.1519 45.6664C41.6471 47.5969 38.572 48.6405 35.4097 48.6334H35.4153Z" fill="white"/>
</svg>
