<svg width="262" height="197" viewBox="0 0 262 197" fill="none" xmlns="http://www.w3.org/2000/svg">
<path d="M251.002 54.8036C251.002 79.5812 230.839 99.7206 206.032 99.7206C181.225 99.7206 161.062 79.5812 161.062 54.8036C161.062 30.0261 181.225 9.88666 206.032 9.88666C230.839 9.88666 251.002 30.0261 251.002 54.8036Z" fill="white"/>
<path d="M182.447 56.2683H28.3508V171.49H182.447V56.2683Z" fill="white"/>
<path opacity="0.24" d="M178.292 92.1531H167.294V103.138H178.292V92.1531Z" fill="#56E21B"/>
<path opacity="0.24" d="M89.0848 73.2343H78.0867V84.2194H89.0848V73.2343Z" fill="#56E21B"/>
<path opacity="0.24" d="M113.525 70.0607H102.527V81.0459H113.525V70.0607Z" fill="#56E21B"/>
<path opacity="0.24" d="M92.0177 96.1809H81.0195V107.166H92.0177V96.1809Z" fill="#56E21B"/>
<path d="M112.059 94.5942H101.061V105.579H112.059V94.5942Z" fill="#F4D4D7"/>
<path opacity="0.24" d="M89.0848 120.226H78.0867V131.211H89.0848V120.226Z" fill="#56E21B"/>
<path opacity="0.24" d="M114.381 118.761H103.383V129.747H114.381V118.761Z" fill="#56E21B"/>
<path opacity="0.24" d="M212.02 54.8036C212.02 58.0991 209.331 60.7844 206.032 60.7844C202.732 60.7844 200.044 58.0991 200.044 54.8036C200.044 51.5081 202.732 48.8228 206.032 48.8228C209.331 48.8228 212.02 51.5081 212.02 54.8036Z" fill="#56E21B"/>
<path d="M70.1438 47.2361V43.3303C70.1438 41.4994 70.7548 37.9597 72.099 37.9597C72.4656 37.9597 73.4432 39.1803 73.932 42.2317C73.932 42.5979 74.0542 42.9641 74.0542 43.3303C74.2986 46.992 73.5654 50.4096 72.099 50.7757C71.3658 51.0198 70.9992 51.7522 71.1214 52.3625C71.2436 52.9728 71.8546 53.3389 72.4656 53.3389C76.2538 52.3625 76.987 47.2361 76.7426 43.2082C76.7426 42.72 76.6204 42.2317 76.6204 41.7435C76.1316 37.8377 74.4208 35.3965 72.2212 35.3965C67.6997 35.3965 67.4553 42.5979 67.4553 43.3303V47.2361H70.1438Z" fill="#1A1A1A"/>
<path d="M94.2174 47.2361V43.3303C94.2174 41.4994 94.8284 37.9597 96.1726 37.9597C96.5392 37.9597 97.5168 39.1803 98.0056 42.2317C98.0056 42.5979 98.1278 42.9641 98.1278 43.3303C98.3722 46.992 97.639 50.4096 96.1726 50.7757C95.4394 51.0198 95.0728 51.7522 95.195 52.3625C95.3172 52.9728 95.9282 53.3389 96.5392 53.3389C100.327 52.3625 101.061 47.2361 100.816 43.2082C100.816 42.72 100.694 42.2317 100.694 41.7435C100.083 37.8377 98.4944 35.3965 96.1726 35.3965C91.6511 35.3965 91.4067 42.5979 91.4067 43.3303V47.2361H94.2174Z" fill="#1A1A1A"/>
<path d="M118.047 47.236V43.3302C118.047 41.4994 118.658 37.9597 120.002 37.9597C120.369 37.9597 121.346 39.1803 121.835 42.2317C121.835 42.5979 121.957 42.9641 121.957 43.3302C122.202 46.9919 121.468 50.4095 120.002 50.7757C119.269 51.0198 118.902 51.7522 119.024 52.3624C119.147 52.9727 119.758 53.3389 120.369 53.3389C124.157 52.3624 124.89 47.2361 124.646 43.2082C124.646 42.7199 124.523 42.2317 124.523 41.7435C123.912 37.5935 122.324 35.1524 120.002 35.1524C115.48 35.1524 115.236 42.3538 115.236 43.0861V46.9919H118.047V47.236Z" fill="#1A1A1A"/>
<path d="M141.998 47.236V43.3302C141.998 41.4994 142.609 37.9597 143.953 37.9597C144.32 37.9597 145.298 39.1803 145.786 42.2317C145.786 42.5979 145.909 42.9641 145.909 43.3302C146.153 46.9919 145.42 50.4095 143.953 50.7757C143.22 51.0198 142.854 51.7522 142.976 52.3624C143.098 52.9727 143.709 53.3389 144.32 53.3389C148.108 52.3624 148.841 47.2361 148.597 43.2082C148.597 42.7199 148.475 42.2317 148.475 41.7435C147.864 37.5935 146.275 35.1524 143.953 35.1524C139.432 35.1524 139.188 42.3538 139.188 43.0861V46.9919H141.998V47.236Z" fill="#1A1A1A"/>
<path d="M166.072 47.236V43.3302C166.072 41.4994 166.683 37.9597 168.027 37.9597C168.394 37.9597 169.371 39.1803 169.86 42.2317C169.86 42.5979 169.982 42.9641 169.982 43.3302C170.227 46.9919 169.493 50.4095 168.027 50.7757C167.294 51.0198 166.927 51.7522 167.049 52.3624C167.172 52.9727 167.783 53.3389 168.394 53.3389C172.182 52.3624 172.915 47.2361 172.671 43.2082C172.671 42.7199 172.549 42.2317 172.549 41.7435C171.938 37.5935 170.349 35.1524 168.027 35.1524C163.506 35.1524 163.261 42.3538 163.261 43.0861V46.9919H166.072V47.236Z" fill="#1A1A1A"/>
<path d="M46.0699 47.2361V43.3303C46.0699 41.4994 46.6809 37.9597 48.0251 37.9597C48.3917 37.9597 49.3693 39.1803 49.8582 42.2317C49.8582 42.5979 49.9804 42.9641 49.9804 43.3303C50.2248 46.992 49.4916 50.4096 48.0251 50.7757C47.2919 51.0198 46.9253 51.7522 47.0475 52.3625C47.1697 52.9728 47.7807 53.3389 48.3917 53.3389C52.18 52.3625 52.9132 47.2361 52.6688 43.2082C52.6688 42.72 52.5466 42.2317 52.5466 41.7435C51.9356 37.8377 50.347 35.3965 48.0251 35.3965C43.5037 35.3965 43.2593 42.5979 43.2593 43.3303V47.2361H46.0699Z" fill="#1A1A1A"/>
<path d="M174.015 68.3519C174.015 68.3519 170.227 83.1208 171.204 88.9796C172.182 94.8383 173.526 96.5471 175.726 98.9883L175.848 100.697C175.848 100.697 176.703 106.434 183.547 106.556C190.39 106.8 195.034 102.772 196.5 100.697C196.5 100.697 196.867 93.1295 198.333 88.4913C198.333 88.4913 200.899 90.4443 202.977 88.9796C205.054 87.5149 205.91 85.8061 206.032 83.9752C206.154 82.1444 205.421 78.3606 202.732 77.7503C200.044 77.2621 197.844 78.9709 197.844 78.9709L198.211 75.0651C198.211 75.0651 197.844 69.2063 187.091 67.3755C177.314 65.7887 174.015 68.3519 174.015 68.3519Z" fill="white"/>
<path d="M169.249 70.7931C169.249 70.7931 172.426 67.7417 179.147 67.0093C185.746 66.277 189.412 67.7417 191.49 68.7181C193.567 69.5725 197.722 71.7695 198.333 75.0651L197.966 78.9709C197.966 78.9709 199.311 77.5062 201.632 77.5062C203.954 77.5062 204.565 78.9709 204.565 78.9709L209.209 68.1078L206.154 70.549L205.909 63.9579L204.199 66.0329C204.199 66.0329 199.555 55.658 188.679 54.9257C177.803 54.1933 171.571 59.4418 169.005 63.1035L174.993 61.6388C174.87 61.6388 169.616 69.5725 169.249 70.7931Z" fill="#0CD494"/>
<path d="M168.027 104.481C168.027 104.481 155.44 106.8 146.886 108.143C138.332 109.485 129.9 109.485 119.391 103.626C109.737 98.1339 105.949 87.0267 105.949 87.0267L86.5186 91.5428C86.5186 91.5428 91.5288 105.946 99.1053 115.588C106.682 125.231 115.48 132.554 127.7 134.019C139.921 135.483 143.953 135.483 145.908 135.117L140.654 196.146L212.019 196.634L213.486 143.051C213.486 143.051 223.384 148.055 226.684 166.608C229.983 185.161 229.983 196.756 229.983 196.756H251.124C251.124 196.756 255.157 177.715 248.802 154.402C242.57 130.967 231.572 119.738 220.329 112.415C209.087 105.091 202.854 105.823 202.854 105.823L196.5 100.941L174.137 164.289L175.603 99.1103L168.027 104.481Z" fill="#1A1A1A"/>
<path d="M175.604 99.3544C175.604 99.3544 175.115 105.823 183.424 106.556C191.734 107.288 195.889 101.063 195.889 101.063L174.015 164.045L175.604 99.3544Z" fill="white"/>
<path d="M184.524 108.387L181.103 113.147L182.202 118.029L176.948 141.22L176.581 156.599L183.913 136.094L186.479 118.884L188.557 115.344L184.524 108.387Z" fill="#0CD494"/>
<path d="M22.6073 47.3582L18.4524 162.824H5.13246V156.843H0L22.6073 47.3582Z" fill="#0CD494"/>
<path d="M188.924 87.8811C188.924 87.8811 186.968 88.8575 187.091 90.6884C187.091 90.6884 186.602 91.0545 185.991 91.7869C185.38 92.5192 184.402 93.6177 183.425 92.6413C182.325 91.5428 183.425 89.956 184.158 89.2237C184.769 88.3693 187.091 86.9046 188.924 87.8811Z" fill="#1A1A1A"/>
<path opacity="0.24" d="M48.8807 73.4783H37.8826V84.4635H48.8807V73.4783Z" fill="#56E21B"/>
<path opacity="0.24" d="M67.3331 71.7695H56.335V82.7547H67.3331V71.7695Z" fill="#56E21B"/>
<path opacity="0.24" d="M135.155 73.4783H124.157V84.4635H135.155V73.4783Z" fill="#56E21B"/>
<path opacity="0.24" d="M153.607 70.0607H142.609V81.0459H153.607V70.0607Z" fill="#56E21B"/>
<path opacity="0.24" d="M44.9701 93.4957H33.9719V104.481H44.9701V93.4957Z" fill="#56E21B"/>
<path opacity="0.24" d="M71.8546 92.1531H60.8564V103.138H71.8546V92.1531Z" fill="#56E21B"/>
<path opacity="0.24" d="M136.377 93.6177H125.379V104.603H136.377V93.6177Z" fill="#56E21B"/>
<path opacity="0.24" d="M153.607 96.1809H142.609V107.166H153.607V96.1809Z" fill="#56E21B"/>
<path opacity="0.24" d="M50.4693 120.226H39.4712V131.211H50.4693V120.226Z" fill="#56E21B"/>
<path opacity="0.24" d="M72.8321 117.785H61.834V128.77H72.8321V117.785Z" fill="#56E21B"/>
<path opacity="0.24" d="M48.8807 142.929H37.8826V153.914H48.8807V142.929Z" fill="#56E21B"/>
<path opacity="0.24" d="M67.3331 139.389H56.335V150.374H67.3331V139.389Z" fill="#56E21B"/>
<path opacity="0.24" d="M87.8629 142.929H76.8647V153.914H87.8629V142.929Z" fill="#56E21B"/>
<path opacity="0.24" d="M109.493 138.535H98.4944V149.52H109.493V138.535Z" fill="#56E21B"/>
<path opacity="0.24" d="M136.377 141.83H125.379V152.815H136.377V141.83Z" fill="#56E21B"/>
<path d="M127.212 78.3606L123.668 74.943L122.69 75.3092L122.446 76.2857L126.478 80.4356L127.212 80.8018L128.067 80.3136L136.621 71.7696V70.4269L135.277 70.3049L127.212 78.3606Z" fill="#3A3A3A"/>
<path d="M89.818 90.6884L86.5186 76.8959C86.5186 76.8959 86.5185 74.2107 88.2294 73.8445C89.9402 73.6004 91.1622 73.9666 92.0176 75.5533C92.7508 77.14 92.7508 77.5062 92.7508 77.14C92.7508 76.7739 92.0176 73.6004 94.3394 72.868C96.5391 72.0136 97.5167 72.9901 97.8833 74.3327L98.3721 73.7224C98.3721 73.7224 95.1949 66.277 99.7163 64.6902C99.7163 64.6902 101.183 64.202 102.527 68.2299C103.871 72.1357 104.238 74.3327 104.238 74.3327C104.238 74.3327 105.093 74.943 106.071 75.3092C107.048 75.5533 108.27 76.8959 108.27 78.3606C108.27 79.8253 106.193 87.1487 106.193 87.1487L89.818 90.6884Z" fill="white"/>
<path d="M134.177 22.4585C133.933 22.3364 129.656 18.0645 129.656 18.0645C129.534 17.9424 129.534 17.6983 129.656 17.5762C129.778 17.4542 130.022 17.4542 130.145 17.5762L134.422 21.8482C134.544 21.9703 134.544 22.2144 134.422 22.3364C134.422 22.4585 134.3 22.4585 134.177 22.4585Z" fill="#1A1A1A"/>
<path d="M130.023 22.4585C129.656 22.2144 129.656 21.9703 129.778 21.8482L134.055 17.5762C134.177 17.4542 134.422 17.4542 134.544 17.5762C134.666 17.6983 134.666 17.9424 134.544 18.0645L130.267 22.3364C130.145 22.4585 130.023 22.4585 130.023 22.4585Z" fill="#1A1A1A"/>
<path d="M139.188 15.6233C138.332 15.6233 137.599 14.891 137.599 14.0366C137.599 13.1822 138.332 12.4498 139.188 12.4498C140.043 12.4498 140.776 13.1822 140.776 14.0366C140.776 14.891 140.165 15.6233 139.188 15.6233ZM139.188 13.1822C138.699 13.1822 138.332 13.5483 138.332 14.0366C138.332 14.5248 138.699 14.891 139.188 14.891C139.676 14.891 140.043 14.5248 140.043 14.0366C140.043 13.5483 139.676 13.1822 139.188 13.1822Z" fill="#1A1A1A"/>
<path d="M249.78 106.19C248.924 106.19 248.191 105.457 248.191 104.603C248.191 103.748 248.924 103.016 249.78 103.016C250.635 103.016 251.368 103.748 251.368 104.603C251.368 105.579 250.635 106.19 249.78 106.19ZM249.78 103.871C249.291 103.871 248.924 104.237 248.924 104.725C248.924 105.213 249.291 105.579 249.78 105.579C250.269 105.579 250.635 105.213 250.635 104.725C250.635 104.237 250.269 103.871 249.78 103.871Z" fill="#1A1A1A"/>
<path d="M103.993 74.943C103.871 74.943 103.627 74.8209 103.627 74.5768C102.649 69.8166 101.061 64.8123 99.8385 65.0564C98.9831 65.1784 98.3721 65.5446 98.0055 66.1549C96.6613 68.474 98.4943 73.4783 98.4943 73.4783C98.6165 73.7224 98.4943 73.8445 98.2499 73.9665C98.0055 74.0886 97.8833 73.9665 97.7611 73.7224C97.6389 73.4783 95.8059 68.474 97.3945 65.7887C97.8833 64.9343 98.7387 64.4461 99.7163 64.324C102.038 63.9579 103.871 72.0136 104.36 74.4548C104.482 74.6989 104.238 74.8209 103.993 74.943Z" fill="#1A1A1A"/>
<path d="M185.013 107.166C184.524 107.166 184.035 107.166 183.424 107.044C175.115 106.068 175.237 99.4765 175.237 99.3544C175.237 99.1103 175.359 98.9882 175.604 98.9882C175.848 98.9882 175.97 99.1103 175.97 99.3544C175.97 99.5985 175.97 105.335 183.547 106.19C191.245 107.044 196.133 100.453 196.133 100.453C196.256 100.331 196.5 100.209 196.622 100.331C196.744 100.453 196.867 100.697 196.744 100.819C196.744 101.063 192.223 107.166 185.013 107.166Z" fill="#1A1A1A"/>
<path d="M184.28 93.3736C183.669 93.3736 183.18 93.1295 182.935 92.5192C182.569 91.9089 182.691 91.0545 183.058 90.078C183.669 88.6134 184.891 87.6369 186.235 87.2707C187.824 86.9046 189.534 87.3928 190.634 88.4913C191.245 89.1016 191.49 89.8339 191.49 90.3222C191.49 91.2986 190.756 91.9089 189.779 91.9089C189.29 91.9089 188.923 91.7868 188.435 91.5427C187.824 91.1766 187.457 91.0545 187.335 91.0545C186.846 91.1766 186.724 91.1766 186.113 92.153C185.746 92.8854 185.013 93.3736 184.28 93.3736ZM187.335 87.881C186.968 87.881 186.724 87.881 186.357 88.0031C185.257 88.2472 184.28 89.1016 183.669 90.3222C183.302 91.1766 183.302 91.7868 183.546 92.031C183.913 92.7633 184.891 92.5192 185.502 91.6648C186.235 90.5663 186.479 90.4442 186.968 90.3222C187.457 90.2001 187.824 90.2001 188.923 90.8104C189.168 90.9324 189.534 91.0545 189.901 91.0545C190.145 91.0545 190.756 90.9324 190.879 90.2001C190.879 89.8339 190.634 89.3457 190.268 88.8575C189.779 88.7354 188.801 87.881 187.335 87.881Z" fill="#1A1A1A"/>
<path d="M187.213 91.0545C186.968 91.0545 186.846 90.9325 186.846 90.6883C186.724 88.4913 188.312 87.759 189.168 87.759C189.412 87.759 189.534 87.881 189.534 88.1251C189.534 88.3693 189.412 88.4913 189.168 88.4913C189.046 88.4913 187.457 88.7354 187.579 90.6883C187.579 90.8104 187.457 90.9325 187.213 91.0545Z" fill="#1A1A1A"/>
<path d="M182.202 101.063C178.17 100.941 175.115 99.4765 173.159 96.5471C167.172 87.759 173.526 69.0843 173.77 68.3519C173.893 68.1078 174.015 67.9858 174.259 68.1078C174.504 68.2299 174.504 68.3519 174.504 68.596C174.381 68.8402 167.905 87.6369 173.77 96.1809C175.603 98.7441 178.414 100.209 182.08 100.331C182.325 100.331 182.447 100.575 182.447 100.697C182.569 100.941 182.447 101.063 182.202 101.063Z" fill="#1A1A1A"/>
<path d="M200.899 89.8339C199.311 89.7119 198.211 89.1016 197.355 88.1251C197.233 88.0031 197.233 87.759 197.355 87.6369C197.478 87.5149 197.722 87.5149 197.844 87.6369C198.577 88.4913 199.433 88.9795 200.41 88.9795C202.854 89.2237 205.176 86.9046 205.421 83.7311C205.665 80.6797 203.954 77.8724 201.388 77.7503C199.677 77.6282 198.089 78.6047 197.111 80.3135C196.989 80.5576 196.744 80.5576 196.622 80.4356C196.378 80.3135 196.378 80.0694 196.5 79.9473C197.6 77.8724 199.555 76.7738 201.51 76.8959C204.443 77.14 206.52 80.1914 206.154 83.7311C206.032 87.2707 203.588 89.8339 200.899 89.8339Z" fill="#1A1A1A"/>
<path d="M196.378 101.063C196.133 101.063 196.011 100.941 196.011 100.697C195.644 96.6691 197.722 88.6134 197.844 88.2472C197.844 88.0031 198.089 87.881 198.333 88.0031C198.577 88.0031 198.7 88.2472 198.577 88.4913C198.577 88.6134 196.378 96.7912 196.744 100.575C196.867 100.941 196.622 101.063 196.378 101.063C196.5 101.063 196.5 101.063 196.378 101.063Z" fill="#1A1A1A"/>
<path d="M197.844 79.337C197.6 79.337 197.478 79.0929 197.478 78.8488L197.966 74.943C197.844 74.4548 196.5 69.6945 187.09 67.6196C176.948 65.3005 169.738 71.0372 169.616 71.0372C169.493 71.1592 169.249 71.1592 169.127 71.0372C169.005 70.9151 169.005 70.671 169.005 70.5489L174.015 62.127L168.638 63.5917C168.394 62.7373 172.426 55.4139 185.502 54.3154C197.111 53.3389 202.732 62.7373 204.076 65.1784L205.543 63.4696C206.276 63.7137 206.154 69.6945 206.154 69.6945L209.087 67.3755C209.698 67.8637 204.687 78.7268 204.687 78.7268C204.565 78.9709 204.321 78.9709 204.199 78.9709C203.954 78.8488 203.954 78.6047 203.954 78.4826L208.231 69.0843L205.91 70.9151C205.299 70.671 205.421 64.8123 205.421 64.8123L204.321 66.1549C203.588 65.9108 198.333 54.0712 185.624 55.1698C175.604 56.0242 170.96 60.6623 169.493 62.6152L174.87 61.1505C175.359 61.7608 170.593 69.5725 170.593 69.5725C173.282 67.9857 179.392 65.0564 187.213 66.8872C197.722 69.3284 198.7 74.6989 198.7 74.943C198.7 75.065 198.211 78.9709 198.211 78.9709C198.211 79.215 198.089 79.337 197.844 79.337Z" fill="#1A1A1A"/>
<path d="M140.654 197C140.41 197 140.287 196.756 140.287 196.634L145.542 135.239C145.542 134.995 145.786 134.873 145.909 134.873C146.153 134.873 146.275 135.117 146.275 135.239L141.021 196.634C140.898 196.756 140.776 197 140.654 197Z" fill="#1A1A1A"/>
<path d="M229.861 197C229.617 197 229.494 196.878 229.494 196.634C227.661 157.942 220.94 148.055 213.73 143.661L212.264 196.024C212.264 196.268 212.02 196.39 211.897 196.39C211.653 196.39 211.531 196.268 211.531 196.024L212.997 142.929C222.284 147.567 228.517 158.674 230.228 196.512C230.228 196.756 230.105 197 229.861 197Z" fill="#1A1A1A"/>
<path d="M251.002 197C250.757 197 250.635 196.756 250.635 196.512C253.812 179.302 250.269 157.942 245.625 145.248C232.427 109.363 203.099 105.945 202.854 105.945C202.61 105.945 202.488 105.701 202.488 105.579C202.488 105.335 202.61 105.213 202.854 105.213C203.099 105.213 232.916 108.631 246.358 145.004C251.002 157.698 254.668 179.302 251.368 196.634C251.368 196.878 251.124 197 251.002 197Z" fill="#1A1A1A"/>
<path d="M140.654 135.849C136.132 135.849 130.389 135.239 123.301 133.408C96.9057 126.573 86.152 92.031 86.0298 91.6648C86.2742 91.1766 105.826 86.6605 105.826 86.6605C106.071 86.6605 106.193 86.6605 106.315 86.9046C116.336 111.682 141.143 108.875 148.475 107.532C162.406 104.847 167.905 104.115 168.027 104.115C168.271 104.115 168.394 104.237 168.394 104.481C168.394 104.725 168.271 104.847 168.027 104.847C168.027 104.847 162.528 105.457 148.597 108.265C141.143 109.729 116.091 112.414 105.704 87.5149L86.8852 91.9089C88.1072 95.6927 98.9831 126.329 123.423 132.676C135.644 135.849 144.075 135.239 148.964 134.263C149.208 134.263 149.33 134.385 149.452 134.507C149.452 134.751 149.33 134.873 149.208 134.995C147.008 135.483 144.198 135.849 140.654 135.849Z" fill="#1A1A1A"/>
<path d="M174.015 164.899C173.648 164.777 173.648 164.533 173.648 164.411L196.133 100.575C196.744 100.453 203.099 105.213 203.099 105.213C203.221 105.457 208.109 122.179 208.109 122.179C207.742 122.667 196.989 123.278 196.989 123.278L199.311 131.822C199.188 132.188 174.381 164.777 174.381 164.777C174.259 164.899 174.137 164.899 174.015 164.899ZM196.622 101.307L175.115 162.336L198.455 131.822L196.011 122.911C196.378 122.423 207.131 121.813 207.131 121.813L202.366 105.701L196.622 101.307Z" fill="#1A1A1A"/>
<path d="M174.015 164.899C173.648 164.655 165.461 130.601 165.461 130.601C165.461 130.357 168.882 122.057 168.882 122.057L161.428 119.128C161.184 118.639 167.66 104.115 167.66 104.115C167.783 103.993 175.359 98.5 175.359 98.5C175.97 98.8662 174.381 164.411 174.381 164.411C174.381 164.777 174.259 164.899 174.015 164.899ZM166.316 130.601L173.77 161.603L175.237 99.7206L168.394 104.725L162.161 118.761L169.616 121.691C169.86 122.057 166.316 130.601 166.316 130.601Z" fill="#1A1A1A"/>
<path d="M201.388 86.2943C201.143 86.1722 198.699 83.609 198.699 83.609C198.822 82.9988 202.366 80.8017 202.366 80.8017C202.488 80.6797 202.732 80.6797 202.854 80.9238C202.977 81.0458 202.977 81.29 202.732 81.412L199.555 83.487L201.632 85.684C201.754 85.8061 201.754 86.0502 201.632 86.1722C201.632 86.1722 201.51 86.2943 201.388 86.2943Z" fill="#1A1A1A"/>
<path d="M180.98 86.2943C180.736 86.2943 180.614 86.1722 180.492 86.0502C180.125 85.5619 180.369 83.7311 182.447 76.6518C182.569 76.1636 182.691 75.9194 182.691 75.7974C182.691 75.5533 182.813 75.4312 183.058 75.4312C183.302 75.4312 183.424 75.6753 183.424 75.7974C183.424 75.9194 183.424 75.9194 183.18 76.7738C181.347 82.8767 180.98 84.8296 181.103 85.3178C181.958 85.3178 183.424 84.5855 183.913 84.3414C184.158 84.2193 184.28 84.3414 184.402 84.4634C184.524 84.7075 184.402 84.8296 184.28 84.9517C184.035 85.3178 182.202 86.2943 180.98 86.2943Z" fill="#1A1A1A"/>
<path d="M189.29 82.3885C189.168 82.3885 188.923 82.3885 188.801 82.2664C187.09 81.412 188.068 77.9944 188.19 77.5062C188.312 77.2621 188.435 77.14 188.679 77.2621C188.923 77.3841 189.046 77.5062 188.923 77.7503C188.679 78.6047 188.19 81.0458 189.168 81.5341C190.268 81.1679 191.001 79.5811 191.367 78.6047C191.49 78.3606 191.612 78.2385 191.856 78.3606C192.101 78.4826 192.223 78.6047 192.101 78.8488C191.978 79.0929 191.245 81.6561 189.901 82.2664C189.657 82.3885 189.534 82.3885 189.29 82.3885Z" fill="#1A1A1A"/>
<path d="M176.826 80.4356C176.703 80.4356 176.459 80.4356 176.337 80.3135C174.626 79.4591 175.604 76.0415 175.726 75.5533C175.848 75.3092 175.97 75.1871 176.215 75.3092C176.459 75.4312 176.581 75.5533 176.459 75.7974C176.215 76.6518 175.726 79.215 176.703 79.5812C177.803 79.215 178.536 77.6283 178.903 76.6518C179.025 76.4077 179.147 76.2856 179.392 76.4077C179.636 76.5297 179.758 76.6518 179.636 76.8959C179.514 77.14 178.781 79.7032 177.437 80.3135C177.07 80.4356 176.948 80.4356 176.826 80.4356Z" fill="#1A1A1A"/>
<path d="M190.268 118.517C189.901 118.273 183.424 107.288 183.424 107.288L175.848 117.419C175.726 117.541 175.481 117.663 175.359 117.541C175.237 117.419 175.115 117.175 175.237 117.053L183.058 106.434C183.669 106.434 190.512 118.029 190.512 118.029C190.634 118.151 190.512 118.395 190.39 118.517C190.39 118.517 190.39 118.517 190.268 118.517Z" fill="#1A1A1A"/>
<path d="M184.28 119.128L179.88 118.517C179.514 118.273 178.414 113.025 178.414 113.025C178.414 112.781 178.536 112.659 178.658 112.537C178.903 112.537 179.025 112.659 179.147 112.781L180.247 117.663L184.035 118.273L187.09 113.025C187.213 112.903 187.457 112.781 187.579 112.903C187.701 113.025 187.824 113.269 187.701 113.391L184.524 118.884C184.524 119.128 184.402 119.128 184.28 119.128Z" fill="#1A1A1A"/>
<path d="M180.492 146.346C180.247 146.346 180.125 146.102 180.125 145.858L183.791 118.761C183.791 118.517 184.035 118.395 184.28 118.395C184.524 118.395 184.646 118.639 184.646 118.883L180.98 145.98C180.858 146.224 180.736 146.346 180.492 146.346Z" fill="#1A1A1A"/>
<path d="M174.504 142.196C174.259 142.196 174.137 141.952 174.137 141.708L179.514 118.151C179.514 117.907 179.758 117.785 180.003 117.907C180.247 117.907 180.369 118.151 180.247 118.395L174.87 141.952C174.87 142.074 174.748 142.196 174.504 142.196Z" fill="#1A1A1A"/>
<path d="M105.949 87.3928C105.704 87.2708 105.582 87.1487 105.582 86.9046L106.926 81.9002C108.026 78.4826 107.782 76.7739 106.071 75.9195C105.093 75.4312 99.8385 73.1121 98.2499 74.3327C97.761 74.6989 97.6388 75.3092 97.8832 76.2856C98.9831 81.1679 103.26 81.5341 103.382 81.5341C103.627 81.5341 103.749 81.7782 103.749 81.9002C103.749 82.1444 103.505 82.2664 103.382 82.2664C103.382 82.2664 98.4943 81.9002 97.15 76.4077C96.9056 75.1871 97.0278 74.2107 97.761 73.7224C99.9607 72.0136 106.315 75.1871 106.315 75.1871C108.881 76.6518 108.393 79.3371 107.537 82.1444L106.315 87.0266C106.315 87.2708 106.071 87.3928 105.949 87.3928Z" fill="#1A1A1A"/>
<path d="M89.6959 90.6883C89.3293 90.3221 87.8629 85.1958 86.8853 80.9238C85.9077 76.6518 85.4189 74.0886 88.3517 73.3562C90.307 72.868 91.7734 73.9665 92.751 76.5297C93.1176 77.3841 94.0952 80.5576 93.1176 82.3884C92.751 82.9987 92.2622 83.487 91.529 83.609C90.1848 83.9752 89.0849 83.8531 88.3517 83.487C89.2071 86.9046 90.0626 90.078 90.1848 90.078C90.0626 90.4442 89.9404 90.5663 89.6959 90.6883ZM87.8629 82.1443C87.8629 82.2664 88.3517 83.7311 91.2846 82.9987C91.7734 82.8767 92.14 82.6326 92.3844 82.1443C92.9954 80.9238 92.6288 78.6047 92.0178 76.8959C91.529 75.4312 90.4292 73.7224 88.5961 74.2106C86.5187 74.6988 86.6409 76.2856 87.6185 80.9238C87.7407 81.1679 87.8629 81.6561 87.8629 82.1443Z" fill="#1A1A1A"/>
<path d="M96.5392 82.5105C93.6063 82.5105 93.1175 79.9473 92.7509 78.3606C92.6287 77.9944 92.6287 77.6282 92.5065 77.3841C92.0177 75.7974 92.0177 74.5768 92.5065 73.7224C92.8731 72.9901 93.7285 72.5018 94.7061 72.1357C95.6837 71.8916 96.417 72.0136 97.028 72.3798C98.0056 72.9901 98.1278 74.2106 98.1278 74.2106C98.1278 74.4548 98.0056 74.5768 97.7612 74.5768C97.5168 74.5768 97.3946 74.4548 97.3946 74.2106C97.3946 74.2106 97.2724 73.3562 96.6613 72.868C96.1725 72.6239 95.6837 72.5018 94.9505 72.746C94.0951 72.9901 93.4841 73.3562 93.1175 73.9665C92.7509 74.6989 92.7509 75.6753 93.1175 77.0179C93.2397 77.2621 93.2397 77.6282 93.3619 77.9944C93.7285 79.8253 94.2173 82.0223 97.2724 81.5341C98.7388 81.29 98.9832 79.8253 98.9832 79.8253C98.9832 79.5812 99.2276 79.4591 99.472 79.4591C99.7164 79.4591 99.8386 79.7032 99.8386 79.9473C99.7164 80.6797 99.1054 82.0223 97.5168 82.2664C97.1502 82.5105 96.9058 82.5105 96.5392 82.5105Z" fill="#1A1A1A"/>
<path d="M192.345 76.4077C191.612 75.5533 190.879 74.4548 190.39 74.2107C190.146 74.0886 190.146 73.8445 190.268 73.7224C190.39 73.4783 190.634 73.4783 190.757 73.6004C191.612 73.9665 192.59 75.6753 192.712 75.7974C192.834 75.9195 192.712 76.1636 192.59 76.2856C192.467 76.4077 192.345 76.4077 192.345 76.4077Z" fill="#1A1A1A"/>
<path d="M177.559 72.9901C177.07 72.6239 177.192 72.3798 177.437 72.2577C177.681 72.1357 179.392 71.4033 180.369 71.5254C180.614 71.5254 180.736 71.7695 180.736 72.0136C180.736 72.2577 180.492 72.3798 180.247 72.3798C179.758 72.2577 178.414 72.746 177.803 72.9901C177.559 72.9901 177.559 72.9901 177.559 72.9901Z" fill="#1A1A1A"/>
<path d="M217.396 108.509C217.03 108.02 217.152 107.776 217.274 107.776C242.081 102.528 260.167 80.3135 260.167 54.9257C260.167 25.1438 235.849 0.854412 206.032 0.854412C181.103 0.854412 159.473 17.6983 153.485 41.8656C153.485 42.1097 153.241 42.2317 152.996 42.1097C152.752 42.1097 152.63 41.8656 152.752 41.6215C158.862 17.2101 180.736 0.12207 206.032 0.12207C236.338 0.12207 261.022 24.7776 261.022 54.9257C260.9 80.5576 242.692 103.138 217.396 108.509Z" fill="#1A1A1A"/>
<path d="M206.032 92.6413C205.543 92.6413 205.054 92.6413 204.565 92.6413C203.832 92.6413 203.099 92.5192 202.366 92.5192C202.121 92.5192 201.999 92.2751 201.999 92.1531C201.999 91.9089 202.244 91.7869 202.366 91.7869C203.099 91.9089 203.832 91.909 204.565 91.909C205.054 91.909 205.543 91.909 206.032 91.909C226.439 91.909 243.181 75.3092 243.181 54.9257C243.181 54.3154 243.181 53.8272 243.181 53.2169C243.181 52.2404 243.059 51.7522 243.059 51.264C242.937 50.5316 242.937 50.0434 242.814 49.5552L242.692 49.0669C242.57 48.7008 242.57 48.2125 242.448 47.8464C242.448 47.6023 242.326 47.4802 242.326 47.2361C242.203 46.8699 242.203 46.5037 242.081 46.0155C242.081 45.7714 241.959 45.5273 241.959 45.2832C241.837 45.0391 241.837 44.6729 241.715 44.4288C241.592 44.0626 241.47 43.5744 241.348 43.2082C241.226 42.9641 241.226 42.72 241.104 42.4759C240.981 42.2317 240.859 41.8656 240.737 41.6215C240.37 40.5229 240.126 40.0347 239.759 39.4244C239.515 38.8141 239.393 38.57 239.148 38.2039C238.66 37.3495 238.293 36.6171 237.926 36.0068C231.327 24.7776 218.985 17.6983 205.91 17.6983C193.323 17.6983 181.714 23.9232 174.87 34.4201C174.748 34.5422 174.504 34.6642 174.382 34.5422C174.259 34.4201 174.137 34.176 174.259 34.0539C181.347 23.3129 193.078 16.9659 205.91 16.9659C219.23 16.9659 231.816 24.1673 238.537 35.6407C238.904 36.251 239.271 36.9833 239.637 37.5936C239.882 38.2039 240.126 38.448 240.248 38.8141C240.615 39.6685 240.859 40.1568 241.104 40.7671C241.348 41.4994 241.47 41.8656 241.592 42.1097C241.715 42.3538 241.715 42.5979 241.837 42.842C241.959 43.2082 242.081 43.6964 242.203 44.0626C242.326 44.3067 242.326 44.6729 242.448 44.917C242.57 45.1611 242.57 45.4052 242.692 45.6493C242.814 46.0155 242.937 46.3817 242.937 46.8699C242.937 47.114 243.059 47.2361 243.059 47.4802C243.181 47.8464 243.181 48.3346 243.303 48.7008L243.425 49.3111C243.548 49.7993 243.548 50.4096 243.67 50.8978C243.792 51.6301 243.792 52.1184 243.792 52.6066C243.792 53.583 243.914 54.1933 243.914 54.8036C243.792 75.6754 226.806 92.6413 206.032 92.6413Z" fill="#1A1A1A"/>
<path d="M206.032 59.1977C203.588 59.1977 201.633 57.2447 201.633 54.8036C201.633 52.3625 203.588 50.4095 206.032 50.4095C208.476 50.4095 210.431 52.3625 210.431 54.8036C210.309 57.2447 208.354 59.1977 206.032 59.1977ZM206.032 51.2639C204.077 51.2639 202.366 52.8507 202.366 54.9257C202.366 56.8786 203.954 58.5874 206.032 58.5874C207.987 58.5874 209.698 57.0006 209.698 54.9257C209.576 52.8507 207.987 51.2639 206.032 51.2639Z" fill="#1A1A1A"/>
<path d="M200.899 61.0285C200.533 60.7844 200.411 60.5403 200.655 60.4182L202.732 57.9771C202.855 57.855 203.099 57.855 203.221 57.9771C203.343 58.0992 203.343 58.3433 203.221 58.4653L201.144 60.9065C201.144 61.0285 201.022 61.0285 200.899 61.0285Z" fill="#1A1A1A"/>
<path d="M207.254 50.8978C207.009 50.8978 206.887 50.6537 206.887 50.4096L213.242 24.1673C213.242 23.9232 213.486 23.8011 213.73 23.9232C213.975 23.9232 214.097 24.1673 213.975 24.4114L207.62 50.6537C207.62 50.7757 207.498 50.8978 207.254 50.8978Z" fill="#1A1A1A"/>
<path d="M206.032 29.2937C205.787 29.2937 205.665 29.1716 205.665 28.9275V20.3835C205.665 20.1394 205.787 20.0173 206.032 20.0173C206.276 20.0173 206.398 20.1394 206.398 20.3835V28.9275C206.398 29.1716 206.154 29.2937 206.032 29.2937Z" fill="#1A1A1A"/>
<path d="M240.492 55.1698H231.938C231.694 55.1698 231.572 55.0477 231.572 54.8036C231.572 54.5595 231.694 54.4374 231.938 54.4374H240.492C240.737 54.4374 240.859 54.5595 240.859 54.8036C240.859 55.0477 240.737 55.1698 240.492 55.1698Z" fill="#1A1A1A"/>
<path d="M134.177 22.4585C133.933 22.3364 129.656 18.0645 129.656 18.0645C129.534 17.9424 129.534 17.6983 129.656 17.5762C129.778 17.4542 130.022 17.4542 130.145 17.5762L134.422 21.8482C134.544 21.9703 134.544 22.2144 134.422 22.3364C134.422 22.4585 134.3 22.4585 134.177 22.4585Z" fill="#1A1A1A"/>
<path d="M130.023 22.4585C129.656 22.2144 129.656 21.9703 129.778 21.8482L134.055 17.5762C134.177 17.4542 134.422 17.4542 134.544 17.5762C134.666 17.6983 134.666 17.9424 134.544 18.0645L130.267 22.3364C130.145 22.4585 130.023 22.4585 130.023 22.4585Z" fill="#1A1A1A"/>
<path d="M139.188 15.6233C138.332 15.6233 137.599 14.891 137.599 14.0366C137.599 13.1822 138.332 12.4498 139.188 12.4498C140.043 12.4498 140.776 13.1822 140.776 14.0366C140.776 14.891 140.165 15.6233 139.188 15.6233ZM139.188 13.1822C138.699 13.1822 138.332 13.5483 138.332 14.0366C138.332 14.5248 138.699 14.891 139.188 14.891C139.676 14.891 140.043 14.5248 140.043 14.0366C140.043 13.5483 139.676 13.1822 139.188 13.1822Z" fill="#1A1A1A"/>
<path d="M9.53177 153.182H4.0327C3.6661 152.693 22.2407 47.2361 22.2407 47.2361C22.2407 46.992 22.4851 46.8699 22.7295 46.8699C22.9739 46.8699 23.0961 47.114 23.0961 47.3582L4.64371 152.327H9.65397C9.89837 152.327 10.0206 152.449 10.0206 152.693C10.0206 152.937 9.77617 153.182 9.53177 153.182Z" fill="#1A1A1A"/>
<path d="M22.6072 159.162H9.28722C8.92061 158.796 22.2406 47.2361 22.2406 47.2361C22.2406 46.992 22.485 46.8699 22.6072 46.8699C22.8516 46.8699 22.9738 47.114 22.9738 47.2361L9.65382 158.308H22.6072C22.8516 158.308 22.9738 158.43 22.9738 158.674C22.9738 159.04 22.7294 159.162 22.6072 159.162Z" fill="#1A1A1A"/>
<path d="M137.843 179.546H22.6073C22.3629 179.546 22.2407 179.424 22.2407 179.18V47.3581C22.2407 47.114 22.3629 46.9919 22.6073 46.9919H49.8583C50.1027 46.9919 50.2249 47.114 50.2249 47.3581C50.2249 47.6022 50.1027 47.7243 49.8583 47.7243H22.9739V178.814H137.843C138.088 178.814 138.21 178.936 138.21 179.18C138.21 179.424 137.966 179.546 137.843 179.546Z" fill="#1A1A1A"/>
<path d="M73.9319 47.7243H52.6688C52.4244 47.7243 52.3022 47.6022 52.3022 47.3581C52.3022 47.114 52.4244 46.9919 52.6688 46.9919H73.9319C74.1763 46.9919 74.2985 47.114 74.2985 47.3581C74.2985 47.6022 74.0541 47.7243 73.9319 47.7243Z" fill="#1A1A1A"/>
<path d="M97.7612 47.7243H76.7426C76.4982 47.7243 76.376 47.6022 76.376 47.3581C76.376 47.114 76.4982 46.9919 76.7426 46.9919H97.7612C98.0056 46.9919 98.1278 47.114 98.1278 47.3581C98.1278 47.6022 98.0056 47.7243 97.7612 47.7243Z" fill="#1A1A1A"/>
<path d="M121.835 47.7243H100.45C100.205 47.7243 100.083 47.6022 100.083 47.3581C100.083 47.114 100.205 46.9919 100.45 46.9919H121.835C122.079 46.9919 122.201 47.114 122.201 47.3581C122.201 47.6022 122.079 47.7243 121.835 47.7243Z" fill="#1A1A1A"/>
<path d="M145.786 47.7243H124.645C124.401 47.7243 124.279 47.6022 124.279 47.3581C124.279 47.114 124.401 46.9919 124.645 46.9919H145.908C146.153 46.9919 146.275 47.114 146.275 47.3581C146.275 47.6022 146.031 47.7243 145.786 47.7243Z" fill="#1A1A1A"/>
<path d="M169.86 47.7243H148.475C148.23 47.7243 148.108 47.6022 148.108 47.3581C148.108 47.114 148.23 46.9919 148.475 46.9919H169.86C170.104 46.9919 170.227 47.114 170.227 47.3581C170.227 47.6022 170.104 47.7243 169.86 47.7243Z" fill="#1A1A1A"/>
<path d="M191.856 52.8507C191.612 52.8507 191.49 52.7286 191.49 52.4845V47.7243H172.548C172.304 47.7243 172.182 47.6022 172.182 47.3581C172.182 47.114 172.304 46.9919 172.548 46.9919H191.856C192.101 46.9919 192.223 47.114 192.223 47.3581V52.4845C192.345 52.7286 192.101 52.8507 191.856 52.8507Z" fill="#1A1A1A"/>
<path d="M139.921 171.978H28.3507C28.1063 171.978 27.9841 171.856 27.9841 171.612V56.2683C27.9841 56.0242 28.1063 55.9021 28.3507 55.9021H171.082C171.326 55.9021 171.449 56.0242 171.449 56.2683C171.449 56.5124 171.326 56.6344 171.082 56.6344H28.7173V171.124H139.921C140.165 171.124 140.287 171.246 140.287 171.49C140.287 171.734 140.043 171.978 139.921 171.978Z" fill="#1A1A1A"/>
<path d="M48.3919 53.9492C47.6587 53.9492 46.9255 53.461 46.8033 52.7287C46.5588 51.8743 47.0477 50.8978 48.0253 50.6537C49.0029 50.4096 49.9805 47.3582 49.6139 43.5744C49.6139 43.2082 49.4917 42.842 49.4917 42.4759C49.1251 39.5465 48.1475 38.57 48.0253 38.448C47.1699 38.448 46.5588 41.1332 46.5588 43.4523V47.3582H45.8256V43.4523C45.8256 41.9876 46.3144 37.7156 48.1475 37.7156C48.8807 37.7156 49.8583 39.4244 50.2249 42.3538C50.2249 42.72 50.3471 43.0862 50.3471 43.4523C50.5915 46.8699 49.9805 50.7757 48.1475 51.386C47.6587 51.5081 47.2921 52.1184 47.5365 52.6066C47.6587 53.0948 48.1475 53.461 48.7585 53.2169C51.8135 52.3625 52.5467 47.4802 52.3023 43.5744C52.3023 43.0862 52.1801 42.5979 52.1801 42.1097C51.5691 38.0818 50.1027 35.8848 48.1475 35.8848C43.9926 35.8848 43.8704 42.72 43.8704 43.4523V47.3582H43.1372V43.4523C43.1372 42.5979 43.2594 35.0304 48.1475 35.0304C50.5915 35.0304 52.3023 37.5936 52.9133 41.9876C53.0355 42.4759 53.0355 42.9641 53.0355 43.4523C53.2799 47.8464 52.4245 52.8507 48.8807 53.8272C48.7585 53.9492 48.5141 53.9492 48.3919 53.9492Z" fill="#1A1A1A"/>
<path d="M72.4655 53.9492C71.7323 53.9492 70.9991 53.461 70.8769 52.7286C70.7547 52.2404 70.7547 51.8742 70.9991 51.386C71.2435 51.0198 71.6101 50.6537 71.9767 50.5316C72.9543 50.2875 73.9319 47.2361 73.5653 43.4523C73.5653 43.0861 73.4431 42.72 73.4431 42.3538C73.0765 39.4244 72.0989 38.448 71.9767 38.3259C71.1213 38.3259 70.5103 41.0112 70.5103 43.3303V47.2361H69.7771V43.3303C69.7771 41.8656 70.2659 37.5936 72.0989 37.5936C72.8321 37.5936 73.8097 39.3024 74.2985 42.2317C74.2985 42.5979 74.4207 42.9641 74.4207 43.3303C74.6651 46.7479 74.0541 50.6537 72.2211 51.264C71.9767 51.386 71.7323 51.5081 71.6101 51.7522C71.4879 51.9963 71.4879 52.2404 71.4879 52.4845C71.6101 52.9728 72.2211 53.2169 72.7099 53.0948C75.7649 52.2404 76.4981 47.3581 76.2537 43.4523C76.2537 42.9641 76.1315 42.4759 76.1315 41.9876C75.5205 37.9598 74.0541 35.7627 72.0989 35.7627C67.944 35.7627 67.8218 42.5979 67.8218 43.3303V47.2361H67.0886V43.3303C67.0886 42.4759 67.2108 34.9083 72.0989 34.9083C74.5429 34.9083 76.2537 37.4715 76.8647 41.8656C76.9869 42.3538 76.9869 42.842 76.9869 43.3303C77.2313 47.7243 76.3759 52.7286 72.8321 53.7051C72.8321 53.9492 72.5877 53.9492 72.4655 53.9492Z" fill="#1A1A1A"/>
<path d="M96.4169 53.9492C95.6837 53.9492 94.9505 53.461 94.8283 52.7286C94.7061 52.2404 94.7061 51.8742 94.9505 51.386C95.1949 51.0198 95.5615 50.6537 95.9281 50.5316C96.9057 50.2875 97.8833 47.2361 97.5167 43.4523C97.5167 43.0861 97.3945 42.72 97.3945 42.3538C97.0279 39.4244 96.0503 38.448 95.9281 38.3259C95.0727 38.3259 94.4617 41.0112 94.4617 43.3303V47.2361H93.7285V43.3303C93.7285 41.8656 94.2173 37.5936 96.0503 37.5936C96.7835 37.5936 97.7611 39.3024 98.2499 42.2317C98.2499 42.5979 98.3721 42.9641 98.3721 43.3303C98.6165 46.7479 98.0055 50.6537 96.1725 51.264C95.9281 51.386 95.6837 51.5081 95.5615 51.7522C95.4393 51.9963 95.4393 52.2404 95.4393 52.4845C95.5615 52.9728 96.1725 53.3389 96.6613 53.0948C99.7163 52.2404 100.45 47.3581 100.205 43.4523C100.205 42.9641 100.083 42.4759 100.083 41.9876C99.4719 37.9598 98.0055 35.7627 96.0503 35.7627C91.8954 35.7627 91.7732 42.5979 91.7732 43.3303V47.2361H91.04V43.3303C91.04 42.4759 91.1622 34.9083 96.0503 34.9083C98.4943 34.9083 100.205 37.4715 100.816 41.8656C100.938 42.3538 100.938 42.842 100.938 43.3303C101.183 47.7243 100.327 52.7286 96.7835 53.7051C96.7835 53.9492 96.5391 53.9492 96.4169 53.9492Z" fill="#1A1A1A"/>
<path d="M120.491 53.9492C119.757 53.9492 119.024 53.461 118.902 52.7287C118.658 51.8743 119.146 50.8978 120.124 50.6537C121.102 50.4096 122.079 47.3582 121.713 43.5744C121.713 43.2082 121.59 42.842 121.59 42.4759C121.224 39.5465 120.246 38.57 120.124 38.448C119.269 38.448 118.658 41.1332 118.658 43.4523V47.3582H117.924V43.4523C117.924 41.9876 118.413 37.7156 120.246 37.7156C120.979 37.7156 121.957 39.4244 122.446 42.3538C122.446 42.72 122.568 43.0862 122.568 43.4523C122.812 46.8699 122.201 50.7757 120.368 51.386C119.88 51.5081 119.513 52.1184 119.757 52.6066C119.88 53.0948 120.491 53.3389 120.979 53.2169C124.034 52.3625 124.768 47.4802 124.523 43.5744C124.523 43.0862 124.401 42.5979 124.401 42.1097C123.79 38.0818 122.324 35.8848 120.368 35.8848C116.214 35.8848 116.091 42.72 116.091 43.4523V47.4802H115.358C115.358 47.4802 115.358 43.5744 115.358 43.4523C115.358 42.5979 115.48 35.0304 120.368 35.0304C122.812 35.0304 124.523 37.5936 125.134 41.9876C125.256 42.4759 125.256 42.9641 125.256 43.4523C125.501 47.8464 124.645 52.8507 121.102 53.8272C120.735 53.9492 120.613 53.9492 120.491 53.9492Z" fill="#1A1A1A"/>
<path d="M144.442 53.9492C143.709 53.9492 142.976 53.461 142.854 52.7287C142.609 51.8743 143.098 50.8978 144.076 50.6537C145.053 50.4096 146.031 47.3582 145.664 43.5744C145.664 43.2082 145.542 42.842 145.542 42.4759C145.175 39.5465 144.198 38.57 144.076 38.448C143.22 38.448 142.609 41.1332 142.609 43.4523V47.4802H141.876V43.4523C141.876 41.9876 142.365 37.7156 144.198 37.7156C144.931 37.7156 145.909 39.4244 146.398 42.3538C146.398 42.72 146.52 43.0862 146.52 43.4523C146.764 46.8699 146.153 50.7757 144.32 51.386C143.831 51.5081 143.465 52.1184 143.709 52.6066C143.831 53.0948 144.442 53.3389 144.931 53.2169C147.986 52.3625 148.719 47.4802 148.475 43.5744C148.475 43.0862 148.353 42.5979 148.353 42.1097C147.742 38.0818 146.275 35.8848 144.32 35.8848C140.165 35.8848 140.043 42.72 140.043 43.4523V47.4802H139.31V43.4523C139.31 42.5979 139.432 35.0304 144.32 35.0304C146.764 35.0304 148.475 37.5936 149.086 41.9876C149.208 42.4759 149.208 42.9641 149.208 43.4523C149.453 47.8464 148.597 52.8507 145.053 53.8272C144.687 53.9492 144.564 53.9492 144.442 53.9492Z" fill="#1A1A1A"/>
<path d="M168.516 53.9492C167.783 53.9492 167.049 53.461 166.927 52.7286C166.683 51.8742 167.172 50.8978 168.149 50.6536C169.127 50.4095 170.104 47.3581 169.738 43.5743C169.738 43.2082 169.616 42.842 169.616 42.4758C169.249 39.5465 168.271 38.57 168.149 38.4479C167.294 38.4479 166.683 41.1332 166.683 43.4523C166.683 43.4523 166.683 47.236 166.683 47.3581C166.683 47.6022 166.438 47.7243 166.316 47.7243C166.072 47.7243 165.95 47.4802 165.95 47.3581C165.95 47.114 165.95 43.5743 165.95 43.5743C165.95 42.1097 166.438 37.8377 168.271 37.8377C169.005 37.8377 169.982 39.5465 170.471 42.4758C170.471 42.842 170.593 43.2082 170.593 43.5743C170.838 46.9919 170.227 50.8978 168.394 51.508C167.905 51.6301 167.538 52.2404 167.783 52.7286C167.905 53.2168 168.516 53.461 169.005 53.3389C172.06 52.4845 172.793 47.6022 172.548 43.6964C172.548 43.2082 172.426 42.7199 172.426 42.2317C171.815 38.2038 170.349 36.0068 168.394 36.0068C164.239 36.0068 164.117 42.842 164.117 43.5743C164.117 44.1846 164.117 47.236 164.117 47.3581C164.117 47.6022 163.994 47.7243 163.75 47.7243C163.506 47.7243 163.383 47.6022 163.383 47.3581C163.383 47.3581 163.383 47.3581 163.383 43.5743C163.383 42.5979 163.506 35.1524 168.394 35.1524C170.838 35.1524 172.548 37.7156 173.159 42.1097C173.282 42.5979 173.282 43.0861 173.282 43.5743C173.526 47.9684 172.671 52.9727 169.127 53.9492C168.76 53.9492 168.638 53.9492 168.516 53.9492Z" fill="#1A1A1A"/>
<path d="M47.5364 83.1208H36.7826C36.5382 83.1208 36.416 82.9988 36.416 82.7547V72.0136C36.416 71.7695 36.5382 71.6475 36.7826 71.6475H47.5364C47.7808 71.6475 47.903 71.7695 47.903 72.0136V82.7547C47.903 82.9988 47.6586 83.1208 47.5364 83.1208ZM37.1492 82.3885H47.1697V72.3798H37.1492V82.3885Z" fill="#1A1A1A"/>
<path d="M69.166 83.1208H58.4123C58.1679 83.1208 58.0457 82.9988 58.0457 82.7547V72.0136C58.0457 71.7695 58.1679 71.6475 58.4123 71.6475H69.166C69.4104 71.6475 69.5326 71.7695 69.5326 72.0136V82.7547C69.5326 82.9988 69.4104 83.1208 69.166 83.1208ZM58.7789 82.3885H68.7994V72.3798H58.7789V82.3885Z" fill="#1A1A1A"/>
<path d="M87.6184 83.1208H79.7975C79.5531 83.1208 79.4309 82.9988 79.4309 82.7547V72.0136C79.4309 71.7695 79.5531 71.6475 79.7975 71.6475H90.5512C90.7956 71.6475 90.9179 71.7695 90.9179 72.0136V73.9665C90.9179 74.2107 90.7956 74.3327 90.5512 74.3327C90.3068 74.3327 90.1846 74.2107 90.1846 73.9665V72.5019H80.1641V82.5105H87.6184C87.8628 82.5105 87.985 82.6326 87.985 82.8767C87.985 83.1208 87.8628 83.1208 87.6184 83.1208Z" fill="#1A1A1A"/>
<path d="M112.181 83.1208H107.049C106.804 83.1208 106.682 82.9988 106.682 82.7547C106.682 82.5105 106.804 82.3885 107.049 82.3885H111.814V72.3798H103.382C103.138 72.3798 103.016 72.2577 103.016 72.0136C103.016 71.7695 103.138 71.6475 103.382 71.6475H112.181C112.425 71.6475 112.548 71.7695 112.548 72.0136V82.7547C112.67 82.9988 112.425 83.1208 112.181 83.1208Z" fill="#1A1A1A"/>
<path d="M155.562 83.1208H144.809C144.564 83.1208 144.442 82.9988 144.442 82.7547V72.0136C144.442 71.7695 144.564 71.6475 144.809 71.6475H155.562C155.807 71.6475 155.929 71.7695 155.929 72.0136V82.7547C155.929 82.9988 155.807 83.1208 155.562 83.1208ZM145.175 82.3885H155.196V72.3798H145.175V82.3885Z" fill="#1A1A1A"/>
<path d="M47.5364 129.014H36.7826C36.5382 129.014 36.416 128.892 36.416 128.648V117.907C36.416 117.663 36.5382 117.541 36.7826 117.541H47.5364C47.7808 117.541 47.903 117.663 47.903 117.907V128.648C47.903 128.892 47.6586 129.014 47.5364 129.014ZM37.1492 128.282H47.1697V118.273H37.1492V128.282Z" fill="#1A1A1A"/>
<path d="M69.166 129.014H58.4123C58.1679 129.014 58.0457 128.892 58.0457 128.648V117.907C58.0457 117.663 58.1679 117.541 58.4123 117.541H69.166C69.4104 117.541 69.5326 117.663 69.5326 117.907V128.648C69.5326 128.892 69.4104 129.014 69.166 129.014ZM58.7789 128.282H68.7994V118.273H58.7789V128.282Z" fill="#1A1A1A"/>
<path d="M90.5512 129.014H79.7975C79.5531 129.014 79.4309 128.892 79.4309 128.648V117.907C79.4309 117.663 79.5531 117.541 79.7975 117.541H90.5512C90.7956 117.541 90.9179 117.663 90.9179 117.907V128.648C91.0401 128.892 90.7956 129.014 90.5512 129.014ZM80.2863 128.282H90.3068V118.273H80.2863V128.282Z" fill="#1A1A1A"/>
<path d="M112.181 129.014H101.427C101.183 129.014 101.061 128.892 101.061 128.648V118.517C101.061 118.273 101.183 118.151 101.427 118.151C101.672 118.151 101.794 118.273 101.794 118.517V128.282H112.181C112.425 128.282 112.547 128.404 112.547 128.648C112.67 128.892 112.425 129.014 112.181 129.014Z" fill="#1A1A1A"/>
<path d="M112.181 129.014C111.937 129.014 111.814 128.892 111.814 128.648V128.038C111.814 127.794 111.937 127.672 112.181 127.672C112.425 127.672 112.548 127.794 112.548 128.038V128.648C112.67 128.892 112.425 129.014 112.181 129.014Z" fill="#1A1A1A"/>
<path d="M47.5364 152.327H36.7826C36.5382 152.327 36.416 152.205 36.416 151.961V141.22C36.416 140.976 36.5382 140.854 36.7826 140.854H47.5364C47.7808 140.854 47.903 140.976 47.903 141.22V151.961C47.903 152.205 47.6586 152.327 47.5364 152.327ZM37.1492 151.595H47.1697V141.586H37.1492V151.595Z" fill="#1A1A1A"/>
<path d="M69.166 152.327H58.4123C58.1679 152.327 58.0457 152.205 58.0457 151.961V141.22C58.0457 140.976 58.1679 140.854 58.4123 140.854H69.166C69.4104 140.854 69.5326 140.976 69.5326 141.22V151.961C69.5326 152.205 69.4104 152.327 69.166 152.327ZM58.7789 151.595H68.7994V141.586H58.7789V151.595Z" fill="#1A1A1A"/>
<path d="M90.5512 152.327H79.7975C79.5531 152.327 79.4309 152.205 79.4309 151.961V141.22C79.4309 140.976 79.5531 140.854 79.7975 140.854H90.5512C90.7956 140.854 90.9179 140.976 90.9179 141.22V151.961C91.0401 152.205 90.7956 152.327 90.5512 152.327ZM80.2863 151.595H90.3068V141.586H80.2863V151.595Z" fill="#1A1A1A"/>
<path d="M112.181 152.327H101.427C101.183 152.327 101.061 152.205 101.061 151.961V141.22C101.061 140.976 101.183 140.854 101.427 140.854H112.181C112.425 140.854 112.547 140.976 112.547 141.22V151.961C112.67 152.205 112.425 152.327 112.181 152.327ZM101.916 151.595H111.936V141.586H101.916V151.595Z" fill="#1A1A1A"/>
<path d="M133.933 152.327H123.179C122.935 152.327 122.812 152.205 122.812 151.961V141.22C122.812 140.976 122.935 140.854 123.179 140.854H133.933C134.177 140.854 134.299 140.976 134.299 141.22V151.961C134.299 152.205 134.055 152.327 133.933 152.327ZM123.546 151.595H133.566V141.586H123.546V151.595Z" fill="#1A1A1A"/>
<path d="M47.5364 105.946H36.7826C36.5382 105.946 36.416 105.823 36.416 105.579V94.8383C36.416 94.5942 36.5382 94.4722 36.7826 94.4722H47.5364C47.7808 94.4722 47.903 94.5942 47.903 94.8383V105.579C47.903 105.701 47.6586 105.946 47.5364 105.946ZM37.1492 105.091H47.1697V95.2045H37.1492V105.091Z" fill="#1A1A1A"/>
<path d="M69.166 105.946H58.4123C58.1679 105.946 58.0457 105.823 58.0457 105.579V94.8383C58.0457 94.5942 58.1679 94.4722 58.4123 94.4722H69.166C69.4104 94.4722 69.5326 94.5942 69.5326 94.8383V105.579C69.5326 105.701 69.4104 105.946 69.166 105.946ZM58.7789 105.091H68.7994V95.2045H58.7789V105.091Z" fill="#1A1A1A"/>
<path d="M90.5512 105.946H79.7975C79.5531 105.946 79.4309 105.823 79.4309 105.579V94.8383C79.4309 94.5942 79.5531 94.4722 79.7975 94.4722H87.4962C87.7406 94.4722 87.8628 94.5942 87.8628 94.8383C87.8628 95.0824 87.7406 95.2045 87.4962 95.2045H80.1641V105.213H90.1846V101.796C90.1846 101.551 90.3068 101.429 90.5512 101.429C90.7956 101.429 90.9179 101.551 90.9179 101.796V105.579C91.0401 105.701 90.7956 105.946 90.5512 105.946Z" fill="#1A1A1A"/>
<path d="M133.811 83.1209H123.057C122.813 83.1209 122.69 82.9988 122.69 82.7547V77.1401C122.69 76.896 122.813 76.7739 123.057 76.7739C123.301 76.7739 123.424 76.896 123.424 77.1401V82.3885H133.444V74.6989C133.444 74.4548 133.566 74.3328 133.811 74.3328C134.055 74.3328 134.177 74.4548 134.177 74.6989V82.7547C134.177 82.9988 134.055 83.1209 133.811 83.1209Z" fill="#1A1A1A"/>
<path d="M123.057 75.3092C122.813 75.3092 122.69 75.1871 122.69 74.943V72.0136C122.69 71.7695 122.813 71.6475 123.057 71.6475H133.566C133.811 71.6475 133.933 71.7695 133.933 72.0136C133.933 72.2577 133.811 72.3798 133.566 72.3798H123.424V74.943C123.424 75.1871 123.301 75.3092 123.057 75.3092Z" fill="#1A1A1A"/>
<path d="M133.811 105.946H123.057C122.813 105.946 122.69 105.823 122.69 105.579V94.8383C122.69 94.5942 122.813 94.4722 123.057 94.4722H133.811C134.055 94.4722 134.177 94.5942 134.177 94.8383V105.579C134.177 105.701 134.055 105.946 133.811 105.946ZM123.424 105.091H133.444V95.2045H123.424V105.091Z" fill="#1A1A1A"/>
<path d="M155.196 105.946H144.442C144.198 105.946 144.076 105.823 144.076 105.579V94.8383C144.076 94.5942 144.198 94.4722 144.442 94.4722H155.196C155.44 94.4722 155.563 94.5942 155.563 94.8383V105.579C155.563 105.701 155.44 105.946 155.196 105.946ZM144.809 105.091H154.829V95.2045H144.809V105.091Z" fill="#1A1A1A"/>
<path d="M155.562 83.1208H144.809C144.564 83.1208 144.442 82.9988 144.442 82.7547V72.0136C144.442 71.7695 144.564 71.6475 144.809 71.6475H155.562C155.807 71.6475 155.929 71.7695 155.929 72.0136V82.7547C155.929 82.9988 155.807 83.1208 155.562 83.1208ZM145.175 82.3885H155.196V72.3798H145.175V82.3885Z" fill="#1A1A1A"/>
<path d="M112.303 98.0118C112.059 98.0118 111.937 97.8898 111.937 97.6456V95.2045H110.104C109.859 95.2045 109.737 95.0824 109.737 94.8383C109.737 94.5942 109.859 94.4722 110.104 94.4722H112.303C112.548 94.4722 112.67 94.5942 112.67 94.8383V97.6456C112.792 97.7677 112.548 98.0118 112.303 98.0118Z" fill="#1A1A1A"/>
<path d="M165.95 104.847C165.705 104.847 165.583 104.725 165.583 104.481V94.7163C165.583 94.4721 165.705 94.3501 165.95 94.3501H172.548C172.793 94.3501 172.915 94.4721 172.915 94.7163C172.915 94.9604 172.793 95.0824 172.548 95.0824H166.316V104.359C166.316 104.725 166.194 104.847 165.95 104.847Z" fill="#1A1A1A"/>
<path d="M136.499 70.549C136.132 70.1828 135.521 70.1828 135.032 70.549L127.212 78.3606L124.034 75.1871C123.668 74.821 123.057 74.821 122.568 75.1871C122.201 75.5533 122.201 76.1636 122.568 76.6518L126.356 80.4356C126.723 80.8018 127.212 80.8018 127.578 80.5577C127.823 80.4356 136.254 71.8916 136.254 71.8916C136.865 71.5254 136.865 70.9152 136.499 70.549Z" fill="#56E21B"/>
<path d="M127.212 80.9238C126.845 80.9238 126.601 80.8017 126.356 80.5576L122.568 76.7739C122.079 76.2856 122.079 75.5533 122.568 75.0651C123.057 74.5768 123.79 74.5768 124.279 75.0651L127.212 77.9944L134.788 70.4269C135.277 69.9387 136.132 69.9387 136.499 70.4269C136.743 70.671 136.866 70.9151 136.866 71.2813C136.866 71.6475 136.743 71.8916 136.499 72.1357L128.067 80.5576C127.7 80.9238 127.456 80.9238 127.212 80.9238ZM123.423 75.0651C123.179 75.0651 123.057 75.1871 122.812 75.3092C122.446 75.6754 122.446 76.1636 122.812 76.4077L126.601 80.1915C126.845 80.4356 127.334 80.4356 127.578 80.3135C127.7 80.1915 136.255 71.7695 136.255 71.7695C136.377 71.6475 136.499 71.4034 136.499 71.1592C136.499 70.9151 136.377 70.7931 136.255 70.549C136.01 70.3048 135.399 70.3048 135.155 70.549L127.334 78.3606C126.967 78.3606 123.912 75.1871 123.912 75.1871C123.79 75.1871 123.668 75.0651 123.423 75.0651Z" fill="#384B41"/>
<path d="M261.633 197H73.9318C73.6874 197 73.5652 196.878 73.5652 196.634C73.5652 196.39 73.6874 196.268 73.9318 196.268H261.633C261.878 196.268 262 196.39 262 196.634C262 196.756 261.756 197 261.633 197Z" fill="#1A1A1A"/>
</svg>
