<svg width="251" height="198" viewBox="0 0 251 198" fill="none" xmlns="http://www.w3.org/2000/svg">
<path d="M86.2812 154.611C86.2812 178.322 66.917 197.633 43.1406 197.633C19.3643 197.633 0 178.322 0 154.611C0 130.9 19.3643 111.589 43.1406 111.589C66.917 111.589 86.2812 130.9 86.2812 154.611Z" fill="white"/>
<path d="M65.3237 167.689C64.4658 174.167 59.3184 178.811 51.7197 180.278C50.8618 180.4 50.1265 180.644 49.146 180.889C49.146 183.211 49.146 185.533 49.146 187.978C46.9399 187.978 44.979 187.978 42.6504 187.978C42.6504 185.778 42.6504 183.456 42.6504 180.889C33.3359 179.911 28.0659 175.022 26.105 166.711C29.5366 165.856 32.7231 165.122 36.1548 164.267C36.3999 165 36.645 165.611 36.8901 166.222C38.606 171.233 44.2437 173.678 49.6362 171.722C52.0874 170.744 53.1904 168.911 53.4355 166.711C53.5581 164.633 52.5776 162.922 50.4941 161.944C47.7979 160.844 44.979 159.867 42.1602 158.767C40.6895 158.156 39.2188 157.789 37.748 157.178C30.5171 154.122 27.3306 148.867 28.1885 141.778C29.0464 134.811 33.4585 130.533 41.3022 129.067C41.6699 128.944 41.915 128.944 42.4053 128.822C42.4053 127.111 42.4053 125.278 42.4053 123.444C44.7339 123.444 48.7783 123.444 48.7783 123.444L48.9009 128.822C48.9009 128.822 50.3716 128.944 53.9258 130.289C59.0732 132.122 62.0146 135.667 63.7305 140.678C60.7891 141.778 57.7251 143 54.7837 144.1C53.6807 142.511 52.8228 140.8 51.4746 139.456C49.5137 137.256 46.8174 136.644 43.9985 137.378C41.7925 137.989 40.3218 139.456 39.9541 141.656C39.5864 143.978 40.3218 145.811 42.6504 146.789C44.979 147.767 47.4302 148.622 49.7588 149.6C51.7197 150.333 53.8032 151.067 55.7642 151.922C63.3628 154.856 66.3042 159.989 65.3237 167.689Z" fill="#0CD494"/>
<path d="M231.391 14.4222L194.623 1.46661C192.294 0.611051 189.843 0.244385 187.27 0.244385C184.818 0.244385 182.367 0.611051 179.916 1.46661L143.148 14.4222C134.814 17.3555 129.299 25.0555 129.299 33.611V43.3888V94.1111C129.299 107.8 135.795 121 148.664 133.222C158.346 142.389 169.499 149.111 177.22 153.144C179.793 154.489 182.857 155.344 185.799 155.589C185.799 155.589 186.902 155.589 187.637 155.589C188.005 155.589 188.373 155.589 188.74 155.589C191.682 155.344 194.746 154.611 197.319 153.144C205.041 149.111 216.193 142.511 225.875 133.222C238.744 121 245.24 107.8 245.24 94.1111V43.3888V33.611C245.362 25.0555 239.725 17.3555 231.391 14.4222Z" fill="#0CD494"/>
<path d="M225.14 26.7667L194.378 15.8889C192.417 15.1555 190.334 14.7889 188.25 14.7889C186.167 14.7889 184.083 15.1555 182.122 15.8889L151.36 26.7667C144.374 29.2111 139.717 35.6889 139.717 42.9V51.0889V93.6222C139.717 105.111 145.232 116.233 155.895 126.378C163.983 134.078 173.42 139.7 179.793 143.122C182 144.222 184.451 144.956 187.024 145.078C187.024 145.078 188.005 145.078 188.618 145.078C188.985 145.078 189.23 145.078 189.598 145.078C192.172 144.956 194.623 144.222 196.829 143.122C203.325 139.822 212.639 134.2 220.728 126.378C231.513 116.111 236.906 105.111 236.906 93.6222V51.0889V42.9C236.783 35.6889 232.126 29.2111 225.14 26.7667Z" fill="white"/>
<path d="M139.594 102.3C139.594 102.3 155.159 115.867 160.429 126.255C165.577 136.644 173.175 155.955 180.039 163.411C186.657 170.378 190.211 174.533 201.977 176.733C213.742 178.933 216.684 179.3 226.366 184.433C236.048 189.444 241.44 197.633 241.44 197.633L140.575 197.511L136.04 192.133L139.104 191.4L124.397 119.167L139.594 102.3Z" fill="#0CD494"/>
<path d="M147.683 111.711C143.271 105.356 133.221 94.9666 124.642 91.3L121.823 85.9222C121.823 85.9222 117.289 95.5777 115.94 98.8777C113.857 103.889 108.342 119.411 108.342 119.411L100.008 117.456L103.439 87.1444L99.395 90.9333C99.395 90.9333 86.5264 95.5777 82.1143 99.6111C77.7021 103.644 65.814 115.867 62.6274 121.122C59.3184 126.378 57.9702 129.556 59.8086 135.056C61.647 140.556 66.0591 144.344 75.7412 143.122C82.3594 142.389 83.8301 142.022 84.0752 141.9L84.4429 147.033L78.1924 197.022C78.1924 197.022 79.5405 197.144 104.91 197.511C130.402 197.878 140.697 197.389 140.697 197.389C140.697 197.389 132.486 153.267 132.731 150.333C133.099 147.4 133.957 144.833 133.957 144.833C133.957 144.833 147.07 147.033 151.973 137.867C156.63 128.944 151.973 117.944 147.683 111.711ZM100.621 153.144L99.8852 138.111L103.317 139.211L100.621 153.144Z" fill="#1A1A1A"/>
<path d="M166.435 139.211C166.435 139.211 172.562 157.055 183.838 167.322C194.991 177.589 203.57 176.856 208.472 177.956C213.375 179.056 227.714 180.644 241.808 197.633C241.808 197.633 231.391 178.444 215.213 171.722C199.035 165 194.133 166.467 186.412 163.411C176.117 159.255 166.435 139.211 166.435 139.211Z" fill="#3A3A3A"/>
<path d="M117.656 61.4777C117.656 61.4777 116.431 66.1222 118.637 70.2777C118.637 70.2777 120.353 68.6889 122.559 69.0555C124.765 69.4222 126.358 71.7444 125.623 74.4333C124.887 77.1222 123.294 77.9777 122.313 77.9777L121.701 85.9222L118.759 91.6666C118.759 91.6666 113.244 95.2111 107.729 93.7444C102.214 92.2777 102.704 90.8111 102.704 90.8111L103.072 88.4889V87.0222C103.072 87.0222 97.9243 85.9222 98.292 78.3444C98.6597 70.7666 100.253 63.6777 100.253 63.6777L101.479 59.4C101.479 59.4 103.685 60.8666 107.852 61.2333C112.019 61.6 117.656 61.4777 117.656 61.4777Z" fill="white"/>
<path d="M68.6328 122.711L79.2954 122.589L81.3789 116.111C81.3789 116.111 71.8193 117.578 68.6328 122.711Z" fill="white"/>
<path d="M160.062 63.9222C160.062 63.9222 170.969 77.611 175.626 77.611C180.284 77.611 185.921 72.9666 194.5 64.6555C203.202 56.3444 209.085 48.0333 209.085 48.0333L219.502 50.8444C219.502 50.8444 210.311 66.8555 200.996 78.2222C191.559 89.5888 182.245 98.0222 175.872 97.7777C169.499 97.6555 162.758 94.111 157.243 83.9666C151.85 73.6999 150.502 65.8777 150.502 65.8777C150.502 65.8777 159.081 63.5555 160.062 63.9222Z" fill="#0CD494"/>
<path d="M101.479 117.944L106.381 104.989L105.278 99.9777L108.464 95.4555L110.916 101.078L108.955 105.722L107.974 119.167L101.479 117.944Z" fill="#0CD494"/>
<path d="M99.8853 138.6L100.621 153.144L103.194 139.211L99.8853 138.6Z" fill="#56E21B"/>
<path d="M196.339 131.633C194.745 132 193.152 132.367 191.682 132.611C191.191 132.733 190.946 132.978 190.946 133.467C190.824 134.933 190.579 136.4 190.333 137.867C190.211 138.233 189.966 138.6 189.721 138.844C188.495 139.7 187.269 140.433 186.044 141.289C185.799 141.411 185.431 141.533 185.186 141.533C183.593 141.167 181.999 140.8 180.284 140.433C180.038 140.433 179.671 140.555 179.426 140.678C178.445 142.022 177.587 143.489 176.729 144.833C176.484 145.2 176.484 145.444 176.729 145.811C177.71 147.033 178.69 148.378 179.671 149.6C179.793 149.844 179.916 150.211 179.916 150.578C179.671 152.044 179.426 153.511 179.181 154.978C179.058 155.344 178.935 155.711 178.69 155.833C177.465 156.689 176.117 157.422 174.891 158.278C174.523 158.522 174.278 158.767 174.401 159.255C174.768 160.844 175.136 162.433 175.381 163.9C175.504 164.389 175.749 164.633 176.239 164.633C177.71 164.755 179.181 165 180.651 165.244C181.141 165.244 181.387 165.489 181.632 165.978C182.367 167.2 183.102 168.3 183.96 169.4C184.328 169.767 184.328 170.133 184.205 170.622C183.838 172.089 183.47 173.678 183.102 175.144C182.98 175.633 183.102 175.878 183.47 176.122C184.818 176.978 186.166 177.833 187.515 178.689C188.005 178.933 188.25 178.933 188.618 178.567C189.843 177.589 191.069 176.611 192.417 175.755C192.662 175.511 193.152 175.511 193.397 175.511C194.868 175.756 196.339 176.122 197.687 176.489C198.055 176.611 198.422 176.855 198.667 177.1C199.525 178.444 200.383 179.789 201.119 181.133C201.364 181.5 201.609 181.744 202.099 181.622C203.692 181.255 205.286 180.889 206.756 180.644C207.246 180.522 207.369 180.4 207.492 179.911C207.614 178.322 207.859 176.733 208.104 175.022C208.104 174.655 208.472 174.289 208.717 174.044C209.82 173.189 211.046 172.455 212.149 171.478C212.639 171.111 213.007 170.989 213.497 171.111C214.968 171.478 216.438 171.722 217.787 172.089C218.277 172.211 218.522 172.089 218.767 171.722C219.625 170.378 220.483 169.033 221.341 167.689C221.586 167.2 221.586 166.955 221.218 166.589C220.238 165.367 219.38 164.144 218.399 162.922C218.032 162.555 218.032 162.189 218.154 161.7C218.522 160.233 218.767 158.767 219.135 157.3C219.257 157.055 219.38 156.689 219.747 156.444C221.096 155.589 222.566 154.733 223.914 153.878C224.282 153.633 224.405 153.389 224.282 152.9C223.914 151.311 223.547 149.722 223.302 148.255C223.179 147.767 222.934 147.644 222.444 147.522C220.85 147.4 219.257 147.155 217.664 146.911C217.296 146.911 216.929 146.544 216.806 146.3C215.948 145.078 214.968 143.855 214.11 142.633C213.987 142.389 213.865 142.022 213.865 141.655C214.232 139.944 214.6 138.111 215.09 136.4C213.497 135.422 211.904 134.444 210.31 133.467C210.065 133.344 209.698 133.467 209.453 133.589C208.104 134.567 206.879 135.544 205.653 136.522C205.408 136.644 205.04 136.767 204.795 136.767C203.325 136.644 201.854 136.4 200.261 136.155C199.893 136.155 199.525 135.911 199.403 135.544C198.545 134.322 197.687 132.978 196.952 131.755C197.074 131.633 196.829 131.511 196.339 131.633ZM208.35 154.244C209.453 159.255 206.266 164.267 201.119 165.367C195.971 166.467 191.069 163.289 189.966 158.155C188.863 153.144 192.172 148.255 197.197 147.155C202.344 146.055 207.246 149.233 208.35 154.244Z" fill="white"/>
<path d="M100.866 61.9666L101.601 59.5222C101.601 59.5222 106.136 61.3555 110.67 61.5999C115.205 61.8444 119.985 61.5999 119.985 61.5999C119.985 61.5999 118.759 66.7333 120.598 69.4222C120.598 69.4222 121.456 69.0555 122.559 69.0555C123.662 69.0555 124.152 69.2999 125.01 70.3999C125.01 70.3999 127.338 66.8555 127.829 64.2888C128.319 61.7222 128.074 59.6444 126.481 58.5444C124.765 57.3222 123.662 57.0777 123.662 57.0777C123.662 57.0777 122.436 51.8222 119.127 50.5999C115.818 49.3777 111.773 49.2555 109.445 51.3333C109.445 51.3333 105.523 49.2555 102.704 51.0888C99.3951 53.411 99.15 55.8555 99.3951 57.6888C99.5176 59.5222 100.253 60.8666 100.866 61.9666Z" fill="#1A1A1A"/>
<path d="M201.364 180.4C200.751 180.4 200.506 180.033 200.383 179.667C199.648 178.322 198.79 176.978 197.932 175.633C197.81 175.389 197.442 175.267 197.197 175.144C195.849 174.778 194.378 174.411 192.907 174.167C192.662 174.167 192.295 174.167 192.172 174.289C190.824 175.267 189.476 176.367 188.495 177.1C188.128 177.344 187.515 177.589 186.902 177.222C185.676 176.367 184.451 175.511 182.857 174.656C182.367 174.289 182.122 173.922 182.367 173.311C182.612 172.578 182.735 171.844 182.857 171.111C183.103 170.378 183.225 169.522 183.47 168.789C183.593 168.422 183.47 168.178 183.225 167.933C182.367 166.833 181.632 165.611 180.897 164.389C180.651 164.022 180.529 163.9 180.161 163.9C179.426 163.778 178.568 163.656 177.833 163.656C177.097 163.533 176.484 163.411 175.749 163.411C175.259 163.411 174.769 163.167 174.646 162.433C174.278 160.722 174.033 159.256 173.666 157.789C173.42 157.056 173.911 156.689 174.278 156.444C175.381 155.833 176.73 154.978 178.078 154C178.2 153.878 178.445 153.633 178.445 153.267C178.691 151.8 178.936 150.333 179.181 148.867C179.181 148.622 179.181 148.378 178.936 148.133C178.078 147.033 177.22 145.811 175.994 144.344C175.627 143.856 175.627 143.489 175.872 143C176.239 142.389 176.607 141.778 177.097 141.167C177.587 140.433 178.078 139.578 178.69 138.844C178.936 138.478 179.548 138.356 179.916 138.356C180.774 138.478 181.632 138.722 182.367 138.967C183.103 139.211 183.961 139.333 184.696 139.456C184.818 139.456 185.186 139.456 185.309 139.333C186.657 138.478 187.882 137.622 188.985 136.889C189.231 136.767 189.476 136.4 189.476 136.156C189.721 134.567 189.966 132.978 190.088 131.756C190.211 131.022 190.456 130.778 191.069 130.656C192.54 130.411 194.133 130.044 195.726 129.678C196.584 129.433 196.829 129.922 197.074 130.289C197.687 131.389 198.545 132.733 199.525 134.078C199.648 134.322 199.893 134.444 200.138 134.444C201.486 134.689 202.957 134.933 204.55 135.056C204.795 135.056 205.041 134.933 205.163 134.811C205.776 134.322 206.389 133.956 207.002 133.467C207.614 132.978 208.35 132.489 208.962 131.878C209.33 131.633 209.943 131.511 210.188 131.756C211.414 132.489 212.639 133.344 213.865 134.078L214.845 134.689C214.968 135.056 214.723 136.522 214.723 136.522C214.355 137.867 214.11 139.089 213.865 140.433C213.865 140.556 213.865 140.922 213.987 141.167C214.845 142.511 215.703 143.733 216.684 144.833C216.806 145.078 217.174 145.2 217.296 145.322C218.767 145.567 220.36 145.689 222.076 145.933C222.812 146.056 223.057 146.3 223.179 146.911C223.424 148.378 223.792 149.967 224.16 151.556C224.282 152.167 224.16 152.533 223.547 152.9C221.831 153.878 220.606 154.733 219.38 155.467C219.257 155.589 219.012 155.833 219.012 156.078C218.89 156.689 218.767 157.3 218.645 158.033C218.522 158.889 218.277 159.622 218.154 160.478C218.032 160.844 218.032 161.089 218.277 161.333C218.767 161.944 219.257 162.556 219.748 163.167C220.238 163.778 220.728 164.389 221.096 165C221.463 165.367 221.586 165.856 221.218 166.467C220.36 167.689 219.502 169.033 218.645 170.5C218.399 170.867 218.032 171.233 217.174 171.111C216.439 170.989 215.826 170.744 215.09 170.622C214.355 170.5 213.62 170.256 212.884 170.133C212.394 170.011 212.272 170.133 211.781 170.378C211.169 170.867 210.556 171.356 209.82 171.844C209.33 172.211 208.84 172.578 208.227 172.944C207.982 173.189 207.737 173.433 207.737 173.678C207.492 175.389 207.247 177.1 207.124 178.444C207.002 179.056 206.756 179.422 206.144 179.544C204.428 179.911 202.957 180.156 201.486 180.522C201.609 180.4 201.486 180.4 201.364 180.4ZM192.54 173.556C194.378 173.922 195.849 174.167 197.197 174.533C197.565 174.656 198.055 174.9 198.422 175.267C199.28 176.611 200.138 178.078 200.874 179.422C201.119 179.911 201.241 179.789 201.486 179.667C202.957 179.3 204.55 178.933 206.144 178.689C206.511 178.567 206.511 178.567 206.511 178.2C206.634 176.733 206.879 175.022 207.124 173.311C207.247 172.822 207.614 172.333 207.859 172.089C208.35 171.722 208.84 171.356 209.453 170.989C210.065 170.5 210.678 170.133 211.291 169.644C211.904 169.156 212.272 169.033 213.007 169.278C213.742 169.522 214.478 169.644 215.213 169.767C215.948 169.889 216.561 170.133 217.296 170.256C218.767 168.544 219.625 167.2 220.483 165.978C220.606 165.733 220.606 165.611 220.36 165.367C219.87 164.756 219.38 164.144 218.89 163.533C218.399 162.922 217.909 162.311 217.419 161.7C217.051 161.211 216.929 160.844 217.174 160.111C217.419 159.256 217.542 158.522 217.664 157.667C217.787 157.056 217.909 156.322 218.032 155.711C218.154 155.344 218.399 154.856 218.767 154.611C219.993 153.878 221.341 153.022 222.934 152.044C223.179 151.922 223.302 151.8 223.179 151.433C222.812 149.722 222.444 148.256 222.199 146.789C222.076 146.422 222.076 146.422 221.709 146.422C219.993 146.3 218.399 146.056 216.929 145.811C216.439 145.689 216.071 145.444 215.826 145.078C214.968 143.978 214.11 142.756 213.129 141.411C212.884 141.167 212.762 140.556 212.884 140.189C213.129 138.844 213.497 137.622 213.742 136.278L213.987 135.178L213.252 134.689C212.026 133.956 210.801 133.1 209.575 132.367C208.472 132.978 207.737 133.467 207.124 133.956C206.511 134.444 205.898 134.933 205.286 135.3C204.918 135.544 204.55 135.667 204.183 135.667C202.467 135.422 200.996 135.3 199.648 135.056C199.158 134.933 198.79 134.689 198.545 134.322C197.565 132.978 196.707 131.511 196.094 130.533C193.888 130.656 192.294 131.022 190.824 131.267C190.456 131.389 190.456 131.389 190.334 131.756C190.211 132.978 189.966 134.567 189.721 136.156C189.598 136.644 189.231 137.133 188.985 137.378C187.882 138.111 186.779 138.967 185.309 139.822C184.941 140.067 184.451 140.189 184.206 140.067C183.47 139.944 182.612 139.7 181.877 139.578C181.019 139.333 180.284 139.211 179.426 138.967C178.445 139.822 177.955 140.678 177.465 141.411C177.097 142.022 176.73 142.633 176.239 143.244C176.117 143.489 176.117 143.489 176.239 143.733C177.342 145.2 178.323 146.422 179.181 147.522C179.426 147.889 179.548 148.378 179.548 148.744C179.303 150.211 179.058 151.678 178.813 153.144C178.69 153.511 178.445 154 178.078 154.244C176.73 155.222 175.259 156.078 174.278 156.689C173.911 156.933 173.911 156.933 174.033 157.3C174.401 158.767 174.769 160.356 175.014 161.944C175.136 162.311 175.136 162.311 175.504 162.433C176.239 162.556 176.975 162.556 177.587 162.678C178.323 162.8 179.181 162.922 179.916 162.922C180.529 163.044 180.897 163.289 181.264 163.778C182 165 182.857 166.1 183.593 167.2C183.961 167.689 184.083 168.178 183.961 168.667C183.715 169.4 183.593 170.256 183.348 170.989C183.225 171.722 182.98 172.456 182.857 173.189C182.735 173.433 182.857 173.556 183.103 173.8C184.573 174.778 185.921 175.633 187.147 176.367C187.392 176.489 187.515 176.611 187.76 176.244C188.74 175.389 190.088 174.411 191.559 173.311C191.804 173.678 192.172 173.556 192.54 173.556ZM198.545 164.389C193.888 164.389 190.088 161.211 189.108 156.689C188.005 151.433 191.314 146.3 196.584 145.2C197.319 145.078 197.932 144.956 198.668 144.956C203.325 144.956 207.124 148.133 208.227 152.656C208.84 155.222 208.35 157.789 206.879 159.989C205.531 162.189 203.325 163.656 200.751 164.267C199.893 164.267 199.158 164.389 198.545 164.389ZM198.545 145.689C197.932 145.689 197.197 145.811 196.584 145.933C191.682 147.033 188.618 151.678 189.598 156.567C190.456 160.844 194.133 163.778 198.422 163.778C199.035 163.778 199.771 163.656 200.383 163.533C202.712 163.044 204.795 161.578 206.021 159.622C207.369 157.667 207.737 155.222 207.247 152.9C206.389 148.5 202.835 145.689 198.545 145.689Z" fill="#1A1A1A"/>
<path d="M177.71 95.6999C175.872 95.6999 173.911 95.211 171.95 94.3555C168.396 92.7666 165.332 90.1999 162.635 86.6555C159.449 82.3777 156.875 77.4888 154.792 71.011C154.301 69.4222 153.811 67.8333 153.321 66.1222C153.076 65.3888 152.831 64.5333 152.708 63.7999C152.953 63.311 159.694 61.4777 159.694 61.4777C160.429 61.2333 161.042 61.111 161.777 60.8666C162.39 60.7444 162.758 60.9888 162.88 61.2333C166.067 65.511 170.111 69.5444 175.259 73.5777C176.607 74.6777 178.078 74.9222 179.793 74.5555C181.264 74.1888 182.735 73.4555 184.573 72.3555C188.495 69.911 191.927 66.7333 194.746 63.9222C199.893 58.7888 205.163 52.9222 210.801 45.711C211.046 45.3444 211.414 44.9777 212.149 45.2222C214.478 45.8333 216.806 46.5666 219.135 47.1777L221.586 47.7888C215.213 60.4999 208.595 70.1555 201.731 78.3444C198.3 82.4999 194.01 87.2666 188.74 91.0555C187.27 92.1555 185.676 93.1333 183.715 94.111C181.754 95.211 179.671 95.6999 177.71 95.6999ZM153.321 63.7999C153.566 64.5333 153.688 65.1444 153.934 65.7555C154.424 67.4666 154.792 69.0555 155.404 70.6444C157.488 76.9999 159.939 81.8888 163.125 86.0444C165.822 89.5888 168.763 92.0333 172.195 93.6222C175.994 95.3333 179.793 95.3333 183.348 93.4999C185.309 92.5222 186.902 91.5444 188.25 90.4444C193.397 86.6555 197.687 82.011 200.996 77.8555C207.859 69.6666 214.478 60.011 221.341 48.5222C221.218 48.3999 218.89 47.7888 218.89 47.7888C216.561 47.1777 214.232 46.5666 211.904 45.8333C211.659 45.711 211.659 45.5888 211.291 46.0777C205.653 53.1666 200.383 59.1555 195.113 64.2888C192.294 67.0999 188.863 70.2777 184.818 72.8444C182.98 74.0666 181.387 74.7999 179.793 75.1666C177.833 75.6555 176.117 75.2888 174.646 74.0666C169.499 69.911 165.332 65.8777 162.145 61.4777C161.165 61.5999 160.429 61.7222 159.694 61.9666L153.321 63.7999Z" fill="#1A1A1A"/>
<path d="M39.5864 97.1666C39.2187 96.6777 39.3413 96.5555 39.4639 96.4333L70.8389 86.2889C71.084 86.1666 71.2065 86.2889 71.3291 86.5333C71.4517 86.7777 71.3291 86.9 71.084 87.0222L39.5864 97.1666Z" fill="#1A1A1A"/>
<path d="M76.2314 66.1222C75.9863 66.1222 33.8262 39.2333 33.8262 39.2333C33.7036 39.111 33.581 38.8666 33.7036 38.7444C33.8262 38.6222 34.0713 38.4999 34.1938 38.6222L76.4765 65.511C76.5991 65.6333 76.7217 65.8777 76.5991 65.9999C76.4765 65.9999 76.354 66.1222 76.2314 66.1222Z" fill="#1A1A1A"/>
<path d="M91.7964 39.4778C91.6738 39.4778 91.4287 39.3555 91.4287 39.1111L89.5903 24.2C89.5903 23.9555 89.7129 23.8333 89.958 23.8333C90.2031 23.8333 90.3257 23.9555 90.3257 24.2L92.1641 39.1111C92.2866 39.3555 92.0415 39.4778 91.7964 39.4778C91.9189 39.4778 91.9189 39.4778 91.7964 39.4778Z" fill="#1A1A1A"/>
<path d="M122.436 76.1444C122.191 76.0222 119.617 73.9444 119.617 73.9444C119.617 73.3333 122.436 70.8888 122.436 70.8888C122.559 70.7666 122.804 70.7666 122.926 70.8888C123.049 71.0111 123.049 71.2555 122.926 71.3777L120.353 73.5777L122.681 75.4111C122.804 75.5333 122.804 75.7777 122.681 75.9C122.681 76.1444 122.559 76.1444 122.436 76.1444Z" fill="#1A1A1A"/>
<path d="M103.439 75.1666C102.704 74.5555 102.827 73.2111 104.052 67.8333C104.175 67.4666 104.175 67.2222 104.175 67.2222C104.175 66.9778 104.297 66.8555 104.542 66.8555C104.788 66.8555 104.91 66.9778 104.91 67.2222C104.91 67.3444 104.91 67.3444 104.788 67.9555C103.685 72.4777 103.562 73.9444 103.562 74.3111C104.052 74.1889 105.033 73.7 105.523 73.4555C105.645 73.3333 105.891 73.4555 106.013 73.5778C106.136 73.7 106.013 73.9444 105.891 74.0666C105.768 74.3111 104.297 75.1666 103.439 75.1666Z" fill="#1A1A1A"/>
<path d="M106.381 78.3444C106.258 78.3444 103.439 77.8555 101.724 77.8555C101.479 77.8555 101.356 77.7333 101.356 77.4889C101.356 77.2444 101.479 77.1222 101.724 77.1222C103.562 77.2444 106.381 77.6111 106.503 77.6111C106.749 77.6111 106.871 77.8555 106.749 77.9777C106.749 78.2222 106.626 78.3444 106.381 78.3444Z" fill="#1A1A1A"/>
<path d="M110.425 71.3778C110.058 71.3778 109.812 71.0111 109.812 70.7666L109.935 69.0555C109.935 68.6889 110.303 68.4444 110.548 68.5666C110.916 68.5666 111.161 68.9333 111.038 69.1778V70.8889C111.038 71.1333 110.793 71.3778 110.425 71.3778Z" fill="#1A1A1A"/>
<path d="M101.233 70.5222C100.866 70.5222 100.621 70.1555 100.743 69.9111L100.866 68.1999C100.866 67.8333 101.233 67.5888 101.478 67.7111C101.846 67.7111 102.091 68.0777 101.969 68.3222L101.846 70.0333C101.846 70.3999 101.601 70.6444 101.233 70.5222Z" fill="#1A1A1A"/>
<path d="M112.141 67.8333L109.322 67.5889C109.077 67.5889 108.955 67.3444 108.955 67.2222C108.955 66.9778 109.2 66.8555 109.322 66.8555L112.141 67.1C112.386 67.1 112.509 67.3444 112.509 67.4666C112.509 67.5889 112.386 67.8333 112.141 67.8333Z" fill="#1A1A1A"/>
<path d="M103.072 67.0999L100.253 66.9777C100.008 66.9777 99.8853 66.8555 99.8853 66.6111C99.8853 66.3666 100.008 66.2444 100.253 66.2444L103.072 66.3666C103.317 66.3666 103.439 66.4888 103.439 66.7333C103.439 66.9777 103.194 67.0999 103.072 67.0999Z" fill="#1A1A1A"/>
<path d="M109.69 94.3555C104.542 94.2333 102.459 91.3 102.459 91.1778C102.336 91.0555 102.336 90.8111 102.581 90.6889C102.704 90.5666 102.949 90.5666 103.072 90.8111C103.072 90.8111 105.033 93.6222 109.445 93.7444C111.651 93.7444 116.676 93.2555 118.882 91.1778C119.004 91.0555 119.249 91.0555 119.372 91.1778C119.495 91.3 119.495 91.5444 119.372 91.6666C117.043 93.8666 112.386 94.3555 109.69 94.3555Z" fill="#1A1A1A"/>
<path d="M214.478 127.967C214.11 127.722 214.11 127.478 214.232 127.356C226.733 116.356 233.106 104.744 233.106 92.7666V33.1222C233.106 28.4778 229.92 24.2 225.263 22.6111L189.108 9.65554C186.412 8.67776 183.348 8.67776 180.651 9.65554L144.497 22.4889C139.839 24.0778 136.653 28.3555 136.653 33V78.8333C136.653 79.0778 136.53 79.2 136.285 79.2C136.04 79.2 135.917 79.0778 135.917 78.8333V33.1222C135.917 28.1111 139.227 23.5889 144.251 21.8778L180.406 9.04443C183.348 8.06665 186.534 8.06665 189.353 9.04443L225.508 21.8778C230.41 23.5889 233.842 28.1111 233.842 33.1222V92.7666C233.842 104.867 227.346 116.722 214.723 127.844C214.723 127.844 214.6 127.967 214.478 127.967Z" fill="#1A1A1A"/>
<path d="M106.381 87.8777C105.278 87.8777 104.175 87.7555 103.072 87.511C100.253 86.5333 98.6596 84.5777 98.1694 81.8888C97.6791 79.1999 98.0468 76.511 98.2919 73.9444L98.4145 72.4777C98.9047 68.0777 99.5175 63.1888 101.111 59.2777C101.233 59.0333 101.356 59.0333 101.601 59.0333C101.846 59.1555 101.846 59.2777 101.846 59.5222C100.375 63.311 99.7626 68.1999 99.2724 72.4777L99.1499 73.8222C98.7822 76.3888 98.5371 79.0777 98.9047 81.6444C99.395 84.0888 100.743 85.7999 102.827 86.5333C105.4 87.2666 107.852 87.0222 109.69 86.7777C109.935 86.7777 110.058 86.8999 110.058 87.0222C110.058 87.2666 109.935 87.3888 109.812 87.3888C108.832 87.7555 107.606 87.8777 106.381 87.8777Z" fill="#1A1A1A"/>
<path d="M107.974 119.778C107.729 119.778 107.606 119.533 107.606 119.411L108.587 105.722C108.587 105.6 110.548 100.956 110.548 100.956C110.67 100.711 110.793 100.711 111.038 100.711C111.283 100.833 111.283 100.956 111.283 101.2L109.322 105.722L108.342 119.289C108.342 119.533 108.219 119.778 107.974 119.778Z" fill="#1A1A1A"/>
<path d="M108.955 106.089C108.832 106.089 105.033 105.355 105.033 105.355C104.788 105.355 104.665 105.111 104.788 104.867C104.788 104.622 105.033 104.5 105.278 104.622L109.077 105.355C109.322 105.355 109.445 105.6 109.322 105.844C109.322 105.967 109.2 106.089 108.955 106.089Z" fill="#1A1A1A"/>
<path d="M100.253 118.067C99.8853 117.944 99.8853 117.7 99.8853 117.578L104.788 104.867L103.807 99.7333C103.807 99.4888 103.93 99.3666 104.052 99.2444C104.297 99.2444 104.42 99.3666 104.542 99.4888L105.646 104.744C105.646 104.989 100.743 117.822 100.743 117.822C100.498 118.067 100.375 118.067 100.253 118.067Z" fill="#1A1A1A"/>
<path d="M222.812 131.511C222.444 131.267 222.444 131.022 222.566 130.9C235.067 118.922 241.44 106.089 241.44 92.7666V33.1222C241.44 24.9333 236.048 17.6 228.082 14.7889L191.927 1.95552C187.392 0.366629 182.367 0.366629 177.955 1.95552L141.678 14.6666C133.711 17.4777 128.319 24.8111 128.319 33V37.2777C128.319 37.5222 128.196 37.6444 127.951 37.6444C127.706 37.6444 127.583 37.5222 127.583 37.2777V33C127.583 24.5666 133.099 16.8666 141.433 13.9333L177.71 1.22218C182.367 -0.366705 187.515 -0.366705 192.172 1.22218L228.327 14.0555C236.538 16.9889 242.176 24.5666 242.176 33.1222V92.7666C242.176 106.333 235.803 119.411 223.057 131.389C223.057 131.511 222.934 131.511 222.812 131.511Z" fill="#1A1A1A"/>
<path d="M121.823 78.3444C121.578 78.3444 121.456 78.3444 121.21 78.3444C120.353 78.2222 119.495 77.7333 118.882 76.8777C118.759 76.7555 118.759 76.5111 119.004 76.3888C119.127 76.2666 119.372 76.2666 119.495 76.5111C119.985 77.1222 120.598 77.4888 121.333 77.6111C121.578 77.6111 121.946 77.6111 122.191 77.6111C122.926 77.4888 123.539 77.1222 124.152 76.5111C124.765 75.8999 125.132 75.0444 125.255 74.0666C125.5 72.8444 125.255 71.6222 124.52 70.6444C124.397 70.3999 124.274 70.2777 124.029 70.1555C123.662 69.7888 123.171 69.5444 122.559 69.4222C121.456 69.2999 119.74 69.6666 118.882 70.7666C118.514 71.2555 118.269 71.2555 118.146 71.1333C118.024 71.0111 117.901 70.7666 118.024 70.6444C119.372 69.0555 121.333 68.5666 122.681 68.6888C123.416 68.8111 124.029 69.1777 124.52 69.5444C124.765 69.7888 124.887 69.9111 125.132 70.1555C125.868 71.2555 126.113 72.5999 125.99 74.0666C125.868 75.1666 125.377 76.1444 124.642 76.8777C124.029 77.6111 123.171 78.0999 122.313 78.2222C122.068 78.3444 121.946 78.3444 121.823 78.3444Z" fill="#1A1A1A"/>
<path d="M124.887 70.8888C124.52 70.7666 124.52 70.5222 124.52 70.2777C129.422 62.2111 127.338 60.0111 125.99 58.7888C124.887 57.6888 123.662 57.4444 123.662 57.4444C123.416 57.4444 123.294 57.2 123.416 57.0777C123.416 56.8333 123.662 56.7111 123.784 56.8333C123.784 56.8333 125.255 57.0777 126.235 58.1777C127.951 59.8888 130.28 62.3333 125.132 70.8888C125.132 70.7666 125.01 70.8888 124.887 70.8888Z" fill="#1A1A1A"/>
<path d="M118.759 70.8889C118.392 70.5222 116.186 66.9778 117.411 61.7222C117.411 61.4778 117.656 61.3555 117.901 61.4778C118.147 61.4778 118.269 61.7222 118.147 61.9666C116.921 66.9778 119.004 70.4 119.004 70.4C119.127 70.5222 119.004 70.7666 118.882 70.8889H118.759Z" fill="#1A1A1A"/>
<path d="M121.701 86.2889C121.456 86.2889 121.333 86.0444 121.333 85.9222L121.946 77.9777C121.946 77.7333 122.068 77.6111 122.313 77.6111C122.559 77.6111 122.681 77.8555 122.681 77.9777L122.068 85.9222C122.068 86.1666 121.823 86.2889 121.701 86.2889Z" fill="#1A1A1A"/>
<path d="M112.999 106.089C112.631 105.844 107.852 94.8444 107.852 94.8444L101.233 104.622C101.111 104.744 100.866 104.867 100.743 104.744C100.621 104.622 100.498 104.378 100.621 104.255L107.606 93.9888C108.219 93.9888 113.244 105.722 113.244 105.722C113.367 105.967 113.244 106.089 112.999 106.211C112.999 106.089 112.999 106.089 112.999 106.089Z" fill="#1A1A1A"/>
<path d="M120.353 122.344C119.985 122.222 119.985 121.978 119.985 121.733L124.397 114.644L121.701 107.189C121.946 106.7 128.564 104.5 128.564 104.5L124.397 91.7888L121.701 86.7777C121.333 87.6333 120.475 89.3444 119.495 91.5444C117.166 96.6777 113.734 104.5 110.67 113.056C109.935 115.133 109.322 117.089 108.587 119.656C108.587 119.9 108.342 119.9 108.097 119.9C107.852 119.9 107.852 119.656 107.852 119.411C108.587 116.844 109.2 114.889 110.058 112.811C113.122 104.256 116.553 96.3111 118.882 91.3C120.353 88 121.456 85.9222 121.456 85.9222C122.068 85.9222 125.255 91.7888 125.255 91.7888L129.544 104.867C129.667 105.111 129.544 105.233 129.299 105.356L122.681 107.556L125.377 114.767C125.377 115.133 120.843 122.344 120.843 122.344C120.598 122.344 120.475 122.344 120.353 122.344Z" fill="#1A1A1A"/>
<path d="M100.743 153.878C100.375 153.389 101.356 147.4 103.072 139.089C103.072 138.844 103.317 138.722 103.562 138.844C103.807 138.844 103.93 139.089 103.807 139.333C102.581 144.956 101.846 149.478 101.478 151.922L108.587 140.433C108.709 140.311 108.955 140.189 109.077 140.311C109.2 140.433 109.322 140.678 109.2 140.8L101.111 153.756C100.988 153.878 100.866 153.878 100.743 153.878Z" fill="#1A1A1A"/>
<path d="M43.7534 194.578C21.0801 194.578 2.57373 176.122 2.57373 153.511C2.57373 130.9 21.0801 112.444 43.7534 112.444C50.7393 112.444 56.4995 113.789 61.8921 116.6C62.0146 116.722 62.1372 116.967 62.0146 117.089C61.8921 117.333 61.647 117.333 61.5244 117.333C56.2544 114.522 50.6167 113.3 43.7534 113.3C21.4478 113.3 3.30908 131.389 3.30908 153.633C3.30908 175.878 21.4478 193.967 43.7534 193.967C49.2686 193.967 54.6611 192.867 59.8086 190.667C60.0537 190.544 60.1763 190.667 60.2988 190.911C60.4214 191.156 60.2988 191.278 60.0537 191.4C54.9063 193.478 49.3911 194.578 43.7534 194.578Z" fill="#1A1A1A"/>
<path d="M69.981 185.289C69.6133 185.044 69.6133 184.8 69.7359 184.678C73.4127 181.622 76.5992 177.956 78.9278 173.8C79.0504 173.678 79.2955 173.556 79.418 173.678C79.5406 173.8 79.6631 174.044 79.5406 174.167C77.0894 178.322 73.9029 182.111 70.1036 185.167C70.2261 185.289 70.1036 185.289 69.981 185.289Z" fill="#1A1A1A"/>
<path d="M46.082 187.367H40.1992C39.9541 187.367 39.8315 187.244 39.8315 187V180.278C31.4976 179.178 26.5952 174.411 24.7568 165.856C24.7568 165.611 24.8794 165.489 25.002 165.367L34.3164 162.922C34.439 162.922 34.6841 162.922 34.8066 163.167C34.9292 163.411 35.0518 163.778 35.0518 164.022C35.1743 164.389 35.2969 164.756 35.4194 165.122C36.1548 167.444 37.748 169.278 39.8315 170.256C41.915 171.233 44.3662 171.233 46.5723 170.378C48.5332 169.522 49.6362 167.933 49.7588 165.611C49.8813 163.656 49.0234 162.067 47.3076 161.211C45.5918 160.478 43.876 159.744 42.1602 159.011C41.3022 158.644 40.5669 158.4 39.709 158.033C39.2188 157.789 38.8511 157.667 38.3608 157.544C37.5029 157.178 36.5225 156.811 35.6646 156.444C28.9238 153.267 25.8599 148.011 26.7178 140.678C27.5757 133.589 31.7427 129.189 38.9736 127.6C39.709 127.356 39.709 122.222 39.709 122.222C39.709 121.978 39.8315 121.856 40.0767 121.856H45.9595C46.2046 121.856 46.3271 121.978 46.3271 122.222L46.4497 127.233C47.0625 127.356 48.4106 127.722 50.8618 128.578C53.4355 129.556 55.3965 131.022 56.9897 133.1C57.1123 133.222 57.1123 133.467 56.8672 133.589C56.7446 133.711 56.4995 133.711 56.377 133.467C54.9062 131.511 52.9453 130.044 50.4941 129.189C47.1851 127.967 45.9595 127.844 45.9595 127.844C45.5918 127.478 45.4692 122.467 45.4692 122.467H40.4443V127.478C39.4639 128.089 39.3413 128.089 39.0962 128.089C32.1104 129.556 28.1885 133.711 27.3306 140.556C26.4727 147.522 29.4141 152.533 35.9097 155.589C36.7676 155.956 37.748 156.322 38.606 156.689C39.0962 156.811 39.5864 157.056 39.9541 157.178C40.812 157.544 41.5474 157.789 42.4053 158.156C44.1211 158.889 45.9595 159.5 47.6753 160.356C49.6362 161.333 50.7393 163.167 50.6167 165.367C50.4941 167.933 49.146 169.767 46.9399 170.744C44.4888 171.722 41.915 171.722 39.5864 170.622C37.2578 169.522 35.542 167.567 34.8066 165C34.6841 164.633 34.5615 164.267 34.439 163.9C34.3164 163.778 34.3164 163.533 34.1938 163.411L25.6147 165.611C27.4531 173.678 32.2329 178.2 40.3218 179.178C40.4443 179.178 40.6895 179.3 40.6895 179.544V186.267H45.8369V179.544C46.082 179.178 46.6948 179.056 46.6948 179.056C47.4302 178.933 47.9204 178.689 48.5332 178.567C55.3965 177.222 59.9312 172.7 60.6665 166.344C61.647 158.767 58.9507 153.756 52.21 150.578C50.9844 149.967 49.7588 149.478 48.6558 148.989C48.043 148.744 47.3076 148.5 46.6948 148.133C46.082 147.889 45.4692 147.644 44.8564 147.4C43.2632 146.789 41.6699 146.056 40.0767 145.322C37.8706 144.222 37.0127 142.389 37.3804 139.7C37.748 137.378 39.2187 135.789 41.4248 135.178C44.3662 134.444 46.9399 135.178 48.6558 137.378C49.5137 138.356 50.1265 139.456 50.7393 140.556C50.9844 140.922 51.2295 141.411 51.4746 141.778L54.1709 140.678C54.416 140.556 54.5386 140.678 54.6611 140.922C54.7837 141.167 54.6611 141.289 54.416 141.411L51.3521 142.633C50.6167 142.022 50.249 141.533 50.0039 140.922C49.3911 139.822 48.7783 138.722 47.9204 137.744C45.9595 135.178 43.2632 135.3 41.4248 135.789C39.4639 136.278 38.2383 137.744 37.8706 139.7C37.5029 142.022 38.2383 143.611 40.1992 144.467C41.7925 145.2 43.3857 145.933 44.979 146.544C45.5918 146.789 46.2046 147.033 46.8174 147.278C47.4302 147.522 48.043 147.767 48.7783 148.011C50.0039 148.5 51.2295 148.989 52.4551 149.6C59.4409 153.022 62.2598 158.278 61.2793 166.1C60.4214 172.7 55.519 177.589 48.5332 178.933C47.9204 179.056 47.3076 179.178 46.6948 179.3C46.4497 179.3 46.4497 186.144 46.4497 186.144C46.4497 187.122 46.3271 187.367 46.082 187.367Z" fill="#1A1A1A"/>
<path d="M250.632 198H2.57373C2.32861 198 2.20605 197.878 2.20605 197.633C2.20605 197.389 2.32861 197.267 2.57373 197.267H250.632C250.877 197.267 251 197.389 251 197.633C251 197.878 250.877 198 250.632 198Z" fill="#1A1A1A"/>
<path d="M165.577 135.789C163.983 133.222 162.268 130.044 160.307 126.378C156.875 120.144 143.148 104.622 138.001 101.2C137.878 101.078 137.756 100.833 137.878 100.711C138.001 100.589 138.246 100.467 138.369 100.589C143.639 104.133 157.365 119.655 160.919 126.011C162.88 129.678 164.596 132.855 165.944 135.3C166.067 135.422 165.944 135.667 165.822 135.789C165.699 135.789 165.577 135.789 165.577 135.789Z" fill="#1A1A1A"/>
<path d="M242.053 198C233.964 185.289 224.527 176.367 213.742 171.233C213.62 171.111 213.497 170.989 213.62 170.744C213.742 170.5 213.865 170.5 214.11 170.622C225.018 175.756 234.577 184.8 242.421 197.389C242.543 197.511 242.421 197.756 242.298 197.878C242.176 198 242.053 198 242.053 198Z" fill="#1A1A1A"/>
<path d="M72.5547 143.733C69.0005 143.733 65.4463 143 62.75 140.678C61.1568 139.333 59.9312 137.378 59.1958 135.178C58.7056 133.589 57.8477 130.411 58.7056 127.844C59.0733 126.5 59.6861 125.156 60.544 123.567C62.5049 119.9 65.2012 116.6 67.1622 114.156C70.9615 109.633 75.1285 105.233 79.9082 100.711C83.3399 97.5333 88.3648 95.3333 92.6543 93.3778C95.2281 92.2778 97.6792 91.1778 99.5176 89.9555C99.6402 89.8333 99.8853 89.9555 100.008 90.0778C100.13 90.2 100.008 90.4444 99.8853 90.5666C98.0469 91.7889 95.4732 92.8889 92.8995 93.9889C88.6099 95.9444 83.7076 98.0222 80.2759 101.2C75.4961 105.722 71.3291 110 67.5298 114.522C65.4463 116.967 62.8726 120.267 60.9117 123.811C60.0538 125.4 59.441 126.744 59.0733 127.967C58.3379 130.411 59.0733 133.344 59.5635 134.933C60.2989 137.011 61.4019 138.844 62.8726 140.067C67.1622 143.733 73.5352 143.122 79.1729 142.267C85.3008 141.411 90.816 139.822 97.189 137.133C97.4341 137.011 97.5567 137.133 97.6792 137.378C97.8018 137.622 97.6792 137.744 97.4341 137.867C91.0611 140.433 85.3008 142.144 79.1729 143C77.3345 143.489 74.8833 143.733 72.5547 143.733Z" fill="#1A1A1A"/>
<path d="M140.575 198H77.9473C77.5796 197.389 80.2759 170.5 81.2564 158.033C82.1143 147.522 82.6045 142.267 82.6045 142.144C82.6045 141.9 82.8496 141.778 82.9722 141.778C83.2173 141.778 83.3399 142.022 83.3399 142.144C83.3399 142.144 82.8496 147.522 81.9917 158.033C81.1338 169.767 78.6826 193.844 78.315 197.267H140.085C139.227 193.111 132.608 160.233 132.241 151.067C132.118 149.111 132.486 147.278 133.466 144.833C133.589 144.589 133.711 144.589 133.957 144.589C134.202 144.711 134.202 144.833 134.202 145.078C133.344 147.4 132.976 149.111 133.099 151.067C133.466 160.722 140.942 197.144 141.065 197.511C140.82 198 140.697 198 140.575 198Z" fill="#1A1A1A"/>
<path d="M241.808 198C236.661 191.644 225.63 180.767 207.124 177.833C206.879 177.833 206.756 177.589 206.879 177.467C206.879 177.222 207.124 177.1 207.247 177.222C226.121 180.156 237.151 191.278 242.176 197.511C242.298 197.633 242.298 197.878 242.053 198C241.931 198 241.808 198 241.808 198Z" fill="#1A1A1A"/>
<path d="M68.6328 123.078C70.3486 119.289 74.8833 117.089 81.2564 116.111C81.5015 116.111 81.624 116.233 81.624 116.356C81.624 116.6 81.5015 116.722 81.3789 116.722C75.6187 117.7 71.4517 119.533 69.3682 122.222L79.2954 122.1C79.5405 122.1 79.6631 122.222 79.6631 122.467C79.6631 122.711 79.5405 122.833 79.2954 122.833L68.6328 123.078Z" fill="#1A1A1A"/>
<path d="M136.653 145.567C135.182 145.567 133.589 145.444 131.873 145.2C103.685 141.778 76.8442 131.144 76.5991 131.022C76.4766 130.9 76.354 130.778 76.354 130.533L81.624 113.667C81.624 113.544 81.8691 113.422 81.9917 113.422L130.893 123.811C131.138 123.811 131.26 124.056 131.138 124.3C131.138 124.544 130.893 124.667 130.647 124.544L81.9917 114.278L77.2119 130.533C80.2759 131.756 105.646 141.289 131.996 144.589C141.555 145.811 148.296 143.489 151.482 138.111C155.895 130.533 152.463 118.8 146.825 111.1C136.163 96.8 124.52 91.6666 124.397 91.6666C124.152 91.5444 124.152 91.4222 124.152 91.1777C124.274 90.9333 124.397 90.9333 124.642 90.9333C124.765 90.9333 136.53 96.1888 147.193 110.489C153.076 118.311 156.507 130.411 151.973 138.233C150.012 141.778 145.722 145.567 136.653 145.567Z" fill="#1A1A1A"/>
<path d="M100.743 153.878C100.375 153.633 96.3311 138.111 96.3311 138.111C96.3311 137.867 96.4536 137.744 96.5762 137.622C96.8213 137.622 96.9438 137.744 97.0664 137.867L100.13 149.6C100.008 146.789 99.7627 142.756 99.5176 138.111C99.5176 137.867 99.6401 137.744 99.8853 137.744C100.13 137.744 100.253 137.867 100.253 138.111C100.498 146.667 101.111 153.267 101.111 153.389C101.111 153.756 100.988 153.878 100.743 153.878Z" fill="#1A1A1A"/>
<path d="M99.8853 118.067C99.6401 118.067 99.5176 117.944 99.5176 117.7C99.7627 112.322 100.13 108.778 100.621 104.989L100.743 104.378C101.724 94.4777 102.949 88.7333 102.949 88.611V88.1222L97.0664 93.7444L90.6934 103.155L94.2476 106.455C94.3701 106.944 90.5708 113.789 90.5708 113.789L91.061 115.5C91.061 115.744 90.9385 115.867 90.8159 115.989C90.5708 115.989 90.4482 115.867 90.3257 115.744L89.8354 113.789C89.8354 113.544 93.5122 106.7 93.5122 106.7L89.958 103.278C89.958 102.789 96.331 93.011 96.331 93.011L102.827 86.7777C103.439 87.0222 103.439 88.4888 103.439 88.4888C103.439 88.611 102.214 94.3555 101.233 104.255L101.111 104.867C100.743 108.655 100.375 112.2 100.008 117.578C100.253 117.822 100.008 118.067 99.8853 118.067Z" fill="#1A1A1A"/>
<path d="M66.059 123.933C65.6913 123.567 65.6913 123.322 65.9365 123.2C65.9365 123.2 67.4072 122.589 68.6327 122.344C68.8779 122.344 69.0004 122.467 69.0004 122.589C69.0004 122.833 68.8779 122.956 68.7553 122.956C67.6523 123.2 66.3041 123.811 66.3041 123.811C66.1816 123.933 66.059 123.933 66.059 123.933Z" fill="#1A1A1A"/>
<path d="M100.253 64.5333C99.8853 64.2888 93.0221 56.3444 99.0274 50.4777C102.704 46.9333 108.219 50.111 109.322 50.8444C110.18 50.2333 113.612 48.2777 118.759 50.3555C122.559 51.8222 123.907 56.8333 124.029 56.9555C124.029 57.1999 123.907 57.3222 123.784 57.4444C123.539 57.4444 123.417 57.3222 123.294 57.1999C123.294 57.1999 121.946 52.4333 118.514 51.0888C112.877 48.8888 109.69 51.5777 109.567 51.6999C109.077 51.6999 103.194 47.5444 99.5177 51.0888C93.88 56.5888 100.376 64.0444 100.498 64.0444C100.621 64.1666 100.621 64.411 100.498 64.5333C100.376 64.411 100.376 64.5333 100.253 64.5333Z" fill="#1A1A1A"/>
<path d="M114.102 61.9666C109.445 61.9666 101.846 61.4778 100.253 58.4222C100.13 58.3 100.253 58.0555 100.375 57.9333C100.498 57.8111 100.743 57.9333 100.866 58.0555C102.582 61.3555 113.612 61.3555 117.656 61.1111C117.901 61.1111 118.024 61.2333 118.024 61.4778C118.024 61.7222 117.901 61.8444 117.656 61.8444C117.534 61.8444 116.063 61.9666 114.102 61.9666Z" fill="#1A1A1A"/>
</svg>
