<svg width="268" height="173" viewBox="0 0 268 173" fill="none" xmlns="http://www.w3.org/2000/svg">
<path d="M125.416 128.261L141.61 153.67C144.289 157.803 141.245 163.274 136.253 163.274H92.6615C90.4698 163.274 88.5216 162.18 87.304 160.356L69.0395 131.422C66.3608 127.288 69.4048 121.817 74.3971 121.817H117.988C120.18 121.817 122.128 122.911 123.346 124.735L125.416 128.261Z" fill="#0CD494"/>
<path d="M101.55 129.841C101.55 129.841 103.255 127.045 106.421 129.355L124.563 145.646C124.563 145.646 126.268 148.077 122.737 148.442H98.7497C98.7497 148.442 93.5139 148.685 94.8533 144.916L101.55 129.841Z" fill="white"/>
<path d="M208.458 61.8813L247.787 123.884C254.241 134.096 246.935 147.348 234.881 147.348H128.703C123.468 147.348 118.597 144.673 115.796 140.175L71.1095 69.9052C64.6561 59.6929 71.9619 46.4413 84.0164 46.4413H190.194C195.429 46.4413 200.3 49.116 203.1 53.6142L208.458 61.8813Z" fill="white"/>
<path d="M176.556 98.1103L169.494 86.9255L168.52 85.4666C167.911 84.6156 166.937 84.0078 165.963 84.0078H146.846C145.75 84.0078 144.654 84.6156 144.167 85.5882C143.558 86.5608 143.68 87.7766 144.289 88.7491L152.325 101.393C152.934 102.244 153.908 102.852 154.882 102.852H164.136H166.206H174.121C175.217 102.852 176.313 102.244 176.8 101.271C177.165 100.299 177.165 99.0829 176.556 98.1103Z" fill="#0CD494"/>
<path d="M221.121 65.7716C221.121 65.7716 222.704 65.1637 224.774 65.7716C226.722 66.3795 227.453 67.7168 227.575 69.7836C227.696 71.8503 225.992 74.5249 221.974 73.5524C221.974 73.5524 215.764 74.4034 214.181 77.4427C212.598 80.4821 212.598 80.9684 212.598 80.9684C212.598 80.9684 211.38 85.5882 213.207 87.8981C213.207 87.8981 206.144 88.8707 205.049 91.4237C205.049 91.4237 201.152 90.0864 199.691 89.7217C198.23 89.357 196.403 87.1687 195.064 85.7098C193.725 84.2509 191.168 82.0625 191.168 81.2115C191.168 80.4821 191.411 79.1448 192.264 79.0232C193.238 78.78 195.064 78.9016 197.012 81.2115C198.96 83.5214 200.3 84.1293 200.3 83.643C200.3 83.1567 197.621 79.9958 195.186 78.0506C192.751 76.1054 189.098 73.3092 188.489 72.7013C188.002 72.0935 188.732 70.3914 189.463 70.0267C190.194 69.662 191.411 69.4188 193.481 70.9993C195.551 72.5798 197.256 73.9171 197.256 73.9171C197.256 73.9171 200.056 71.6072 203.344 73.4308C203.344 73.4308 204.683 72.4582 206.388 73.1876L206.632 71.9719C206.632 71.9719 203.709 69.2973 203.831 68.3247C203.953 67.3521 208.823 63.948 208.823 63.948L209.797 56.4104C209.797 56.4104 211.38 61.0302 215.52 63.7048C219.66 66.0148 221.121 65.7716 221.121 65.7716Z" fill="white"/>
<path d="M144.898 96.4083C144.898 96.4083 142.463 97.9888 143.315 100.663C143.315 100.663 140.88 102.001 141.975 106.013C143.071 110.025 144.532 113.307 147.211 116.103C149.89 118.778 154.152 120.966 154.395 121.939C154.395 121.939 156.587 119.629 159.996 116.954C163.406 114.401 166.084 113.186 166.084 113.186C166.084 113.186 160.849 104.797 159.875 102.487C158.9 100.177 157.318 96.8946 155.004 97.5025C152.691 98.1104 153.056 100.542 153.786 102.487C154.517 104.311 156.465 107.958 154.395 108.444C152.325 108.809 150.864 104.919 150.864 104.919C150.864 104.919 150.134 104.554 148.429 101.758C146.724 98.9614 144.898 96.6515 144.898 96.6515V96.4083Z" fill="white"/>
<path d="M212.111 49.7238C215.885 46.1982 221 47.4139 223.8 48.5081C226.601 49.6023 228.671 50.4533 229.888 51.9122C229.888 51.9122 234.272 53.3711 236.463 54.7084C238.655 56.0457 240.116 58.7203 239.507 62.4891C238.899 66.2579 236.463 69.4189 236.463 69.4189C236.463 69.4189 235.368 71.6072 236.829 72.5798C238.412 73.674 242.673 76.4702 242.917 83.0352C243.16 89.7217 238.777 93.2474 234.15 93.369C229.523 93.4905 223.8 91.9101 223.435 91.0591C223.435 91.0591 217.347 93.8553 213.572 88.8707C209.797 84.0078 213.572 76.8349 215.885 75.6191C218.199 74.4034 220.512 74.525 220.512 74.525C220.512 74.525 221.852 73.1877 222.704 70.9993C223.191 69.7836 221.974 67.4737 220.391 66.7442C219.295 66.2579 217.955 66.1364 217.955 66.1364C217.955 66.1364 212.72 64.9206 210.041 57.8693C209.919 57.9909 208.336 53.2495 212.111 49.7238Z" fill="#0CD494"/>
<path d="M239.02 91.7885C239.02 91.7885 241.699 94.22 243.404 100.177C243.404 100.177 250.223 112.091 252.658 119.143C255.093 126.194 259.355 136.163 255.58 142.85C251.806 149.536 244.865 148.928 243.404 148.564C243.404 148.564 242.795 153.548 243.282 159.019C243.769 164.49 244.987 172.635 244.987 172.635H191.168C191.168 172.635 192.385 167.043 192.751 164.733C193.116 162.423 193.603 158.533 193.603 158.533C193.603 158.533 188.976 161.45 179.357 156.831C169.737 152.211 160.849 138.473 158.901 134.947C156.952 131.422 153.056 123.641 153.056 123.641C153.056 123.641 161.945 114.037 170.103 111.362L185.201 128.139C185.201 128.139 189.341 119.143 192.264 112.456C195.308 105.77 199.326 95.922 203.709 92.5179C208.093 89.1139 209.919 88.2628 213.085 87.7766C213.085 87.7766 214.911 91.3022 218.077 91.7885C221.243 92.2748 223.435 91.0591 223.435 91.0591C223.435 91.0591 228.427 93.6121 232.689 93.4905C236.829 93.369 239.02 91.7885 239.02 91.7885Z" fill="#1A1A1A"/>
<path d="M178.139 12.4006L185.201 23.5854C186.419 25.409 185.08 27.8405 182.888 27.8405H163.771C162.797 27.8405 161.945 27.3542 161.458 26.5032L153.421 13.8595C152.204 12.0359 153.543 9.60437 155.735 9.60437H174.851C175.826 9.60437 176.678 10.0907 177.165 10.9417L178.139 12.4006Z" fill="#1A1A1A"/>
<path d="M99.9673 43.1588L118.719 72.8229C121.763 77.6859 118.354 84.0077 112.509 84.0077H61.8555C59.2985 84.0077 56.985 82.6704 55.6456 80.6037L34.3371 46.9276C31.2931 42.0647 34.7024 35.7428 40.5471 35.7428H91.3222C93.8792 35.7428 96.1927 37.0801 97.5321 39.1469L99.9673 43.1588Z" fill="#0CD494"/>
<path d="M188.367 72.3367C188.367 72.3367 187.149 74.2819 189.828 75.4976L191.289 75.0113C191.289 75.0113 188.124 72.7014 188.367 72.3367Z" fill="#CCCCCC"/>
<path d="M39.8164 40.6058H107.517L103.011 33.9192C103.011 33.9192 101.915 32.4603 98.8714 31.7309C95.7056 30.7583 46.2699 31.6093 46.2699 31.6093C46.2699 31.6093 38.5988 32.3387 39.8164 40.6058Z" fill="#1A1A1A"/>
<path d="M99.4803 37.3233C98.6279 38.0527 97.1668 37.5664 96.1927 36.4722C95.2186 35.2565 95.0968 33.7976 95.9491 33.1897C96.8015 32.4603 98.2626 32.9466 99.2367 34.0408C100.211 35.1349 100.333 36.5938 99.4803 37.3233Z" fill="#3A3A3A"/>
<path d="M91.8092 37.3233C90.9569 38.0527 89.4957 37.5664 88.5216 36.4722C87.5475 35.2565 87.4258 33.7976 88.2781 33.1897C89.1305 32.4603 90.5916 32.9466 91.5657 34.0408C92.5398 35.1349 92.6616 36.5938 91.8092 37.3233Z" fill="white"/>
<path d="M84.3816 37.3233C83.5293 38.0527 82.0681 37.5664 81.094 36.4722C80.1199 35.2565 79.9982 33.7976 80.8505 33.1897C81.7028 32.4603 83.164 32.9466 84.1381 34.0408C85.1122 35.1349 85.234 36.5938 84.3816 37.3233Z" fill="white"/>
<path d="M10.5934 72.823C8.52341 74.525 4.87053 73.5524 2.43527 70.6346C1.30236e-05 67.7168 -0.365275 63.948 1.82646 62.1244C3.89642 60.4224 7.54931 61.395 9.98456 64.3128C12.4198 67.2306 12.7851 70.9994 10.5934 72.823Z" fill="#0CD494"/>
<path d="M212.111 49.7239C208.336 53.2495 209.919 58.1125 209.919 58.1125C212.598 65.0422 217.834 66.3795 217.834 66.3795C217.834 66.3795 218.199 66.3795 218.808 66.5011C216.86 64.9206 212.963 61.0302 214.424 54.83C215.52 49.8454 218.808 48.265 221.243 47.7787C218.443 47.0492 214.911 47.0492 212.111 49.7239Z" fill="white"/>
<path d="M218.93 91.9101C210.041 86.6824 216.373 76.7133 219.66 74.6465C218.808 74.7681 217.347 75.0113 215.886 75.7407C213.572 76.9565 209.797 84.0077 213.572 88.9923C215.155 91.059 217.225 91.7885 218.93 91.9101Z" fill="white"/>
<path d="M175.947 154.885C175.947 154.885 185.079 161.937 193.603 158.533C193.603 158.533 198.839 156.344 200.665 154.278C200.665 154.278 197.743 146.862 188.732 147.105C179.6 147.469 177.165 152.211 175.947 154.885Z" fill="#0CD494"/>
<path d="M188.367 159.748C174.608 159.748 160.362 141.512 152.569 123.762C152.691 123.276 155.613 119.507 160.24 116.346C166.328 112.213 169.737 110.997 169.859 110.876C170.468 111.119 188.124 128.99 193.603 139.81C193.725 140.053 193.603 140.175 193.481 140.297C193.238 140.418 193.116 140.297 192.994 140.175C187.88 129.963 171.807 113.55 169.981 111.605C169.129 111.97 165.963 113.429 160.849 116.833C156.952 119.507 154.152 122.668 153.543 123.519C161.579 141.877 176.556 160.599 190.559 158.654C205.414 156.587 211.624 137.5 218.321 112.578C218.321 112.335 218.564 112.213 218.808 112.335C219.051 112.335 219.173 112.578 219.051 112.821C212.354 137.987 205.901 157.317 190.681 159.384C189.828 159.748 189.098 159.748 188.367 159.748Z" fill="#1A1A1A"/>
<path d="M185.323 128.869C184.958 128.747 184.836 128.504 184.958 128.382C186.662 124.735 188.124 121.088 189.707 117.441C196.525 101.271 201.883 88.506 212.72 87.5334C212.963 87.5334 213.085 87.655 213.085 87.8981C213.085 88.1413 212.963 88.2628 212.72 88.2628C202.37 89.2354 197.012 101.758 190.315 117.684C188.854 121.209 187.271 124.857 185.567 128.625C185.688 128.747 185.567 128.869 185.323 128.869Z" fill="#1A1A1A"/>
<path d="M166.206 113.307C165.841 113.186 165.354 112.456 162.919 108.809C161.945 107.35 161.092 105.891 160.483 104.554C160.118 103.946 159.875 103.216 159.631 102.609C159.266 101.636 158.901 100.663 158.413 99.8124C158.292 99.5693 158.048 99.3261 157.926 98.9614C157.561 98.4751 157.196 98.1104 156.952 97.8672C156.465 97.6241 155.856 97.5025 155.369 97.7457C154.761 97.9888 154.274 98.4751 154.03 99.083C153.786 100.056 154.03 101.15 154.395 102.122C154.639 102.609 154.761 103.217 155.004 103.703C155.248 104.311 155.491 104.919 155.735 105.526C156.1 106.377 156.709 107.958 154.639 108.93C153.056 109.66 151.96 107.593 151.108 106.134C150.986 105.77 150.864 105.526 150.621 105.283C150.499 105.162 150.621 104.919 150.742 104.797C150.864 104.675 151.108 104.797 151.229 104.919C151.351 105.162 151.473 105.405 151.716 105.77C152.447 107.228 153.299 108.687 154.152 108.201C155.613 107.472 155.248 106.621 155.004 106.013C154.761 105.162 154.517 104.554 154.274 103.946C154.03 103.46 153.786 102.852 153.665 102.365C153.299 101.271 152.934 100.056 153.299 98.8398C153.543 97.9888 154.274 97.3809 155.126 97.0162C155.978 96.7731 156.709 96.7731 157.439 97.2594C158.048 97.6241 158.413 98.1104 158.657 98.5967C158.901 98.8398 159.022 99.2046 159.144 99.4477C159.631 100.42 159.996 101.393 160.483 102.365C160.727 102.973 160.97 103.703 161.336 104.311C161.945 105.648 162.797 106.985 163.771 108.444C166.206 111.97 166.693 112.699 166.693 112.699C166.815 112.821 166.815 113.064 166.693 113.186C166.328 113.307 166.206 113.307 166.206 113.307Z" fill="#1A1A1A"/>
<path d="M143.68 101.758C143.315 101.514 142.584 100.056 142.95 98.232C143.193 97.1378 143.802 96.5299 144.654 96.1652C144.898 96.0436 145.02 96.1652 145.141 96.4083C145.263 96.6515 145.141 96.7731 144.898 96.8946C144.289 97.0162 143.924 97.3809 143.68 98.3535C143.315 99.934 143.924 101.15 143.924 101.15C144.046 101.393 143.924 101.514 143.802 101.636C143.802 101.758 143.802 101.758 143.68 101.758Z" fill="#1A1A1A"/>
<path d="M148.551 110.025C145.628 106.499 143.437 101.636 143.315 101.514C143.193 101.271 143.315 101.15 143.558 101.028C143.802 100.907 143.924 101.028 144.045 101.271C144.045 101.271 146.237 106.134 148.794 109.417C148.916 109.538 148.916 109.782 148.672 109.903C148.672 110.025 148.672 110.025 148.551 110.025Z" fill="#1A1A1A"/>
<path d="M154.395 122.304C153.299 121.331 152.691 120.966 151.838 120.48C150.864 119.872 149.768 119.264 147.942 117.562C144.654 114.158 142.097 108.809 141.245 105.283C140.393 101.271 143.193 100.42 143.193 100.42C143.437 100.299 143.558 100.42 143.68 100.663C143.802 100.907 143.68 101.028 143.437 101.15C143.315 101.15 141.245 101.879 141.975 105.162C142.706 108.566 145.263 113.793 148.429 117.076C150.134 118.778 151.108 119.386 152.082 119.872C152.812 120.358 153.665 120.723 154.517 121.696C154.639 121.817 154.639 122.061 154.517 122.182C154.639 122.304 154.517 122.304 154.395 122.304Z" fill="#1A1A1A"/>
<path d="M218.564 75.2544C218.077 75.2544 217.468 75.1329 216.981 75.0113C216.129 74.6466 215.399 74.0387 214.79 73.3092C214.668 73.1877 214.668 72.9445 214.911 72.8229C215.033 72.7014 215.277 72.7014 215.399 72.9445C215.886 73.5524 216.494 74.0387 217.225 74.4034C219.173 75.1329 221.365 74.1603 222.095 72.2151C222.826 70.2699 221.852 68.0816 219.904 67.3521C218.686 66.8658 217.347 67.109 216.251 67.8384C216.129 67.96 215.886 67.96 215.764 67.7168C215.642 67.5953 215.642 67.3521 215.886 67.2305C217.103 66.2579 218.808 66.0148 220.269 66.6227C222.583 67.4737 223.8 70.1483 222.948 72.5798C222.217 74.1603 220.391 75.2544 218.564 75.2544Z" fill="#1A1A1A"/>
<path d="M218.93 73.1876C218.564 73.0661 216.616 70.2699 216.616 70.2699C216.86 69.662 220.269 68.6894 220.269 68.6894C220.512 68.6894 220.634 68.6894 220.756 68.9325C220.756 69.1757 220.756 69.2973 220.513 69.4188L217.59 70.2699L219.295 72.5798C219.417 72.7013 219.417 72.9445 219.173 73.0661C219.051 73.1876 218.93 73.1876 218.93 73.1876Z" fill="#1A1A1A"/>
<path d="M212.233 81.4547C209.919 81.2116 208.336 80.3605 207.362 78.9017C205.657 76.227 206.997 72.4582 207.119 72.3367L210.163 59.6929C210.163 59.4498 210.406 59.3282 210.65 59.4498C210.893 59.4498 211.015 59.6929 210.893 59.9361L207.849 72.5798C207.849 72.7014 206.51 76.227 207.971 78.5369C208.702 79.7527 210.163 80.4821 212.111 80.7253C212.354 80.7253 212.476 80.9684 212.476 81.09C212.598 81.3331 212.354 81.4547 212.233 81.4547Z" fill="#1A1A1A"/>
<path d="M206.997 70.7562C205.657 70.3914 205.17 69.5404 205.414 68.6894L207.362 61.8812C207.484 61.3949 207.727 61.1518 208.093 60.9086C208.458 60.6655 208.945 60.6655 209.31 60.7871C209.797 60.9086 210.041 61.1518 210.284 61.3949C210.406 61.7597 210.528 62.1244 210.406 62.4891C210.406 62.7323 210.163 62.8538 209.919 62.7323C209.676 62.7323 209.554 62.4891 209.676 62.246C209.797 62.0028 209.797 61.8812 209.676 61.7597C209.554 61.6381 209.432 61.5165 209.188 61.5165C208.701 61.3949 208.214 61.6381 208.093 62.1244L206.144 68.9325C206.023 69.4188 206.266 69.9051 206.753 70.0267C206.997 70.0267 207.24 70.0267 207.484 69.9051C207.727 69.7836 207.849 69.5404 207.849 69.4188C207.849 69.1757 208.093 69.0541 208.336 69.1757C208.58 69.1757 208.701 69.4188 208.58 69.662C208.458 70.1483 208.214 70.3914 207.849 70.6346C207.484 70.6346 207.24 70.7562 206.997 70.7562Z" fill="#1A1A1A"/>
<path d="M191.168 173C190.802 172.878 190.681 172.635 190.802 172.514C191.533 170.447 192.751 163.153 193.238 158.897C193.238 158.654 193.481 158.533 193.603 158.533C193.846 158.533 193.968 158.776 193.968 158.897C193.481 162.788 192.264 170.325 191.533 172.635C191.411 172.878 191.289 173 191.168 173Z" fill="#1A1A1A"/>
<path d="M245.717 149.293C244.135 149.293 243.16 148.807 243.039 148.685C242.795 148.564 242.795 148.32 242.917 148.199C243.039 147.956 243.282 147.956 243.404 148.077C243.647 148.199 248.396 150.509 254.728 143.336C260.573 136.771 252.049 116.103 243.039 100.299C242.917 100.056 243.039 99.934 243.16 99.8124C243.404 99.6908 243.526 99.8124 243.647 99.934C246.935 105.77 263.008 134.947 255.215 143.822C251.319 148.442 247.909 149.293 245.717 149.293Z" fill="#1A1A1A"/>
<path d="M244.987 173C244.865 173 244.622 172.878 244.622 172.757C244.622 172.635 241.699 159.262 243.16 144.916C246.205 114.644 244.987 98.4751 239.021 92.2748C238.899 92.1532 238.899 91.9101 239.021 91.7885C239.142 91.6669 239.386 91.6669 239.508 91.7885C245.717 98.1104 247.057 114.037 243.891 145.038C242.43 159.384 245.352 172.514 245.352 172.635C245.352 172.757 245.23 172.878 244.987 173Z" fill="#1A1A1A"/>
<path d="M207.971 61.5165C207.606 61.395 202.979 53.9789 202.979 53.9789C200.178 49.6023 195.551 47.0492 190.437 47.0492H171.929C171.686 47.0492 171.564 46.9276 171.564 46.6845C171.564 46.4413 171.686 46.3198 171.929 46.3198H190.437C195.795 46.3198 200.787 48.9944 203.709 53.6142L208.336 60.9087C208.458 61.0302 208.458 61.2734 208.214 61.395C208.093 61.5165 207.971 61.5165 207.971 61.5165Z" fill="#1A1A1A"/>
<path d="M150.864 47.0492H115.675C115.431 47.0492 115.309 46.9276 115.309 46.6845C115.309 46.4413 115.431 46.3198 115.675 46.3198H150.864C151.108 46.3198 151.229 46.4413 151.229 46.6845C151.229 46.9276 151.108 47.0492 150.864 47.0492Z" fill="#1A1A1A"/>
<path d="M167.789 147.834H129.069C123.711 147.834 118.719 145.16 115.797 140.54L80.12 84.2509C79.9983 84.1293 79.9983 83.8862 80.2418 83.7646C80.3635 83.643 80.6071 83.7646 80.7288 83.8862L116.405 140.053C119.206 144.43 123.833 146.983 128.947 146.983H167.667C167.911 146.983 168.033 147.105 168.033 147.348C168.155 147.591 168.033 147.834 167.789 147.834Z" fill="#1A1A1A"/>
<path d="M119.084 80.3605H68.309C65.6302 80.3605 63.195 79.0232 61.7338 76.8349L40.4253 43.0373C38.9642 40.6058 38.8424 37.688 40.1818 35.2565C41.5212 32.7035 44.0782 31.2446 47.0005 31.2446H97.7756C100.454 31.2446 102.89 32.5819 104.351 34.7702L106.908 38.7822L125.659 68.4463C127.242 70.8777 127.242 73.7955 125.903 76.227C124.442 78.7801 122.006 80.3605 119.084 80.3605ZM47.0005 31.974C44.4435 31.974 42.13 33.3113 40.9124 35.6212C39.6948 37.8096 39.6948 40.4842 41.1559 42.6725L62.4644 76.3486C63.8038 78.4153 65.9955 79.6311 68.309 79.6311H119.084C121.641 79.6311 123.955 78.2938 125.172 75.9838C126.39 73.7955 126.39 71.1209 124.929 68.9326L103.62 35.2565C102.281 33.1898 100.089 31.974 97.7756 31.974H47.0005Z" fill="#1A1A1A"/>
<path d="M73.6665 134.826C73.3012 134.704 68.6742 127.41 68.6742 127.41C67.3348 125.343 67.3348 122.79 68.4307 120.723C69.6483 118.535 71.8401 117.319 74.2753 117.319H101.672C101.915 117.319 102.037 117.441 102.037 117.684C102.037 117.927 101.915 118.049 101.672 118.049H74.3971C72.2054 118.049 70.2572 119.143 69.283 121.088C68.1872 123.033 68.3089 125.221 69.4048 127.045L74.0318 134.339C74.1536 134.461 74.1536 134.704 73.91 134.826C73.7883 134.826 73.7883 134.826 73.6665 134.826Z" fill="#1A1A1A"/>
<path d="M136.009 159.262H92.5398C90.2263 159.262 88.1564 158.168 86.9387 156.223L83.1641 150.266C83.0423 150.144 83.0423 149.901 83.2858 149.779C83.4076 149.658 83.6511 149.779 83.7729 149.901L87.5475 155.858C88.6434 157.56 90.4699 158.533 92.5398 158.533H135.887C138.079 158.533 140.027 157.439 141.001 155.493C142.097 153.548 141.976 151.36 140.88 149.536L139.662 147.591C139.54 147.469 139.662 147.226 139.784 147.105C139.906 146.983 140.149 147.105 140.271 147.226L141.488 149.171C142.828 151.238 142.828 153.791 141.732 155.858C140.636 158.046 138.444 159.262 136.009 159.262Z" fill="#1A1A1A"/>
<path d="M176.069 31.974H156.952C155.856 31.974 154.882 31.4877 154.273 30.5151L146.237 17.8714C145.628 16.8988 145.628 15.6831 146.115 14.7105C146.724 13.7379 147.698 13.13 148.916 13.13H168.033C169.129 13.13 170.103 13.6163 170.711 14.5889L171.686 16.0478L178.748 27.2326C179.357 28.2052 179.357 29.4209 178.87 30.3935C178.261 31.3661 177.165 31.974 176.069 31.974ZM148.916 13.8594C148.064 13.8594 147.211 14.3457 146.846 15.0752C146.481 15.8046 146.481 16.7772 146.968 17.5067L155.004 30.1504C155.491 30.8798 156.222 31.2446 156.952 31.2446H176.069C176.921 31.2446 177.774 30.7583 178.139 30.0288C178.504 29.2994 178.504 28.3268 178.017 27.5973L169.981 14.9536C169.494 14.2242 168.763 13.8594 168.033 13.8594H148.916Z" fill="#1A1A1A"/>
<path d="M176.069 31.974H156.952C155.856 31.974 154.882 31.4877 154.273 30.5151L146.237 17.8714C145.628 16.8988 145.628 15.6831 146.115 14.7105C146.724 13.7379 147.698 13.13 148.916 13.13H168.033C169.129 13.13 170.103 13.6163 170.711 14.5889L171.686 16.0478L178.748 27.2326C179.357 28.2052 179.357 29.4209 178.87 30.3935C178.261 31.3661 177.165 31.974 176.069 31.974ZM148.916 13.8594C148.064 13.8594 147.211 14.3457 146.846 15.0752C146.481 15.8046 146.481 16.7772 146.968 17.5067L155.004 30.1504C155.491 30.8798 156.222 31.2446 156.952 31.2446H176.069C176.921 31.2446 177.774 30.7583 178.139 30.0288C178.504 29.2994 178.504 28.3268 178.017 27.5973L169.981 14.9536C169.494 14.2242 168.763 13.8594 168.033 13.8594H148.916Z" fill="#1A1A1A"/>
<path d="M155.004 105.526H152.082C150.986 105.526 150.012 105.04 149.403 104.067L141.367 91.4238C140.758 90.4512 140.758 89.2354 141.245 88.2628C141.854 87.2902 142.828 86.6824 144.045 86.6824H163.162C164.258 86.6824 165.232 87.1687 165.841 88.1413L166.815 89.6001C166.937 89.7217 166.815 89.9649 166.693 90.0864C166.572 90.208 166.328 90.208 166.206 89.9649L165.232 88.506C164.745 87.7765 164.015 87.4118 163.284 87.4118H144.167C143.315 87.4118 142.463 87.8981 142.097 88.6276C141.732 89.357 141.732 90.3296 142.219 91.059L150.255 103.703C150.742 104.432 151.473 104.797 152.204 104.797H155.126C155.369 104.797 155.491 104.918 155.491 105.162C155.369 105.283 155.248 105.526 155.004 105.526Z" fill="#1A1A1A"/>
<path d="M171.199 105.526H161.336C161.092 105.526 160.97 105.405 160.97 105.162C160.97 104.918 161.092 104.797 161.336 104.797H171.199C172.051 104.797 172.903 104.311 173.269 103.581C173.634 102.852 173.634 101.879 173.147 101.15L166.084 89.9649C165.963 89.8433 165.963 89.6002 166.206 89.4786C166.328 89.357 166.572 89.4786 166.693 89.6002L173.756 100.785C174.364 101.758 174.364 102.973 173.877 103.946C173.39 104.918 172.294 105.526 171.199 105.526Z" fill="#1A1A1A"/>
<path d="M191.655 75.6191H162.797C160.97 75.6191 159.266 74.6465 158.292 73.1877L154.639 66.7442C153.543 65.0422 153.543 63.097 154.517 61.395C155.491 59.6929 157.196 58.5988 159.144 58.5988H193.238C195.064 58.5988 196.769 59.5713 197.743 61.0302L201.396 67.4737C202.37 69.0541 202.492 70.8777 201.761 72.4582C201.639 72.7014 201.396 72.7014 201.274 72.7014C201.03 72.5798 201.03 72.3366 201.03 72.2151C201.639 70.7562 201.517 69.2973 200.787 67.96L197.134 61.5165C196.282 60.1792 194.821 59.4498 193.359 59.4498H159.266C157.561 59.4498 156.1 60.3008 155.248 61.7597C154.395 63.2186 154.517 64.9206 155.369 66.3795L159.022 72.8229C159.875 74.1602 161.336 74.8897 162.797 74.8897H191.655C191.898 74.8897 192.02 75.0113 192.02 75.2544C192.02 75.4976 191.898 75.6191 191.655 75.6191Z" fill="#1A1A1A"/>
<path d="M204.805 91.6669C204.562 91.6669 204.075 91.4238 201.761 90.8159C197.986 89.8433 196.282 87.8981 194.821 86.0745L194.334 85.4666C193.968 84.9804 193.481 84.494 192.994 84.1293C191.776 83.0352 190.681 82.0626 190.681 80.8468C190.681 80.239 191.046 79.6311 191.655 79.0232C192.142 78.6585 192.629 78.4153 193.238 78.4153C195.064 78.5369 197.012 80.4821 197.743 81.3331C198.473 82.1841 199.082 82.792 199.569 83.1567C198.96 82.3057 197.621 80.9684 196.647 79.9958L195.795 79.1448C194.942 78.1722 193.116 76.9565 191.655 75.8623C190.194 74.7681 188.976 73.9171 188.489 73.3092C187.88 72.7014 188.002 71.6072 188.611 70.6346C189.098 69.7836 190.072 69.0541 191.411 69.2973C193.359 69.7836 195.673 71.8503 197.012 72.9445C197.256 73.0661 197.378 73.3092 197.499 73.3092C197.865 72.9445 198.352 72.4582 199.448 72.3366C201.761 71.9719 202.979 72.5798 203.466 72.8229C203.831 72.5798 204.683 72.2151 205.657 72.3366C206.144 72.4582 207.119 72.7014 207.484 72.9445C207.727 73.0661 207.727 73.3092 207.727 73.4308C207.606 73.674 207.362 73.674 207.24 73.674C206.875 73.5524 206.023 73.1877 205.536 73.1877C204.562 73.0661 203.709 73.674 203.709 73.674C203.587 73.7955 203.344 73.7955 203.222 73.674C203.222 73.674 202.248 72.7014 199.569 73.1877C198.839 73.3092 198.352 73.674 198.108 73.9171C197.865 74.1602 197.621 74.4034 197.256 74.1602C197.134 74.0387 196.891 73.9171 196.525 73.5524C195.429 72.5798 192.994 70.513 191.289 70.0267C190.437 69.7836 189.707 70.3915 189.341 70.9993C188.976 71.6072 188.854 72.4582 189.219 72.7014C189.585 73.1877 190.924 74.1602 192.264 75.1328C193.846 76.227 195.551 77.5643 196.525 78.5369L197.378 79.3879C199.569 81.5763 200.787 82.9136 200.909 83.643C200.909 84.1293 200.665 84.2509 200.665 84.2509C200.422 84.3725 199.935 84.6156 197.499 81.8194C196.038 80.239 194.577 79.2664 193.603 79.1448C193.116 79.1448 192.872 79.2664 192.507 79.5095C192.02 79.9958 191.776 80.3605 191.776 80.8468C191.776 81.6978 192.751 82.6704 193.846 83.643C194.334 84.1293 194.821 84.6156 195.308 85.1019L195.795 85.7098C197.378 87.5334 198.839 89.357 202.37 90.208C204.683 90.8159 205.292 91.0591 205.292 91.0591C205.536 91.1806 205.536 91.4238 205.536 91.5454C205.049 91.6669 204.927 91.6669 204.805 91.6669Z" fill="#1A1A1A"/>
<path d="M202.248 78.9016C200.665 76.9564 197.012 74.0387 197.012 74.0387C196.891 73.9171 196.769 73.6739 196.891 73.5524C197.012 73.4308 197.256 73.3092 197.378 73.4308C197.499 73.5524 201.274 76.3486 202.492 78.2938C202.613 78.4153 202.613 78.6585 202.37 78.7801C202.492 78.9016 202.37 78.9016 202.248 78.9016Z" fill="#1A1A1A"/>
<path d="M206.875 76.7133C205.17 75.1329 203.1 73.5524 202.979 73.5524C202.857 73.4308 202.735 73.1877 202.857 73.0661C202.979 72.9445 203.222 72.8229 203.344 72.9445C203.466 73.0661 205.536 74.525 206.997 76.1054C207.119 76.227 207.119 76.4702 206.997 76.5917C206.997 76.7133 206.875 76.7133 206.875 76.7133Z" fill="#1A1A1A"/>
<path d="M267.635 173H78.6589C78.4153 173 78.2936 172.878 78.2936 172.635C78.2936 172.392 78.4153 172.271 78.6589 172.271H267.635C267.878 172.271 268 172.392 268 172.635C268 172.757 267.878 173 267.635 173Z" fill="#1A1A1A"/>
<path d="M191.898 63.7049H163.284C163.04 63.7049 162.919 63.5833 162.919 63.3401C162.919 63.097 163.04 62.9754 163.284 62.9754H191.898C192.142 62.9754 192.264 63.097 192.264 63.3401C192.264 63.4617 192.02 63.7049 191.898 63.7049Z" fill="#1A1A1A"/>
<path d="M194.699 68.9326H166.085C165.841 68.9326 165.719 68.811 165.719 68.5679C165.719 68.3247 165.841 68.2031 166.085 68.2031H194.699C194.942 68.2031 195.064 68.3247 195.064 68.5679C195.186 68.6894 194.942 68.9326 194.699 68.9326Z" fill="#1A1A1A"/>
<path d="M125.538 95.071H96.9233C96.6797 95.071 96.558 94.9494 96.558 94.7063C96.558 94.4631 96.6797 94.3416 96.9233 94.3416H125.538C125.781 94.3416 125.903 94.4631 125.903 94.7063C125.903 94.9494 125.781 95.071 125.538 95.071Z" fill="#1A1A1A"/>
<path d="M128.46 100.299H99.8455C99.602 100.299 99.4802 100.177 99.4802 99.9339C99.4802 99.6908 99.602 99.5692 99.8455 99.5692H128.46C128.703 99.5692 128.825 99.6908 128.825 99.9339C128.825 100.177 128.582 100.299 128.46 100.299Z" fill="#1A1A1A"/>
<path d="M139.297 118.049H110.682C110.439 118.049 110.317 117.927 110.317 117.684C110.317 117.441 110.439 117.319 110.682 117.319H139.297C139.54 117.319 139.662 117.441 139.662 117.684C139.662 117.805 139.54 118.049 139.297 118.049Z" fill="#1A1A1A"/>
<path d="M142.219 123.155H113.605C113.361 123.155 113.24 123.033 113.24 122.79C113.24 122.547 113.361 122.425 113.605 122.425H142.219C142.463 122.425 142.584 122.547 142.584 122.79C142.584 123.033 142.463 123.155 142.219 123.155Z" fill="#1A1A1A"/>
<path d="M103.011 40.9705H46.27C46.0264 40.9705 45.9047 40.849 45.9047 40.6058C45.9047 40.3627 46.0264 40.2411 46.27 40.2411H103.011C103.255 40.2411 103.377 40.3627 103.377 40.6058C103.377 40.849 103.255 40.9705 103.011 40.9705Z" fill="#1A1A1A"/>
<path d="M109.221 50.9396H84.8687C84.6252 50.9396 84.5034 50.818 84.5034 50.5749C84.5034 50.3317 84.6252 50.2101 84.8687 50.2101H109.343C109.587 50.2101 109.708 50.3317 109.708 50.5749C109.587 50.6964 109.465 50.9396 109.221 50.9396Z" fill="#1A1A1A"/>
<path d="M114.457 58.8419H89.9827C89.7392 58.8419 89.6174 58.7204 89.6174 58.4772C89.6174 58.2341 89.7392 58.1125 89.9827 58.1125H114.457C114.701 58.1125 114.822 58.2341 114.822 58.4772C114.822 58.7204 114.701 58.8419 114.457 58.8419Z" fill="#1A1A1A"/>
<path d="M119.328 66.8658H94.8533C94.6098 66.8658 94.488 66.7442 94.488 66.5011C94.488 66.2579 94.6098 66.1364 94.8533 66.1364H119.328C119.571 66.1364 119.693 66.2579 119.693 66.5011C119.693 66.6226 119.571 66.8658 119.328 66.8658Z" fill="#1A1A1A"/>
<path d="M220.269 92.3964C219.782 92.3964 219.173 92.3964 218.564 92.2748C215.155 91.6669 211.624 88.9923 211.867 83.2783C211.989 77.078 217.225 74.6466 217.225 74.525C217.468 74.4034 217.59 74.525 217.712 74.7681C217.834 75.0113 217.712 75.1329 217.468 75.2544C217.225 75.376 212.72 77.5643 212.598 83.2783C212.476 89.9649 217.225 91.3022 218.686 91.5454C223.191 92.2748 224.774 89.7218 224.896 89.6002C225.018 89.4786 225.261 89.357 225.383 89.4786C225.505 89.6002 225.627 89.8433 225.505 89.9649C225.383 90.0865 223.922 92.3964 220.269 92.3964Z" fill="#1A1A1A"/>
<path d="M232.567 94.22C229.036 94.22 225.627 93.1258 223.8 91.3022C223.678 91.1806 223.678 90.9375 223.8 90.8159C223.922 90.6943 224.165 90.6943 224.287 90.8159C225.992 92.5179 229.279 93.6121 232.689 93.4905C235.733 93.4905 238.29 92.5179 239.873 90.9375C241.578 89.1139 242.43 86.0745 242.308 82.6704C242.186 80.6037 241.821 78.9016 240.969 77.4427C240.36 76.227 239.264 75.376 238.29 74.525C237.681 74.0387 236.951 73.5524 236.463 72.8229C236.098 72.3366 235.611 71.8503 235.489 71.1209C235.489 70.2699 235.976 69.2973 236.342 68.4463C236.585 67.96 236.829 67.4737 236.829 67.4737C237.194 66.7442 237.681 65.8932 237.925 65.1638C238.777 62.8538 239.021 60.6655 238.655 58.5988C237.803 54.1005 229.523 52.2769 229.401 52.1553C225.261 48.5081 218.321 46.4413 213.45 49.116C208.823 51.669 210.041 57.0183 210.041 57.1399C210.041 57.5046 210.041 62.8538 218.564 66.1363C218.808 66.2579 218.808 66.3795 218.808 66.6226C218.686 66.8658 218.564 66.8658 218.321 66.8658C209.31 63.4617 209.31 57.5046 209.31 57.2614C209.31 57.2614 207.971 51.1827 213.085 48.3865C218.199 45.5903 225.383 47.7786 229.645 51.4259C230.619 51.669 238.533 53.6142 239.386 58.3556C239.751 60.5439 239.508 62.8538 238.533 65.2853C238.168 66.1363 237.803 66.9874 237.438 67.7168L237.194 68.3247C236.585 69.4188 236.098 70.2699 236.22 70.9993C236.22 71.4856 236.585 71.8503 236.951 72.2151C237.438 72.8229 238.168 73.3092 238.777 73.7955C239.873 74.6465 240.969 75.6191 241.699 76.9564C242.552 78.5369 243.039 80.3605 243.039 82.5489C243.16 84.7372 242.917 88.7491 240.36 91.4238C238.777 93.1258 235.976 94.22 232.689 94.22H232.567Z" fill="#1A1A1A"/>
<path d="M99.4803 37.3233C98.6279 38.0527 97.1668 37.5664 96.1927 36.4722C95.2186 35.2565 95.0968 33.7976 95.9491 33.1897C96.8015 32.4603 98.2626 32.9466 99.2367 34.0408C100.211 35.1349 100.333 36.5938 99.4803 37.3233Z" fill="#0CD494"/>
<path d="M90.8351 38.0528C89.7392 37.9312 88.8869 37.4449 88.2781 36.7154C87.1822 35.3781 87.0604 33.6761 88.0345 32.8251C89.0086 31.974 90.7133 32.3388 91.8092 33.7977C92.2962 34.4055 92.6615 35.135 92.6615 35.8644C92.6615 36.5939 92.418 37.3233 91.9309 37.688C91.6874 37.9312 91.3221 38.0528 90.8351 38.0528ZM89.3739 33.1898C89.1304 33.1898 88.8869 33.3114 88.6433 33.4329C88.0345 33.9192 88.1563 35.2565 89.0086 36.2291C89.4957 36.837 90.2263 37.2017 90.8351 37.3233C91.0786 37.3233 91.4439 37.3233 91.6874 37.0802C91.9309 36.837 92.1745 36.4723 92.0527 35.8644C92.0527 35.2565 91.8092 34.7703 91.3221 34.284C90.7133 33.5545 89.9827 33.1898 89.3739 33.1898Z" fill="#1A1A1A"/>
<path d="M151.595 72.9445C150.742 72.9445 149.768 72.4582 149.038 71.6072C148.551 70.9993 148.185 70.2699 148.185 69.5404C148.185 68.811 148.307 68.0816 148.916 67.7168C149.403 67.3521 150.134 67.2305 150.864 67.3521C151.595 67.5953 152.204 67.96 152.691 68.5679C153.178 69.1757 153.543 69.9052 153.543 70.6346C153.543 71.3641 153.421 72.0935 152.812 72.4582C152.569 72.8229 152.082 72.9445 151.595 72.9445ZM150.134 68.0816C149.89 68.0816 149.647 68.2031 149.403 68.3247C149.16 68.5678 148.916 68.9326 149.038 69.5404C149.038 70.1483 149.281 70.6346 149.768 71.1209C150.621 72.0935 151.838 72.4582 152.447 71.9719C152.691 71.7288 152.934 71.3641 152.812 70.7562C152.812 70.1483 152.569 69.662 152.082 69.1757C151.717 68.6894 151.108 68.3247 150.621 68.2031C150.377 68.0816 150.255 68.0816 150.134 68.0816Z" fill="#1A1A1A"/>
<path d="M43.5911 68.4463C43.3475 68.4463 43.104 68.4463 42.8605 68.3247C42.1299 68.0816 41.5211 67.7168 41.034 67.109C39.9382 65.7717 39.8164 64.0696 40.7905 63.2186C41.7646 62.3676 43.4693 62.8539 44.5652 64.1912C45.0522 64.7991 45.4175 65.5285 45.4175 66.258C45.4175 66.9874 45.174 67.7168 44.6869 68.0816C44.5652 68.3247 44.0781 68.4463 43.5911 68.4463ZM42.1299 63.5833C41.8864 63.5833 41.6429 63.7049 41.3993 63.8265C40.7905 64.3128 40.9123 65.6501 41.7646 66.6227C42.1299 67.109 42.7387 67.4737 43.2258 67.5953C43.7128 67.7168 44.1999 67.7168 44.4434 67.4737C44.6869 67.2305 44.9304 66.8658 44.8087 66.258C44.8087 65.6501 44.5652 65.1638 44.0781 64.6775C43.4693 63.948 42.7387 63.5833 42.1299 63.5833Z" fill="#1A1A1A"/>
<path d="M8.15813 74.0387C6.20992 74.0387 3.89643 72.9445 2.19175 70.8778C0.97412 69.4189 0.243543 67.5953 0.12178 66.0148C1.72108e-05 64.3128 0.487068 62.8539 1.58293 61.8813C2.6788 60.9087 4.26172 60.6655 5.84463 61.1518C7.42755 61.6381 9.01047 62.6107 10.2281 64.1912C12.7851 67.3521 13.0286 71.3641 10.8369 73.1877C10.1063 73.674 9.13223 74.0387 8.15813 74.0387ZM4.26172 61.6381C3.40938 61.6381 2.55704 61.8813 1.94822 62.3676C1.09588 63.097 0.608831 64.3128 0.730594 65.7717C0.852357 67.2305 1.58293 68.9326 2.6788 70.2699C4.99229 73.0661 8.40165 74.0387 10.3499 72.4582C12.2981 70.8778 11.9328 67.3521 9.61928 64.5559C8.52342 63.2186 7.06226 62.246 5.60111 61.8813C5.11406 61.7597 4.74877 61.6381 4.26172 61.6381Z" fill="#1A1A1A"/>
<path d="M118.597 13.13C116.649 13.13 114.335 12.0359 112.631 9.9691C110.074 6.80818 109.83 2.79623 112.022 0.972618C114.214 -0.850994 118.232 0.121599 120.789 3.28253C123.346 6.44345 123.589 10.4554 121.398 12.279C120.545 12.7653 119.571 13.13 118.597 13.13ZM114.701 0.72947C113.848 0.72947 112.996 0.972618 112.387 1.45891C110.439 3.03938 110.804 6.56503 113.118 9.36123C115.431 12.1574 118.841 13.13 120.789 11.5496C122.737 9.9691 122.372 6.44345 120.058 3.64725C118.597 1.82364 116.527 0.72947 114.701 0.72947Z" fill="#1A1A1A"/>
<path d="M70.5007 146.862C69.4048 146.74 68.5525 146.254 67.9436 145.524C67.4566 144.916 67.0913 144.187 67.0913 143.457C67.0913 142.728 67.2131 141.999 67.8219 141.634C68.796 140.783 70.5007 141.269 71.5965 142.606C72.2053 143.336 72.5706 144.309 72.4489 145.16C72.4489 145.767 72.2054 146.254 71.7183 146.497C71.4748 146.74 70.9877 146.862 70.5007 146.862ZM69.0395 141.999C68.796 141.999 68.5525 142.12 68.3089 142.242C68.0654 142.485 67.8219 142.85 67.9436 143.457C67.9436 144.065 68.1872 144.552 68.6742 145.038C69.1613 145.646 69.8919 146.011 70.5007 146.132C70.7442 146.132 71.1095 146.132 71.353 145.889C71.5965 145.646 71.7183 145.281 71.7183 145.038C71.7183 144.43 71.4748 143.701 70.9877 143.093C70.3789 142.363 69.6483 141.999 69.0395 141.999Z" fill="#1A1A1A"/>
<path d="M137.348 101.879C136.496 101.879 135.522 101.393 134.791 100.542C134.304 99.934 133.939 99.2045 133.939 98.4751C133.939 97.7456 134.061 97.0162 134.67 96.6515C135.644 95.8005 137.348 96.1652 138.444 97.6241C138.931 98.2319 139.297 98.9614 139.297 99.6908C139.297 100.42 139.175 101.15 138.566 101.514C138.323 101.758 137.836 101.879 137.348 101.879ZM135.887 96.8946C135.644 96.8946 135.4 97.0162 135.157 97.1378C134.913 97.3809 134.67 97.7456 134.791 98.3535C134.791 98.9614 135.035 99.4477 135.522 99.934C136.374 100.907 137.592 101.271 138.201 100.785C138.444 100.542 138.688 100.177 138.566 99.5693C138.566 98.9614 138.323 98.4751 137.835 97.9888C137.227 97.3809 136.496 96.8946 135.887 96.8946Z" fill="#1A1A1A"/>
<path d="M83.4075 38.0527C83.164 38.0527 82.9205 38.0527 82.677 37.9312C81.9464 37.688 81.3376 37.3233 80.8505 36.7154C80.2417 35.986 79.8764 35.0134 79.9982 34.1624C79.9982 33.5545 80.2417 33.0682 80.7288 32.825C81.2158 32.4603 81.9464 32.3388 82.677 32.4603C83.4075 32.7035 84.0164 33.0682 84.5034 33.6761C85.1122 34.4055 85.4775 35.3781 85.3557 36.2291C85.3557 36.837 85.1122 37.3233 84.6252 37.5664C84.2599 37.9312 83.8946 38.0527 83.4075 38.0527ZM81.8246 33.1898C81.5811 33.1898 81.2158 33.3113 81.0941 33.4329C80.8505 33.6761 80.7288 34.0408 80.7288 34.2839C80.7288 34.8918 80.9723 35.6213 81.4593 36.2291C81.8246 36.7154 82.4334 37.0801 82.9205 37.2017C83.4075 37.3233 83.8946 37.3233 84.1381 37.0801C84.3816 36.837 84.5034 36.4723 84.5034 36.2291C84.5034 35.6213 84.2599 34.8918 83.7728 34.2839C83.4075 33.7976 82.7987 33.4329 82.3117 33.3113C82.1899 33.1898 81.9464 33.1898 81.8246 33.1898Z" fill="#1A1A1A"/>
<path d="M133.939 96.0436C133.087 95.071 132.235 93.7337 131.382 91.9101C131.26 91.6669 131.382 91.5454 131.626 91.4238C131.869 91.3022 131.991 91.4238 132.113 91.6669C132.843 93.369 133.696 94.7063 134.183 95.4357C134.304 95.5573 134.304 95.8005 134.061 95.922C134.061 96.0436 134.061 96.0436 133.939 96.0436ZM130.286 88.0197C129.556 86.3177 129.312 84.7372 129.19 83.2783C129.19 83.0352 129.312 82.9136 129.556 82.9136C129.799 82.9136 129.921 83.0352 129.921 83.2783C130.043 84.7372 130.286 86.1961 130.652 87.5334C130.773 87.655 130.652 87.8981 130.286 88.0197ZM129.677 79.1448C129.434 79.1448 129.312 78.9016 129.312 78.6585C129.677 77.1996 130.408 75.8623 131.626 74.6466C131.747 74.525 131.991 74.525 132.113 74.6466C132.235 74.7681 132.235 75.0113 132.113 75.1329C131.017 76.1054 130.286 77.3212 130.043 78.6585C130.043 79.0232 129.799 79.1448 129.677 79.1448ZM135.644 73.0661C135.157 72.5798 135.279 72.4582 135.522 72.3366C136.74 71.8504 138.201 71.3641 139.784 70.9993C140.027 70.9993 140.149 71.1209 140.271 71.2425C140.271 71.4856 140.149 71.6072 140.027 71.7288C138.444 72.0935 137.105 72.4582 135.887 73.0661C135.766 73.0661 135.644 73.0661 135.644 73.0661ZM144.289 71.1209C144.045 71.1209 143.924 70.9993 143.924 70.7562C143.924 70.513 144.045 70.3915 144.289 70.3915C146.359 70.1483 147.942 70.1483 148.551 70.1483C149.038 70.1483 149.16 70.2699 149.16 70.513C149.16 70.7562 149.038 70.8778 148.794 70.8778C147.942 70.8778 146.359 70.8778 144.289 71.1209Z" fill="#1A1A1A"/>
<path d="M38.7206 66.8658H34.3372C34.0936 66.8658 33.9719 66.7442 33.9719 66.5011C33.9719 66.2579 34.0936 66.1364 34.3372 66.1364H38.7206C38.9641 66.1364 39.0859 66.2579 39.0859 66.5011C39.0859 66.6226 38.8424 66.8658 38.7206 66.8658ZM29.8319 66.8658H25.3267C25.0832 66.8658 24.9614 66.7442 24.9614 66.5011C24.9614 66.2579 25.0832 66.1364 25.3267 66.1364H29.8319C30.0755 66.1364 30.1972 66.2579 30.1972 66.5011C30.1972 66.6226 29.9537 66.8658 29.8319 66.8658ZM20.9432 66.8658H16.5598C16.3163 66.8658 16.1945 66.7442 16.1945 66.5011C16.1945 66.2579 16.3163 66.1364 16.5598 66.1364H20.9432C21.1868 66.1364 21.3085 66.2579 21.3085 66.5011C21.3085 66.6226 21.065 66.8658 20.9432 66.8658ZM12.0546 66.8658C11.4457 66.8658 11.324 66.7442 11.324 66.5011C11.324 66.2579 11.4457 66.1364 11.6893 66.1364C12.2981 66.1364 12.4198 66.2579 12.4198 66.5011C12.4198 66.6226 12.2981 66.8658 12.0546 66.8658Z" fill="#1A1A1A"/>
<path d="M65.2649 144.43H60.8814C60.6379 144.43 60.5161 144.309 60.5161 144.065C60.5161 143.822 60.6379 143.701 60.8814 143.701H65.2649C65.5084 143.701 65.6302 143.822 65.6302 144.065C65.6302 144.309 65.5084 144.43 65.2649 144.43ZM56.3762 144.43H52.9669C52.7233 144.43 52.6016 144.309 52.6016 144.065C52.6016 143.822 52.7233 143.701 52.9669 143.701H56.3762C56.6197 143.701 56.7415 143.822 56.7415 144.065C56.8633 144.309 56.6197 144.43 56.3762 144.43Z" fill="#1A1A1A"/>
<path d="M52.9668 144.43C52.6015 144.309 51.1404 141.877 51.1404 141.877C51.0186 141.755 51.0186 141.512 51.2621 141.391C51.3839 141.269 51.6274 141.269 51.7492 141.512L53.2104 143.822C53.3321 143.944 53.3321 144.187 53.0886 144.309C53.0886 144.43 53.0886 144.43 52.9668 144.43ZM49.0704 138.351C48.7051 138.23 46.3916 134.461 46.3916 134.461C46.2699 134.339 46.2699 134.096 46.5134 133.975C46.6352 133.853 46.8787 133.853 47.0005 134.096L49.4357 137.865C49.5575 137.987 49.5575 138.23 49.3139 138.351C49.3139 138.351 49.1922 138.351 49.0704 138.351ZM44.3217 130.814C43.9564 130.692 41.6429 126.923 41.6429 126.923C41.5211 126.802 41.5211 126.559 41.7647 126.437C41.8864 126.316 42.1299 126.437 42.2517 126.559L44.687 130.328C44.8087 130.449 44.8087 130.692 44.5652 130.814C44.5652 130.814 44.4434 130.814 44.3217 130.814ZM39.5729 123.398C39.2076 123.276 36.8941 119.507 36.8941 119.507C36.7724 119.386 36.8941 119.143 37.0159 119.021C37.1377 118.9 37.3812 118.9 37.503 119.143L39.8164 122.911C39.9382 123.033 39.8164 123.276 39.6947 123.398C39.8164 123.398 39.6947 123.398 39.5729 123.398ZM34.8242 115.86C34.4589 115.739 32.1454 111.97 32.1454 111.97C32.0236 111.848 32.0236 111.605 32.2672 111.484C32.3889 111.362 32.6324 111.484 32.7542 111.605L35.1895 115.374C35.3112 115.495 35.3112 115.739 35.0677 115.86C35.0677 115.86 34.9459 115.86 34.8242 115.86ZM30.0754 108.323C29.7101 108.201 27.3966 104.432 27.3966 104.432C27.2749 104.311 27.2749 104.068 27.5184 103.946C27.6402 103.824 27.8837 103.824 28.0055 104.068L30.4407 107.836C30.5625 107.958 30.5625 108.201 30.3189 108.323C30.1972 108.323 30.1972 108.323 30.0754 108.323ZM25.3267 100.907C24.9614 100.785 22.6479 97.0162 22.6479 97.0162C22.5261 96.8946 22.5261 96.6515 22.7697 96.5299C22.8914 96.4083 23.1349 96.5299 23.2567 96.6515L25.692 100.42C25.8137 100.542 25.8137 100.785 25.5702 100.907C25.4484 100.907 25.4484 100.907 25.3267 100.907ZM20.5779 93.369C20.2126 93.2474 17.8991 89.4786 17.8991 89.4786C17.7774 89.357 17.7774 89.1139 18.0209 88.9923C18.1427 88.8707 18.3862 88.9923 18.508 89.1139L20.9432 92.8827C21.065 93.0043 21.065 93.2474 20.8214 93.369C20.6997 93.369 20.6997 93.369 20.5779 93.369ZM15.8292 85.953C15.4639 85.8314 13.1504 82.0626 13.1504 82.0626C13.0286 81.941 13.1504 81.6979 13.2721 81.5763C13.3939 81.4547 13.6374 81.4547 13.7592 81.6979L16.1945 85.4667C16.3162 85.5882 16.1945 85.8314 16.0727 85.953C15.9509 85.8314 15.9509 85.953 15.8292 85.953ZM11.0804 78.4154C10.7151 78.2938 8.40164 74.525 8.40164 74.525C8.27987 74.4034 8.27987 74.1603 8.5234 74.0387C8.64516 73.9171 8.88869 74.0387 9.01045 74.1603L11.4457 77.9291C11.5675 78.0506 11.5675 78.2938 11.3239 78.4154C11.2022 78.4154 11.2022 78.4154 11.0804 78.4154Z" fill="#1A1A1A"/>
<path d="M96.4361 143.822C95.7056 143.822 93.6356 143.701 92.6615 142.485C92.1744 141.755 92.0527 140.904 92.418 139.81L99.1149 124.735C99.1149 124.614 99.8455 123.519 101.307 123.155C102.281 122.911 103.498 123.276 104.594 124.127L108.369 127.531C108.491 127.653 108.491 127.896 108.369 128.018C108.247 128.139 108.004 128.139 107.882 128.018L104.107 124.614C103.133 123.884 102.281 123.641 101.428 123.763C100.333 124.006 99.7237 124.857 99.7237 124.857L93.0268 139.932C92.7833 140.783 92.7832 141.391 93.1485 141.877C93.8791 142.85 95.8273 142.971 96.5579 142.971H118.597C118.84 142.971 118.962 143.093 118.962 143.336C118.962 143.579 118.84 143.701 118.597 143.701H96.6797C96.6797 143.822 96.5579 143.822 96.4361 143.822Z" fill="#1A1A1A"/>
<path d="M78.4152 70.8778C78.05 70.7562 61.8555 45.104 61.8555 45.104C61.7337 44.9825 61.7337 44.7393 61.9773 44.6177C62.099 44.4962 62.3425 44.6177 62.4643 44.7393L78.7805 70.3915C78.9023 70.513 78.9023 70.7562 78.6588 70.8778C78.537 70.8778 78.4152 70.8778 78.4152 70.8778Z" fill="#1A1A1A"/>
<path d="M143.68 23.4638C135.279 23.4638 127.607 19.8166 120.911 12.4006C120.789 12.279 120.789 12.0359 120.911 11.9143C121.032 11.7927 121.276 11.7927 121.398 11.9143C129.556 20.6676 138.931 24.1933 149.403 22.1265C149.647 22.1265 149.768 22.2481 149.89 22.4913C149.89 22.7344 149.768 22.856 149.525 22.9775C147.577 23.2207 145.507 23.4638 143.68 23.4638Z" fill="#1A1A1A"/>
<path d="M207.362 40.9705C206.023 40.9705 204.562 40.2411 203.466 38.9037C202.613 37.9311 202.126 36.837 202.126 35.7428C202.005 34.6486 202.37 33.6761 203.1 33.0682C203.831 32.4603 204.805 32.3387 206.023 32.5819C207.119 32.825 208.093 33.5545 208.945 34.5271C210.65 36.5938 210.771 39.1469 209.31 40.4842C208.702 40.7274 208.093 40.9705 207.362 40.9705ZM204.927 33.0682C204.44 33.0682 203.953 33.1898 203.587 33.5545C203.1 34.0408 202.735 34.7702 202.857 35.6212C202.979 36.5938 203.344 37.5664 204.075 38.4174C205.536 40.1195 207.606 40.7274 208.702 39.7548C209.797 38.7822 209.676 36.5938 208.214 34.8918C207.484 34.0408 206.632 33.4329 205.779 33.1898C205.414 33.0682 205.17 33.0682 204.927 33.0682Z" fill="#1A1A1A"/>
<path d="M203.466 33.0682C194.942 23.9501 185.932 20.5461 175.338 22.6128C175.095 22.6128 174.973 22.4912 174.851 22.2481C174.851 22.0049 174.973 21.8834 175.217 21.7618C186.054 19.695 195.429 23.0991 203.831 32.3387C203.953 32.4603 203.953 32.7035 203.831 32.825C203.587 33.0682 203.587 33.0682 203.466 33.0682Z" fill="#1A1A1A"/>
<path d="M176.191 154.885C175.826 154.764 175.704 154.521 175.826 154.399C177.774 149.658 182.644 146.618 188.489 146.618C194.09 146.618 198.839 149.536 201.03 154.156C201.152 154.399 201.03 154.521 200.787 154.642C200.543 154.764 200.422 154.642 200.3 154.399C198.352 150.022 193.725 147.348 188.489 147.348C183.01 147.348 178.383 150.144 176.556 154.642C176.434 154.885 176.313 154.885 176.191 154.885Z" fill="#1A1A1A"/>
</svg>
