<svg width="269" height="204" viewBox="0 0 269 204" fill="none" xmlns="http://www.w3.org/2000/svg">
<path d="M163.159 88.2348C163.159 119.206 138.143 144.397 107.078 144.397C76.1502 144.397 50.9958 119.344 50.9958 88.2348C50.9958 57.2632 76.0127 32.0729 107.078 32.0729C138.005 32.0729 163.159 57.2632 163.159 88.2348Z" fill="#0CD494"/>
<path d="M82.3358 129.393C82.3358 129.393 74.3634 131.045 68.1779 135.449C68.1779 135.449 62.6797 143.02 61.4426 149.49L53.8826 146.324C53.8826 146.324 43.8484 151.004 43.436 160.364C43.436 160.364 35.601 167.798 36.2883 173.441C36.2883 173.441 52.9204 184.316 60.0681 186.381L59.6557 203.725H98.1432C98.1432 203.725 97.3185 176.057 96.9061 172.753C96.4937 169.449 96.6312 149.765 95.8065 144.534C94.9817 139.304 94.7068 134.899 90.8581 132.421C87.1468 130.081 83.0231 129.806 82.3358 129.393Z" fill="#0CD494"/>
<path d="M181.991 126.64C181.991 126.64 194.362 127.053 200.822 122.51C207.283 117.968 207.008 113.287 207.283 107.919C207.557 102.413 204.808 93.8785 204.808 93.8785L207.008 91.9514L209.894 94.0162C209.894 94.0162 214.43 92.7773 217.454 91.1255C220.478 89.4737 220.478 89.4737 220.478 89.4737V87.6842C220.478 87.6842 221.44 87.4089 221.715 88.0972C221.715 88.0972 224.327 96.9069 225.014 104.478C225.702 112.049 226.801 122.923 218.554 135.174L201.235 182.802L202.059 203.725H156.424L154.637 175.231L156.562 132.696C156.562 132.696 158.348 129.668 165.084 127.741C165.084 127.741 167.97 127.19 169.757 127.19C171.682 127.19 174.018 126.502 174.018 126.502L181.304 130.356L181.578 126.64H181.991Z" fill="#0CD494"/>
<path d="M122.473 121.547C122.473 121.547 114.775 120.445 102.404 138.753C89.8958 157.198 94.2943 166.146 94.2943 166.146C94.2943 166.146 95.394 172.478 106.253 170.964C106.253 170.964 106.116 179.085 105.566 186.105C104.878 193.126 103.366 203.725 103.366 203.725H156.424L154.637 175.231C154.637 175.231 162.197 173.717 162.61 163.943C162.885 154.17 159.036 139.717 158.211 136.964C157.386 134.073 154.637 125.951 146.252 123.336C137.868 120.721 126.047 120.445 122.473 121.547Z" fill="#1A1A1A"/>
<path d="M83.7103 71.7166C81.0987 69.1012 76.8376 69.1012 74.0885 71.7166L71.4768 74.332C68.8652 76.9474 68.8652 81.2146 71.4768 83.9676L90.5831 103.101C93.1947 105.717 97.4559 105.717 100.205 103.101L139.38 64.6964C141.991 62.081 141.991 57.8138 139.38 55.0608L136.768 52.4454C134.156 49.83 129.895 49.83 127.146 52.4454L95.2566 83.417L83.7103 71.7166Z" fill="white"/>
<path d="M61.8548 106.955L63.3668 115.215C63.3668 115.215 61.03 117.004 60.8926 117.555C60.8926 118.105 63.3668 119.895 63.3668 119.895C63.3668 119.895 64.6039 126.777 71.7515 124.3L72.5763 127.053L77.3872 125.125C77.3872 125.125 76.2876 120.583 77.1123 116.866C77.1123 116.866 79.1741 115.352 78.3494 112.599C77.5247 109.708 73.6759 110.534 72.8512 111.911C72.3014 112.049 64.6039 110.259 61.8548 106.955Z" fill="white"/>
<path d="M43.5734 160.502C43.5734 160.502 38.7625 156.51 37.113 153.757C35.4635 151.004 33.8141 150.178 32.577 151.142C31.3399 152.105 32.0272 154.308 32.8519 155.409C33.6766 156.373 35.8759 158.85 34.089 159.538C34.089 159.538 33.6766 160.089 32.4395 158.85C31.2024 157.611 26.1166 152.518 26.1166 152.518C26.1166 152.518 25.2918 153.757 25.2918 154.308C25.2918 154.308 24.0547 154.858 24.3297 157.061C24.6046 159.263 26.1166 162.429 30.1028 164.907C34.089 167.385 36.8381 168.899 37.113 170.138C36.9755 169.862 39.5872 163.393 43.5734 160.502Z" fill="white"/>
<path d="M136.493 118.105L135.806 109.846C135.806 109.846 139.38 111.085 140.617 107.644C141.854 104.202 138.692 102.826 137.043 102.964C135.393 103.239 134.569 104.34 134.569 104.34C134.569 104.34 131.407 100.899 130.17 96.2186C130.17 96.2186 126.321 101.036 120.823 99.247C120.823 99.247 120.686 107.368 120.686 109.433C120.686 111.498 119.861 116.316 124.947 116.866V118.381L127.696 127.879L136.493 118.105Z" fill="white"/>
<path d="M122.61 145.911C122.61 145.911 120.411 143.158 116.837 142.332C113.263 141.506 110.514 142.194 109.964 143.433C109.964 143.433 104.466 144.397 105.428 148.251C105.428 148.251 107.49 147.425 110.789 148.389C114.088 149.352 116.425 151.692 116.425 151.692C116.425 151.692 119.724 147.425 122.61 145.911Z" fill="white"/>
<path d="M132.507 150.729C132.507 150.729 133.606 147.976 137.73 149.352C137.73 149.352 141.029 148.251 143.503 150.04C143.503 150.04 144.878 149.352 147.077 150.316C149.139 151.142 150.376 154.858 150.926 156.372C151.338 157.887 150.376 160.502 147.764 159.401C147.489 159.401 147.215 161.466 145.015 161.19C142.816 161.053 141.716 158.575 141.716 158.575C141.716 158.575 141.167 160.777 139.105 160.502C137.18 160.227 136.493 158.713 136.493 158.162C136.493 157.611 136.63 155.409 136.356 154.858C136.081 154.308 134.569 151.83 134.569 151.83L132.507 150.729Z" fill="white"/>
<path d="M183.09 102.275L184.877 111.911C184.877 111.911 186.389 118.518 181.166 118.794L181.991 126.64L181.578 130.494L174.293 126.502C174.293 126.502 176.63 125.676 177.18 122.648C177.73 119.482 176.905 117.555 175.118 116.178C173.331 114.802 172.231 114.113 172.231 114.113C172.231 114.113 168.383 115.49 167.558 112.186C166.733 108.883 169.757 108.194 171.407 108.47C171.407 108.47 174.568 106.13 175.53 103.514C176.493 100.899 177.042 98.0081 177.042 98.0081C177.042 98.0081 181.853 100.761 183.09 102.275Z" fill="white"/>
<path d="M209.757 93.8785C209.757 93.8785 206.183 91.4008 204.533 90.2996C202.884 89.1984 201.922 87.4089 202.197 85.6194C202.472 83.9676 205.908 79.0122 206.733 78.7369C207.557 78.4615 208.795 79.0122 208.932 80.664C209.207 82.3158 208.932 81.3522 208.932 81.3522C208.932 81.3522 213.056 81.2146 215.392 80.8016C217.592 80.3887 219.928 79.5628 219.928 79.5628C219.928 79.5628 220.753 85.6194 220.478 89.336C220.478 89.336 218.004 91.4008 214.568 92.3644C211.269 93.6032 209.757 93.8785 209.757 93.8785Z" fill="white"/>
<path d="M51.1334 147.7L44.2607 143.158L39.9995 145.773L35.0511 145.085L40.9617 141.231C40.9617 141.231 38.0752 140.818 36.5632 141.644C35.0511 142.47 32.4395 144.81 32.4395 144.81C32.4395 144.81 30.5151 145.085 30.2402 146.324C29.9653 147.7 31.6148 149.077 34.3639 149.49C36.9755 149.903 40.5494 150.041 40.5494 150.041C40.5494 150.041 41.9239 152.794 45.2228 154.17C45.2228 154.17 47.697 150.729 48.5218 150.041C49.209 149.49 51.1334 147.7 51.1334 147.7Z" fill="white"/>
<path d="M124.947 118.243L122.473 121.547L122.748 134.624L122.335 145.498L124.534 146.875L128.108 146.737L131.957 135.174L133.057 136.964L139.929 121.409L135.668 117.142L124.947 118.243Z" fill="white"/>
<path d="M127.696 127.741L124.534 132.696L124.947 136.688L122.748 140.818L122.473 145.636L124.534 146.875L128.108 146.737L128.796 144.534V143.571L128.108 136.688L130.72 133.247L127.696 127.741Z" fill="#0CD494"/>
<path d="M139.93 103.789C139.93 103.789 141.991 102 141.442 98.1458C140.892 94.2915 140.204 91.9514 132.644 92.6397C132.644 92.6397 129.62 88.9231 125.084 90.1619C120.548 91.4008 119.036 94.0162 118.624 96.2186C118.212 98.5587 120.686 102.413 120.686 102.413V99.1093C120.686 99.1093 126.734 100.623 130.308 96.081C130.308 96.081 132.644 102.688 134.706 104.202C134.569 104.34 136.218 101.587 139.93 103.789Z" fill="white"/>
<path d="M97.5934 146.875C97.5934 146.875 99.7927 140.267 98.9679 134.073C98.1432 128.016 95.5315 123.887 91.2704 122.51C86.8719 121.271 84.9475 118.105 84.3977 115.903C83.8478 113.7 84.3977 108.47 83.298 104.34C82.1984 100.211 78.762 98.2834 74.3634 98.5587C74.3634 98.5587 62.4048 97.3199 61.4426 106.405C61.4426 106.405 64.6041 110.534 72.3016 111.911C72.714 111.911 73.4012 110.672 75.3256 110.534C77.25 110.397 78.4871 111.911 78.6245 113.563C78.762 115.077 77.25 116.453 77.25 116.453C77.25 116.453 76.4253 119.069 76.7002 122.235C76.9751 125.401 79.1744 128.567 82.6107 129.53C86.0471 130.494 91.6828 131.182 93.4697 135.449C95.2566 139.717 96.0814 144.259 96.0814 146.324C96.0814 148.526 96.2188 149.903 96.2188 149.903L97.5934 146.875Z" fill="#1A1A1A"/>
<path d="M30.5151 148.251L32.0271 151.004L34.089 149.628C34.089 149.628 31.065 148.251 30.79 147.976C30.6526 147.7 30.5151 148.251 30.5151 148.251Z" fill="#1A1A1A"/>
<path d="M39.862 146.049L47.0097 141.644L45.2228 138.891L35.1885 145.498C35.0511 145.36 38.7624 146.186 39.862 146.049Z" fill="#1A1A1A"/>
<path d="M68.1778 188.583C68.1778 188.583 67.7655 181.012 75.3255 178.81C82.8855 176.607 86.047 181.563 86.047 181.563C86.047 181.563 81.9233 186.794 77.1124 187.757C72.3015 188.721 68.1778 188.583 68.1778 188.583Z" fill="#1A1A1A"/>
<path d="M32.4393 154.858L15.12 137.377C15.12 137.377 13.8829 136.551 13.1956 137.377C12.5083 138.202 13.1956 139.304 13.1956 139.304L33.1266 159.401C33.1266 159.401 33.9513 159.401 34.5012 158.85C35.051 158.437 34.5012 157.336 34.3637 157.061C34.2263 156.923 32.4393 154.858 32.4393 154.858Z" fill="#1A1A1A"/>
<path d="M77.2498 125.125C77.2498 125.125 71.4767 127.053 70.377 128.704C69.2774 130.356 68.0403 135.587 68.0403 135.587C68.0403 135.587 75.8752 130.219 82.1982 129.53C82.3356 129.393 78.6243 128.567 77.2498 125.125Z" fill="white"/>
<path d="M71.8892 124.024L73.2637 123.336L72.439 125.951L71.8892 124.024Z" fill="#B5B5B5"/>
<path d="M160.823 129.53C160.823 129.53 157.386 127.466 158.623 122.51C159.998 117.555 165.221 118.105 165.221 118.105L160.548 104.753C160.548 104.753 160.548 95.8057 170.582 95.2551C170.582 95.2551 174.156 93.6033 177.317 94.1539C180.479 94.5668 182.678 97.4575 183.365 101.174C183.365 101.587 172.094 104.202 172.094 104.202C172.094 104.202 170.994 101.725 169.482 101.174C169.482 101.174 171.407 105.579 171.407 108.47C171.407 108.47 167.695 107.644 167.558 111.085C167.421 114.526 170.582 114.802 172.094 113.976C172.094 113.976 177.042 116.041 177.317 120.858C177.592 125.538 173.194 126.777 173.194 126.777C173.194 126.777 168.383 126.64 165.496 127.603C162.61 128.567 160.823 129.53 160.823 129.53Z" fill="#1A1A1A"/>
<path d="M181.166 118.794L182.266 126.64L186.664 126.502C186.664 126.502 187.764 123.611 187.077 121.409C186.389 119.344 183.778 117.83 183.778 117.83C183.778 117.83 182.266 118.931 181.166 118.794Z" fill="#0CD494"/>
<path d="M250.581 39.3684C250.581 61.1174 232.987 78.7368 211.269 78.7368C189.551 78.7368 171.957 61.1174 171.957 39.3684C172.094 17.6194 189.688 0 211.406 0C232.987 0 250.581 17.6194 250.581 39.3684Z" fill="#1A1A1A"/>
<path d="M231.887 51.7571C230.925 58.2267 225.839 63.0446 218.142 64.4211C217.317 64.5587 216.492 64.834 215.53 64.9717C215.53 67.3118 215.53 69.6519 215.53 72.1296C213.331 72.1296 211.269 72.1296 209.07 72.1296C209.07 69.9272 209.07 67.5871 209.07 64.9717C199.723 63.8705 194.362 59.0527 192.438 50.6559C195.874 49.83 199.173 49.0041 202.609 48.1782C202.884 48.8664 203.159 49.5547 203.296 50.1053C205.083 55.1984 210.719 57.6761 216.08 55.6114C218.554 54.6478 219.654 52.8583 219.929 50.5182C220.066 48.4535 219.104 46.664 216.905 45.7004C214.155 44.5992 211.269 43.498 208.382 42.5344C206.87 41.9838 205.358 41.4332 203.846 40.8826C196.561 37.7166 193.262 32.4859 194.224 25.1903C195.187 18.1701 199.585 13.7652 207.42 12.251C207.695 12.251 208.107 12.1134 208.52 11.9757C208.52 10.1863 208.52 8.39679 208.52 6.46967C210.857 6.46967 214.98 6.46967 214.98 6.46967L215.118 11.8381C215.118 11.8381 216.492 11.9757 220.203 13.3523C225.427 15.1417 228.451 18.8583 230.1 23.9514C227.076 25.0527 224.052 26.2915 221.028 27.3927C219.929 25.7409 218.966 24.0891 217.729 22.5749C215.805 20.3725 213.056 19.8219 210.169 20.5102C207.832 21.0608 206.458 22.5749 206.046 24.7774C205.633 27.1174 206.458 29.0446 208.795 30.0081C211.131 31.1093 213.606 31.9353 216.08 32.8988C218.142 33.7247 220.203 34.413 222.128 35.2389C229.963 38.6802 232.987 43.911 231.887 51.7571Z" fill="#0CD494"/>
<path d="M230.352 164.345C233.943 150.826 225.911 136.952 212.412 133.356C198.913 129.76 185.059 137.803 181.468 151.321C177.877 164.839 185.908 178.713 199.407 182.31C212.906 185.906 226.761 177.863 230.352 164.345Z" fill="white"/>
<path d="M177.317 155.822H202.609L202.747 130.494C202.747 130.494 192.85 129.806 184.877 137.789C177.042 145.911 177.317 155.822 177.317 155.822Z" fill="#1A1A1A"/>
<path d="M175.943 161.879C175.943 161.879 177.18 159.538 177.867 157.474C178.692 155.409 178.967 153.206 181.029 153.069C181.029 153.069 180.754 157.474 180.754 158.575C180.754 159.676 180.479 161.19 181.991 160.915C183.365 160.64 185.29 160.089 187.352 158.024C189.413 155.96 191.063 153.482 192.85 154.308C194.637 155.134 193.675 156.648 193.675 156.648C193.675 156.648 194.774 156.785 195.462 157.749C196.286 158.713 195.187 159.676 195.187 159.676C195.187 159.676 196.424 160.089 196.424 161.328C196.424 162.429 195.324 164.081 192.712 166.421C190.238 168.761 186.115 172.34 183.365 172.891C183.365 172.891 181.441 169.312 179.654 166.834C178.005 164.356 175.668 162.016 175.668 162.016H175.943V161.879Z" fill="white"/>
<path d="M184.053 174.955C184.053 174.955 177.042 190.372 156.149 196.842L155.737 192.988C155.874 193.125 169.345 191.061 184.053 174.955Z" fill="#1A1A1A"/>
<path d="M86.1844 181.563C86.1844 181.563 80.5487 194.64 59.793 192.713L60.0679 186.794C60.0679 186.794 67.0781 189.271 72.9887 188.583C78.8993 187.895 84.6724 184.453 86.1844 181.563Z" fill="#1A1A1A"/>
<path d="M209.757 94.0162L207.008 91.9514C207.008 91.9514 204.396 93.1903 204.808 94.1538C205.221 95.1174 209.757 94.0162 209.757 94.0162Z" fill="#1A1A1A"/>
<path d="M220.478 87.8218V89.749C220.478 89.749 221.44 88.9231 221.44 88.2348C221.44 87.5465 220.478 87.8218 220.478 87.8218Z" fill="#1A1A1A"/>
<path d="M72.4391 98.5587C69.0027 98.6964 62.1299 99.6599 61.3052 106.405C61.3052 106.405 62.5423 107.919 65.2914 109.571C65.4288 109.571 61.9925 100.761 72.4391 98.5587Z" fill="white"/>
<path d="M85.9097 130.356C75.1881 127.879 77.9372 115.765 77.9372 115.765C77.5249 116.316 77.25 116.453 77.25 116.453C77.25 116.453 76.4252 119.069 76.7001 122.235C76.9751 125.401 79.1743 128.429 82.6107 129.53C84.1227 129.943 85.9097 130.356 87.6966 130.907C87.1467 130.632 86.5969 130.494 85.9097 130.356Z" fill="white"/>
<path d="M177.455 94.1539C174.293 93.7409 170.719 95.2551 170.719 95.2551C180.204 94.5668 180.341 102.275 180.341 102.275L183.503 101.587C182.816 97.4575 180.479 94.5668 177.455 94.1539Z" fill="white"/>
<path d="M177.455 120.996C177.18 116.316 172.232 114.113 172.232 114.113C172.232 114.113 175.805 116.178 175.118 121.409C174.568 125.263 171.407 126.64 169.895 127.053C171.819 126.915 173.469 126.915 173.469 126.915C173.469 126.915 177.592 125.676 177.455 120.996Z" fill="white"/>
<path d="M184.053 126.502C184.053 126.64 186.389 126.502 186.389 126.502C186.389 126.502 187.489 123.611 186.802 121.409C186.114 119.344 183.503 117.83 183.503 117.83C183.503 117.83 183.228 118.105 182.815 118.243C183.778 119.069 186.389 121.409 184.053 126.502Z" fill="white"/>
<path d="M128.108 129.117L126.046 132.834L126.596 136.826L122.748 146.186L122.473 140.955L124.809 136.551L124.397 132.421L127.696 128.016L128.108 129.117Z" fill="white"/>
<path d="M165.221 118.518C162.335 109.708 160.273 105.166 160.273 105.166C160.135 103.652 160.823 100.486 163.022 98.0081C164.946 95.9433 167.558 94.8421 170.582 95.1174C167.695 95.5304 165.221 96.4939 163.434 98.421C161.373 100.623 160.685 103.514 160.685 104.891C160.96 105.441 162.747 109.846 165.359 118.105C165.359 118.518 165.221 118.518 165.221 118.518Z" fill="#1A1A1A"/>
<path d="M177.592 119.206C177.317 119.206 177.18 119.206 176.905 119.206C177.867 118.656 179.379 118.656 180.341 118.518C181.303 118.381 181.991 118.243 182.678 117.968C183.64 117.417 184.19 116.591 184.465 115.215C184.74 113.012 184.327 110.672 183.915 108.47C183.503 106.543 182.54 101.862 182.54 101.862C183.09 101.725 184.19 106.405 184.465 108.057C184.877 110.672 185.427 113.012 185.015 115.352C184.74 116.866 184.052 117.968 182.953 118.518C182.128 118.931 181.028 119.069 180.479 119.206C179.654 119.206 178.554 119.206 177.592 119.206Z" fill="#1A1A1A"/>
<path d="M176.08 106.818C176.355 106.68 176.493 106.818 176.63 107.644C176.905 108.607 176.63 108.745 176.493 108.745C176.218 108.745 176.08 108.47 175.943 107.919C175.805 107.231 175.805 106.955 176.08 106.818Z" fill="#1A1A1A"/>
<path d="M182.815 105.441C183.09 105.304 183.228 105.441 183.503 106.267C183.778 107.231 183.503 107.368 183.365 107.368C183.09 107.368 182.953 107.093 182.815 106.542C182.541 105.992 182.403 105.579 182.815 105.441Z" fill="#1A1A1A"/>
<path d="M181.303 103.652C182.403 102.551 183.09 102.826 183.503 103.101C182.815 103.377 182.266 103.239 181.303 103.652Z" fill="#1A1A1A"/>
<path d="M174.843 105.304C175.668 103.652 177.317 103.789 177.317 103.789C177.18 104.34 175.805 104.202 174.98 105.166C174.98 105.304 174.843 105.304 174.843 105.304Z" fill="#1A1A1A"/>
<path d="M170.582 114.802C168.933 114.802 167.421 113.563 167.283 111.773C167.146 109.984 168.383 108.332 170.307 108.057C170.994 108.057 171.682 108.057 172.232 108.47C171.407 108.745 170.857 108.607 170.307 108.607C168.795 108.745 167.695 110.121 167.833 111.636C167.97 113.15 169.345 114.251 170.857 114.113C171.407 114.113 171.819 113.838 172.232 113.563C172.094 114.389 171.544 114.664 170.857 114.664C170.719 114.802 170.719 114.802 170.582 114.802Z" fill="#1A1A1A"/>
<path d="M170.17 113.287C169.895 112.737 171.407 111.223 171.407 111.223L169.208 110.121C169.482 109.571 171.957 110.947 171.957 110.947C172.094 111.36 170.307 113.287 170.307 113.287H170.17Z" fill="#1A1A1A"/>
<path d="M181.578 130.769C181.441 130.769 174.156 126.777 174.156 126.777C174.431 126.227 181.303 129.943 181.303 129.943L181.853 126.64L180.754 118.794C181.303 118.656 182.403 126.502 182.403 126.502C182.403 126.64 181.853 130.356 181.853 130.356C181.716 130.769 181.578 130.769 181.578 130.769Z" fill="#1A1A1A"/>
<path d="M160.823 129.806C157.386 127.19 157.524 123.887 158.761 121.547C160.135 119.069 163.159 117.279 165.908 118.243C163.297 117.83 160.41 119.619 159.173 121.822C157.661 124.437 158.348 127.19 160.823 129.255C160.96 129.806 160.96 129.806 160.823 129.806Z" fill="#1A1A1A"/>
<path d="M186.527 126.777C187.077 124.3 187.077 122.51 186.389 120.996C185.427 118.931 183.365 118.105 183.365 118.105C183.64 117.555 185.839 118.381 186.939 120.721C187.626 122.372 187.626 124.3 186.802 126.502C186.664 126.64 186.664 126.777 186.527 126.777Z" fill="#1A1A1A"/>
<path d="M172.369 127.328C172.506 126.777 176.767 126.502 177.042 121.409C177.317 116.316 171.819 114.389 171.682 114.389C171.957 113.838 177.867 115.903 177.592 121.547C177.317 127.19 172.506 127.328 172.369 127.328Z" fill="#1A1A1A"/>
<path d="M182.403 111.773C182.541 110.947 183.09 109.984 183.09 109.433C182.816 109.02 182.266 109.433 181.991 109.571C181.716 109.708 181.441 109.846 181.304 109.846C181.029 109.433 180.204 106.68 179.929 106.13C180.754 106.955 181.304 108.607 181.441 109.158C182.128 108.745 182.816 108.332 183.228 108.745C183.365 108.883 183.503 109.02 183.503 109.433C183.503 110.259 182.816 111.36 182.403 111.773C182.541 111.773 182.541 111.773 182.403 111.773Z" fill="#1A1A1A"/>
<path d="M179.929 114.389C179.654 114.389 179.379 114.389 179.104 114.251C178.142 113.838 177.867 112.599 177.73 112.599C178.28 112.462 178.554 113.425 179.242 113.7C179.654 113.976 180.204 113.838 180.891 113.563C180.754 114.251 180.341 114.389 179.929 114.389Z" fill="#1A1A1A"/>
<path d="M39.9996 146.186C39.8621 145.636 46.46 141.368 46.46 141.368L45.0854 139.166L35.3261 145.36C35.0512 144.81 45.0854 138.478 45.0854 138.478C45.4978 138.615 47.2847 141.368 47.2847 141.368C47.1473 141.781 40.2745 146.186 40.2745 146.186C40.137 146.186 40.137 146.186 39.9996 146.186Z" fill="#1A1A1A"/>
<path d="M46.8724 141.919C46.735 141.368 47.8346 140.68 47.8346 140.68L46.4601 138.478L45.3604 139.028C45.0855 138.478 46.3226 137.652 46.3226 137.652C46.735 137.79 48.5219 140.543 48.5219 140.543C48.3844 140.955 47.1473 141.781 47.1473 141.781C47.0099 141.781 47.0099 141.919 46.8724 141.919Z" fill="#1A1A1A"/>
<path d="M29.2781 151.692C29.2781 151.142 31.8897 150.729 31.8897 150.729L34.089 149.352C34.3639 149.903 32.1646 151.279 32.1646 151.279C32.0272 151.417 29.2781 151.692 29.2781 151.692Z" fill="#1A1A1A"/>
<path d="M28.5908 151.004C28.3159 150.591 30.1028 147.838 30.1028 147.838C30.6526 148.113 28.7282 150.866 28.7282 150.866C28.7282 151.004 28.7282 151.004 28.5908 151.004Z" fill="#1A1A1A"/>
<path d="M39.1747 150.453C33.8139 150.453 31.6147 149.077 30.7899 148.251C30.2401 147.7 29.9652 147.15 30.1027 146.599C30.2401 144.672 32.9892 144.534 33.1267 144.534C33.2641 144.534 39.9994 146.324 42.6111 145.498C40.1369 146.875 33.6765 145.36 33.1267 145.085C32.8518 145.085 30.7899 145.223 30.7899 146.462C30.7899 146.875 30.9274 147.287 31.3398 147.7C32.027 148.389 34.2263 149.903 40.8242 149.628C40.1369 150.453 39.5871 150.453 39.1747 150.453Z" fill="#1A1A1A"/>
<path d="M32.4394 145.223C32.3019 144.672 34.6387 142.194 36.4256 141.506C38.2125 140.68 40.6867 141.231 40.8242 141.231C40.6867 141.781 38.2125 141.368 36.7005 142.057C35.051 142.745 32.7143 145.085 32.7143 145.223C32.5768 145.223 32.5768 145.223 32.4394 145.223Z" fill="#1A1A1A"/>
<path d="M51.1333 147.838C50.9958 147.838 44.2605 143.433 44.2605 143.433C44.5354 142.883 51.2707 147.287 51.2707 147.287C51.2707 147.838 51.1333 147.838 51.1333 147.838Z" fill="#1A1A1A"/>
<path d="M45.3603 154.721C42.3362 153.344 40.6868 151.968 40.137 150.316C41.2366 151.555 42.7486 152.931 45.4977 154.17C45.6352 154.583 45.4977 154.721 45.3603 154.721Z" fill="#1A1A1A"/>
<path d="M64.7414 117.417C64.329 117.417 63.9167 117.142 63.7792 116.729L62.817 112.599C62.6796 112.049 62.9545 111.498 63.5043 111.36C63.7792 111.36 64.0541 111.36 64.1916 111.498C64.4665 111.636 64.6039 111.911 64.6039 112.049L65.5661 116.178C65.7036 116.729 65.4287 117.279 64.8788 117.417C64.8788 117.279 64.7414 117.417 64.7414 117.417ZM63.7792 111.911C63.5043 111.911 63.3668 112.186 63.3668 112.462L64.329 116.591C64.329 116.866 64.6039 117.004 64.7414 116.866C65.0163 116.866 65.0163 116.591 65.0163 116.453L64.0541 112.324C63.9166 111.911 63.7792 111.911 63.7792 111.911Z" fill="#1A1A1A"/>
<path d="M64.879 114.389C64.7415 113.838 72.5765 111.773 72.5765 111.773C72.7139 112.462 65.0164 114.389 64.879 114.389Z" fill="#1A1A1A"/>
<path d="M59.6555 203.587C59.2432 198.494 59.3806 191.611 59.6555 186.794C59.9304 191.611 59.9304 198.356 59.9304 203.312C59.6555 203.587 59.6555 203.587 59.6555 203.587Z" fill="#1A1A1A"/>
<path d="M60.0681 165.045C59.7932 163.668 59.9306 162.842 59.9306 161.879C60.6179 150.591 60.8928 145.498 67.903 135.449C68.3154 135.174 76.2878 129.806 82.3358 129.255C76.7002 130.356 69.0027 135.449 68.3154 135.862C61.4426 145.773 61.1677 150.866 60.4804 162.016C60.4804 162.98 60.343 163.943 60.343 164.907C60.343 164.907 60.2055 165.045 60.0681 165.045Z" fill="#1A1A1A"/>
<path d="M98.1431 203.587C97.8682 203.036 97.0435 183.352 96.4937 169.725C97.7307 183.352 98.418 203.174 98.418 203.312C98.1431 203.587 98.1431 203.587 98.1431 203.587Z" fill="#1A1A1A"/>
<path d="M71.0645 188.996C64.7415 188.996 58.6935 186.381 53.4702 183.903C47.5596 181.012 41.9239 177.433 36.4257 173.854C36.1508 173.441 35.601 169.862 39.8621 163.943C43.8483 158.713 47.0098 158.713 47.2847 158.713C47.4222 158.713 48.1094 158.988 48.1094 158.988C54.2949 161.741 60.4804 164.494 66.6659 167.247C69.1401 168.348 70.7896 168.073 71.7517 166.421C72.439 165.32 72.7139 163.806 72.8514 162.567L73.1263 160.089C73.6761 155.547 74.3634 150.866 75.0507 146.324C74.9132 151.004 74.3634 155.684 73.8136 160.089L73.5387 162.567C73.4012 163.943 73.1263 165.458 72.3016 166.696C71.0645 168.486 69.1401 168.899 66.391 167.66C60.2055 164.907 54.02 162.154 47.8345 159.401L47.2847 159.126C46.8723 159.126 43.9858 159.538 40.4119 164.081C36.7006 169.036 36.7006 172.34 36.7006 173.028C42.1989 176.47 47.8345 180.049 53.7451 183.077C59.1059 185.692 65.5663 188.445 72.0267 188.17C82.1983 187.757 89.0711 179.085 91.2704 170.688C92.2326 166.972 93.1948 162.704 93.1948 162.704C93.7446 162.842 92.7824 167.109 91.8202 170.826C89.4835 179.36 82.4733 188.17 72.0267 188.721C71.7517 188.996 71.3394 188.996 71.0645 188.996Z" fill="#1A1A1A"/>
<path d="M43.5734 160.777C43.2985 160.364 42.7487 157.198 47.0098 151.417C50.996 146.186 54.1575 146.186 54.4324 146.186C54.5699 146.186 61.5801 149.352 61.5801 149.352C61.3052 149.903 54.2949 146.737 54.2949 146.737C53.8826 146.737 50.996 147.15 47.4222 151.692C43.2985 157.198 43.7109 160.364 43.7109 160.364C43.5734 160.777 43.5734 160.777 43.5734 160.777Z" fill="#1A1A1A"/>
<path d="M64.1917 110.947C64.4666 109.984 65.5662 109.296 66.9408 109.984C65.2913 109.709 64.3291 110.81 64.3291 110.81C64.3291 110.947 64.3291 110.947 64.1917 110.947Z" fill="#1A1A1A"/>
<path d="M97.4558 147.838C100.892 135.862 98.418 125.951 91.2703 122.923C84.1226 119.895 83.9852 116.866 83.8477 112.049C83.8477 110.397 83.7103 108.47 83.2979 106.13C81.9233 97.7328 74.6382 98.834 74.3633 98.834C73.4011 98.6964 72.5764 98.834 71.3393 98.9717C65.0163 99.7976 61.9923 102 61.7174 106.13C61.4425 101.725 64.604 99.247 71.2018 98.421C72.3015 98.2834 73.2637 98.1457 74.2259 98.2834C74.5008 98.2834 76.4251 98.0081 78.487 98.6963C80.5488 99.3846 83.1604 101.312 83.8477 105.992C84.2601 108.332 84.2601 110.259 84.3975 111.911C84.535 116.729 84.6725 119.344 91.5452 122.235C98.9678 125.401 101.579 135.587 97.7307 147.563C97.7307 147.7 97.5933 147.838 97.4558 147.838Z" fill="#1A1A1A"/>
<path d="M68.5901 124.988C67.7654 124.988 66.9406 124.85 66.2533 124.437C63.9166 123.198 63.2293 120.445 63.2293 119.757C62.4046 119.206 60.6177 118.105 60.6177 117.417C60.6177 116.729 62.1297 115.49 63.0919 114.939L61.7173 107.093C62.2671 106.955 63.6417 115.077 63.6417 115.077C62.2671 116.178 61.1675 117.142 61.1675 117.417C61.1675 117.692 62.2671 118.518 63.6417 119.344C63.7791 119.619 64.329 122.648 66.5283 123.887C68.1777 124.713 70.2395 124.437 72.8512 123.061C71.4766 124.575 69.9646 124.988 68.5901 124.988Z" fill="#1A1A1A"/>
<path d="M65.9785 112.737C65.7036 112.737 65.5661 112.874 65.841 113.7C66.1159 114.664 66.3908 114.664 66.5283 114.664C66.6657 114.526 66.8032 114.251 66.6657 113.563C66.3908 113.012 66.2534 112.737 65.9785 112.737Z" fill="#1A1A1A"/>
<path d="M64.4666 121.822C64.7415 121.271 65.2913 121.134 65.5662 120.858C66.116 120.308 66.116 119.344 66.116 119.344C66.6658 119.344 66.8033 120.583 65.9786 121.271C65.5662 121.684 65.0164 121.822 64.4666 121.822Z" fill="#1A1A1A"/>
<path d="M75.3255 117.279C74.9132 117.279 74.6382 117.279 74.2259 117.142C74.9132 116.729 75.6004 116.729 76.1503 116.591C76.8375 116.316 77.5248 115.903 77.7997 115.215C78.2121 114.526 78.2121 113.7 77.9372 113.012C77.6623 112.324 77.2499 111.636 76.5626 111.36C75.8753 110.947 75.0506 110.947 74.3633 111.223C73.4011 111.498 72.7139 112.324 72.439 113.287C72.164 111.911 72.9888 111.085 74.2259 110.672C75.0506 110.397 76.0128 110.534 76.8375 110.947C77.6623 111.36 78.2121 112.049 78.487 113.012C78.7619 113.838 78.6244 114.802 78.2121 115.628C77.7997 116.453 77.1124 117.004 76.1503 117.279C76.1503 117.279 75.7379 117.279 75.3255 117.279Z" fill="#1A1A1A"/>
<path d="M76.5627 115.215C76.4252 115.215 73.951 114.526 73.951 114.526C73.8136 114.113 75.463 111.773 75.463 111.773C75.8754 112.186 74.5008 113.976 74.5008 113.976L76.7001 114.526C76.8376 115.215 76.7001 115.215 76.5627 115.215Z" fill="#1A1A1A"/>
<path d="M68.1777 135.862C67.9028 135.449 68.1777 131.595 69.9646 128.98C71.2017 127.053 75.4629 125.401 77.1123 124.85C73.8134 126.64 71.2017 128.154 70.377 129.393C68.7275 131.87 68.4526 135.587 68.4526 135.725C68.4526 135.725 68.3152 135.862 68.1777 135.862Z" fill="#1A1A1A"/>
<path d="M96.2186 150.591C95.9437 144.397 94.9815 139.166 94.1567 137.101C93.4695 135.725 92.7822 134.486 91.82 133.522C90.1706 131.87 87.8338 131.32 85.4971 130.632C83.8476 130.219 82.0607 129.806 80.6861 128.842C76.5625 126.502 75.8752 120.996 76.9748 116.591C76.425 120.996 77.1123 126.227 80.961 128.429C82.3356 129.255 84.1225 129.668 85.6345 130.081C87.9713 130.632 90.4455 131.32 92.2324 133.109C93.1946 134.073 94.1568 135.312 94.7066 136.826C95.6688 138.891 96.6309 144.259 96.6309 150.316C96.4935 150.453 96.356 150.591 96.2186 150.591Z" fill="#1A1A1A"/>
<path d="M72.7137 112.186C64.1915 110.81 61.1675 106.68 61.1675 106.542C61.7173 106.267 64.6039 110.259 72.8512 111.636C72.9886 112.186 72.9886 112.186 72.7137 112.186Z" fill="#1A1A1A"/>
<path d="M72.439 127.466C72.1641 127.19 71.3394 124.162 71.3394 124.162C71.8892 124.024 72.7139 127.053 72.7139 127.053C72.5765 127.466 72.5765 127.466 72.439 127.466Z" fill="#1A1A1A"/>
<path d="M43.5734 160.777C43.4359 160.64 42.8861 160.364 40.4119 158.024C39.4497 157.061 38.625 156.235 37.8002 155.271C37.5253 154.858 37.113 154.445 36.8381 153.895C36.4257 153.206 35.8759 152.656 35.4635 151.968C35.326 151.83 35.1886 151.555 34.9137 151.417C34.6388 151.142 34.3639 150.866 33.9515 150.729C33.5391 150.591 33.1268 150.729 32.7144 150.866C32.302 151.142 32.0271 151.555 32.0271 152.105C32.0271 152.794 32.4395 153.619 32.8519 154.308C33.1268 154.721 33.2642 154.996 33.5391 155.409C33.814 155.822 34.089 156.235 34.3639 156.648C34.7762 157.198 35.4635 158.3 34.0889 159.401C33.814 159.676 33.2642 159.814 32.7144 159.401C33.4017 159.126 33.6766 158.988 33.814 158.988C34.7762 158.3 34.3639 157.611 33.9515 157.198C33.5391 156.648 33.2642 156.235 32.9893 155.822C32.7144 155.409 32.4395 155.134 32.302 154.721C31.8897 154.032 31.3398 153.069 31.3398 152.243C31.3398 151.555 31.7522 151.004 32.302 150.591C32.8519 150.178 33.5391 150.178 34.0889 150.316C34.6388 150.453 34.9137 150.866 35.1886 151.004C35.326 151.142 35.601 151.417 35.7384 151.555C36.2882 152.105 36.7006 152.794 37.2504 153.482C37.5253 153.895 37.8002 154.308 38.2126 154.721C38.8999 155.547 39.7246 156.51 40.6868 157.336C43.161 159.538 43.5734 159.951 43.5734 159.951C43.7108 160.777 43.7108 160.777 43.5734 160.777Z" fill="#1A1A1A"/>
<path d="M29.9653 161.466C24.4671 157.198 24.1922 154.858 25.5667 152.518C25.1543 154.583 24.742 156.648 30.2402 161.053C30.1027 161.328 30.1027 161.466 29.9653 161.466Z" fill="#1A1A1A"/>
<path d="M36.9754 170.275C36.1507 168.899 35.1885 168.348 33.539 167.385C32.8518 166.972 32.1645 166.696 31.4772 166.146C28.3157 164.081 25.7041 161.328 24.6044 158.85C23.0924 155.134 25.2917 153.344 25.2917 153.206C25.5666 153.757 23.7797 155.271 25.1543 158.575C26.1165 160.915 28.7281 163.668 31.7521 165.595C32.5769 166.146 33.2641 166.421 33.814 166.834C35.4634 167.798 36.5631 168.348 37.2503 169.862C36.9754 170.138 36.9754 170.275 36.9754 170.275Z" fill="#1A1A1A"/>
<path d="M68.3153 188.721C67.4905 184.178 70.652 179.911 75.4629 178.534C79.5866 177.296 83.9852 178.397 86.3219 181.425C83.7102 179.085 79.4491 177.984 75.6004 179.223C71.0644 180.599 68.0403 184.591 68.5902 188.583C68.3153 188.721 68.3153 188.721 68.3153 188.721Z" fill="#1A1A1A"/>
<path d="M206.045 158.162H195.599C195.599 157.611 205.771 157.611 205.771 157.611V132.559C206.32 132.559 206.32 157.887 206.32 157.887C206.32 158.024 206.183 158.162 206.045 158.162Z" fill="#1A1A1A"/>
<path d="M187.352 158.162H180.754C180.754 157.611 187.352 157.611 187.352 157.611C187.626 158.024 187.489 158.162 187.352 158.162Z" fill="#1A1A1A"/>
<path d="M223.09 176.883C228.038 171.652 231.062 164.907 231.062 157.887C231.062 144.121 219.791 132.834 206.045 132.834C194.224 132.834 183.915 141.231 181.578 152.794C183.365 140.818 193.949 132.146 206.045 132.146C220.203 132.146 231.612 143.571 231.612 157.749C231.612 164.907 228.588 171.789 223.227 176.607C223.227 176.745 223.09 176.883 223.09 176.883Z" fill="#1A1A1A"/>
<path d="M180.891 160.64C180.616 160.364 180.479 158.85 180.479 157.887C180.479 156.097 180.616 154.445 181.029 152.794C181.303 154.583 181.166 156.235 181.166 157.887C181.166 158.85 181.303 160.364 181.303 160.364C180.891 160.64 180.891 160.64 180.891 160.64Z" fill="#1A1A1A"/>
<path d="M206.046 183.49C197.386 183.49 189.826 179.498 185.015 172.478C190.101 178.947 197.661 182.939 206.046 182.939C207.558 182.939 208.932 182.802 210.307 182.526C209.07 183.352 207.558 183.49 206.046 183.49Z" fill="#1A1A1A"/>
<path d="M211.681 75.0203H205.221C204.946 74.745 204.946 67.8624 204.946 67.8624C195.736 66.7612 190.376 61.9433 188.314 53.2713C188.589 52.8583 198.76 50.5182 198.76 50.5182C199.035 50.6559 199.31 51.3442 199.31 51.3442C199.448 51.7571 199.723 52.3077 199.86 52.7207C200.685 55.0607 202.334 56.8502 204.533 57.9514C207.008 59.0527 209.757 59.1903 212.368 58.2267C214.568 57.4008 215.805 55.749 215.942 53.4089C216.08 51.3442 215.118 49.6923 213.193 48.8664C211.269 48.0405 209.207 47.2146 207.145 46.5263C206.32 46.251 205.496 45.9757 204.671 45.5628C204.121 45.4251 203.571 45.1498 203.159 45.0122C202.197 44.5992 201.235 44.3239 200.272 43.9109C192.85 40.745 189.551 35.3765 190.513 27.9433C191.475 20.7854 196.011 16.3806 203.984 14.7288C204.121 14.7288 204.396 14.5911 204.671 14.5911C204.946 14.4535 204.946 9.22269 204.946 9.22269C205.221 8.94739 211.681 8.94739 211.681 8.94739C211.956 9.22269 212.093 14.4535 212.093 14.4535C212.643 14.5911 214.155 14.8664 217.042 15.83C221.99 17.6195 225.289 21.0607 227.076 26.5668C226.939 26.9798 217.867 30.4211 217.867 30.4211C217.179 29.7328 216.767 29.3199 216.492 28.7693C215.805 27.668 215.117 26.5668 214.293 25.6033C212.506 23.5385 209.894 22.8502 207.008 23.5385C204.808 24.0891 203.434 25.4656 203.021 27.668C202.609 30.0081 203.434 31.6599 205.633 32.6235C207.283 33.3118 209.069 34 210.856 34.6883C211.544 34.9636 212.231 35.2389 212.918 35.5142C213.605 35.7895 214.293 36.0648 214.98 36.3401C216.355 36.8907 217.729 37.3037 218.966 37.9919C226.664 41.4332 229.688 46.664 228.588 54.6478C227.626 61.2551 222.265 66.2105 214.568 67.5871C214.018 67.7247 213.468 67.8624 212.781 68L212.093 68.1377V75.0203C211.956 74.8826 211.819 75.0203 211.681 75.0203ZM205.496 74.4697H211.406V67.5871C211.681 67.3118 212.506 67.0365 212.506 67.0365C213.193 66.8988 213.743 66.7612 214.293 66.6235C221.853 65.247 226.939 60.5668 227.763 54.0972C228.863 46.3887 225.839 41.2956 218.416 37.9919C217.179 37.4413 215.805 36.8907 214.43 36.4778C213.743 36.2024 213.056 35.9271 212.368 35.6518C211.681 35.3765 210.994 35.1012 210.307 34.8259C208.52 34.1377 206.87 33.4494 205.083 32.7612C202.747 31.7976 201.784 29.7328 202.197 27.1174C202.609 24.7773 204.121 23.1255 206.595 22.5749C209.757 21.749 212.643 22.5749 214.43 24.7773C215.255 25.7409 215.942 26.8421 216.767 28.081C217.042 28.4939 217.317 29.0446 217.592 29.4575L226.114 26.1539C224.327 20.9231 221.303 17.7571 216.492 16.1053C212.918 14.8664 211.406 14.7288 211.406 14.7288C211.131 14.4535 210.994 9.36034 210.994 9.36034H205.083V14.5911C204.121 15.1417 203.984 15.1417 203.709 15.1417C196.011 16.6559 191.613 20.9231 190.65 27.8057C189.688 34.9636 192.987 40.0567 200.135 43.085C201.097 43.498 202.059 43.9109 203.021 44.1863C203.571 44.3239 204.121 44.5992 204.533 44.7369C205.358 45.0122 206.183 45.2875 207.008 45.7004C209.069 46.3887 211.131 47.2146 213.056 48.0405C215.255 49.0041 216.355 50.7935 216.217 53.1336C216.08 55.749 214.705 57.5385 212.231 58.502C209.482 59.6033 206.458 59.4656 203.984 58.2267C201.647 57.1255 199.86 55.1984 199.035 52.7207C198.898 52.3077 198.76 51.8948 198.485 51.3442C198.348 50.9312 188.726 53.2713 188.726 53.2713C190.788 61.5304 196.149 66.0729 205.083 67.1741C205.496 67.5871 205.496 74.4697 205.496 74.4697Z" fill="#1A1A1A"/>
<path d="M162.747 163.806C164.671 154.996 164.946 146.599 164.946 146.462C165.496 146.599 165.359 155.134 163.022 163.53C162.885 163.806 162.885 163.806 162.747 163.806Z" fill="#1A1A1A"/>
<path d="M202.059 203.587C201.784 203.174 201.784 194.089 200.822 182.939C202.197 194.089 202.334 203.174 202.334 203.312C202.059 203.587 202.059 203.587 202.059 203.587Z" fill="#1A1A1A"/>
<path d="M156.012 193.263C165.634 191.336 176.63 182.526 183.915 174.68C183.64 173.854 181.991 170.138 179.654 166.972C177.18 163.806 175.255 161.741 174.706 161.19C173.469 162.016 166.733 166.421 160.823 171.101C166.871 165.457 174.431 160.64 174.568 160.64C174.981 160.64 177.18 162.842 180.066 166.696C182.816 170.413 184.465 174.68 184.465 174.68C177.18 182.939 165.908 191.887 156.012 193.263Z" fill="#1A1A1A"/>
<path d="M156.699 132.972C157.386 131.32 158.211 130.769 159.586 129.806C162.747 127.879 166.046 126.64 172.369 126.64C166.183 127.19 163.022 128.429 159.86 130.219C158.486 131.045 157.799 131.733 156.836 132.696C156.836 132.972 156.699 132.972 156.699 132.972Z" fill="#1A1A1A"/>
<path d="M182.266 126.915C191.475 126.364 202.334 124.024 205.221 117.417C206.32 115.077 206.87 112.324 207.008 109.02C207.145 104.34 206.32 99.1093 204.671 94.2915C207.008 98.9717 207.832 104.202 207.557 109.02C207.42 112.462 206.87 115.215 205.77 117.692C203.159 123.474 194.362 126.915 182.266 126.915Z" fill="#1A1A1A"/>
<path d="M218.554 135.862C218.829 134.623 219.379 133.798 219.791 133.109C229.275 118.243 223.502 94.9797 221.441 88.2348C224.602 96.7692 229.55 118.794 220.341 133.385C219.929 134.073 219.379 134.899 218.829 135.725C218.691 135.862 218.691 135.862 218.554 135.862Z" fill="#1A1A1A"/>
<path d="M210.032 94.2915C209.894 94.1539 207.558 92.502 205.083 90.9879C202.747 89.4737 201.372 86.996 202.059 85.3442C202.059 85.3442 204.808 78.5992 207.283 78.3239C207.695 78.3239 208.245 78.3239 208.795 79.1498C210.856 82.1782 207.283 87.2713 207.008 87.5466C206.595 87.1336 210.032 82.1782 208.245 79.5628C207.97 79.1498 207.695 79.0122 207.283 79.0122C205.633 79.1498 203.159 83.9676 202.609 85.6195C202.197 86.8583 203.022 88.9231 205.496 90.5749C207.97 92.0891 210.307 93.8786 210.307 93.8786C210.169 94.2915 210.032 94.2915 210.032 94.2915Z" fill="#1A1A1A"/>
<path d="M220.478 90.0243C220.616 85.3442 219.928 79.8381 219.928 79.7004C220.478 79.7004 221.166 85.2065 220.891 89.749C220.753 89.8867 220.616 90.0243 220.478 90.0243Z" fill="#1A1A1A"/>
<path d="M183.365 173.028C187.214 171.789 195.462 163.806 196.011 161.741C196.424 160.364 195.187 159.814 195.187 159.676C195.462 158.713 195.462 158.024 195.049 157.611C194.912 157.474 194.637 157.336 194.499 157.198C194.224 157.061 193.812 157.198 193.4 157.336C193.675 156.51 194.224 156.372 194.637 156.648C194.912 156.785 195.187 156.923 195.462 157.198C196.011 157.887 196.149 158.713 195.736 159.401C196.286 159.814 196.974 160.64 196.561 161.879C196.011 164.081 187.627 172.34 183.365 173.028Z" fill="#1A1A1A"/>
<path d="M186.939 162.842C187.902 161.603 190.926 158.988 191.888 158.162C192.85 157.336 193.675 156.51 193.675 155.822C193.675 155.547 193.537 155.271 193.262 154.858C192.3 154.032 191.613 154.445 190.376 155.684C190.238 155.822 189.963 156.097 189.689 156.373C188.726 157.336 187.352 158.713 186.39 159.401C185.152 160.364 183.228 161.466 181.854 161.466C181.029 161.466 180.754 160.64 180.754 160.227C181.304 160.364 181.441 160.777 181.991 160.777C182.953 160.777 184.603 159.951 186.115 158.85C186.939 158.162 188.314 156.785 189.276 155.822C189.551 155.547 189.826 155.271 189.963 155.134C190.926 154.308 192.163 152.931 193.675 154.308C194.087 154.721 194.362 155.134 194.362 155.684C194.362 156.648 193.4 157.474 192.85 158.024C191.613 159.263 188.451 161.879 187.352 162.567C187.077 162.704 187.077 162.842 186.939 162.842Z" fill="#1A1A1A"/>
<path d="M175.943 162.154C176.493 160.64 177.043 158.988 177.592 157.474C177.867 156.785 178.005 156.235 178.28 155.822C178.417 155.547 178.417 155.271 178.555 154.996C178.967 153.895 179.379 152.381 181.166 152.656C179.929 153.069 179.517 153.895 179.104 155.134C178.967 155.409 178.967 155.684 178.829 155.96C178.692 156.372 178.417 156.923 178.28 157.611C177.73 159.126 177.18 160.915 176.355 161.879C176.08 162.016 175.943 162.154 175.943 162.154Z" fill="#1A1A1A"/>
<path d="M189.001 165.595C188.864 165.045 190.376 163.806 192.025 162.429C193.4 161.328 195.049 159.263 195.049 159.263C194.912 160.364 193.537 162.016 192.3 162.98C190.651 164.356 189.001 165.595 189.001 165.595Z" fill="#1A1A1A"/>
<path d="M206.32 94.8421C205.496 94.8421 204.808 94.7045 204.671 94.1539C204.396 93.4656 205.221 92.6397 207.008 91.6761C205.083 93.4656 205.221 94.0162 205.221 94.0162C205.358 94.4292 208.52 94.4292 213.88 92.502C216.08 91.6761 218.142 90.8502 219.654 89.8867C221.441 88.9231 221.578 88.3725 221.578 88.2348C221.441 87.9595 221.441 87.9595 220.891 87.9595C221.715 87.4089 221.99 87.4089 222.128 87.9595C222.403 88.6478 221.578 89.336 219.929 90.4373C218.416 91.2632 216.355 92.2267 214.018 93.0526C211.956 93.8785 208.382 94.8421 206.32 94.8421Z" fill="#1A1A1A"/>
<path d="M213.193 88.5102C210.994 85.6195 212.368 81.3523 212.506 81.2146C213.056 81.4899 211.681 85.4818 213.468 88.0972C213.331 88.5101 213.331 88.5102 213.193 88.5102Z" fill="#1A1A1A"/>
<path d="M264.189 108.194C261.577 108.194 259.378 105.992 259.378 103.377C259.378 100.761 261.577 98.5587 264.189 98.5587C266.801 98.5587 269 100.761 269 103.377C269 106.13 266.801 108.194 264.189 108.194ZM264.189 99.247C261.852 99.247 259.928 101.174 259.928 103.514C259.928 105.854 261.852 107.781 264.189 107.781C266.526 107.781 268.45 105.854 268.45 103.514C268.45 101.036 266.526 99.247 264.189 99.247Z" fill="#1A1A1A"/>
<path d="M8.24721 81.7652C5.63556 81.7652 3.43628 79.5628 3.43628 76.9474C3.43628 74.332 5.63556 72.1296 8.24721 72.1296C10.8589 72.1296 13.0581 74.332 13.0581 76.9474C13.0581 79.7004 10.8589 81.7652 8.24721 81.7652ZM8.24721 72.8178C5.91047 72.8178 3.9861 74.745 3.9861 77.085C3.9861 79.2875 5.91047 81.2146 8.24721 81.2146C10.584 81.2146 12.5083 79.2875 12.5083 76.9474C12.5083 74.6073 10.584 72.8178 8.24721 72.8178Z" fill="#1A1A1A"/>
<path d="M257.454 204H23.0925C23.0925 203.449 257.454 203.449 257.454 203.449C257.729 203.862 257.591 204 257.454 204Z" fill="#1A1A1A"/>
<path d="M92.6448 113.287C90.8579 113.287 89.071 112.599 87.6964 111.223L83.7102 107.231C84.1226 106.818 88.1088 110.81 88.1088 110.81C90.583 113.287 94.7066 113.287 97.1808 110.81L136.081 72.8178C138.555 70.3401 138.555 66.2105 136.081 63.7328L133.469 61.1174C132.232 59.8785 130.582 59.1903 128.933 59.1903C127.284 59.1903 125.634 59.8785 124.397 61.1174L92.7823 91.8138C92.3699 91.8138 80.8237 80.251 80.8237 80.251C79.5866 79.0121 77.9371 78.3239 76.2876 78.3239C74.6382 78.3239 72.9887 79.0121 71.7516 80.251L69.14 82.8664C67.9029 84.1053 67.2156 85.7571 67.2156 87.4089C67.2156 89.0607 67.9029 90.7125 69.14 91.9514L75.4629 98.2834C75.0505 98.6964 68.7276 92.2267 68.7276 92.2267C67.353 90.8502 66.6658 89.1984 66.6658 87.2712C66.6658 85.3441 67.353 83.6923 68.7276 82.3158L71.3393 79.7004C72.7138 78.3239 74.3633 77.6356 76.2876 77.6356C78.212 77.6356 79.8615 78.3239 81.236 79.7004L92.6448 91.1255L123.985 60.5668C125.359 59.1903 127.009 58.502 128.933 58.502C130.857 58.502 132.507 59.1903 133.881 60.5668L136.493 63.1822C139.242 65.9352 139.242 70.3401 136.493 73.0931L97.5932 111.223C96.2187 112.599 94.4317 113.287 92.6448 113.287Z" fill="#1A1A1A"/>
<path d="M147.352 176.47C136.218 176.47 122.06 169.174 112.713 161.879C112.576 161.603 113.263 157.061 115.187 153.344C117.799 148.251 122.335 145.911 122.61 145.773C122.885 145.773 134.569 151.692 134.569 151.692C134.294 152.243 122.747 146.462 122.747 146.462C121.923 146.875 118.074 149.215 115.737 153.619C114.088 156.923 113.263 160.777 113.126 161.603C122.335 168.899 136.356 176.057 147.215 176.057C147.489 176.057 147.764 176.057 147.902 176.057C154.225 175.919 158.211 174.13 160.273 170.826C158.486 174.68 154.5 176.47 147.902 176.745C147.902 176.47 147.627 176.47 147.352 176.47Z" fill="#1A1A1A"/>
<path d="M160.685 171.101C162.197 167.935 162.747 163.943 162.197 158.437C160.96 146.186 157.249 135.449 157.249 135.312C154.362 126.364 145.153 122.097 139.929 121.96C145.428 121.547 154.912 125.951 157.799 135.174C157.799 135.312 161.51 146.049 162.747 158.437C163.297 163.943 162.747 168.073 160.96 170.964C160.96 171.101 160.823 171.101 160.685 171.101Z" fill="#1A1A1A"/>
<path d="M144.466 149.49C143.641 144.534 144.603 138.753 144.603 138.753C145.153 138.891 144.191 144.672 144.878 149.215C144.466 149.49 144.466 149.49 144.466 149.49Z" fill="#1A1A1A"/>
<path d="M129.483 103.239C129.208 103.239 129.071 103.239 129.071 104.202C129.071 105.166 129.208 105.304 129.483 105.304C129.758 105.304 129.895 105.028 129.895 104.34C129.895 103.652 129.895 103.239 129.483 103.239Z" fill="#1A1A1A"/>
<path d="M122.61 103.377C122.335 103.377 122.198 103.514 122.198 104.34C122.198 105.304 122.335 105.441 122.61 105.441C122.885 105.441 123.022 105.166 123.022 104.478C123.022 103.652 123.022 103.377 122.61 103.377Z" fill="#1A1A1A"/>
<path d="M136.356 118.518C136.081 118.243 135.531 109.708 135.531 109.708C136.081 109.708 136.631 118.105 136.631 118.105C136.356 118.518 136.356 118.518 136.356 118.518Z" fill="#1A1A1A"/>
<path d="M125.634 117.004C124.122 117.004 122.473 116.729 121.511 115.352C120.411 113.838 120.411 111.773 120.411 109.846C120.411 109.433 120.411 109.02 120.411 108.745C120.411 107.506 120.548 99.5223 120.548 99.2469C121.098 99.3846 120.961 107.506 121.098 108.745C121.098 109.158 121.098 109.571 121.098 109.984C121.098 111.773 121.098 113.7 122.06 115.077C123.023 116.591 124.809 116.591 126.596 116.453C126.871 116.453 127.009 116.453 127.284 116.453C128.796 116.453 129.895 116.316 130.995 116.04C130.033 116.866 128.796 117.004 127.284 117.004C127.009 117.004 126.871 117.004 126.596 117.004C126.184 117.004 125.909 117.004 125.634 117.004Z" fill="#1A1A1A"/>
<path d="M137.318 110.397C136.493 110.397 135.668 110.121 134.981 109.571C136.493 109.984 138.143 109.984 139.38 109.02C140.754 107.919 140.892 105.854 139.792 104.478C139.242 103.789 138.418 103.377 137.593 103.377C136.768 103.239 135.943 103.514 135.256 104.065C134.844 104.478 134.431 104.891 134.294 105.441C134.019 104.615 134.431 104.065 134.844 103.652C135.668 102.964 136.631 102.688 137.593 102.826C138.555 102.964 139.517 103.377 140.204 104.202C140.892 105.028 141.167 105.992 141.029 106.955C140.892 107.919 140.479 108.883 139.655 109.571C139.105 110.121 138.28 110.397 137.318 110.397Z" fill="#1A1A1A"/>
<path d="M120.823 102.275C120.548 101.862 121.235 100.348 123.297 100.899C121.51 101.036 121.098 102 121.098 102.138C121.098 102.275 120.961 102.275 120.823 102.275Z" fill="#1A1A1A"/>
<path d="M130.995 102.413C129.345 100.486 127.971 101.449 127.971 101.449C127.696 100.899 129.483 99.7976 131.27 102C131.132 102.413 131.132 102.413 130.995 102.413Z" fill="#1A1A1A"/>
<path d="M124.947 118.518C124.672 118.243 124.672 116.729 124.672 116.729C125.222 116.729 125.222 118.243 125.222 118.243C124.947 118.518 124.947 118.518 124.947 118.518Z" fill="#1A1A1A"/>
<path d="M139.792 104.202C141.167 101.862 141.579 99.247 141.029 96.9069C140.479 94.9798 139.242 93.7409 137.593 93.1903C136.768 92.915 135.668 92.7773 134.569 92.915C134.019 92.915 132.782 93.0526 132.782 93.0526C132.782 92.502 134.019 92.3644 134.569 92.3644C135.806 92.2267 136.768 92.3644 137.73 92.6397C139.517 93.1903 140.892 94.7045 141.441 96.7692C142.129 99.247 141.579 102.138 140.067 104.065C140.067 104.065 139.929 104.202 139.792 104.202Z" fill="#1A1A1A"/>
<path d="M138.417 108.745C138.28 108.745 135.531 107.368 135.531 107.368C135.393 106.955 137.868 104.34 137.868 104.34C138.28 104.753 136.081 107.093 136.081 107.093L138.417 108.194C138.692 108.607 138.555 108.745 138.417 108.745Z" fill="#1A1A1A"/>
<path d="M131.407 94.7045C131.132 94.2915 132.644 92.3644 132.644 92.3644C133.057 92.7773 131.682 94.5668 131.682 94.5668C131.545 94.7045 131.407 94.7045 131.407 94.7045Z" fill="#1A1A1A"/>
<path d="M144.878 161.466C143.916 161.466 142.816 161.053 142.129 160.227C142.129 160.227 140.892 158.85 141.029 157.749C141.442 158.437 142.129 159.401 142.541 159.814C143.091 160.364 144.053 160.777 144.878 160.777C145.84 160.777 146.527 160.364 146.802 159.676C146.94 159.263 147.077 158.713 147.077 158.3C147.077 155.271 145.978 151.555 143.091 149.903C140.342 148.389 137.868 149.352 137.868 149.352C137.73 148.802 140.342 147.7 143.366 149.352C146.527 151.142 147.627 154.996 147.627 158.162C147.627 158.713 147.627 159.263 147.352 159.814C146.94 160.64 146.115 161.19 145.153 161.19C145.015 161.328 145.015 161.466 144.878 161.466Z" fill="#1A1A1A"/>
<path d="M130.995 150.453C132.095 147.7 133.881 146.737 136.218 146.874C137.868 147.012 138.967 147.563 140.067 148.802C138.692 147.976 137.593 147.563 136.218 147.425C134.156 147.287 132.507 148.251 131.27 150.316C131.27 150.453 131.132 150.453 130.995 150.453Z" fill="#1A1A1A"/>
<path d="M104.191 171.376C100.617 171.376 97.5932 170.826 95.9437 169.312C88.9335 162.429 96.2186 148.939 98.6928 144.397C101.442 139.304 111.064 122.785 123.022 120.858C111.476 123.336 101.854 139.717 99.2426 144.672C92.9197 156.51 91.9575 164.494 96.4935 168.899C101.304 173.579 122.61 168.073 122.747 168.073C122.198 168.761 112.163 171.376 104.191 171.376Z" fill="#1A1A1A"/>
<path d="M134.569 104.615C132.095 102.138 130.583 98.1457 130.033 96.7692C129.071 97.8704 125.909 100.623 120.686 99.3846C126.871 100.211 129.895 95.9433 129.895 95.9433C130.445 96.081 132.095 101.312 134.706 104.065C134.706 104.615 134.706 104.615 134.569 104.615Z" fill="#1A1A1A"/>
<path d="M103.366 204C105.566 191.061 105.978 171.239 105.978 170.964C106.528 171.239 106.116 191.061 103.641 203.725C103.641 203.862 103.504 204 103.366 204Z" fill="#1A1A1A"/>
<path d="M156.424 204C156.149 198.219 154.362 175.506 154.362 175.231C154.912 175.368 156.699 198.219 156.699 203.725C156.699 203.862 156.562 204 156.424 204Z" fill="#1A1A1A"/>
<path d="M133.057 137.239C132.782 137.101 127.559 128.429 127.559 128.429L123.022 134.899C122.473 134.761 122.335 121.822 122.335 121.822C122.335 121.684 124.672 118.105 124.672 118.105C125.222 118.243 127.696 127.19 127.696 127.19L136.218 117.83C136.631 117.83 140.067 121.409 140.067 121.409C140.067 121.684 133.332 136.964 133.332 136.964C133.057 137.239 133.057 137.239 133.057 137.239ZM127.971 127.879L133.057 136.275L139.517 121.684L136.493 118.518L127.971 127.879ZM123.022 121.96L123.16 133.798L127.421 127.879L125.084 119.069L123.022 121.96Z" fill="#1A1A1A"/>
<path d="M127.971 147.15C129.483 140.68 131.682 135.174 131.682 135.036C132.232 135.312 130.033 140.818 128.246 146.874C128.246 147.012 128.108 147.15 127.971 147.15Z" fill="#1A1A1A"/>
<path d="M122.335 145.773C122.198 138.065 122.885 134.073 122.885 134.073C123.435 134.211 122.748 138.202 122.61 145.498C122.61 145.636 122.473 145.773 122.335 145.773Z" fill="#1A1A1A"/>
<path d="M136.218 147.425C136.081 147.425 129.895 147.15 124.534 147.15C130.033 146.599 136.218 146.874 136.218 146.874C136.493 147.287 136.356 147.425 136.218 147.425Z" fill="#1A1A1A"/>
<path d="M99.655 157.061C100.755 152.105 102.679 149.352 105.841 147.976C105.978 147.976 106.528 147.838 106.528 147.838C112.026 146.874 116.699 151.417 116.837 151.555C116.425 151.968 111.751 147.563 106.528 148.389C103.091 149.765 101.167 152.381 99.9299 156.785C99.7925 156.923 99.655 157.061 99.655 157.061Z" fill="#1A1A1A"/>
<path d="M105.428 148.389C105.153 148.113 104.329 145.636 108.04 143.984C111.614 142.47 115.737 145.085 115.875 145.223C115.462 145.636 111.476 143.158 108.315 144.534C105.153 145.911 105.703 147.976 105.841 147.976C105.566 148.389 105.428 148.389 105.428 148.389Z" fill="#1A1A1A"/>
<path d="M122.61 146.324C122.335 146.186 120.548 143.984 116.287 142.607C112.301 141.231 109.964 144.121 109.964 144.121C109.552 143.709 112.026 140.405 116.562 142.057C120.823 143.571 122.748 145.773 122.885 145.911C122.748 146.186 122.748 146.324 122.61 146.324Z" fill="#1A1A1A"/>
<path d="M128.108 137.239L124.672 136.964C124.397 136.688 123.985 132.421 123.985 132.421C124.534 132.421 124.947 136.413 124.947 136.413L127.833 136.688L130.445 133.109C130.857 133.385 128.246 137.239 128.246 137.239C128.383 137.239 128.246 137.239 128.108 137.239Z" fill="#1A1A1A"/>
<path d="M128.796 144.397C128.521 144.121 127.971 136.964 127.971 136.964C128.521 136.964 129.208 144.121 129.208 144.121C128.796 144.397 128.796 144.397 128.796 144.397Z" fill="#1A1A1A"/>
<path d="M122.473 141.781C122.198 141.368 124.535 136.551 124.535 136.551C125.084 136.826 122.748 141.644 122.748 141.644C122.748 141.644 122.61 141.781 122.473 141.781Z" fill="#1A1A1A"/>
<path d="M113.401 142.194C113.126 141.644 113.95 137.514 115.462 134.486C114.5 137.652 113.675 141.919 113.675 141.919C113.538 142.057 113.538 142.194 113.401 142.194Z" fill="#1A1A1A"/>
<path d="M139.105 160.64C137.73 160.502 136.768 159.951 136.356 159.126C135.943 158.437 135.943 157.749 135.943 157.061C135.943 155.822 135.943 154.996 135.668 154.308C135.394 153.344 134.706 152.656 134.294 151.968C135.256 152.243 135.943 153.069 136.218 154.032C136.493 154.858 136.493 155.684 136.493 156.51C136.493 157.749 136.631 158.3 136.768 158.713C137.18 159.401 137.868 159.814 138.83 159.814C139.242 159.814 139.655 159.814 139.93 159.538C140.342 159.263 140.754 158.713 140.892 157.887C141.029 157.474 141.029 157.061 141.029 156.51C141.167 155.271 141.029 152.794 139.655 151.142C138.555 149.765 136.906 148.939 135.394 148.939C133.194 148.939 132.507 150.591 132.507 150.591C131.957 150.316 132.782 148.389 135.394 148.389C137.18 148.389 138.967 149.352 140.204 150.866C141.304 152.243 141.854 154.308 141.717 156.648C141.717 157.198 141.579 157.611 141.579 158.162C141.304 159.126 140.892 159.814 140.342 160.227C140.067 160.502 139.655 160.64 139.105 160.64Z" fill="#1A1A1A"/>
<path d="M127.146 112.599C126.871 112.599 126.459 112.599 126.046 112.462C126.871 112.186 127.421 112.049 127.833 111.911C128.521 111.498 128.658 110.534 128.658 110.534C129.208 110.672 129.07 111.911 128.108 112.462C127.833 112.462 127.558 112.599 127.146 112.599Z" fill="#1A1A1A"/>
<path d="M148.727 159.814C148.177 159.814 147.627 159.676 147.215 159.538C148.039 159.125 149.002 159.401 149.689 158.988C150.376 158.575 150.514 157.611 150.514 157.198C150.651 154.583 148.727 152.243 147.627 151.142C145.978 149.352 143.366 150.178 143.229 150.178C143.229 149.628 145.978 148.664 148.039 150.729C149.277 151.968 151.201 154.445 151.063 157.336C151.063 158.437 150.514 159.125 149.964 159.538C149.551 159.676 149.139 159.814 148.727 159.814Z" fill="#1A1A1A"/>
<path d="M125.359 109.846C124.672 109.846 123.572 109.708 123.022 109.158C122.748 108.883 122.748 108.607 122.748 108.194C123.022 106.68 124.397 102.275 124.397 102.138C124.947 102.413 123.572 106.955 123.297 108.332C123.847 109.296 125.359 109.296 125.772 109.158C125.909 109.846 125.772 109.846 125.359 109.846Z" fill="#1A1A1A"/>
<path d="M120.548 102.826C120.273 102.688 115.737 96.3563 119.998 92.502C123.985 88.7854 129.07 88.7854 132.644 92.3644C128.796 89.4737 124.122 89.4737 120.411 92.915C116.562 96.4939 120.686 102.275 120.823 102.413C120.686 102.826 120.686 102.826 120.548 102.826Z" fill="#1A1A1A"/>
<path d="M33.1268 159.676C32.8519 159.538 13.0584 139.579 13.0584 139.579C12.7835 139.304 12.5085 138.891 12.5085 138.478C12.5085 138.065 12.646 137.652 13.0584 137.377C13.7456 136.688 14.7078 136.688 15.3951 137.377L33.5392 155.547C33.1268 155.96 14.8453 137.652 14.8453 137.652C14.4329 137.239 13.7456 137.239 13.3333 137.652C13.1958 137.789 13.0584 138.065 13.0584 138.34C13.0584 138.615 13.1958 138.891 13.3333 139.028L33.2643 159.126C33.2643 159.676 33.1268 159.676 33.1268 159.676Z" fill="#1A1A1A"/>
<path d="M12.2334 71.7166C12.6458 70.3401 13.4705 69.5142 14.1578 68.6882C13.8829 69.7895 13.1956 70.6154 12.3709 71.5789L12.2334 71.7166ZM16.7694 66.6235C17.3192 65.3846 18.2814 64.5587 19.1062 63.8704C18.6938 64.9716 17.7316 65.7976 17.0443 66.6235C16.9069 66.6235 16.7694 66.6235 16.7694 66.6235ZM21.8553 62.3563C22.5425 61.1174 23.5047 60.5668 24.4669 59.8785C23.7796 60.9797 22.8175 61.5303 21.9927 62.2186C21.9927 62.2186 21.9927 62.3563 21.8553 62.3563ZM27.6284 58.7773C28.4531 57.6761 29.5528 57.2631 30.6524 56.8502C29.8277 57.8137 28.728 58.2267 27.6284 58.7773C27.7658 58.7773 27.7658 58.7773 27.6284 58.7773ZM33.9513 56.2996C34.9135 55.336 36.0132 55.0607 37.1128 54.9231C36.1506 55.6113 35.051 55.8866 33.9513 56.2996ZM54.8445 55.4737C54.5696 55.4737 54.4322 55.336 54.0198 55.1984C54.5696 54.7854 54.8445 54.7854 54.982 54.7854C54.982 55.4737 54.8445 55.4737 54.8445 55.4737ZM40.5492 54.7854C41.6488 54.0971 42.7485 53.9595 43.8481 53.8218C42.7485 54.5101 41.6488 54.6478 40.5492 54.7854ZM50.5834 54.7854C49.4838 54.6478 48.3841 54.5101 47.147 54.5101C48.2467 53.9595 49.4838 54.0971 50.5834 54.0971C50.8583 54.6478 50.8583 54.7854 50.5834 54.7854Z" fill="#1A1A1A"/>
<path d="M8.10986 130.632C7.83495 130.494 7.14767 129.393 6.18549 127.466C7.6975 129.117 8.38477 130.081 8.38477 130.219C8.24732 130.632 8.10986 130.632 8.10986 130.632ZM5.08585 124.575C4.39857 123.336 3.9862 122.235 3.57384 121.271C4.53602 122.097 4.94839 123.198 5.36076 124.162C5.08585 124.575 5.08585 124.575 5.08585 124.575ZM2.74911 118.243C2.19928 117.004 1.78692 115.903 1.51201 114.802C2.33674 115.765 2.61165 116.866 3.02402 117.968C2.74911 118.243 2.74911 118.243 2.74911 118.243ZM1.09964 111.636C0.549821 110.259 0.412366 109.158 0.274911 108.057C1.09964 109.02 1.2371 110.121 1.37455 111.223C1.09964 111.636 1.09964 111.636 1.09964 111.636ZM0.412366 104.891C0 103.927 0 103.101 0 102.413C0 102 0 101.587 0 101.174C0.549821 101.587 0.549821 102 0.549821 102.413C0.549821 103.101 0.549821 103.927 0.549821 104.615C0.412366 104.891 0.412366 104.891 0.412366 104.891ZM0.549821 98.1457C0.412366 96.6316 0.549821 95.5303 0.687276 94.4291C1.09964 95.668 0.962187 96.7692 0.824732 97.8704C0.824732 98.0081 0.687276 98.1457 0.549821 98.1457ZM1.78692 91.5384C1.78692 90.0243 2.19928 88.9231 2.4742 87.9595C2.61165 89.1984 2.33674 90.2996 2.06183 91.4008C1.92437 91.4008 1.92437 91.5384 1.78692 91.5384ZM3.9862 85.0688C3.84875 84.2429 3.9862 83.9676 4.26111 83.5546C4.39857 83.1417 4.67348 82.8664 4.81094 82.4534C5.08585 83.1417 4.94839 83.417 4.81094 83.8299C4.67348 84.2429 4.39857 84.5182 4.26111 84.9312C4.26111 85.0688 4.12366 85.0688 3.9862 85.0688Z" fill="#1A1A1A"/>
<path d="M69.2775 130.907C55.2571 120.17 47.0098 103.514 47.0098 86.3077C47.0098 55.6113 72.0266 30.5587 102.679 30.5587C133.332 30.5587 158.349 55.6113 158.349 86.3077C158.349 99.6599 153.538 112.599 144.74 122.785C152.988 112.462 157.661 99.5223 157.661 86.3077C157.661 55.8867 132.919 31.1093 102.542 31.1093C72.1641 31.1093 47.4221 55.8867 47.4221 86.3077C47.4221 103.239 55.532 119.757 69.2775 130.356C69.415 130.769 69.2775 130.907 69.2775 130.907Z" fill="#1A1A1A"/>
<path d="M121.51 27.668C121.236 27.2551 121.373 26.0162 122.06 23.9514C121.923 26.1539 121.785 27.3927 121.785 27.3927C121.785 27.5304 121.648 27.668 121.51 27.668ZM123.71 21.1984C123.985 19.8219 124.534 18.7207 125.084 17.7571C124.947 18.996 124.534 19.9595 123.985 21.0608C123.847 21.1984 123.847 21.1984 123.71 21.1984ZM127.146 15.417C127.558 14.0405 128.383 13.2146 129.208 12.3887C128.796 13.6276 128.108 14.4535 127.421 15.2794C127.421 15.417 127.284 15.417 127.146 15.417ZM131.82 10.5992C132.507 9.36035 133.469 8.67209 134.294 7.98384C133.744 9.08505 132.782 9.77331 131.957 10.4616C131.957 10.5992 131.957 10.5992 131.82 10.5992ZM178.829 9.63566C177.867 8.80975 176.905 8.12149 175.943 7.43323C177.317 7.57088 178.142 8.39679 178.967 9.08505C178.967 9.63566 178.829 9.63566 178.829 9.63566ZM137.455 6.88262C138.28 5.78141 139.38 5.36845 140.342 4.81784C139.517 5.78141 138.555 6.33201 137.593 6.74497C137.593 6.88262 137.455 6.88262 137.455 6.88262ZM173.194 5.91906C172.094 5.36845 170.994 4.9555 170.032 4.54254C171.269 4.40489 172.369 4.9555 173.331 5.36845C173.469 5.78141 173.331 5.91906 173.194 5.91906ZM143.641 4.26724C144.465 3.44133 145.565 3.02837 146.527 2.89072C145.703 3.57898 144.74 3.85428 143.641 4.26724C143.778 4.26724 143.778 4.26724 143.641 4.26724ZM167.008 3.30367C165.908 3.02837 164.809 2.75307 163.709 2.47776C164.946 2.06481 166.046 2.34011 167.146 2.61541C167.283 3.30367 167.146 3.30367 167.008 3.30367ZM150.239 2.61541C151.338 1.7895 152.438 1.65185 153.538 1.65185C152.575 2.34011 151.476 2.47776 150.239 2.61541ZM160.41 2.20246C159.448 2.06481 158.348 2.06481 157.386 2.06481C158.486 1.5142 159.448 1.5142 160.548 1.65185C160.685 2.06481 160.548 2.20246 160.41 2.20246Z" fill="#1A1A1A"/>
<path d="M209.207 81.7652C230.375 80.8017 247.557 63.1822 247.557 41.9838C247.557 20.3725 229.963 2.75306 208.382 2.75306C186.802 2.75306 169.208 20.3725 169.208 41.9838C169.208 62.081 184.19 78.7369 203.984 80.9393C183.778 79.2875 168.52 62.2186 168.52 41.9838C168.52 19.9595 186.389 2.20245 208.245 2.20245C230.238 2.20245 247.969 20.0972 247.969 41.9838C247.969 52.4454 243.983 62.3563 236.561 69.9272C229.413 77.3604 219.654 81.6276 209.207 81.7652Z" fill="#1A1A1A"/>
<path d="M238.21 151.692C239.035 150.591 239.997 150.04 240.959 149.49C240.409 150.591 239.31 151.142 238.21 151.692ZM243.983 148.251C244.67 147.012 245.633 146.324 246.457 145.636C245.907 146.874 245.083 147.563 244.121 148.113C244.121 148.251 244.121 148.251 243.983 148.251ZM249.206 143.846C249.756 142.607 250.581 141.781 251.406 140.955C251.131 142.194 250.306 143.02 249.481 143.846C249.344 143.846 249.344 143.846 249.206 143.846ZM253.742 138.891C254.155 137.514 254.842 136.551 255.529 135.725C255.392 136.964 254.705 137.927 254.017 138.753C253.88 138.891 253.88 138.891 253.742 138.891ZM257.454 133.247C257.729 131.87 258.278 130.769 258.691 129.806C258.691 131.045 258.141 132.146 257.591 133.109C257.729 133.247 257.591 133.247 257.454 133.247ZM260.34 127.19C260.478 125.814 260.89 124.713 261.165 123.611C261.44 124.85 261.028 125.951 260.615 127.053C260.615 127.053 260.478 127.19 260.34 127.19ZM262.402 120.721C262.402 119.344 262.677 118.243 262.814 117.004C263.227 118.243 262.952 119.344 262.677 120.445C262.677 120.583 262.54 120.721 262.402 120.721ZM263.639 114.113C263.502 112.737 263.639 111.498 263.639 110.397C264.189 111.636 264.052 112.737 263.914 113.838C263.914 113.976 263.777 114.113 263.639 114.113Z" fill="#1A1A1A"/>
<path d="M263.502 94.2915C263.089 92.915 262.952 91.8138 262.677 90.7126C263.502 91.6761 263.639 92.7774 263.777 94.0162C263.502 94.2915 263.502 94.2915 263.502 94.2915ZM262.265 87.5466C261.715 86.1701 261.44 85.0688 261.165 84.1053C261.99 85.0688 262.265 86.1701 262.54 87.2713C262.402 87.5466 262.265 87.5466 262.265 87.5466ZM260.478 81.0769C259.79 79.8381 259.378 78.7369 258.966 77.7733C259.928 78.5992 260.34 79.7004 260.753 80.664C260.478 81.0769 260.478 81.0769 260.478 81.0769ZM257.866 74.8826C257.041 73.6437 256.629 72.6802 256.079 71.7166C257.179 72.4049 257.729 73.3684 258.141 74.4697C257.866 74.8826 257.866 74.8826 257.866 74.8826ZM254.43 68.9636C253.605 67.8624 252.918 67.0365 252.23 66.0729C253.33 66.6235 254.017 67.5871 254.705 68.5506C254.567 68.9636 254.567 68.9636 254.43 68.9636ZM250.306 63.5952C248.657 61.9433 247.694 61.1174 247.694 61.1174C248.107 60.7045 249.069 61.3927 250.581 63.0446C250.443 63.5952 250.443 63.5952 250.306 63.5952Z" fill="#1A1A1A"/>
<path d="M171.682 108.607C171.407 108.332 171.132 104.202 169.345 101.312C169.895 100.899 171.544 102.138 172.232 103.652L183.228 101.312C183.091 100.348 182.541 96.9069 179.792 95.2551C177.592 93.8786 174.568 94.0162 170.72 95.5304C174.568 93.328 177.73 93.328 180.066 94.8421C183.365 96.9069 183.778 101.449 183.778 101.587C183.503 101.862 172.094 104.34 172.094 104.34C171.544 103.514 170.994 102.826 170.582 102.413C171.819 105.166 171.957 108.194 171.957 108.332C171.682 108.607 171.682 108.607 171.682 108.607Z" fill="#1A1A1A"/>
</svg>
