<svg xmlns="http://www.w3.org/2000/svg" version="1.1" xmlns:xlink="http://www.w3.org/1999/xlink" xmlns:svgjs="http://svgjs.com/svgjs" width="100" height="100"><svg width="100" height="100" viewBox="0 0 100 100" fill="none" xmlns="http://www.w3.org/2000/svg">
<g clip-path="url(#clip0_101_431)">
<path d="M82.5201 0H17.4799C7.826 0 0 7.826 0 17.4799V82.5201C0 92.174 7.826 100 17.4799 100H82.5201C92.174 100 100 92.174 100 82.5201V17.4799C100 7.826 92.174 0 82.5201 0Z" fill="#444444"></path>
<g clip-path="url(#clip1_101_431)">
<path d="M37.6445 25C24.0567 25 13 36.2162 13 50C13 63.7838 24.0567 75 37.6445 75C51.2322 75 62.2889 63.7838 62.2889 50C62.2889 36.2162 51.2988 25 37.6445 25ZM37.6445 72.0946C25.6553 72.0946 15.9307 62.2297 15.9307 50C15.9307 37.8378 25.6553 27.973 37.6445 27.973C49.6337 27.973 59.4248 37.8378 59.4248 50C59.4248 62.2297 49.7003 72.0946 37.6445 72.0946Z" fill="#0CD494"></path>
<path d="M36.1125 68.5811V63.9865C33.5148 63.9189 30.8506 63.1081 29.3186 62.027L30.3843 58.9865C31.9829 60.0676 34.3141 60.9459 36.7786 60.9459C39.9757 60.9459 42.1071 59.1216 42.1071 56.4865C42.1071 53.9865 40.3753 52.4324 37.045 51.0811C32.5157 49.2568 29.6516 47.1622 29.6516 43.2432C29.6516 39.4595 32.3159 36.6216 36.3789 35.9459V31.4189H39.1764V35.8108C41.8407 35.8784 43.7056 36.6216 44.9712 37.3649L43.8389 40.3378C42.973 39.8649 41.108 38.8513 38.3105 38.8513C34.847 38.8513 33.5814 40.9459 33.5814 42.7703C33.5814 45.1351 35.2466 46.2838 39.1098 47.9054C43.7056 49.7973 46.0369 52.1622 46.0369 56.2162C46.0369 59.7973 43.5724 63.1081 38.9766 63.9189V68.6486H36.1125V68.5811Z" fill="#0CD494"></path>
<path d="M75.4104 44.3243V40.6081C75.4104 39.9324 74.8776 39.3919 74.2115 39.3919H61.1566C62.0225 41.2838 62.622 43.3108 62.955 45.473H74.2781C74.8776 45.5405 75.4104 45 75.4104 44.3243Z" fill="#0CD494"></path>
<path d="M63.2214 52.7703H85.8677C86.5337 52.7703 87.0666 52.2297 87.0666 51.5541V47.8378C87.0666 47.1622 86.5337 46.6216 85.8677 46.6216H63.1548C63.288 47.7027 63.3546 48.7838 63.3546 49.9324C63.3546 50.946 63.288 51.8919 63.2214 52.7703Z" fill="#0CD494"></path>
<path d="M82.9369 58.8513V55.1351C82.9369 54.4595 82.4041 53.9189 81.738 53.9189H63.0881C62.7551 56.0135 62.2223 58.0405 61.423 60H81.8046C82.4041 60 82.9369 59.4595 82.9369 58.8513Z" fill="#0CD494"></path>
<path d="M86.3339 66.0811V62.3649C86.3339 61.6892 85.801 61.1487 85.1349 61.1487H60.8901C59.8244 63.3784 58.4923 65.4054 56.9603 67.2297H85.2016C85.801 67.2973 86.3339 66.7568 86.3339 66.0811Z" fill="#0CD494"></path>
<path d="M79.1404 73.3108V69.5946C79.1404 68.9189 78.6075 68.3784 77.9415 68.3784H55.8281C53.2304 71.0135 50.0333 73.1081 46.4365 74.4595H78.0081C78.6741 74.527 79.1404 73.9865 79.1404 73.3108Z" fill="#0CD494"></path>
</g>
</g>
<defs>
<clipPath id="SvgjsClipPath1001">
<rect width="100" height="100" fill="white"></rect>
</clipPath>
<clipPath id="SvgjsClipPath1000">
<rect width="74" height="50" fill="white" transform="translate(13 25)"></rect>
</clipPath>
</defs>
</svg><style>@media (prefers-color-scheme: light) { :root { filter: none; } }
</style></svg>